<svg xmlns="http://www.w3.org/2000/svg" preserveAspectRatio="xMidYMid meet" viewBox="0 0 16 16" fill="none">
    <path d="M13 2.5H3C2.73478 2.5 2.48043 2.60536 2.29289 2.79289C2.10536 2.98043 2 3.23478 2 3.5V13.5C2 13.7652 2.10536 14.0196 2.29289 14.2071C2.48043 14.3946 2.73478 14.5 3 14.5H13C13.2652 14.5 13.5196 14.3946 13.7071 14.2071C13.8946 14.0196 14 13.7652 14 13.5V3.5C14 3.23478 13.8946 2.98043 13.7071 2.79289C13.5196 2.60536 13.2652 2.5 13 2.5ZM3 3.5H13V8.33625L11.4569 6.7925C11.2694 6.60511 11.0151 6.49984 10.75 6.49984C10.4849 6.49984 10.2306 6.60511 10.0431 6.7925L3.33562 13.5H3V3.5ZM13 13.5H4.75L10.75 7.5L13 9.75V13.5ZM6 8C6.29667 8 6.58668 7.91203 6.83336 7.7472C7.08003 7.58238 7.27229 7.34811 7.38582 7.07403C7.49935 6.79994 7.52906 6.49834 7.47118 6.20736C7.4133 5.91639 7.27044 5.64912 7.06066 5.43934C6.85088 5.22956 6.58361 5.0867 6.29264 5.02882C6.00166 4.97094 5.70006 5.00065 5.42597 5.11418C5.15189 5.22771 4.91762 5.41997 4.7528 5.66664C4.58797 5.91332 4.5 6.20333 4.5 6.5C4.5 6.89782 4.65804 7.27936 4.93934 7.56066C5.22064 7.84196 5.60218 8 6 8ZM6 6C6.09889 6 6.19556 6.02932 6.27779 6.08427C6.36001 6.13921 6.4241 6.2173 6.46194 6.30866C6.49978 6.40002 6.50969 6.50055 6.49039 6.59755C6.4711 6.69454 6.42348 6.78363 6.35355 6.85355C6.28363 6.92348 6.19454 6.9711 6.09755 6.99039C6.00055 7.00969 5.90002 6.99978 5.80866 6.96194C5.7173 6.9241 5.63921 6.86001 5.58427 6.77779C5.52932 6.69556 5.5 6.59889 5.5 6.5C5.5 6.36739 5.55268 6.24021 5.64645 6.14645C5.74021 6.05268 5.86739 6 6 6Z"
          fill="#2A292E"/>
</svg>
