<svg xmlns="http://www.w3.org/2000/svg" preserveAspectRatio="xMidYMid meet" viewBox="0 0 16 16" fill="none">
    <path d="M3.37006 2.16395C3.32616 2.11445 3.27286 2.07417 3.21326 2.04542C3.15367 2.01667 3.08896 2.00004 3.02289 1.99649C2.95682 1.99293 2.89071 2.00253 2.82837 2.02471C2.76604 2.0469 2.70872 2.08124 2.65976 2.12574C2.61079 2.17024 2.57115 2.22401 2.54312 2.28395C2.51509 2.34388 2.49923 2.40878 2.49647 2.47489C2.49371 2.541 2.50409 2.607 2.52703 2.66906C2.54996 2.73113 2.58498 2.78802 2.63007 2.83645L4.21069 4.5752C3.53601 4.72617 2.90686 5.03528 2.37506 5.47708C2.26564 5.56506 2.17598 5.67511 2.1119 5.80004C2.04783 5.92498 2.01078 6.06201 2.00318 6.20221C1.99557 6.34242 2.01758 6.48265 2.06776 6.61379C2.11794 6.74492 2.19518 6.86402 2.29444 6.96333L5.31256 9.98208L2.64631 12.6465C2.55249 12.7403 2.49979 12.8675 2.49979 13.0002C2.49979 13.1329 2.55249 13.2601 2.64631 13.354C2.74014 13.4478 2.86738 13.5005 3.00006 13.5005C3.13275 13.5005 3.25999 13.4478 3.35381 13.354L6.01819 10.6877L9.03631 13.7058C9.1291 13.799 9.23935 13.873 9.36075 13.9235C9.48215 13.974 9.61232 14.0001 9.74381 14.0002C9.76756 14.0002 9.79069 14.0002 9.81444 14.0002C9.95699 13.9903 10.0957 13.9499 10.2213 13.8816C10.3468 13.8133 10.4562 13.7189 10.5419 13.6046C10.8373 13.2156 11.0806 12.7897 11.2657 12.3377L12.6307 13.8377C12.6746 13.8872 12.7279 13.9275 12.7875 13.9562C12.8471 13.985 12.9118 14.0016 12.9779 14.0052C13.0439 14.0087 13.11 13.9991 13.1724 13.9769C13.2347 13.9548 13.292 13.9204 13.341 13.8759C13.39 13.8314 13.4296 13.7776 13.4576 13.7177C13.4857 13.6578 13.5015 13.5929 13.5043 13.5268C13.507 13.4607 13.4967 13.3947 13.4737 13.3326C13.4508 13.2705 13.4158 13.2136 13.3707 13.1652L3.37006 2.16395ZM9.74381 13.0002L3.00006 6.2552C3.63944 5.73958 4.32507 5.4827 5.04132 5.48833L10.4888 11.4808C10.3494 12.0977 10.0151 12.6396 9.74381 13.0002ZM14.7076 6.5002L11.9176 9.29957C11.8712 9.34607 11.8161 9.38298 11.7555 9.40819C11.6948 9.4334 11.6298 9.44642 11.5642 9.44651C11.4985 9.44659 11.4335 9.43375 11.3728 9.4087C11.312 9.38365 11.2569 9.34689 11.2104 9.30051C11.1639 9.25414 11.127 9.19906 11.1018 9.13843C11.0766 9.07779 11.0635 9.01278 11.0634 8.94711C11.0634 8.88144 11.0762 8.8164 11.1013 8.7557C11.1263 8.695 11.1631 8.63982 11.2094 8.59333L14.0001 5.79395L10.2076 2.0002L7.63131 4.58458C7.53694 4.67456 7.41115 4.72412 7.28076 4.72269C7.15038 4.72125 7.02571 4.66894 6.93334 4.57689C6.84097 4.48485 6.78822 4.36037 6.78632 4.22999C6.78442 4.0996 6.83354 3.97364 6.92319 3.87895L9.50006 1.29395C9.59293 1.20107 9.70318 1.12739 9.82452 1.07712C9.94586 1.02685 10.0759 1.00098 10.2073 1.00098C10.3386 1.00098 10.4686 1.02685 10.59 1.07712C10.7113 1.12739 10.8216 1.20107 10.9144 1.29395L14.7076 5.08645C14.895 5.27397 15.0002 5.52822 15.0002 5.79333C15.0002 6.05843 14.895 6.31268 14.7076 6.5002Z" fill="#363440"/>
</svg>
