<svg xmlns="http://www.w3.org/2000/svg" preserveAspectRatio="xMidYMid meet" viewBox="0 0 16 16" fill="none">
    <path d="M8 2C6.71442 2 5.45772 2.38122 4.3888 3.09545C3.31988 3.80968 2.48676 4.82484 1.99479 6.01256C1.50282 7.20028 1.37409 8.50721 1.6249 9.76809C1.8757 11.029 2.49477 12.1872 3.40381 13.0962C4.31285 14.0052 5.47104 14.6243 6.73192 14.8751C7.99279 15.1259 9.29973 14.9972 10.4874 14.5052C11.6752 14.0132 12.6903 13.1801 13.4046 12.1112C14.1188 11.0423 14.5 9.78558 14.5 8.5C14.4982 6.77665 13.8128 5.12441 12.5942 3.90582C11.3756 2.68722 9.72335 2.00182 8 2ZM8 14C6.91221 14 5.84884 13.6774 4.94437 13.0731C4.0399 12.4687 3.33495 11.6098 2.91867 10.6048C2.50238 9.59977 2.39347 8.4939 2.60568 7.427C2.8179 6.36011 3.34173 5.3801 4.11092 4.61091C4.8801 3.84172 5.86011 3.3179 6.92701 3.10568C7.9939 2.89346 9.09977 3.00238 10.1048 3.41866C11.1098 3.83494 11.9687 4.53989 12.5731 5.44436C13.1774 6.34883 13.5 7.4122 13.5 8.5C13.4983 9.95818 12.9184 11.3562 11.8873 12.3873C10.8562 13.4184 9.45819 13.9983 8 14ZM10.8538 7.14625C10.9002 7.19269 10.9371 7.24783 10.9623 7.30853C10.9874 7.36923 11.0004 7.43429 11.0004 7.5C11.0004 7.56571 10.9874 7.63077 10.9623 7.69147C10.9371 7.75217 10.9002 7.80731 10.8538 7.85375L8.35375 10.3538C8.30732 10.4002 8.25217 10.4371 8.19147 10.4623C8.13077 10.4874 8.06571 10.5004 8 10.5004C7.9343 10.5004 7.86923 10.4874 7.80853 10.4623C7.74783 10.4371 7.69269 10.4002 7.64625 10.3538L5.14625 7.85375C5.05243 7.75993 4.99972 7.63268 4.99972 7.5C4.99972 7.36732 5.05243 7.24007 5.14625 7.14625C5.24007 7.05243 5.36732 6.99972 5.5 6.99972C5.63268 6.99972 5.75993 7.05243 5.85375 7.14625L8 9.29313L10.1463 7.14625C10.1927 7.09976 10.2478 7.06288 10.3085 7.03772C10.3692 7.01256 10.4343 6.99961 10.5 6.99961C10.5657 6.99961 10.6308 7.01256 10.6915 7.03772C10.7522 7.06288 10.8073 7.09976 10.8538 7.14625Z"
          fill="#2A292E"/>
</svg>
