<svg xmlns="http://www.w3.org/2000/svg" preserveAspectRatio="xMidYMid meet" viewBox="0 0 20 20" fill="none">
    <path d="M14.1923 10.442L7.94229 16.692C7.88422 16.7501 7.81528 16.7962 7.73941 16.8276C7.66354 16.859 7.58223 16.8752 7.5001 16.8752C7.41798 16.8752 7.33666 16.859 7.26079 16.8276C7.18492 16.7962 7.11598 16.7501 7.05792 16.692C6.99985 16.634 6.95378 16.565 6.92236 16.4892C6.89093 16.4133 6.87476 16.332 6.87476 16.2499C6.87476 16.1677 6.89093 16.0864 6.92236 16.0105C6.95378 15.9347 6.99985 15.8657 7.05792 15.8077L12.8665 9.99986L7.05792 4.19205C6.94064 4.07477 6.87476 3.91571 6.87476 3.74986C6.87476 3.58401 6.94064 3.42495 7.05792 3.30767C7.17519 3.1904 7.33425 3.12451 7.5001 3.12451C7.66596 3.12451 7.82502 3.1904 7.94229 3.30767L14.1923 9.55767C14.2504 9.61572 14.2965 9.68465 14.328 9.76052C14.3594 9.8364 14.3756 9.91772 14.3756 9.99986C14.3756 10.082 14.3594 10.1633 14.328 10.2392C14.2965 10.3151 14.2504 10.384 14.1923 10.442Z"
          fill="#343330"/>
</svg>
