<svg xmlns="http://www.w3.org/2000/svg" preserveAspectRatio="xMidYMid meet" viewBox="0 0 20 20" fill="none">
    <path d="M4.2124 2.70469C4.15751 2.64282 4.09089 2.59246 4.0164 2.55653C3.9419 2.5206 3.86102 2.49981 3.77843 2.49536C3.69585 2.49092 3.6132 2.50291 3.53528 2.53065C3.45736 2.55838 3.38572 2.6013 3.32452 2.65693C3.26331 2.71255 3.21375 2.77977 3.17871 2.85469C3.14368 2.92961 3.12386 3.01074 3.1204 3.09337C3.11695 3.17601 3.12993 3.2585 3.1586 3.33608C3.18727 3.41366 3.23104 3.48478 3.2874 3.54532L5.26318 5.71876C4.41983 5.90747 3.63339 6.29386 2.96865 6.8461C2.83187 6.95608 2.71979 7.09364 2.6397 7.24981C2.5596 7.40598 2.5133 7.57727 2.50379 7.75252C2.49428 7.92778 2.52179 8.10307 2.58452 8.26699C2.64724 8.43091 2.74379 8.57978 2.86787 8.70391L6.64052 12.4774L3.30771 15.8078C3.19044 15.9251 3.12455 16.0842 3.12455 16.25C3.12455 16.4159 3.19044 16.5749 3.30771 16.6922C3.42499 16.8095 3.58405 16.8754 3.7499 16.8754C3.91575 16.8754 4.07481 16.8095 4.19209 16.6922L7.52255 13.3594L11.2952 17.132C11.4112 17.2485 11.549 17.341 11.7008 17.4041C11.8525 17.4672 12.0152 17.4998 12.1796 17.5C12.2093 17.5 12.2382 17.5 12.2679 17.5C12.4461 17.4877 12.6195 17.4371 12.7764 17.3518C12.9333 17.2664 13.07 17.1483 13.1772 17.0055C13.5465 16.5192 13.8506 15.9869 14.0819 15.4219L15.7882 17.2969C15.8431 17.3588 15.9097 17.4091 15.9842 17.445C16.0587 17.481 16.1396 17.5018 16.2221 17.5062C16.3047 17.5107 16.3874 17.4987 16.4653 17.4709C16.5432 17.4432 16.6149 17.4003 16.6761 17.3446C16.7373 17.289 16.7868 17.2218 16.8219 17.1469C16.8569 17.072 16.8767 16.9908 16.8802 16.9082C16.8836 16.8256 16.8706 16.7431 16.842 16.6655C16.8133 16.5879 16.7695 16.5168 16.7132 16.4563L4.2124 2.70469ZM12.1796 16.25L3.7499 7.81876C4.54912 7.17423 5.40615 6.85313 6.30146 6.86016L13.1108 14.3508C12.9366 15.1219 12.5186 15.7992 12.1796 16.25ZM18.3843 8.12501L14.8968 11.6242C14.8388 11.6823 14.77 11.7285 14.6942 11.76C14.6184 11.7915 14.5371 11.8078 14.455 11.8079C14.3729 11.808 14.2916 11.7919 14.2158 11.7606C14.1399 11.7293 14.0709 11.6834 14.0128 11.6254C13.9547 11.5674 13.9085 11.4986 13.877 11.4228C13.8455 11.347 13.8292 11.2657 13.8291 11.1836C13.829 11.1016 13.8451 11.0203 13.8764 10.9444C13.9077 10.8685 13.9537 10.7995 14.0116 10.7414L17.4999 7.24219L12.7593 2.50001L9.53896 5.73048C9.421 5.84296 9.26376 5.90491 9.10077 5.90311C8.93779 5.90132 8.78195 5.83593 8.66649 5.72087C8.55103 5.60582 8.48509 5.45022 8.48272 5.28724C8.48035 5.12426 8.54174 4.9668 8.6538 4.84844L11.8749 1.61719C11.991 1.50109 12.1288 1.40899 12.2805 1.34615C12.4321 1.28332 12.5947 1.25098 12.7589 1.25098C12.9231 1.25098 13.0856 1.28332 13.2373 1.34615C13.389 1.40899 13.5268 1.50109 13.6429 1.61719L18.3843 6.35782C18.6185 6.59222 18.7501 6.91003 18.7501 7.24141C18.7501 7.57279 18.6185 7.89061 18.3843 8.12501Z"
          fill="#2A292E"/>
</svg>
