<svg xmlns="http://www.w3.org/2000/svg" preserveAspectRatio="xMidYMid meet" viewBox="0 0 12 12" fill="none">
    <path d="M10.8937 5.36671L4.14 1.23515C4.02613 1.16542 3.89572 1.12736 3.76222 1.12488C3.62873 1.12241 3.49699 1.15562 3.38063 1.22108C3.26536 1.28553 3.16935 1.37951 3.10245 1.49337C3.03556 1.60722 3.00019 1.73684 3 1.8689V10.1311C3.00087 10.3292 3.08036 10.5188 3.221 10.6583C3.36164 10.7978 3.55191 10.8757 3.75 10.875C3.88826 10.8749 4.02383 10.8368 4.14188 10.7648L10.8937 6.63327C11.0023 6.56712 11.092 6.47417 11.1542 6.36335C11.2164 6.25253 11.2491 6.12756 11.2491 6.00046C11.2491 5.87336 11.2164 5.74839 11.1542 5.63757C11.092 5.52675 11.0023 5.4338 10.8937 5.36765V5.36671ZM3.75 10.1222V1.87499L10.492 5.99999L3.75 10.1222Z"
          fill="#6F6C7D"/>
</svg>
