<svg xmlns="http://www.w3.org/2000/svg" preserveAspectRatio="xMidYMid meet" viewBox="0 0 12 12" fill="none">
    <path d="M11.1005 8.81675L7.00128 1.69784C6.89885 1.52343 6.75261 1.37882 6.57707 1.27834C6.40152 1.17786 6.20277 1.125 6.0005 1.125C5.79824 1.125 5.59948 1.17786 5.42394 1.27834C5.24839 1.37882 5.10216 1.52343 4.99972 1.69784L0.900503 8.81675C0.801942 8.98544 0.75 9.17731 0.75 9.37269C0.75 9.56806 0.801942 9.75993 0.900503 9.92862C1.00163 10.1041 1.14761 10.2495 1.32348 10.3499C1.49936 10.4503 1.69878 10.5021 1.90128 10.5H10.0997C10.3021 10.502 10.5013 10.4501 10.677 10.3497C10.8527 10.2493 10.9985 10.1039 11.0996 9.92862C11.1983 9.76001 11.2504 9.56819 11.2505 9.37281C11.2507 9.17744 11.1989 8.98553 11.1005 8.81675ZM10.4503 9.55316C10.4146 9.61411 10.3633 9.66447 10.3017 9.69907C10.2401 9.73367 10.1704 9.75125 10.0997 9.75003H1.90128C1.83063 9.75125 1.76093 9.73367 1.69931 9.69907C1.6377 9.66447 1.5864 9.61411 1.55066 9.55316C1.51829 9.49835 1.50121 9.43587 1.50121 9.37222C1.50121 9.30857 1.51829 9.24608 1.55066 9.19128L5.64988 2.07237C5.68634 2.01171 5.73787 1.9615 5.79948 1.92665C5.86108 1.8918 5.93066 1.87348 6.00144 1.87348C6.07222 1.87348 6.1418 1.8918 6.2034 1.92665C6.26501 1.9615 6.31655 2.01171 6.353 2.07237L10.4522 9.19128C10.4843 9.24625 10.5011 9.30882 10.5007 9.37247C10.5004 9.43612 10.483 9.49852 10.4503 9.55316ZM5.6255 6.75003V4.87503C5.6255 4.77557 5.66501 4.68019 5.73534 4.60987C5.80566 4.53954 5.90105 4.50003 6.0005 4.50003C6.09996 4.50003 6.19534 4.53954 6.26567 4.60987C6.33599 4.68019 6.3755 4.77557 6.3755 4.87503V6.75003C6.3755 6.84949 6.33599 6.94487 6.26567 7.0152C6.19534 7.08552 6.09996 7.12503 6.0005 7.12503C5.90105 7.12503 5.80566 7.08552 5.73534 7.0152C5.66501 6.94487 5.6255 6.84949 5.6255 6.75003ZM6.563 8.43753C6.563 8.54878 6.53001 8.65754 6.4682 8.75004C6.4064 8.84254 6.31855 8.91464 6.21576 8.95721C6.11298 8.99979 5.99988 9.01093 5.89076 8.98922C5.78165 8.96752 5.68142 8.91394 5.60276 8.83528C5.52409 8.75661 5.47052 8.65638 5.44881 8.54727C5.42711 8.43815 5.43825 8.32505 5.48082 8.22227C5.52339 8.11949 5.59549 8.03164 5.68799 7.96983C5.7805 7.90802 5.88925 7.87503 6.0005 7.87503C6.14969 7.87503 6.29276 7.93429 6.39825 8.03978C6.50374 8.14527 6.563 8.28835 6.563 8.43753Z"
          fill="#E26E6E"/>
</svg>
