<svg xmlns="http://www.w3.org/2000/svg" preserveAspectRatio="xMidYMid meet" viewBox="0 0 16 16" fill="none">
    <path d="M14.25 10.9373C14.1929 10.9699 14.1299 10.9909 14.0647 10.9991C13.9994 11.0073 13.9332 11.0026 13.8698 10.9851C13.8064 10.9677 13.7471 10.938 13.6952 10.8976C13.6433 10.8572 13.5999 10.807 13.5675 10.7498L12.38 8.67485C11.6896 9.14165 10.928 9.4933 10.125 9.7161L10.4918 11.9173C10.5027 11.9822 10.5006 12.0485 10.4858 12.1125C10.471 12.1765 10.4437 12.2369 10.4055 12.2904C10.3673 12.3438 10.319 12.3893 10.2632 12.424C10.2075 12.4588 10.1454 12.4822 10.0806 12.493C10.0539 12.4973 10.027 12.4996 9.99997 12.4998C9.88168 12.4997 9.76729 12.4576 9.67712 12.381C9.58695 12.3045 9.52684 12.1984 9.50747 12.0817L9.14684 9.92047C8.38634 10.0263 7.61485 10.0263 6.85434 9.92047L6.49372 12.0817C6.47431 12.1986 6.41402 12.3048 6.32359 12.3814C6.23316 12.458 6.11847 12.5 5.99997 12.4998C5.97233 12.4997 5.94474 12.4974 5.91747 12.493C5.85266 12.4822 5.7906 12.4588 5.73485 12.424C5.6791 12.3893 5.63074 12.3438 5.59255 12.2904C5.55435 12.2369 5.52707 12.1765 5.51226 12.1125C5.49745 12.0485 5.49539 11.9822 5.50622 11.9173L5.87497 9.7161C5.07224 9.4926 4.31109 9.14031 3.62122 8.67297L2.43747 10.7498C2.37116 10.8654 2.26168 10.9498 2.1331 10.9847C2.00452 11.0195 1.86738 11.0018 1.75184 10.9355C1.63631 10.8692 1.55184 10.7597 1.51703 10.6311C1.48222 10.5025 1.49991 10.3654 1.56622 10.2498L2.81622 8.06235C2.37716 7.68302 1.97342 7.26464 1.60997 6.81235C1.56464 6.76174 1.53011 6.70243 1.50847 6.63803C1.48683 6.57363 1.47854 6.5055 1.4841 6.43779C1.48967 6.37008 1.50898 6.30421 1.54085 6.24422C1.57272 6.18422 1.61648 6.13134 1.66946 6.08882C1.72245 6.0463 1.78354 6.01502 1.84902 5.99689C1.91449 5.97876 1.98297 5.97417 2.05028 5.98339C2.11759 5.99261 2.18232 6.01545 2.2405 6.05052C2.29869 6.08559 2.34912 6.13214 2.38872 6.18735C3.42622 7.4711 5.24122 8.99985 7.99997 8.99985C10.7587 8.99985 12.5737 7.46922 13.6112 6.18735C13.6504 6.13101 13.7007 6.08333 13.759 6.04728C13.8174 6.01123 13.8826 5.98757 13.9505 5.97778C14.0184 5.96798 14.0875 5.97227 14.1537 5.99036C14.2199 6.00846 14.2816 6.03998 14.3351 6.08296C14.3886 6.12594 14.4326 6.17946 14.4645 6.24019C14.4964 6.30093 14.5155 6.36758 14.5205 6.43599C14.5255 6.50441 14.5164 6.57313 14.4937 6.63787C14.4711 6.70262 14.4353 6.76201 14.3887 6.81235C14.0253 7.26464 13.6215 7.68302 13.1825 8.06235L14.4325 10.2498C14.466 10.3069 14.4879 10.37 14.4969 10.4355C14.5059 10.5011 14.5018 10.5678 14.4848 10.6317C14.4678 10.6957 14.4383 10.7556 14.398 10.8081C14.3577 10.8605 14.3074 10.9045 14.25 10.9373Z" fill="#363440"/>
</svg>
