<svg width="16" height="16" viewBox="0 0 16 16" fill="none" xmlns="http://www.w3.org/2000/svg">
<path d="M13 5.5H7C6.17157 5.5 5.5 6.17157 5.5 7V13C5.5 13.8284 6.17157 14.5 7 14.5H13C13.8284 14.5 14.5 13.8284 14.5 13V7C14.5 6.17157 13.8284 5.5 13 5.5Z" stroke="#363440" stroke-linecap="round" stroke-linejoin="round"/>
<path d="M10.5 5.5V3C10.5 2.60218 10.342 2.22064 10.0607 1.93934C9.77936 1.65804 9.39782 1.5 9 1.5H3C2.60218 1.5 2.22064 1.65804 1.93934 1.93934C1.65804 2.22064 1.5 2.60218 1.5 3V9C1.5 9.39782 1.65804 9.77936 1.93934 10.0607C2.22064 10.342 2.60218 10.5 3 10.5H5.5" stroke="#363440" stroke-linecap="round" stroke-linejoin="round"/>
</svg>
