<svg width="20" height="20" viewBox="0 0 20 20" fill="none" xmlns="http://www.w3.org/2000/svg">
<path d="M10 10.9375C10.5178 10.9375 10.9375 10.5178 10.9375 10C10.9375 9.48223 10.5178 9.0625 10 9.0625C9.48223 9.0625 9.0625 9.48223 9.0625 10C9.0625 10.5178 9.48223 10.9375 10 10.9375Z" fill="#363440"/>
<path d="M14.375 10.9375C14.8928 10.9375 15.3125 10.5178 15.3125 10C15.3125 9.48223 14.8928 9.0625 14.375 9.0625C13.8572 9.0625 13.4375 9.48223 13.4375 10C13.4375 10.5178 13.8572 10.9375 14.375 10.9375Z" fill="#363440"/>
<path d="M5.625 10.9375C6.14277 10.9375 6.5625 10.5178 6.5625 10C6.5625 9.48223 6.14277 9.0625 5.625 9.0625C5.10723 9.0625 4.6875 9.48223 4.6875 10C4.6875 10.5178 5.10723 10.9375 5.625 10.9375Z" fill="#363440"/>
</svg>
