<svg xmlns="http://www.w3.org/2000/svg" preserveAspectRatio="xMidYMid meet" viewBox="0 0 20 20" fill="none">
    <path d="M11.5376 14.0625C11.5376 14.2479 11.4826 14.4292 11.3796 14.5833C11.2766 14.7375 11.1302 14.8577 10.9589 14.9286C10.7876 14.9996 10.5991 15.0182 10.4172 14.982C10.2353 14.9458 10.0683 14.8565 9.93719 14.7254C9.80608 14.5943 9.71679 14.4273 9.68061 14.2454C9.64444 14.0635 9.66301 13.875 9.73396 13.7037C9.80492 13.5324 9.92508 13.386 10.0793 13.283C10.2334 13.18 10.4147 13.125 10.6001 13.125C10.8487 13.125 11.0872 13.2238 11.263 13.3996C11.4388 13.5754 11.5376 13.8139 11.5376 14.0625ZM10.6001 5.625C8.87666 5.625 7.4751 6.88672 7.4751 8.4375V8.75C7.4751 8.91576 7.54095 9.07473 7.65816 9.19194C7.77537 9.30915 7.93434 9.375 8.1001 9.375C8.26586 9.375 8.42483 9.30915 8.54204 9.19194C8.65925 9.07473 8.7251 8.91576 8.7251 8.75V8.4375C8.7251 7.57812 9.56651 6.875 10.6001 6.875C11.6337 6.875 12.4751 7.57812 12.4751 8.4375C12.4751 9.29688 11.6337 10 10.6001 10C10.4343 10 10.2754 10.0658 10.1582 10.1831C10.0409 10.3003 9.9751 10.4592 9.9751 10.625V11.25C9.9751 11.4158 10.0409 11.5747 10.1582 11.6919C10.2754 11.8092 10.4343 11.875 10.6001 11.875C10.7659 11.875 10.9248 11.8092 11.042 11.6919C11.1593 11.5747 11.2251 11.4158 11.2251 11.25V11.1938C12.6501 10.932 13.7251 9.79531 13.7251 8.4375C13.7251 6.88672 12.3235 5.625 10.6001 5.625ZM18.7251 10C18.7251 11.607 18.2486 13.1779 17.3558 14.514C16.463 15.8502 15.1941 16.8916 13.7094 17.5065C12.2248 18.1215 10.5911 18.2824 9.01499 17.9689C7.4389 17.6554 5.99116 16.8815 4.85486 15.7452C3.71856 14.6089 2.94473 13.1612 2.63122 11.5851C2.31772 10.009 2.47862 8.37535 3.09358 6.8907C3.70854 5.40605 4.74994 4.1371 6.08609 3.24431C7.42224 2.35152 8.99313 1.875 10.6001 1.875C12.7543 1.87727 14.8196 2.73403 16.3428 4.25727C17.8661 5.78051 18.7228 7.84581 18.7251 10ZM17.4751 10C17.4751 8.64025 17.0719 7.31104 16.3165 6.18045C15.561 5.04987 14.4873 4.16868 13.2311 3.64833C11.9748 3.12798 10.5925 2.99183 9.25886 3.2571C7.92524 3.52237 6.70023 4.17716 5.73874 5.13864C4.77726 6.10013 4.12248 7.32513 3.8572 8.65875C3.59193 9.99237 3.72808 11.3747 4.24843 12.6309C4.76878 13.8872 5.64997 14.9609 6.78056 15.7164C7.91114 16.4718 9.24035 16.875 10.6001 16.875C12.4228 16.8729 14.1703 16.1479 15.4592 14.8591C16.748 13.5702 17.473 11.8227 17.4751 10Z"
          fill="#9095A3"/>
</svg>
