<svg xmlns="http://www.w3.org/2000/svg" preserveAspectRatio="xMidYMid meet" viewBox="0 0 178 161" fill="none">
    <g clip-path="url(#clip0_1658_3350)">
        <path d="M176.439 61.701C176.375 61.701 176.313 61.6815 176.261 61.645L89.8965 1.46324C89.6337 1.28095 89.3214 1.18353 89.0016 1.18408C88.6818 1.18462 88.3698 1.28311 88.1076 1.4663L2.36572 61.6444C2.2979 61.692 2.21397 61.7107 2.13238 61.6964C2.05079 61.682 1.97822 61.6359 1.93066 61.568C1.88309 61.5001 1.86441 61.4162 1.87873 61.3345C1.89305 61.2529 1.93919 61.1803 2.00701 61.1327L87.749 0.954574C88.1161 0.69815 88.5529 0.560309 89.0006 0.559573C89.4483 0.558837 89.8855 0.695239 90.2535 0.950454L176.617 61.1321C176.672 61.1701 176.713 61.2246 176.735 61.2876C176.756 61.3505 176.757 61.4187 176.737 61.4822C176.717 61.5457 176.677 61.6011 176.624 61.6405C176.57 61.6798 176.505 61.701 176.439 61.701Z" fill="#866BFB"/>
        <path d="M7.26465 63.8345L89.0859 3.15918L171.528 68.1518L93.3017 114.553L50.8316 104.866L7.26465 63.8345Z" fill="#E6E6E6"/>
        <path d="M54.4171 143.213H13.9954C13.7472 143.213 13.5014 143.164 13.272 143.07C13.0426 142.975 12.8341 142.836 12.6585 142.66C12.4829 142.485 12.3435 142.276 12.2485 142.047C12.1534 141.817 12.1045 141.572 12.1045 141.323C12.1045 141.075 12.1534 140.829 12.2485 140.6C12.3435 140.37 12.4829 140.162 12.6585 139.986C12.8341 139.811 13.0426 139.672 13.272 139.577C13.5014 139.482 13.7472 139.433 13.9954 139.434H54.4171C54.6653 139.433 54.9111 139.482 55.1405 139.577C55.3699 139.672 55.5784 139.811 55.754 139.986C55.9296 140.162 56.069 140.37 56.164 140.6C56.2591 140.829 56.308 141.075 56.308 141.323C56.308 141.572 56.2591 141.817 56.164 142.047C56.069 142.276 55.9296 142.485 55.754 142.66C55.5784 142.836 55.3699 142.975 55.1405 143.07C54.9111 143.164 54.6653 143.213 54.4171 143.213Z" fill="#AC99FB"/>
        <path d="M28.4978 135.089H13.9954C13.7472 135.089 13.5014 135.04 13.272 134.946C13.0426 134.851 12.8341 134.712 12.6585 134.536C12.4829 134.361 12.3435 134.152 12.2485 133.923C12.1534 133.693 12.1045 133.448 12.1045 133.199C12.1045 132.951 12.1534 132.705 12.2485 132.475C12.3435 132.246 12.4829 132.038 12.6585 131.862C12.8341 131.687 13.0426 131.548 13.272 131.453C13.5014 131.358 13.7472 131.309 13.9954 131.31H28.4978C28.746 131.309 28.9918 131.358 29.2212 131.453C29.4506 131.548 29.6591 131.687 29.8347 131.862C30.0104 132.038 30.1497 132.246 30.2447 132.475C30.3398 132.705 30.3887 132.951 30.3887 133.199C30.3887 133.448 30.3398 133.693 30.2447 133.923C30.1497 134.152 30.0104 134.361 29.8347 134.536C29.6591 134.712 29.4506 134.851 29.2212 134.946C28.9918 135.04 28.746 135.089 28.4978 135.089Z" fill="#AC99FB"/>
        <path d="M90.2366 97.6297C89.9293 97.63 89.625 97.5704 89.3406 97.4541L38.8789 76.5037V10.9255C38.8796 10.3456 39.1101 9.7897 39.5199 9.37966C39.9297 8.96962 40.4853 8.73896 41.0649 8.73828H137.872C138.451 8.73896 139.007 8.96962 139.417 9.37966C139.827 9.7897 140.057 10.3456 140.058 10.9255V76.5495L139.963 76.5901L91.1597 97.4439C90.8674 97.5667 90.5536 97.6299 90.2366 97.6297Z" fill="white"/>
        <path d="M90.2365 97.7858C89.9089 97.7861 89.5843 97.7226 89.281 97.5987L38.7227 76.6081V10.9255C38.7234 10.3042 38.9703 9.70854 39.4094 9.2692C39.8485 8.82986 40.4438 8.58274 41.0648 8.58203H137.872C138.493 8.58274 139.088 8.82986 139.527 9.2692C139.966 9.70854 140.213 10.3042 140.214 10.9255V76.6526L91.2209 97.5874C90.9093 97.7186 90.5745 97.7861 90.2365 97.7858ZM39.3472 76.1906L89.5192 97.0209C89.9872 97.2109 90.5112 97.2078 90.9769 97.0122L139.589 76.2401V10.9255C139.589 10.4699 139.408 10.0331 139.086 9.71091C138.764 9.38874 138.327 9.2075 137.872 9.20696H41.0648C40.6094 9.2075 40.1729 9.38874 39.8509 9.71091C39.5289 10.0331 39.3478 10.4699 39.3472 10.9255L39.3472 76.1906Z" fill="#866BFB"/>
        <path d="M175.814 61.0762H175.752L139.902 76.3932L90.8519 97.3502C90.6602 97.4309 90.4546 97.4729 90.2466 97.474C90.0387 97.4751 89.8326 97.4351 89.6401 97.3564L39.0351 76.3494L2.30459 61.1012L2.24848 61.0762H2.18597C1.60641 61.0768 1.05077 61.3075 0.640963 61.7175C0.231154 62.1276 0.000643064 62.6835 0 63.2634V158.253C0.000643889 158.833 0.231154 159.388 0.640963 159.799C1.05077 160.209 1.60641 160.439 2.18597 160.44H175.814C176.394 160.439 176.949 160.209 177.359 159.799C177.769 159.388 177.999 158.833 178 158.253V63.2634C177.999 62.6835 177.769 62.1276 177.359 61.7175C176.949 61.3075 176.394 61.0768 175.814 61.0762ZM177.375 158.253C177.375 158.667 177.211 159.064 176.918 159.357C176.625 159.65 176.228 159.815 175.814 159.815H2.18597C1.77191 159.815 1.37485 159.65 1.08207 159.357C0.789286 159.064 0.624727 158.667 0.624561 158.253V63.2634C0.625128 62.8594 0.781751 62.4712 1.06169 62.1801C1.34162 61.8889 1.7232 61.7173 2.12665 61.7011L39.0351 77.0244L89.3998 97.9345C89.945 98.1564 90.5559 98.1531 91.0986 97.9251L139.902 77.0712L175.877 61.7011C176.279 61.7185 176.66 61.8906 176.939 62.1816C177.218 62.4726 177.375 62.8601 177.375 63.2634V158.253Z" fill="#866BFB"/>
        <path d="M89.7319 79.0337C87.869 79.0372 86.0555 78.4344 84.565 77.3164L84.4726 77.247L65.0141 62.34C64.1129 61.6492 63.3565 60.7875 62.7882 59.8041C62.2199 58.8207 61.8507 57.735 61.7017 56.6089C61.5527 55.4828 61.6269 54.3383 61.9199 53.2409C62.213 52.1434 62.7192 51.1145 63.4097 50.2128C64.1002 49.3111 64.9614 48.5543 65.9441 47.9856C66.9269 47.417 68.012 47.0476 69.1375 46.8985C70.2629 46.7494 71.4067 46.8236 72.5035 47.1169C73.6003 47.4101 74.6287 47.9166 75.5298 48.6075L88.1336 58.2776L117.918 19.4111C118.609 18.5096 119.471 17.7532 120.453 17.1848C121.436 16.6165 122.522 16.2475 123.647 16.0988C124.773 15.9501 125.916 16.0248 127.013 16.3184C128.11 16.612 129.138 17.119 130.039 17.8102L129.854 18.0618L130.044 17.8139C131.861 19.2114 133.05 21.2731 133.35 23.5467C133.65 25.8204 133.036 28.1202 131.644 29.9417L96.6097 75.6579C95.7995 76.7114 94.7575 77.5639 93.5648 78.1494C92.372 78.7348 91.0605 79.0374 89.7319 79.0337Z" fill="#AC99FB"/>
    </g>
    <defs>
        <clipPath id="clip0_1658_3350">
            <rect width="178" height="159.88" fill="white" transform="translate(0 0.55957)"/>
        </clipPath>
    </defs>
</svg>