<svg xmlns="http://www.w3.org/2000/svg" preserveAspectRatio="xMidYMid meet" viewBox="0 0 20 20" fill="none">
    <path d="M17.8125 9.99987C17.8125 10.2485 17.7137 10.487 17.5379 10.6628C17.3621 10.8386 17.1236 10.9374 16.875 10.9374H5.39063L9.41563 14.9616C9.59175 15.1377 9.6907 15.3766 9.6907 15.6257C9.6907 15.8747 9.59175 16.1136 9.41563 16.2897C9.23951 16.4658 9.00064 16.5648 8.75157 16.5648C8.5025 16.5648 8.26363 16.4658 8.08751 16.2897L2.46251 10.6647C2.37511 10.5776 2.30576 10.4741 2.25844 10.3602C2.21112 10.2462 2.18677 10.124 2.18677 10.0006C2.18677 9.87726 2.21112 9.75509 2.25844 9.64113C2.30576 9.52718 2.37511 9.42368 2.46251 9.33659L8.08751 3.71159C8.17471 3.62438 8.27824 3.55521 8.39218 3.50801C8.50612 3.46081 8.62824 3.43652 8.75157 3.43652C8.8749 3.43652 8.99702 3.46081 9.11096 3.50801C9.2249 3.55521 9.32843 3.62438 9.41563 3.71159C9.50284 3.79879 9.57201 3.90232 9.61921 4.01626C9.6664 4.1302 9.6907 4.25232 9.6907 4.37565C9.6907 4.49898 9.6664 4.6211 9.61921 4.73504C9.57201 4.84898 9.50284 4.95251 9.41563 5.03971L5.39063 9.06237H16.875C17.1236 9.06237 17.3621 9.16114 17.5379 9.33696C17.7137 9.51277 17.8125 9.75123 17.8125 9.99987Z" fill="#9095A3"/>
</svg>