<svg xmlns="http://www.w3.org/2000/svg" preserveAspectRatio="xMidYMid meet" viewBox="0 0 12 12" fill="none">
    <path d="M9.94875 4.69881L6.19875 8.44882C6.14602 8.50148 6.07453 8.53107 6 8.53107C5.92547 8.53107 5.85399 8.50148 5.80125 8.44882L2.05125 4.69881C2.00157 4.6455 1.97453 4.57498 1.97581 4.50212C1.9771 4.42926 2.00662 4.35974 2.05815 4.30821C2.10968 4.25668 2.17919 4.22716 2.25206 4.22587C2.32492 4.22459 2.39544 4.25163 2.44875 4.30131L6 7.8521L9.55125 4.30131C9.60457 4.25163 9.67509 4.22459 9.74795 4.22587C9.82081 4.22716 9.89033 4.25668 9.94186 4.30821C9.99339 4.35974 10.0229 4.42926 10.0242 4.50212C10.0255 4.57498 9.99843 4.6455 9.94875 4.69881Z"
          fill="#363440"/>
</svg>
