<svg xmlns="http://www.w3.org/2000/svg" preserveAspectRatio="xMidYMid meet" viewBox="0 0 16 16" fill="none">
    <path d="M14.3538 4.85378L6.35375 12.8538C6.30731 12.9003 6.25217 12.9372 6.19147 12.9623C6.13077 12.9875 6.06571 13.0004 6 13.0004C5.93429 13.0004 5.86923 12.9875 5.80853 12.9623C5.74783 12.9372 5.69269 12.9003 5.64625 12.8538L2.14625 9.35378C2.05243 9.25996 1.99972 9.13272 1.99972 9.00003C1.99972 8.86735 2.05243 8.7401 2.14625 8.64628C2.24007 8.55246 2.36732 8.49976 2.5 8.49976C2.63268 8.49976 2.75993 8.55246 2.85375 8.64628L6 11.7932L13.6462 4.14628C13.7401 4.05246 13.8673 3.99976 14 3.99976C14.1327 3.99976 14.2599 4.05246 14.3538 4.14628C14.4476 4.2401 14.5003 4.36735 14.5003 4.50003C14.5003 4.63272 14.4476 4.75996 14.3538 4.85378Z"
          fill="#343330"/>
</svg>
