<svg xmlns="http://www.w3.org/2000/svg" preserveAspectRatio="xMidYMid meet" viewBox="0 0 20 20" fill="none">
  <path fill-rule="evenodd" clip-rule="evenodd" d="M5.83317 1.66675C3.53198 1.66675 1.6665 3.53223 1.6665 5.83342V14.1667C1.6665 16.4679 3.53198 18.3334 5.83317 18.3334H14.1665C16.4677 18.3334 18.3332 16.4679 18.3332 14.1667V5.83342C18.3332 3.53223 16.4677 1.66675 14.1665 1.66675H5.83317ZM9.88734 12.7042L13.8457 8.74591C14.129 8.46258 14.129 8.00425 13.8457 7.71258C13.5623 7.42925 13.0957 7.42925 12.8123 7.71258L9.37067 11.1542L7.91234 9.69592C7.629 9.41258 7.16234 9.41258 6.879 9.69592C6.59567 9.97925 6.59567 10.4376 6.879 10.7292L8.86234 12.7042C9.004 12.8459 9.18734 12.9126 9.37067 12.9126C9.56234 12.9126 9.74567 12.8459 9.88734 12.7042Z" fill="#363440"/>
</svg>