<svg xmlns="http://www.w3.org/2000/svg" width="10" height="10" viewBox="0 0 10 10" fill="none">
    <path d="M3.41828 2.20658C3.33022 2.11852 3.28075 1.99909 3.28075 1.87455C3.28075 1.75002 3.33022 1.63058 3.41828 1.54252C3.50634 1.45446 3.62578 1.40499 3.75031 1.40499C3.87485 1.40499 3.99429 1.45446 4.08235 1.54252L7.20735 4.66752C7.25105 4.71107 7.28572 4.76282 7.30938 4.81979C7.33304 4.87677 7.34522 4.93786 7.34522 4.99955C7.34522 5.06125 7.33304 5.12233 7.30938 5.17931C7.28572 5.23629 7.25105 5.28804 7.20735 5.33158L4.08234 8.45658C3.99428 8.54464 3.87485 8.59412 3.75031 8.59412C3.62578 8.59412 3.50634 8.54464 3.41828 8.45658C3.33022 8.36852 3.28075 8.24909 3.28075 8.12455C3.28075 8.00002 3.33022 7.88058 3.41828 7.79252L6.21086 4.99994L3.41828 2.20658Z"
          fill="#343330"/>
</svg>
