<svg width="20" height="20" viewBox="0 0 20 20" fill="none" xmlns="http://www.w3.org/2000/svg">
<path d="M17.5 3.75V5.9375C17.5 6.10326 17.4342 6.26223 17.3169 6.37944C17.1997 6.49665 17.0408 6.5625 16.875 6.5625C16.7092 6.5625 16.5503 6.49665 16.4331 6.37944C16.3158 6.26223 16.25 6.10326 16.25 5.9375V3.75H14.0625C13.8967 3.75 13.7378 3.68415 13.6206 3.56694C13.5033 3.44973 13.4375 3.29076 13.4375 3.125C13.4375 2.95924 13.5033 2.80027 13.6206 2.68306C13.7378 2.56585 13.8967 2.5 14.0625 2.5H16.25C16.5815 2.5 16.8995 2.6317 17.1339 2.86612C17.3683 3.10054 17.5 3.41848 17.5 3.75ZM16.875 13.4375C16.7092 13.4375 16.5503 13.5033 16.4331 13.6206C16.3158 13.7378 16.25 13.8967 16.25 14.0625V16.25H14.0625C13.8967 16.25 13.7378 16.3158 13.6206 16.4331C13.5033 16.5503 13.4375 16.7092 13.4375 16.875C13.4375 17.0408 13.5033 17.1997 13.6206 17.3169C13.7378 17.4342 13.8967 17.5 14.0625 17.5H16.25C16.5815 17.5 16.8995 17.3683 17.1339 17.1339C17.3683 16.8995 17.5 16.5815 17.5 16.25V14.0625C17.5 13.8967 17.4342 13.7378 17.3169 13.6206C17.1997 13.5033 17.0408 13.4375 16.875 13.4375ZM5.9375 16.25H3.75V14.0625C3.75 13.8967 3.68415 13.7378 3.56694 13.6206C3.44973 13.5033 3.29076 13.4375 3.125 13.4375C2.95924 13.4375 2.80027 13.5033 2.68306 13.6206C2.56585 13.7378 2.5 13.8967 2.5 14.0625V16.25C2.5 16.5815 2.6317 16.8995 2.86612 17.1339C3.10054 17.3683 3.41848 17.5 3.75 17.5H5.9375C6.10326 17.5 6.26223 17.4342 6.37944 17.3169C6.49665 17.1997 6.5625 17.0408 6.5625 16.875C6.5625 16.7092 6.49665 16.5503 6.37944 16.4331C6.26223 16.3158 6.10326 16.25 5.9375 16.25ZM3.125 6.5625C3.29076 6.5625 3.44973 6.49665 3.56694 6.37944C3.68415 6.26223 3.75 6.10326 3.75 5.9375V3.75H5.9375C6.10326 3.75 6.26223 3.68415 6.37944 3.56694C6.49665 3.44973 6.5625 3.29076 6.5625 3.125C6.5625 2.95924 6.49665 2.80027 6.37944 2.68306C6.26223 2.56585 6.10326 2.5 5.9375 2.5H3.75C3.41848 2.5 3.10054 2.6317 2.86612 2.86612C2.6317 3.10054 2.5 3.41848 2.5 3.75V5.9375C2.5 6.10326 2.56585 6.26223 2.68306 6.37944C2.80027 6.49665 2.95924 6.5625 3.125 6.5625ZM7.89062 11.0555C7.04163 11.4238 6.30368 12.0077 5.75 12.7492C5.68013 12.8421 5.63754 12.9526 5.62699 13.0683C5.61645 13.184 5.63837 13.3004 5.69031 13.4043C5.74224 13.5083 5.82213 13.5957 5.921 13.6568C6.01987 13.7178 6.1338 13.7501 6.25 13.75H13.75C13.8662 13.7501 13.9801 13.7178 14.079 13.6568C14.1779 13.5957 14.2578 13.5083 14.3097 13.4043C14.3616 13.3004 14.3836 13.184 14.373 13.0683C14.3625 12.9526 14.3199 12.8421 14.25 12.7492C13.6963 12.0077 12.9584 11.4238 12.1094 11.0555C12.5748 10.6306 12.9008 10.0749 13.0447 9.4614C13.1887 8.84789 13.1438 8.2052 12.9159 7.61767C12.688 7.03014 12.2879 6.52523 11.7679 6.1692C11.248 5.81316 10.6325 5.62265 10.0023 5.62265C9.37218 5.62265 8.75673 5.81316 8.23678 6.1692C7.71682 6.52523 7.31666 7.03014 7.08879 7.61767C6.86093 8.2052 6.81602 8.84789 6.95995 9.4614C7.10388 10.0749 7.42993 10.6306 7.89531 11.0555H7.89062Z" fill="#6E4EFB"/>
</svg>
