<svg width="20" height="20" viewBox="0 0 20 20" fill="none" xmlns="http://www.w3.org/2000/svg">
<path d="M17.7595 2.24062C17.6023 2.08353 17.4061 1.97119 17.1911 1.91517C16.976 1.85914 16.7499 1.86145 16.5361 1.92187H16.5243L1.52903 6.47187C1.28494 6.54207 1.06802 6.68496 0.907157 6.88152C0.746298 7.07808 0.649134 7.31898 0.628603 7.57214C0.608072 7.8253 0.665148 8.0787 0.792232 8.29861C0.919316 8.51852 1.11038 8.6945 1.33997 8.80312L8.02903 11.9711L11.197 18.6602C11.297 18.8744 11.4562 19.0555 11.6559 19.1822C11.8555 19.3088 12.0872 19.3757 12.3236 19.375C12.3595 19.375 12.3954 19.3734 12.4314 19.3703C12.6836 19.3499 12.9236 19.2528 13.1191 19.0921C13.3146 18.9313 13.4563 18.7146 13.5251 18.4711L18.072 3.47578C18.072 3.47187 18.072 3.46796 18.072 3.46406C18.1332 3.25075 18.1365 3.02499 18.0816 2.80998C18.0267 2.59497 17.9155 2.39845 17.7595 2.24062ZM12.3306 18.1133L12.3267 18.1242L9.25169 11.6328L12.9423 7.9414C13.0546 7.82324 13.1162 7.66589 13.1142 7.50292C13.1121 7.33994 13.0464 7.18423 12.9311 7.06898C12.8159 6.95373 12.6602 6.88806 12.4972 6.88597C12.3342 6.88388 12.1769 6.94554 12.0587 7.05781L8.36731 10.7484L1.87513 7.67343H1.88607L16.8751 3.12499L12.3306 18.1133Z" fill="#2A292E"/>
</svg>
