<svg width="20" height="20" viewBox="0 0 20 20" fill="none" xmlns="http://www.w3.org/2000/svg">
<path d="M18.75 5V15C18.75 15.3315 18.6183 15.6495 18.3839 15.8839C18.1495 16.1183 17.8315 16.25 17.5 16.25H12.5C12.0027 16.25 11.5258 16.4475 11.1742 16.7992C10.8225 17.1508 10.625 17.6277 10.625 18.125C10.625 18.2908 10.5592 18.4497 10.4419 18.5669C10.3247 18.6842 10.1658 18.75 10 18.75C9.83424 18.75 9.67527 18.6842 9.55806 18.5669C9.44085 18.4497 9.375 18.2908 9.375 18.125C9.375 17.6277 9.17746 17.1508 8.82583 16.7992C8.47419 16.4475 7.99728 16.25 7.5 16.25H2.5C2.16848 16.25 1.85054 16.1183 1.61612 15.8839C1.3817 15.6495 1.25 15.3315 1.25 15V5C1.25 4.66848 1.3817 4.35054 1.61612 4.11612C1.85054 3.8817 2.16848 3.75 2.5 3.75H6.875C7.53804 3.75 8.17393 4.01339 8.64277 4.48223C9.11161 4.95107 9.375 5.58696 9.375 6.25V13.125C9.375 13.2908 9.44085 13.4497 9.55806 13.5669C9.67527 13.6842 9.83424 13.75 10 13.75C10.1658 13.75 10.3247 13.6842 10.4419 13.5669C10.5592 13.4497 10.625 13.2908 10.625 13.125V6.25C10.625 5.58696 10.8884 4.95107 11.3572 4.48223C11.8261 4.01339 12.462 3.75 13.125 3.75H17.5C17.8315 3.75 18.1495 3.8817 18.3839 4.11612C18.6183 4.35054 18.75 4.66848 18.75 5Z" fill="#6E4EFB"/>
</svg>
