<svg xmlns="http://www.w3.org/2000/svg" width="16" height="17" viewBox="0 0 16 17" fill="none">
    <path d="M13.3541 11.8535L11.3541 13.8535C11.2603 13.9474 11.1331 14.0001 11.0004 14.0001C10.8677 14.0001 10.7405 13.9474 10.6466 13.8535C10.5528 13.7597 10.5001 13.6325 10.5001 13.4998C10.5001 13.3671 10.5528 13.2399 10.6466 13.146L11.7935 11.9998H3.00039C2.86779 11.9998 2.74061 11.9471 2.64684 11.8533C2.55307 11.7596 2.50039 11.6324 2.50039 11.4998C2.50039 11.3672 2.55307 11.24 2.64684 11.1462C2.74061 11.0525 2.86779 10.9998 3.00039 10.9998H11.7935L10.6466 9.85354C10.5528 9.75972 10.5001 9.63247 10.5001 9.49979C10.5001 9.36711 10.5528 9.23986 10.6466 9.14604C10.7405 9.05222 10.8677 8.99951 11.0004 8.99951C11.1331 8.99951 11.2603 9.05222 11.3541 9.14604L13.3541 11.146C13.4006 11.1925 13.4375 11.2476 13.4627 11.3083C13.4878 11.369 13.5008 11.4341 13.5008 11.4998C13.5008 11.5655 13.4878 11.6306 13.4627 11.6913C13.4375 11.752 13.4006 11.8071 13.3541 11.8535ZM4.64664 7.85354C4.74046 7.94736 4.86771 8.00007 5.00039 8.00007C5.13308 8.00007 5.26032 7.94736 5.35414 7.85354C5.44796 7.75972 5.50067 7.63247 5.50067 7.49979C5.50067 7.36711 5.44796 7.23986 5.35414 7.14604L4.20727 5.99979H13.0004C13.133 5.99979 13.2602 5.94711 13.3539 5.85334C13.4477 5.75957 13.5004 5.6324 13.5004 5.49979C13.5004 5.36718 13.4477 5.24 13.3539 5.14624C13.2602 5.05247 13.133 4.99979 13.0004 4.99979H4.20727L5.35414 3.85354C5.44796 3.75972 5.50067 3.63247 5.50067 3.49979C5.50067 3.36711 5.44796 3.23986 5.35414 3.14604C5.26032 3.05222 5.13308 2.99951 5.00039 2.99951C4.86771 2.99951 4.74046 3.05222 4.64664 3.14604L2.64664 5.14604C2.60016 5.19248 2.56328 5.24762 2.53811 5.30832C2.51295 5.36902 2.5 5.43408 2.5 5.49979C2.5 5.5655 2.51295 5.63056 2.53811 5.69126C2.56328 5.75196 2.60016 5.8071 2.64664 5.85354L4.64664 7.85354Z" fill="#343330"/>
</svg>