<svg xmlns="http://www.w3.org/2000/svg" reserveAspectRatio="xMidYMid meet" viewBox="0 0 24 24" fill="none">
  <path d="M10.9922 14.805C11.9974 14.1358 12.7605 13.1609 13.1688 12.0244C13.577 10.8879 13.6087 9.65024 13.2592 8.49437C12.9096 7.3385 12.1973 6.32581 11.2277 5.60605C10.2581 4.88629 9.08256 4.49768 7.87499 4.49768C6.66741 4.49768 5.4919 4.88629 4.52227 5.60605C3.55264 6.32581 2.84039 7.3385 2.49082 8.49437C2.14126 9.65024 2.17295 10.8879 2.5812 12.0244C2.98946 13.1609 3.75261 14.1358 4.7578 14.805C2.93951 15.4751 1.38665 16.7152 0.330923 18.3403C0.275438 18.4227 0.236898 18.5154 0.217543 18.6129C0.198188 18.7104 0.198405 18.8108 0.21818 18.9082C0.237956 19.0056 0.276896 19.0981 0.332737 19.1803C0.388577 19.2625 0.460205 19.3328 0.543457 19.3871C0.626708 19.4414 0.719922 19.4787 0.817681 19.4966C0.915439 19.5146 1.01579 19.5129 1.11291 19.4917C1.21002 19.4706 1.30196 19.4303 1.38338 19.3733C1.4648 19.3163 1.53407 19.2437 1.58717 19.1597C2.26816 18.1123 3.20001 17.2516 4.29808 16.6558C5.39616 16.0599 6.62568 15.7479 7.87499 15.7479C9.12429 15.7479 10.3538 16.0599 11.4519 16.6558C12.55 17.2516 13.4818 18.1123 14.1628 19.1597C14.2728 19.3231 14.4427 19.4368 14.6358 19.476C14.829 19.5152 15.0297 19.4768 15.1948 19.3692C15.3598 19.2615 15.4759 19.0932 15.5179 18.9007C15.5598 18.7082 15.5243 18.5068 15.419 18.3403C14.3633 16.7152 12.8105 15.4751 10.9922 14.805ZM3.74999 10.125C3.74999 9.30911 3.99191 8.51159 4.44517 7.83324C4.89843 7.15488 5.54267 6.62617 6.29642 6.31396C7.05016 6.00175 7.87956 5.92006 8.67973 6.07922C9.47991 6.23839 10.2149 6.63126 10.7918 7.20815C11.3687 7.78504 11.7616 8.52004 11.9207 9.32022C12.0799 10.1204 11.9982 10.9498 11.686 11.7035C11.3738 12.4573 10.8451 13.1015 10.1667 13.5548C9.48836 14.008 8.69083 14.25 7.87499 14.25C6.78135 14.2487 5.73286 13.8137 4.95954 13.0404C4.18622 12.2671 3.75123 11.2186 3.74999 10.125ZM23.4506 19.3781C23.284 19.4867 23.0811 19.5247 22.8865 19.4838C22.6919 19.4428 22.5215 19.3262 22.4128 19.1597C21.7326 18.1116 20.8009 17.2506 19.7026 16.655C18.6043 16.0594 17.3744 15.7483 16.125 15.75C15.9261 15.75 15.7353 15.6709 15.5947 15.5303C15.454 15.3896 15.375 15.1989 15.375 15C15.375 14.8011 15.454 14.6103 15.5947 14.4696C15.7353 14.329 15.9261 14.25 16.125 14.25C16.7325 14.2494 17.3323 14.1147 17.8817 13.8554C18.431 13.5961 18.9163 13.2187 19.3029 12.7501C19.6895 12.2815 19.9679 11.7334 20.1181 11.1448C20.2682 10.5561 20.2866 9.94162 20.1717 9.3451C20.0569 8.74859 19.8117 8.1848 19.4537 7.69402C19.0957 7.20325 18.6337 6.7976 18.1008 6.50606C17.5678 6.21452 16.9771 6.04429 16.3707 6.00752C15.7644 5.97076 15.1574 6.06838 14.5931 6.2934C14.5011 6.33317 14.4021 6.3541 14.3018 6.35495C14.2016 6.35579 14.1022 6.33654 14.0096 6.29833C13.9169 6.26012 13.8329 6.20373 13.7624 6.13248C13.6919 6.06123 13.6364 5.97658 13.5992 5.88352C13.5619 5.79046 13.5437 5.69088 13.5456 5.59067C13.5476 5.49046 13.5695 5.39165 13.6103 5.30007C13.651 5.2085 13.7097 5.12602 13.7829 5.05752C13.856 4.98901 13.9422 4.93586 14.0362 4.90121C15.3276 4.3862 16.764 4.36767 18.0682 4.84919C19.3724 5.33071 20.4521 6.27817 21.099 7.50879C21.7459 8.73941 21.9141 10.166 21.5712 11.5133C21.2283 12.8607 20.3986 14.0333 19.2422 14.805C21.0605 15.4751 22.6133 16.7152 23.669 18.3403C23.7777 18.5069 23.8157 18.7098 23.7747 18.9044C23.7338 19.099 23.6172 19.2694 23.4506 19.3781Z" fill="#6F6C7D"/>
</svg>