<svg xmlns="http://www.w3.org/2000/svg" reserveAspectRatio="xMidYMid meet" viewBox="0 0 24 24" fill="none">
  <path d="M10.7175 4.66875C10.497 4.4479 10.2245 4.2862 9.92501 4.19862C9.62553 4.11104 9.30881 4.1004 9.00413 4.1677C8.69945 4.23499 8.41666 4.37803 8.18193 4.5836C7.9472 4.78916 7.7681 5.05061 7.6612 5.34375L2.73933 18.8822C2.63758 19.1621 2.60463 19.4624 2.64325 19.7578C2.68186 20.0531 2.79092 20.3349 2.96122 20.5793C3.13152 20.8236 3.35808 21.0235 3.6218 21.162C3.88551 21.3005 4.17865 21.3735 4.47652 21.375C4.6953 21.3746 4.91233 21.3359 5.11777 21.2606L18.6562 16.3387C18.9496 16.2323 19.2115 16.0535 19.4174 15.8189C19.6234 15.5844 19.7669 15.3017 19.8345 14.9969C19.9022 14.6922 19.8919 14.3753 19.8046 14.0757C19.7173 13.776 19.5557 13.5032 19.335 13.2825L10.7175 4.66875ZM9.76777 17.1759L6.82402 14.2322L7.77558 11.6156L12.3843 16.2244L9.76777 17.1759ZM5.97839 16.5656L7.43433 18.0244L5.14214 18.8578L5.97839 16.5656ZM14.7187 15.375L8.62495 9.28125L9.56245 6.69562L17.3034 14.4375L14.7187 15.375ZM12 3.75V1.5C12 1.20163 12.1185 0.915483 12.3295 0.704505C12.5404 0.493526 12.8266 0.375 13.125 0.375C13.4233 0.375 13.7095 0.493526 13.9204 0.704505C14.1314 0.915483 14.25 1.20163 14.25 1.5V3.75C14.25 4.04837 14.1314 4.33452 13.9204 4.5455C13.7095 4.75647 13.4233 4.875 13.125 4.875C12.8266 4.875 12.5404 4.75647 12.3295 4.5455C12.1185 4.33452 12 4.04837 12 3.75ZM22.92 11.5791C23.1313 11.7904 23.25 12.0771 23.25 12.3759C23.25 12.6748 23.1313 12.9615 22.92 13.1728C22.7086 13.3842 22.422 13.5029 22.1231 13.5029C21.8242 13.5029 21.5375 13.3842 21.3262 13.1728L19.8262 11.6728C19.6149 11.4615 19.4961 11.1748 19.4961 10.8759C19.4961 10.5771 19.6149 10.2904 19.8262 10.0791C20.0375 9.86772 20.3242 9.74899 20.6231 9.74899C20.922 9.74899 21.2086 9.86772 21.42 10.0791L22.92 11.5791ZM22.8553 7.81687L20.6053 8.56687C20.3222 8.66123 20.0132 8.63928 19.7463 8.50583C19.4794 8.37239 19.2765 8.13839 19.1821 7.85531C19.0878 7.57224 19.1097 7.26327 19.2432 6.99638C19.3766 6.72949 19.6106 6.52655 19.8937 6.43219L22.1437 5.68219C22.4268 5.58783 22.7357 5.60979 23.0026 5.74323C23.2695 5.87667 23.4725 6.11067 23.5668 6.39375C23.6612 6.67683 23.6392 6.98579 23.5058 7.25268C23.3723 7.51957 23.1383 7.72252 22.8553 7.81687ZM14.6812 6.18094C14.984 4.45031 16.2553 3.375 18 3.375C18.6046 3.375 18.8146 3.14156 18.9375 2.91375C19.0467 2.70377 19.1106 2.47315 19.125 2.23688V2.25C19.125 1.95163 19.2435 1.66548 19.4545 1.4545C19.6654 1.24353 19.9516 1.125 20.25 1.125C20.5483 1.125 20.8345 1.24353 21.0454 1.4545C21.2564 1.66548 21.375 1.95163 21.375 2.25C21.375 3.60656 20.4759 5.625 18 5.625C17.5368 5.625 17.0428 5.73656 16.8975 6.56812C16.852 6.82888 16.7161 7.06527 16.5136 7.23571C16.3111 7.40616 16.055 7.49974 15.7903 7.5C15.7249 7.49989 15.6597 7.49424 15.5953 7.48312C15.3014 7.43165 15.04 7.26554 14.8685 7.02134C14.6971 6.77713 14.6297 6.47483 14.6812 6.18094Z" fill="#343330"/>
</svg>