<svg xmlns="http://www.w3.org/2000/svg" reserveAspectRatio="xMidYMid meet" viewBox="0 0 24 24" fill="none">
  <path d="M15.75 14.2501C15.75 14.449 15.671 14.6398 15.5303 14.7804C15.3897 14.9211 15.1989 15.0001 15 15.0001H9C8.80109 15.0001 8.61032 14.9211 8.46967 14.7804C8.32902 14.6398 8.25 14.449 8.25 14.2501C8.25 14.0512 8.32902 13.8604 8.46967 13.7198C8.61032 13.5791 8.80109 13.5001 9 13.5001H15C15.1989 13.5001 15.3897 13.5791 15.5303 13.7198C15.671 13.8604 15.75 14.0512 15.75 14.2501ZM15 10.5001H9C8.80109 10.5001 8.61032 10.5791 8.46967 10.7198C8.32902 10.8604 8.25 11.0512 8.25 11.2501C8.25 11.449 8.32902 11.6398 8.46967 11.7804C8.61032 11.9211 8.80109 12.0001 9 12.0001H15C15.1989 12.0001 15.3897 11.9211 15.5303 11.7804C15.671 11.6398 15.75 11.449 15.75 11.2501C15.75 11.0512 15.671 10.8604 15.5303 10.7198C15.3897 10.5791 15.1989 10.5001 15 10.5001ZM20.25 4.50011V20.2501C20.25 20.6479 20.092 21.0295 19.8107 21.3108C19.5294 21.5921 19.1478 21.7501 18.75 21.7501H5.25C4.85218 21.7501 4.47064 21.5921 4.18934 21.3108C3.90804 21.0295 3.75 20.6479 3.75 20.2501V4.50011C3.75 4.10228 3.90804 3.72075 4.18934 3.43945C4.47064 3.15814 4.85218 3.00011 5.25 3.00011H8.64937C9.07079 2.52829 9.58709 2.15079 10.1645 1.89232C10.7419 1.63385 11.3674 1.50024 12 1.50024C12.6326 1.50024 13.2581 1.63385 13.8355 1.89232C14.4129 2.15079 14.9292 2.52829 15.3506 3.00011H18.75C19.1478 3.00011 19.5294 3.15814 19.8107 3.43945C20.092 3.72075 20.25 4.10228 20.25 4.50011ZM9 6.00011H15C15 5.20446 14.6839 4.4414 14.1213 3.87879C13.5587 3.31618 12.7956 3.00011 12 3.00011C11.2044 3.00011 10.4413 3.31618 9.87868 3.87879C9.31607 4.4414 9 5.20446 9 6.00011ZM18.75 4.50011H16.2422C16.4128 4.98181 16.5 5.48909 16.5 6.00011V6.75011C16.5 6.94902 16.421 7.13979 16.2803 7.28044C16.1397 7.42109 15.9489 7.50011 15.75 7.50011H8.25C8.05109 7.50011 7.86032 7.42109 7.71967 7.28044C7.57902 7.13979 7.5 6.94902 7.5 6.75011V6.00011C7.50002 5.48909 7.58721 4.98181 7.75781 4.50011H5.25V20.2501H18.75V4.50011Z" fill="#6F6C7D"/>
</svg>