<svg xmlns="http://www.w3.org/2000/svg" reserveAspectRatio="xMidYMid meet" viewBox="0 0 24 24" fill="none">
  <path d="M23.25 19.5H21.75V9C21.9489 9 22.1397 8.92098 22.2803 8.78033C22.421 8.63968 22.5 8.44891 22.5 8.25C22.5 8.05109 22.421 7.86032 22.2803 7.71967C22.1397 7.57902 21.9489 7.5 21.75 7.5H17.25V4.5C17.4489 4.5 17.6397 4.42098 17.7803 4.28033C17.921 4.13968 18 3.94891 18 3.75C18 3.55109 17.921 3.36032 17.7803 3.21967C17.6397 3.07902 17.4489 3 17.25 3H3.75C3.55109 3 3.36032 3.07902 3.21967 3.21967C3.07902 3.36032 3 3.55109 3 3.75C3 3.94891 3.07902 4.13968 3.21967 4.28033C3.36032 4.42098 3.55109 4.5 3.75 4.5V19.5H2.25C2.05109 19.5 1.86032 19.579 1.71967 19.7197C1.57902 19.8603 1.5 20.0511 1.5 20.25C1.5 20.4489 1.57902 20.6397 1.71967 20.7803C1.86032 20.921 2.05109 21 2.25 21H23.25C23.4489 21 23.6397 20.921 23.7803 20.7803C23.921 20.6397 24 20.4489 24 20.25C24 20.0511 23.921 19.8603 23.7803 19.7197C23.6397 19.579 23.4489 19.5 23.25 19.5ZM20.25 9V19.5H17.25V9H20.25ZM5.25 4.5H15.75V19.5H13.5V15C13.5 14.8011 13.421 14.6103 13.2803 14.4697C13.1397 14.329 12.9489 14.25 12.75 14.25H8.25C8.05109 14.25 7.86032 14.329 7.71967 14.4697C7.57902 14.6103 7.5 14.8011 7.5 15V19.5H5.25V4.5ZM12 19.5H9V15.75H12V19.5ZM6.75 7.5C6.75 7.30109 6.82902 7.11032 6.96967 6.96967C7.11032 6.82902 7.30109 6.75 7.5 6.75H9C9.19891 6.75 9.38968 6.82902 9.53033 6.96967C9.67098 7.11032 9.75 7.30109 9.75 7.5C9.75 7.69891 9.67098 7.88968 9.53033 8.03033C9.38968 8.17098 9.19891 8.25 9 8.25H7.5C7.30109 8.25 7.11032 8.17098 6.96967 8.03033C6.82902 7.88968 6.75 7.69891 6.75 7.5ZM11.25 7.5C11.25 7.30109 11.329 7.11032 11.4697 6.96967C11.6103 6.82902 11.8011 6.75 12 6.75H13.5C13.6989 6.75 13.8897 6.82902 14.0303 6.96967C14.171 7.11032 14.25 7.30109 14.25 7.5C14.25 7.69891 14.171 7.88968 14.0303 8.03033C13.8897 8.17098 13.6989 8.25 13.5 8.25H12C11.8011 8.25 11.6103 8.17098 11.4697 8.03033C11.329 7.88968 11.25 7.69891 11.25 7.5ZM6.75 11.25C6.75 11.0511 6.82902 10.8603 6.96967 10.7197C7.11032 10.579 7.30109 10.5 7.5 10.5H9C9.19891 10.5 9.38968 10.579 9.53033 10.7197C9.67098 10.8603 9.75 11.0511 9.75 11.25C9.75 11.4489 9.67098 11.6397 9.53033 11.7803C9.38968 11.921 9.19891 12 9 12H7.5C7.30109 12 7.11032 11.921 6.96967 11.7803C6.82902 11.6397 6.75 11.4489 6.75 11.25ZM11.25 11.25C11.25 11.0511 11.329 10.8603 11.4697 10.7197C11.6103 10.579 11.8011 10.5 12 10.5H13.5C13.6989 10.5 13.8897 10.579 14.0303 10.7197C14.171 10.8603 14.25 11.0511 14.25 11.25C14.25 11.4489 14.171 11.6397 14.0303 11.7803C13.8897 11.921 13.6989 12 13.5 12H12C11.8011 12 11.6103 11.921 11.4697 11.7803C11.329 11.6397 11.25 11.4489 11.25 11.25Z" fill="#6F6C7D"/>
</svg>