<svg xmlns="http://www.w3.org/2000/svg" reserveAspectRatio="xMidYMid meet" viewBox="0 0 24 24" fill="none">
  <path d="M9.30702 12.2479C9.24177 12.1724 9.16209 12.1107 9.07267 12.0663C8.98324 12.022 8.88587 11.996 8.78625 11.9897C8.68663 11.9835 8.58677 11.9972 8.49252 12.0301C8.39827 12.063 8.31154 12.1143 8.23739 12.1812C8.16325 12.248 8.10319 12.3289 8.06073 12.4193C8.01827 12.5096 7.99428 12.6075 7.99014 12.7072C7.98601 12.807 8.00183 12.9065 8.03667 13C8.0715 13.0936 8.12466 13.1792 8.19302 13.2519L9.30702 12.2479ZM11 15.2499L10.443 15.7519C10.5165 15.8335 10.607 15.8978 10.7081 15.9406C10.8092 15.9833 10.9184 16.0033 11.0281 15.9992C11.1377 15.9951 11.2452 15.967 11.3428 15.9168C11.4404 15.8667 11.5258 15.7957 11.593 15.7089L11 15.2499ZM15.844 10.2089C15.9658 10.0514 16.0199 9.85196 15.9946 9.65449C15.9693 9.45701 15.8666 9.27768 15.709 9.15595C15.5515 9.03421 15.352 8.98005 15.1546 9.00536C14.9571 9.03068 14.7778 9.13341 14.656 9.29095L15.844 10.2089ZM8.19302 13.2519L10.443 15.7519L11.557 14.7479L9.30702 12.2479L8.19302 13.2519ZM11.593 15.7089L15.844 10.2089L14.656 9.29095L10.406 14.7909L11.593 15.7089Z" fill="#363440"/>
  <path d="M12 20.25C16.5563 20.25 20.25 16.5563 20.25 12C20.25 7.44365 16.5563 3.75 12 3.75C7.44365 3.75 3.75 7.44365 3.75 12C3.75 16.5563 7.44365 20.25 12 20.25Z" stroke="#363440" stroke-width="1.5" stroke-linecap="round" stroke-linejoin="round"/>
</svg>