<svg xmlns="http://www.w3.org/2000/svg" reserveAspectRatio="xMidYMid meet" viewBox="0 0 64 64" fill="none">
  <path d="M27.1651 13.865C26.8146 13.5138 26.3811 13.2567 25.9048 13.1176C25.4285 12.9785 24.9247 12.9619 24.4403 13.0694C23.9559 13.1769 23.5064 13.4049 23.1336 13.7323C22.7608 14.0597 22.4767 14.476 22.3076 14.9425L9.18256 51.0375C9.02087 51.4816 8.96815 51.958 9.02884 52.4267C9.08952 52.8954 9.26184 53.3427 9.5313 53.731C9.80077 54.1192 10.1595 54.4372 10.5774 54.658C10.9952 54.8788 11.46 54.9961 11.9326 55C12.2806 54.9994 12.6259 54.9376 12.9526 54.8175L49.0476 41.6925C49.5141 41.5234 49.9303 41.2393 50.2577 40.8664C50.5852 40.4936 50.8132 40.0442 50.9207 39.5597C51.0281 39.0753 51.0115 38.5716 50.8725 38.0953C50.7334 37.619 50.4763 37.1855 50.1251 36.835L27.1651 13.865ZM25.5326 48.115L15.8801 38.4675L19.9276 27.34L36.6576 44.0725L25.5326 48.115ZM12.2826 52.935C12.1127 52.9957 11.9291 53.0069 11.7531 52.9674C11.5771 52.9278 11.416 52.8391 11.2885 52.7116C11.1609 52.584 11.0722 52.4229 11.0327 52.2469C10.9931 52.0709 11.0044 51.8873 11.0651 51.7175L15.1326 40.5375L23.4626 48.8675L12.2826 52.935ZM48.9826 39.1225C48.9481 39.2786 48.8745 39.4234 48.7686 39.5432C48.6628 39.6631 48.5282 39.754 48.3776 39.8075L38.7376 43.3075L20.6801 25.2675L24.1801 15.6275C24.2335 15.4768 24.3245 15.3423 24.4443 15.2364C24.5642 15.1306 24.7089 15.057 24.8651 15.0225C24.935 15.008 25.0062 15.0005 25.0776 15C25.2029 14.998 25.3273 15.0218 25.443 15.07C25.5587 15.1182 25.6632 15.1896 25.7501 15.28L48.7201 38.25C48.8337 38.3625 48.917 38.5021 48.962 38.6555C49.0071 38.809 49.0124 38.9714 48.9776 39.1275L48.9826 39.1225ZM55.0001 6C55.0001 8.42 53.5376 13 48.0001 13C45.9226 13 44.4551 13.8225 43.6451 15.4475C43.259 16.2457 43.0395 17.1142 43.0001 18C43.0001 18.2652 42.8947 18.5196 42.7072 18.7071C42.5196 18.8946 42.2653 19 42.0001 19C41.7348 19 41.4805 18.8946 41.2929 18.7071C41.1054 18.5196 41.0001 18.2652 41.0001 18C41.0395 16.8035 41.3309 15.6288 41.8551 14.5525C42.6651 12.9325 44.3901 11 48.0001 11C52.8226 11 53.0001 6.5 53.0001 6C53.0001 5.73478 53.1054 5.48043 53.2929 5.29289C53.4805 5.10536 53.7348 5 54.0001 5C54.2653 5 54.5196 5.10536 54.7072 5.29289C54.8947 5.48043 55.0001 5.73478 55.0001 6ZM35.0001 10V4C35.0001 3.73478 35.1054 3.48043 35.2929 3.29289C35.4805 3.10536 35.7348 3 36.0001 3C36.2653 3 36.5196 3.10536 36.7072 3.29289C36.8947 3.48043 37.0001 3.73478 37.0001 4V10C37.0001 10.2652 36.8947 10.5196 36.7072 10.7071C36.5196 10.8946 36.2653 11 36.0001 11C35.7348 11 35.4805 10.8946 35.2929 10.7071C35.1054 10.5196 35.0001 10.2652 35.0001 10ZM58.7076 31.2925C58.8952 31.4801 59.0006 31.7346 59.0006 32C59.0006 32.2654 58.8952 32.5199 58.7076 32.7075C58.5199 32.8951 58.2654 33.0006 58.0001 33.0006C57.7347 33.0006 57.4802 32.8951 57.2926 32.7075L53.2926 28.7075C53.1996 28.6146 53.1259 28.5043 53.0757 28.3829C53.0254 28.2615 52.9995 28.1314 52.9995 28C52.9995 27.8686 53.0254 27.7385 53.0757 27.6171C53.1259 27.4957 53.1996 27.3854 53.2926 27.2925C53.3855 27.1996 53.4958 27.1259 53.6172 27.0756C53.7386 27.0253 53.8687 26.9994 54.0001 26.9994C54.1315 26.9994 54.2616 27.0253 54.383 27.0756C54.5043 27.1259 54.6146 27.1996 54.7076 27.2925L58.7076 31.2925ZM60.3151 18.95L54.3151 20.95C54.2134 20.9834 54.1071 21.0003 54.0001 21C53.7631 20.9995 53.5341 20.9148 53.3537 20.7611C53.1734 20.6075 53.0535 20.3948 53.0153 20.1609C52.9772 19.9271 53.0234 19.6873 53.1456 19.4843C53.2678 19.2813 53.4581 19.1283 53.6826 19.0525L59.6826 17.0525C59.9342 16.9686 60.2088 16.9881 60.4461 17.1068C60.6833 17.2254 60.8637 17.4334 60.9476 17.685C61.0314 17.9366 61.0119 18.2113 60.8933 18.4485C60.7747 18.6857 60.5667 18.8661 60.3151 18.95Z" fill="#343330"/>
</svg>