<svg xmlns="http://www.w3.org/2000/svg" preserveAspectRatio="xMidYMid meet" viewBox="0 0 12 12" fill="none">
    <path d="M9.64052 9.1099C9.67536 9.14474 9.703 9.1861 9.72186 9.23162C9.74071 9.27714 9.75042 9.32594 9.75042 9.37521C9.75042 9.42448 9.74071 9.47327 9.72186 9.51879C9.703 9.56432 9.67536 9.60568 9.64052 9.64052C9.60568 9.67536 9.56432 9.703 9.51879 9.72186C9.47327 9.74071 9.42448 9.75042 9.37521 9.75042C9.32594 9.75042 9.27714 9.74071 9.23162 9.72186C9.1861 9.703 9.14474 9.67536 9.1099 9.64052L6.00021 6.53036L2.89052 9.64052C2.82016 9.71089 2.72472 9.75042 2.62521 9.75042C2.5257 9.75042 2.43026 9.71089 2.3599 9.64052C2.28953 9.57016 2.25 9.47472 2.25 9.37521C2.25 9.2757 2.28953 9.18026 2.3599 9.1099L5.47005 6.00021L2.3599 2.89052C2.28953 2.82016 2.25 2.72472 2.25 2.62521C2.25 2.5257 2.28953 2.43026 2.3599 2.3599C2.43026 2.28953 2.5257 2.25 2.62521 2.25C2.72472 2.25 2.82016 2.28953 2.89052 2.3599L6.00021 5.47005L9.1099 2.3599C9.18026 2.28953 9.2757 2.25 9.37521 2.25C9.47472 2.25 9.57016 2.28953 9.64052 2.3599C9.71089 2.43026 9.75042 2.5257 9.75042 2.62521C9.75042 2.72472 9.71089 2.82016 9.64052 2.89052L6.53036 6.00021L9.64052 9.1099Z" fill="#B0ADBD"/>
</svg>