<svg xmlns="http://www.w3.org/2000/svg" preserveAspectRatio="xMidYMid meet" viewBox="0 0 20 20" fill="none">
    <path d="M18.7288 16.2498H17.4999V7.49975C17.4999 7.16823 17.3682 6.85029 17.1338 6.61587C16.8994 6.38145 16.5814 6.24975 16.2499 6.24975H12.8124C12.7295 6.24975 12.65 6.28268 12.5914 6.34128C12.5328 6.39989 12.4999 6.47937 12.4999 6.56225V16.2498H11.2499V2.53179C11.252 2.33708 11.2097 2.14446 11.1263 1.9685C11.043 1.79254 10.9207 1.63786 10.7687 1.51616C10.5615 1.35463 10.3087 1.26248 10.0461 1.2528C9.78359 1.24312 9.52467 1.31641 9.30616 1.46225L3.05616 5.62475C2.8847 5.73915 2.7442 5.89416 2.64715 6.07599C2.5501 6.25782 2.49952 6.46083 2.49991 6.66694V16.2498H1.271C1.10949 16.2474 0.953069 16.3062 0.8332 16.4145C0.713332 16.5228 0.638911 16.6724 0.624908 16.8333C0.619232 16.9188 0.631194 17.0046 0.660051 17.0853C0.688909 17.1659 0.734046 17.2398 0.792658 17.3023C0.85127 17.3648 0.922106 17.4146 1.00077 17.4485C1.07943 17.4825 1.16423 17.4999 1.24991 17.4998H18.7499C18.8356 17.4999 18.9204 17.4825 18.9991 17.4485C19.0777 17.4146 19.1485 17.3648 19.2072 17.3023C19.2658 17.2398 19.3109 17.1659 19.3398 17.0853C19.3686 17.0046 19.3806 16.9188 19.3749 16.8333C19.3609 16.6724 19.2865 16.5228 19.1666 16.4145C19.0467 16.3062 18.8903 16.2474 18.7288 16.2498ZM5.93741 14.3748C5.9376 14.4604 5.92017 14.5452 5.8862 14.6239C5.85223 14.7026 5.80246 14.7734 5.73996 14.832C5.67747 14.8906 5.60359 14.9358 5.52291 14.9646C5.44224 14.9935 5.35649 15.0054 5.271 14.9998C5.10995 14.9857 4.96018 14.9112 4.85189 14.7912C4.7436 14.6711 4.68482 14.5145 4.68741 14.3529V13.1458C4.68521 12.9844 4.74414 12.8281 4.85237 12.7082C4.96061 12.5884 5.11015 12.5139 5.271 12.4998C5.35649 12.4941 5.44224 12.506 5.52291 12.5349C5.60359 12.5638 5.67747 12.6089 5.73996 12.6675C5.80246 12.7261 5.85223 12.797 5.8862 12.8756C5.92017 12.9543 5.9376 13.0391 5.93741 13.1248V14.3748ZM5.93741 9.99975C5.9376 10.0854 5.92017 10.1702 5.8862 10.2489C5.85223 10.3276 5.80246 10.3984 5.73996 10.457C5.67747 10.5156 5.60359 10.5608 5.52291 10.5896C5.44224 10.6185 5.35649 10.6304 5.271 10.6248C5.11001 10.6106 4.96036 10.536 4.8521 10.416C4.74385 10.296 4.68501 10.1395 4.68741 9.97788V8.77085C4.68521 8.60939 4.74414 8.45307 4.85237 8.33324C4.96061 8.21341 5.11015 8.13894 5.271 8.12475C5.35649 8.11908 5.44224 8.13104 5.52291 8.1599C5.60359 8.18876 5.67747 8.23389 5.73996 8.2925C5.80246 8.35112 5.85223 8.42195 5.8862 8.50061C5.92017 8.57927 5.9376 8.66408 5.93741 8.74975V9.99975ZM9.06241 14.3748C9.0626 14.4604 9.04517 14.5452 9.0112 14.6239C8.97723 14.7026 8.92746 14.7734 8.86496 14.832C8.80247 14.8906 8.72859 14.9358 8.64791 14.9646C8.56724 14.9935 8.48149 15.0054 8.396 14.9998C8.23522 14.9858 8.08568 14.9115 7.97743 14.7917C7.86918 14.672 7.81022 14.5158 7.81241 14.3544V13.1458C7.81041 12.9845 7.86942 12.8284 7.97764 12.7087C8.08586 12.5891 8.23529 12.5147 8.396 12.5005C8.48149 12.4949 8.56724 12.5068 8.64791 12.5357C8.72859 12.5645 8.80247 12.6097 8.86496 12.6683C8.92746 12.7269 8.97723 12.7977 9.0112 12.8764C9.04517 12.9551 9.0626 13.0399 9.06241 13.1255V14.3748ZM9.06241 9.99975C9.0626 10.0854 9.04517 10.1702 9.0112 10.2489C8.97723 10.3276 8.92746 10.3984 8.86496 10.457C8.80247 10.5156 8.72859 10.5608 8.64791 10.5896C8.56724 10.6185 8.48149 10.6304 8.396 10.6248C8.23529 10.6106 8.08586 10.5362 7.97764 10.4166C7.86942 10.2969 7.81041 10.1408 7.81241 9.97944V8.77085C7.81041 8.60952 7.86942 8.45339 7.97764 8.33373C8.08586 8.21407 8.23529 8.13971 8.396 8.12554C8.48149 8.11986 8.56724 8.13182 8.64791 8.16068C8.72859 8.18954 8.80247 8.23467 8.86496 8.29329C8.92746 8.3519 8.97723 8.42273 9.0112 8.50139C9.04517 8.58005 9.0626 8.66486 9.06241 8.75054V9.99975Z" fill="#2A292E"/>
</svg>