
<svg xmlns="http://www.w3.org/2000/svg" preserveAspectRatio="xMidYMid meet" viewBox="0 0 21 20" fill="none">
    <path d="M17.541 3.75H14.416V3.125C14.416 2.62772 14.2185 2.15081 13.8668 1.79917C13.5152 1.44754 13.0383 1.25 12.541 1.25H8.79102C8.29373 1.25 7.81682 1.44754 7.46519 1.79917C7.11356 2.15081 6.91602 2.62772 6.91602 3.125V3.75H3.79102C3.62526 3.75 3.46628 3.81585 3.34907 3.93306C3.23186 4.05027 3.16602 4.20924 3.16602 4.375C3.16602 4.54076 3.23186 4.69973 3.34907 4.81694C3.46628 4.93415 3.62526 5 3.79102 5H4.41602V16.25C4.41602 16.5815 4.54771 16.8995 4.78213 17.1339C5.01655 17.3683 5.3345 17.5 5.66602 17.5H15.666C15.9975 17.5 16.3155 17.3683 16.5499 17.1339C16.7843 16.8995 16.916 16.5815 16.916 16.25V5H17.541C17.7068 5 17.8657 4.93415 17.983 4.81694C18.1002 4.69973 18.166 4.54076 18.166 4.375C18.166 4.20924 18.1002 4.05027 17.983 3.93306C17.8657 3.81585 17.7068 3.75 17.541 3.75ZM8.16602 3.125C8.16602 2.95924 8.23186 2.80027 8.34907 2.68306C8.46628 2.56585 8.62526 2.5 8.79102 2.5H12.541C12.7068 2.5 12.8657 2.56585 12.983 2.68306C13.1002 2.80027 13.166 2.95924 13.166 3.125V3.75H8.16602V3.125ZM15.666 16.25H5.66602V5H15.666V16.25ZM9.41602 8.125V13.125C9.41602 13.2908 9.35017 13.4497 9.23296 13.5669C9.11575 13.6842 8.95678 13.75 8.79102 13.75C8.62526 13.75 8.46628 13.6842 8.34907 13.5669C8.23186 13.4497 8.16602 13.2908 8.16602 13.125V8.125C8.16602 7.95924 8.23186 7.80027 8.34907 7.68306C8.46628 7.56585 8.62526 7.5 8.79102 7.5C8.95678 7.5 9.11575 7.56585 9.23296 7.68306C9.35017 7.80027 9.41602 7.95924 9.41602 8.125ZM13.166 8.125V13.125C13.166 13.2908 13.1002 13.4497 12.983 13.5669C12.8657 13.6842 12.7068 13.75 12.541 13.75C12.3753 13.75 12.2163 13.6842 12.0991 13.5669C11.9819 13.4497 11.916 13.2908 11.916 13.125V8.125C11.916 7.95924 11.9819 7.80027 12.0991 7.68306C12.2163 7.56585 12.3753 7.5 12.541 7.5C12.7068 7.5 12.8657 7.56585 12.983 7.68306C13.1002 7.80027 13.166 7.95924 13.166 8.125Z" fill="#343330"/>
</svg>