<svg xmlns="http://www.w3.org/2000/svg"  preserveAspectRatio="xMidYMid meet" viewBox="0 0 18 18" fill="none">
    <path d="M9 16.3125C10.4463 16.3125 11.8601 15.8836 13.0626 15.0801C14.2651 14.2766 15.2024 13.1346 15.7559 11.7984C16.3093 10.4622 16.4541 8.99189 16.172 7.5734C15.8898 6.15492 15.1934 4.85195 14.1707 3.82928C13.148 2.80661 11.8451 2.11016 10.4266 1.82801C9.00811 1.54585 7.53781 1.69067 6.20163 2.24413C4.86544 2.7976 3.72338 3.73486 2.91988 4.93739C2.11637 6.13993 1.6875 7.55372 1.6875 9C1.68954 10.9388 2.46062 12.7975 3.83154 14.1685C5.20245 15.5394 7.06123 16.3105 9 16.3125ZM9 2.8125C10.2238 2.8125 11.4201 3.17539 12.4376 3.85528C13.4551 4.53517 14.2482 5.50153 14.7165 6.63215C15.1848 7.76276 15.3074 9.00686 15.0686 10.2071C14.8299 11.4074 14.2406 12.5099 13.3752 13.3752C12.5099 14.2406 11.4074 14.8299 10.2071 15.0686C9.00686 15.3074 7.76276 15.1848 6.63214 14.7165C5.50152 14.2482 4.53517 13.4551 3.85528 12.4376C3.17539 11.4201 2.8125 10.2238 2.8125 9C2.81436 7.35954 3.46685 5.78681 4.62683 4.62683C5.78681 3.46685 7.35954 2.81436 9 2.8125ZM9.5625 8.4375L9.5625 12.375C9.5625 12.5242 9.50323 12.6673 9.39774 12.7727C9.29225 12.8782 9.14918 12.9375 9 12.9375C8.85081 12.9375 8.70774 12.8782 8.60225 12.7727C8.49676 12.6673 8.4375 12.5242 8.4375 12.375L8.4375 8.4375C8.4375 8.28832 8.49676 8.14524 8.60225 8.03975C8.70774 7.93426 8.85081 7.875 9 7.875C9.14918 7.875 9.29226 7.93426 9.39774 8.03975C9.50323 8.14524 9.5625 8.28832 9.5625 8.4375ZM8.15625 5.90625C8.15625 5.73937 8.20573 5.57624 8.29844 5.43749C8.39116 5.29873 8.52293 5.19059 8.67711 5.12673C8.83128 5.06287 9.00093 5.04616 9.1646 5.07871C9.32828 5.11127 9.47862 5.19163 9.59662 5.30963C9.71462 5.42763 9.79498 5.57797 9.82753 5.74164C9.86009 5.90531 9.84338 6.07496 9.77952 6.22914C9.71566 6.38331 9.60751 6.51509 9.46876 6.6078C9.33001 6.70052 9.16687 6.75 9 6.75C8.77622 6.75 8.56161 6.66111 8.40338 6.50287C8.24514 6.34464 8.15625 6.13003 8.15625 5.90625Z" fill="#343330"/>
</svg>