<svg xmlns="http://www.w3.org/2000/svg" preserveAspectRatio="xMidYMid meet" viewBox="0 0 18 18" fill="none">
  <path d="M9.00003 5.6232C8.33252 5.6232 7.68 5.82114 7.12498 6.19199C6.56997 6.56284 6.13738 7.08994 5.88194 7.70664C5.62649 8.32335 5.55966 9.00195 5.68988 9.65663C5.82011 10.3113 6.14154 10.9127 6.61355 11.3847C7.08555 11.8567 7.68692 12.1781 8.3416 12.3084C8.99629 12.4386 9.67489 12.3717 10.2916 12.1163C10.9083 11.8608 11.4354 11.4283 11.8062 10.8733C12.1771 10.3182 12.375 9.66571 12.375 8.9982C12.3741 8.10338 12.0182 7.24548 11.3855 6.61274C10.7528 5.98001 9.89485 5.62413 9.00003 5.6232ZM9.00003 11.2482C8.55502 11.2482 8.12001 11.1162 7.75 10.869C7.37999 10.6218 7.0916 10.2704 6.9213 9.85924C6.75101 9.4481 6.70645 8.99571 6.79327 8.55925C6.88008 8.12279 7.09437 7.72188 7.40904 7.40721C7.72371 7.09254 8.12462 6.87825 8.56108 6.79143C8.99754 6.70462 9.44994 6.74917 9.86107 6.91947C10.2722 7.08977 10.6236 7.37816 10.8708 7.74817C11.1181 8.11818 11.25 8.55319 11.25 8.9982C11.25 9.59494 11.013 10.1672 10.591 10.5892C10.1691 11.0111 9.59677 11.2482 9.00003 11.2482ZM15.1875 9.15008C15.1903 9.04883 15.1903 8.94758 15.1875 8.84633L16.2366 7.5357C16.2916 7.46689 16.3297 7.38612 16.3478 7.29989C16.3658 7.21367 16.3634 7.12441 16.3407 7.03929C16.1687 6.39284 15.9114 5.77216 15.5757 5.19359C15.5317 5.11788 15.4707 5.05347 15.3974 5.0055C15.3242 4.95753 15.2408 4.92731 15.1538 4.91726L13.486 4.73164C13.4166 4.65851 13.3463 4.5882 13.275 4.5207L13.0782 2.84867C13.068 2.76163 13.0377 2.67816 12.9896 2.60492C12.9415 2.53167 12.877 2.47068 12.8011 2.42679C12.2223 2.09165 11.6017 1.83465 10.9554 1.6625C10.8703 1.63986 10.781 1.63754 10.6947 1.65574C10.6085 1.67393 10.5278 1.71214 10.459 1.76726L9.15191 2.8107C9.05066 2.8107 8.94941 2.8107 8.84816 2.8107L7.53753 1.76375C7.46872 1.70874 7.38795 1.67067 7.30172 1.65259C7.2155 1.63452 7.12624 1.63695 7.04113 1.65969C6.39478 1.83197 5.77413 2.08921 5.19542 2.42469C5.11971 2.46865 5.0553 2.52968 5.00733 2.60292C4.95936 2.67616 4.92914 2.75959 4.91909 2.84656L4.73347 4.51719C4.66034 4.58703 4.59003 4.65734 4.52253 4.72812L2.8505 4.92008C2.76346 4.9302 2.67999 4.96052 2.60675 5.00862C2.5335 5.05672 2.47251 5.12126 2.42863 5.19711C2.09348 5.77589 1.83648 6.39653 1.66433 7.04281C1.64169 7.12798 1.63937 7.21727 1.65757 7.3035C1.67577 7.38972 1.71397 7.47046 1.76909 7.53922L2.81253 8.84633C2.81253 8.94758 2.81253 9.04883 2.81253 9.15008L1.76558 10.4607C1.71057 10.5295 1.6725 10.6103 1.65442 10.6965C1.63635 10.7827 1.63878 10.872 1.66152 10.9571C1.83349 11.6036 2.09075 12.2242 2.42652 12.8028C2.47048 12.8785 2.53151 12.9429 2.60475 12.9909C2.67799 13.0389 2.76142 13.0691 2.84839 13.0791L4.5162 13.2648C4.58605 13.3379 4.65636 13.4082 4.72714 13.4757L4.92191 15.1477C4.93203 15.2348 4.96235 15.3182 5.01045 15.3915C5.05855 15.4647 5.12309 15.5257 5.19894 15.5696C5.77773 15.9048 6.39836 16.1618 7.04464 16.3339C7.12981 16.3565 7.2191 16.3589 7.30533 16.3407C7.39155 16.3225 7.4723 16.2843 7.54105 16.2291L8.84816 15.1857C8.94941 15.1885 9.05066 15.1885 9.15191 15.1857L10.4625 16.2348C10.5313 16.2898 10.6121 16.3278 10.6983 16.3459C10.7846 16.364 10.8738 16.3616 10.9589 16.3388C11.6054 16.1668 12.2261 15.9096 12.8046 15.5738C12.8804 15.5299 12.9448 15.4688 12.9927 15.3956C13.0407 15.3224 13.0709 15.2389 13.081 15.152L13.2666 13.4841C13.3397 13.4148 13.41 13.3445 13.4775 13.2732L15.1496 13.0763C15.2366 13.0662 15.3201 13.0359 15.3933 12.9878C15.4666 12.9397 15.5276 12.8751 15.5714 12.7993C15.9066 12.2205 16.1636 11.5999 16.3357 10.9536C16.3584 10.8684 16.3607 10.7791 16.3425 10.6929C16.3243 10.6067 16.2861 10.5259 16.231 10.4572L15.1875 9.15008ZM14.0555 8.69305C14.0675 8.89631 14.0675 9.1001 14.0555 9.30336C14.0471 9.44252 14.0907 9.57983 14.1778 9.68867L15.1756 10.9353C15.0611 11.2992 14.9145 11.6521 14.7375 11.99L13.1485 12.17C13.0101 12.1854 12.8823 12.2515 12.7899 12.3556C12.6545 12.5078 12.5104 12.652 12.3582 12.7873C12.254 12.8798 12.1879 13.0076 12.1725 13.1459L11.996 14.7336C11.6582 14.9106 11.3052 15.0572 10.9414 15.1716L9.69402 14.1739C9.5942 14.0942 9.47021 14.0508 9.34245 14.0509H9.3087C9.10544 14.0628 8.90165 14.0628 8.69839 14.0509C8.55923 14.0425 8.42192 14.0861 8.31308 14.1732L7.06292 15.1716C6.69908 15.0572 6.34613 14.9106 6.00823 14.7336L5.82824 13.1466C5.81287 13.0083 5.74673 12.8805 5.64261 12.788C5.49039 12.6527 5.34624 12.5085 5.21089 12.3563C5.11845 12.2522 4.99068 12.1861 4.8523 12.1707L3.26464 11.9935C3.08759 11.6557 2.94099 11.3027 2.82659 10.9388L3.82433 9.69148C3.91145 9.58264 3.95505 9.44533 3.94667 9.30617C3.93472 9.10291 3.93472 8.89912 3.94667 8.69586C3.95505 8.5567 3.91145 8.41938 3.82433 8.31054L2.82659 7.06109C2.94108 6.69725 3.08767 6.3443 3.26464 6.0064L4.85159 5.8264C4.98998 5.81104 5.11775 5.7449 5.21019 5.64078C5.34553 5.48856 5.48969 5.34441 5.64191 5.20906C5.74645 5.11656 5.81286 4.9885 5.82824 4.84976L6.00472 3.26281C6.34257 3.08576 6.69553 2.93916 7.05941 2.82476L8.30675 3.8225C8.41559 3.90962 8.5529 3.95322 8.69206 3.94484C8.89533 3.93289 9.09911 3.93289 9.30238 3.94484C9.44154 3.95322 9.57885 3.90962 9.68769 3.8225L10.9371 2.82476C11.301 2.93925 11.6539 3.08584 11.9918 3.26281L12.1718 4.84976C12.1872 4.98815 12.2533 5.11592 12.3575 5.20836C12.5097 5.3437 12.6538 5.48786 12.7892 5.64008C12.8816 5.7442 13.0094 5.81034 13.1478 5.8257L14.7354 6.00219C14.9125 6.34004 15.0591 6.693 15.1735 7.05687L14.1757 8.30422C14.0878 8.41397 14.0441 8.5527 14.0534 8.69305H14.0555Z" fill="#343330"/>
</svg>