<svg xmlns="http://www.w3.org/2000/svg" preserveAspectRatio="xMidYMid meet" viewBox="0 0 16 16" fill="none">
    <path d="M13.5 2.5H2.5C2.23478 2.5 1.98043 2.60536 1.79289 2.79289C1.60536 2.98043 1.5 3.23478 1.5 3.5V12.5C1.5 12.7652 1.60536 13.0196 1.79289 13.2071C1.98043 13.3946 2.23478 13.5 2.5 13.5H13.5C13.7652 13.5 14.0196 13.3946 14.2071 13.2071C14.3946 13.0196 14.5 12.7652 14.5 12.5V3.5C14.5 3.23478 14.3946 2.98043 14.2071 2.79289C14.0196 2.60536 13.7652 2.5 13.5 2.5ZM6 7.5C6 7.10444 6.1173 6.71776 6.33706 6.38886C6.55682 6.05996 6.86918 5.80362 7.23463 5.65224C7.60009 5.50087 8.00222 5.46126 8.39018 5.53843C8.77814 5.6156 9.13451 5.80608 9.41421 6.08579C9.69392 6.36549 9.8844 6.72186 9.96157 7.10982C10.0387 7.49778 9.99913 7.89991 9.84776 8.26537C9.69638 8.63082 9.44004 8.94318 9.11114 9.16294C8.78224 9.3827 8.39556 9.5 8 9.5C7.46957 9.5 6.96086 9.28929 6.58579 8.91421C6.21071 8.53914 6 8.03043 6 7.5ZM4.53562 12.5C4.88666 11.8918 5.39163 11.3867 5.99976 11.0356C6.6079 10.6844 7.29776 10.4995 8 10.4995C8.70224 10.4995 9.3921 10.6844 10.0002 11.0356C10.6084 11.3867 11.1133 11.8918 11.4644 12.5H4.53562ZM13.5 12.5H12.5831C12.0553 11.2947 11.0745 10.3455 9.8525 9.8575C10.3433 9.47218 10.7018 8.9434 10.8779 8.34479C11.0541 7.74618 11.0393 7.10754 10.8354 6.51777C10.6316 5.92801 10.2489 5.41648 9.74068 5.05442C9.23247 4.69236 8.624 4.49779 8 4.49779C7.376 4.49779 6.76753 4.69236 6.25932 5.05442C5.7511 5.41648 5.36843 5.92801 5.16459 6.51777C4.96074 7.10754 4.94588 7.74618 5.12205 8.34479C5.29823 8.9434 5.65668 9.47218 6.1475 9.8575C4.92553 10.3455 3.94466 11.2947 3.41687 12.5H2.5V3.5H13.5V12.5Z"
          fill="#363440"/>
</svg>
