<svg xmlns="http://www.w3.org/2000/svg" preserveAspectRatio="xMidYMid meet" viewBox="0 0 16 16" fill="none">
    <path d="M8 2C6.27609 2 4.62279 2.68482 3.40381 3.90381C2.18482 5.12279 1.5 6.77609 1.5 8.5C1.5 10.2239 2.18482 11.8772 3.40381 13.0962C4.62279 14.3152 6.27609 15 8 15C9.34438 15 10.7562 14.595 11.7769 13.9169C11.8316 13.8805 11.8786 13.8337 11.9152 13.7792C11.9518 13.7247 11.9774 13.6635 11.9903 13.5991C12.0033 13.5347 12.0035 13.4684 11.9908 13.4039C11.9782 13.3395 11.9529 13.2781 11.9166 13.2234C11.8802 13.1687 11.8334 13.1217 11.7789 13.0851C11.7244 13.0485 11.6632 13.0229 11.5988 13.01C11.5344 12.997 11.4681 12.9968 11.4036 13.0095C11.3392 13.0222 11.2778 13.0474 11.2231 13.0837C10.375 13.6487 9.13812 14 8 14C6.9122 14 5.84883 13.6774 4.94436 13.0731C4.03989 12.4687 3.33494 11.6098 2.91866 10.6048C2.50238 9.59977 2.39346 8.4939 2.60568 7.427C2.8179 6.36011 3.34172 5.3801 4.11091 4.61091C4.8801 3.84172 5.86011 3.3179 6.927 3.10568C7.9939 2.89346 9.09977 3.00238 10.1048 3.41866C11.1098 3.83494 11.9687 4.53989 12.5731 5.44436C13.1774 6.34883 13.5 7.4122 13.5 8.5C13.5 10.1531 12.82 10.5 12.25 10.5C11.68 10.5 11 10.1531 11 8.5V6C11 5.86739 10.9473 5.74021 10.8536 5.64645C10.7598 5.55268 10.6326 5.5 10.5 5.5C10.3674 5.5 10.2402 5.55268 10.1464 5.64645C10.0527 5.74021 10 5.86739 10 6V6.26625C9.5513 5.86396 8.99184 5.60612 8.39451 5.52634C7.79718 5.44655 7.18966 5.54852 6.65111 5.81895C6.11255 6.08938 5.66793 6.51573 5.37515 7.04247C5.08238 7.56922 4.95503 8.17192 5.0097 8.77207C5.06437 9.37223 5.29852 9.942 5.68165 10.4072C6.06477 10.8724 6.57912 11.2114 7.15767 11.38C7.73622 11.5487 8.35216 11.5392 8.92525 11.3528C9.49833 11.1664 10.002 10.8117 10.3706 10.335C10.7456 11.085 11.3925 11.5 12.25 11.5C13.6588 11.5 14.5 10.3787 14.5 8.5C14.4982 6.77665 13.8128 5.12441 12.5942 3.90582C11.3756 2.68722 9.72335 2.00182 8 2ZM8 10.5C7.60444 10.5 7.21776 10.3827 6.88886 10.1629C6.55996 9.94318 6.30362 9.63082 6.15224 9.26537C6.00087 8.89991 5.96126 8.49778 6.03843 8.10982C6.1156 7.72186 6.30608 7.36549 6.58579 7.08579C6.86549 6.80608 7.22186 6.6156 7.60982 6.53843C7.99778 6.46126 8.39991 6.50087 8.76537 6.65224C9.13082 6.80362 9.44318 7.05996 9.66294 7.38886C9.8827 7.71776 10 8.10444 10 8.5C10 9.03043 9.78929 9.53914 9.41421 9.91421C9.03914 10.2893 8.53043 10.5 8 10.5Z"
          fill="#2A292E"/>
</svg>
