<svg xmlns="http://www.w3.org/2000/svg" preserveAspectRatio="xMidYMid meet" viewBox="0 0 16 16" fill="none">
    <path d="M10.8538 6.64625C10.9002 6.69269 10.9371 6.74783 10.9623 6.80853C10.9874 6.86923 11.0004 6.93429 11.0004 7C11.0004 7.06571 10.9874 7.13077 10.9623 7.19147C10.9371 7.25217 10.9002 7.30731 10.8538 7.35375L7.35375 10.8538C7.30731 10.9002 7.25217 10.9371 7.19147 10.9623C7.13077 10.9874 7.06571 11.0004 7 11.0004C6.93429 11.0004 6.86923 10.9874 6.80853 10.9623C6.74783 10.9371 6.69269 10.9002 6.64625 10.8538L5.14625 9.35375C5.05243 9.25993 4.99972 9.13268 4.99972 9C4.99972 8.86732 5.05243 8.74007 5.14625 8.64625C5.24007 8.55243 5.36732 8.49972 5.5 8.49972C5.63268 8.49972 5.75993 8.55243 5.85375 8.64625L7 9.79313L10.1462 6.64625C10.1927 6.59976 10.2478 6.56288 10.3085 6.53772C10.3692 6.51256 10.4343 6.49961 10.5 6.49961C10.5657 6.49961 10.6308 6.51256 10.6915 6.53772C10.7522 6.56288 10.8073 6.59976 10.8538 6.64625ZM14 3.5V13.5C14 13.7652 13.8946 14.0196 13.7071 14.2071C13.5196 14.3946 13.2652 14.5 13 14.5H3C2.73478 14.5 2.48043 14.3946 2.29289 14.2071C2.10536 14.0196 2 13.7652 2 13.5V3.5C2 3.23478 2.10536 2.98043 2.29289 2.79289C2.48043 2.60536 2.73478 2.5 3 2.5H13C13.2652 2.5 13.5196 2.60536 13.7071 2.79289C13.8946 2.98043 14 3.23478 14 3.5ZM13 13.5V3.5H3V13.5H13Z"
          fill="#2A292E"/>
</svg>
