<svg xmlns="http://www.w3.org/2000/svg" preserveAspectRatio="xMidYMid meet" viewBox="0 0 16 16" fill="none">
    <path d="M10.3538 6.14626C10.4003 6.19269 10.4372 6.24784 10.4623 6.30854C10.4875 6.36924 10.5004 6.4343 10.5004 6.50001C10.5004 6.56572 10.4875 6.63078 10.4623 6.69148C10.4372 6.75218 10.4003 6.80732 10.3538 6.85376L6.35381 10.8538C6.30735 10.9002 6.2522 10.9371 6.1915 10.9622C6.13081 10.9873 6.06575 11.0003 6.00006 11.0003C5.93436 11.0003 5.8693 10.9873 5.80861 10.9622C5.74791 10.9371 5.69276 10.9002 5.64631 10.8538C5.59985 10.8073 5.563 10.7522 5.53786 10.6915C5.51272 10.6308 5.49978 10.5657 5.49978 10.5C5.49978 10.4343 5.51272 10.3693 5.53786 10.3086C5.563 10.2479 5.59985 10.1927 5.64631 10.1463L9.64631 6.14626C9.69274 6.09977 9.74789 6.06289 9.80859 6.03773C9.86929 6.01257 9.93435 5.99961 10.0001 5.99961C10.0658 5.99961 10.1308 6.01257 10.1915 6.03773C10.2522 6.06289 10.3074 6.09977 10.3538 6.14626ZM13.4751 3.02501C13.15 2.69997 12.7642 2.44213 12.3395 2.26621C11.9149 2.0903 11.4597 1.99976 11.0001 1.99976C10.5404 1.99976 10.0852 2.0903 9.66058 2.26621C9.23592 2.44213 8.85007 2.69997 8.52506 3.02501L6.64631 4.90313C6.55249 4.99695 6.49978 5.1242 6.49978 5.25688C6.49978 5.38957 6.55249 5.51681 6.64631 5.61063C6.74013 5.70445 6.86737 5.75716 7.00006 5.75716C7.13274 5.75716 7.25999 5.70445 7.35381 5.61063L9.23256 3.73563C9.70311 3.27542 10.3362 3.01933 10.9944 3.02296C11.6525 3.02658 12.2827 3.28962 12.7482 3.75499C13.2137 4.22037 13.4768 4.85052 13.4805 5.50871C13.4843 6.16689 13.2283 6.8 12.7682 7.27063L10.8888 9.14938C10.795 9.24312 10.7422 9.37029 10.7422 9.50291C10.7421 9.63554 10.7948 9.76275 10.8885 9.85657C10.9822 9.95039 11.1094 10.0031 11.242 10.0032C11.3746 10.0032 11.5019 9.95062 11.5957 9.85688L13.4751 7.97501C13.8001 7.65 14.0579 7.26415 14.2339 6.83948C14.4098 6.41482 14.5003 5.95966 14.5003 5.50001C14.5003 5.04035 14.4098 4.5852 14.2339 4.16053C14.0579 3.73587 13.8001 3.35002 13.4751 3.02501ZM8.64631 11.3888L6.76756 13.2675C6.53636 13.5039 6.26056 13.6921 5.95613 13.8212C5.6517 13.9502 5.32469 14.0176 4.99404 14.0194C4.66339 14.0213 4.33566 13.9575 4.02982 13.8318C3.72399 13.706 3.44614 13.5209 3.21235 13.2871C2.97856 13.0533 2.79348 12.7754 2.66782 12.4695C2.54217 12.1637 2.47843 11.8359 2.48031 11.5053C2.48219 11.1746 2.54965 10.8476 2.67877 10.5432C2.80789 10.2388 2.99612 9.96304 3.23256 9.73188L5.11068 7.85376C5.2045 7.75994 5.25721 7.63269 5.25721 7.50001C5.25721 7.36733 5.2045 7.24008 5.11068 7.14626C5.01686 7.05244 4.88961 6.99973 4.75693 6.99973C4.62425 6.99973 4.497 7.05244 4.40318 7.14626L2.52506 9.02501C1.86865 9.68142 1.49988 10.5717 1.49988 11.5C1.49988 12.4283 1.86865 13.3186 2.52506 13.975C3.18147 14.6314 4.07175 15.0002 5.00006 15.0002C5.92836 15.0002 6.81865 14.6314 7.47506 13.975L9.35381 12.0956C9.44754 12.0018 9.50017 11.8746 9.50011 11.742C9.50006 11.6094 9.44731 11.4822 9.35349 11.3884C9.25967 11.2947 9.13246 11.2421 8.99984 11.2421C8.86721 11.2422 8.74004 11.2949 8.64631 11.3888Z"
          fill="#B0ADBD"/>
</svg>
