<svg xmlns="http://www.w3.org/2000/svg" preserveAspectRatio="xMidYMid meet" viewBox="0 0 16 16" fill="none">
  <path d="M14.5 8C14.5 8.13261 14.4473 8.25979 14.3536 8.35355C14.2598 8.44732 14.1326 8.5 14 8.5H5.70687L9.35375 12.1462C9.40021 12.1927 9.43706 12.2479 9.4622 12.3086C9.48734 12.3692 9.50028 12.4343 9.50028 12.5C9.50028 12.5657 9.48734 12.6308 9.4622 12.6914C9.43706 12.7521 9.40021 12.8073 9.35375 12.8538C9.3073 12.9002 9.25214 12.9371 9.19145 12.9622C9.13075 12.9873 9.0657 13.0003 9 13.0003C8.9343 13.0003 8.86925 12.9873 8.80855 12.9622C8.74786 12.9371 8.6927 12.9002 8.64625 12.8538L4.14625 8.35375C4.09976 8.30731 4.06288 8.25217 4.03772 8.19147C4.01256 8.13077 3.99961 8.06571 3.99961 8C3.99961 7.93429 4.01256 7.86923 4.03772 7.80853C4.06288 7.74783 4.09976 7.69269 4.14625 7.64625L8.64625 3.14625C8.6927 3.09979 8.74786 3.06294 8.80855 3.0378C8.86925 3.01266 8.9343 2.99972 9 2.99972C9.0657 2.99972 9.13075 3.01266 9.19145 3.0378C9.25214 3.06294 9.3073 3.09979 9.35375 3.14625C9.40021 3.19271 9.43706 3.24786 9.4622 3.30855C9.48734 3.36925 9.50028 3.4343 9.50028 3.5C9.50028 3.5657 9.48734 3.63075 9.4622 3.69145C9.43706 3.75214 9.40021 3.80729 9.35375 3.85375L5.70687 7.5H14C14.1326 7.5 14.2598 7.55268 14.3536 7.64645C14.4473 7.74021 14.5 7.86739 14.5 8ZM2.5 2C2.36739 2 2.24021 2.05268 2.14645 2.14645C2.05268 2.24021 2 2.36739 2 2.5V13.5C2 13.6326 2.05268 13.7598 2.14645 13.8536C2.24021 13.9473 2.36739 14 2.5 14C2.63261 14 2.75979 13.9473 2.85355 13.8536C2.94732 13.7598 3 13.6326 3 13.5V2.5C3 2.36739 2.94732 2.24021 2.85355 2.14645C2.75979 2.05268 2.63261 2 2.5 2Z" fill="white"/>
</svg>