<svg xmlns="http://www.w3.org/2000/svg" preserveAspectRatio="xMidYMid meet" viewBox="0 0 16 16" fill="none">
    <path d="M9.5 8H8.5V4H9C9.53043 4 10.0391 4.21071 10.4142 4.58579C10.7893 4.96086 11 5.46957 11 6C11 6.13261 11.0527 6.25979 11.1464 6.35355C11.2402 6.44732 11.3674 6.5 11.5 6.5C11.6326 6.5 11.7598 6.44732 11.8536 6.35355C11.9473 6.25979 12 6.13261 12 6C11.9992 5.2046 11.6828 4.44202 11.1204 3.87959C10.558 3.31716 9.7954 3.00083 9 3H8.5V2C8.5 1.86739 8.44732 1.74021 8.35355 1.64645C8.25979 1.55268 8.13261 1.5 8 1.5C7.86739 1.5 7.74021 1.55268 7.64645 1.64645C7.55268 1.74021 7.5 1.86739 7.5 2V3H7C6.20435 3 5.44129 3.31607 4.87868 3.87868C4.31607 4.44129 4 5.20435 4 6C4 6.79565 4.31607 7.55871 4.87868 8.12132C5.44129 8.68393 6.20435 9 7 9H7.5V13H6.5C5.96957 13 5.46086 12.7893 5.08579 12.4142C4.71071 12.0391 4.5 11.5304 4.5 11C4.5 10.8674 4.44732 10.7402 4.35355 10.6464C4.25979 10.5527 4.13261 10.5 4 10.5C3.86739 10.5 3.74021 10.5527 3.64645 10.6464C3.55268 10.7402 3.5 10.8674 3.5 11C3.50083 11.7954 3.81716 12.558 4.37959 13.1204C4.94202 13.6828 5.7046 13.9992 6.5 14H7.5V15C7.5 15.1326 7.55268 15.2598 7.64645 15.3536C7.74021 15.4473 7.86739 15.5 8 15.5C8.13261 15.5 8.25979 15.4473 8.35355 15.3536C8.44732 15.2598 8.5 15.1326 8.5 15V14H9.5C10.2956 14 11.0587 13.6839 11.6213 13.1213C12.1839 12.5587 12.5 11.7956 12.5 11C12.5 10.2044 12.1839 9.44129 11.6213 8.87868C11.0587 8.31607 10.2956 8 9.5 8ZM7 8C6.46957 8 5.96086 7.78929 5.58579 7.41421C5.21071 7.03914 5 6.53043 5 6C5 5.46957 5.21071 4.96086 5.58579 4.58579C5.96086 4.21071 6.46957 4 7 4H7.5V8H7ZM9.5 13H8.5V9H9.5C10.0304 9 10.5391 9.21071 10.9142 9.58579C11.2893 9.96086 11.5 10.4696 11.5 11C11.5 11.5304 11.2893 12.0391 10.9142 12.4142C10.5391 12.7893 10.0304 13 9.5 13Z"
          fill="#2A292E"/>
</svg>
