<svg xmlns="http://www.w3.org/2000/svg" preserveAspectRatio="xMidYMid meet" viewBox="0 0 16 16" fill="none">
    <path d="M15.4606 5.57188L13.1481 12.655C13.1249 12.7264 13.0858 12.7916 13.0339 12.8459C12.982 12.9001 12.9185 12.942 12.8482 12.9683C12.7779 12.9947 12.7026 13.0049 12.6278 12.9981C12.553 12.9914 12.4807 12.9679 12.4162 12.9294C12.4019 12.9206 10.8037 12 7.99875 12C5.19375 12 3.59562 12.9206 3.58 12.93C3.51556 12.9682 3.44338 12.9913 3.36879 12.9979C3.2942 13.0044 3.21909 12.9941 3.14902 12.9677C3.07895 12.9413 3.0157 12.8995 2.96394 12.8453C2.91219 12.7912 2.87325 12.7262 2.85 12.655L0.538748 5.57001C0.492179 5.42818 0.488591 5.27575 0.528433 5.13189C0.568276 4.98802 0.649771 4.85915 0.762667 4.76149C0.875563 4.66382 1.01482 4.60172 1.16292 4.583C1.31102 4.56428 1.46135 4.58976 1.595 4.65626L4.73187 6.21876L7.35187 1.86501C7.41922 1.75334 7.51428 1.66096 7.62784 1.59684C7.74139 1.53272 7.86959 1.49902 8 1.49902C8.13041 1.49902 8.2586 1.53272 8.37216 1.59684C8.48571 1.66096 8.58077 1.75334 8.64812 1.86501L11.2681 6.21876L14.4062 4.65626C14.5401 4.58967 14.6906 4.56421 14.8388 4.58312C14.9871 4.60202 15.1264 4.66443 15.2393 4.76246C15.3521 4.8605 15.4333 4.98976 15.4727 5.13394C15.5121 5.27811 15.5079 5.43072 15.4606 5.57251V5.57188Z"
          fill="#363440"/>
</svg>
