<svg xmlns="http://www.w3.org/2000/svg" preserveAspectRatio="xMidYMid meet" viewBox="0 0 16 16" fill="none">
    <path d="M15.24 4.76186C15.1272 4.66351 14.9877 4.6009 14.8393 4.58199C14.6908 4.56307 14.5401 4.58869 14.4062 4.65561L11.2681 6.21811L8.64812 1.86623C8.58077 1.75456 8.48571 1.66218 8.37216 1.59806C8.2586 1.53394 8.13041 1.50024 8 1.50024C7.86959 1.50024 7.74139 1.53394 7.62784 1.59806C7.51428 1.66218 7.41922 1.75456 7.35187 1.86623L4.73187 6.21998L1.595 4.65748C1.46146 4.59116 1.31131 4.56576 1.16339 4.58447C1.01547 4.60317 0.876369 4.66515 0.763543 4.76262C0.650717 4.86009 0.569193 4.98871 0.5292 5.13235C0.489208 5.27598 0.492529 5.42823 0.538747 5.56998L2.85125 12.655C2.8745 12.7262 2.91344 12.7912 2.96519 12.8453C3.01695 12.8994 3.0802 12.9412 3.15027 12.9676C3.22034 12.994 3.29545 13.0043 3.37004 12.9978C3.44463 12.9913 3.51681 12.9681 3.58125 12.93C3.59687 12.9206 5.195 12 8 12C10.805 12 12.4031 12.9206 12.4175 12.9294C12.482 12.9679 12.5543 12.9914 12.629 12.9981C12.7038 13.0049 12.7792 12.9947 12.8495 12.9683C12.9198 12.942 12.9832 12.9001 13.0352 12.8459C13.0871 12.7916 13.1261 12.7264 13.1494 12.655L15.4619 5.57186C15.5094 5.43006 15.5137 5.27733 15.4742 5.13309C15.4347 4.98885 15.3532 4.85963 15.24 4.76186ZM10.99 9.79998C10.9696 9.91565 10.9091 10.0204 10.8192 10.096C10.7292 10.1715 10.6156 10.213 10.4981 10.2131C10.4688 10.2131 10.4395 10.2106 10.4106 10.2056C8.81355 9.93144 7.18144 9.93144 5.58437 10.2056C5.5197 10.217 5.45341 10.2156 5.38929 10.2014C5.32517 10.1872 5.26448 10.1605 5.21068 10.1228C5.10202 10.0467 5.02804 9.9306 5.005 9.79998C4.98196 9.66936 5.01175 9.53494 5.08782 9.42629C5.16389 9.31763 5.28 9.24365 5.41062 9.22061C7.12266 8.92644 8.87233 8.92644 10.5844 9.22061C10.6493 9.23171 10.7114 9.25553 10.767 9.29069C10.8227 9.32585 10.8709 9.37167 10.9088 9.4255C10.9467 9.47933 10.9736 9.54013 10.988 9.60439C11.0024 9.66866 11.0039 9.73513 10.9925 9.79998H10.99Z"
          fill="#363440"/>
</svg>
