<svg xmlns="http://www.w3.org/2000/svg" preserveAspectRatio="xMidYMid meet" viewBox="0 0 18 18" fill="none">
    <path opacity="0.2"
          d="M16.3125 9C16.3125 9.87961 15.0595 10.5434 14.7178 11.3688C14.3888 12.1648 14.8177 13.5239 14.1708 14.1708C13.5239 14.8177 12.1648 14.3888 11.3688 14.7178C10.5469 15.0595 9.87891 16.3125 9 16.3125C8.12109 16.3125 7.45312 15.0595 6.63117 14.7178C5.83523 14.3888 4.47609 14.8177 3.82922 14.1708C3.18234 13.5239 3.61125 12.1648 3.28219 11.3688C2.94047 10.5469 1.6875 9.87891 1.6875 9C1.6875 8.12109 2.94047 7.45312 3.28219 6.63117C3.61125 5.83594 3.18234 4.47609 3.82922 3.82922C4.47609 3.18234 5.83594 3.61125 6.63117 3.28219C7.45664 2.94047 8.12109 1.6875 9 1.6875C9.87891 1.6875 10.5469 2.94047 11.3688 3.28219C12.1648 3.61125 13.5239 3.18234 14.1708 3.82922C14.8177 4.47609 14.3888 5.83523 14.7178 6.63117C15.0595 7.45664 16.3125 8.12109 16.3125 9Z"
          fill="#B0ADBD"/>
    <path d="M15.8808 7.22953C15.6157 6.9525 15.3415 6.66703 15.2381 6.41602C15.1425 6.18609 15.1369 5.805 15.1312 5.43586C15.1207 4.74961 15.1095 3.97195 14.5687 3.43125C14.028 2.89055 13.2504 2.8793 12.5641 2.86875C12.195 2.86312 11.8139 2.8575 11.584 2.76187C11.3337 2.65852 11.0475 2.3843 10.7705 2.11922C10.2853 1.65305 9.73406 1.125 9 1.125C8.26594 1.125 7.71539 1.65305 7.22953 2.11922C6.9525 2.3843 6.66703 2.65852 6.41602 2.76187C6.1875 2.8575 5.805 2.86312 5.43586 2.86875C4.74961 2.8793 3.97195 2.89055 3.43125 3.43125C2.89055 3.97195 2.88281 4.74961 2.86875 5.43586C2.86312 5.805 2.8575 6.18609 2.76187 6.41602C2.65852 6.66633 2.3843 6.9525 2.11922 7.22953C1.65305 7.71469 1.125 8.26594 1.125 9C1.125 9.73406 1.65305 10.2846 2.11922 10.7705C2.3843 11.0475 2.65852 11.333 2.76187 11.584C2.8575 11.8139 2.86312 12.195 2.86875 12.5641C2.8793 13.2504 2.89055 14.028 3.43125 14.5687C3.97195 15.1095 4.74961 15.1207 5.43586 15.1312C5.805 15.1369 6.18609 15.1425 6.41602 15.2381C6.66633 15.3415 6.9525 15.6157 7.22953 15.8808C7.71469 16.347 8.26594 16.875 9 16.875C9.73406 16.875 10.2846 16.347 10.7705 15.8808C11.0475 15.6157 11.333 15.3415 11.584 15.2381C11.8139 15.1425 12.195 15.1369 12.5641 15.1312C13.2504 15.1207 14.028 15.1095 14.5687 14.5687C15.1095 14.028 15.1207 13.2504 15.1312 12.5641C15.1369 12.195 15.1425 11.8139 15.2381 11.584C15.3415 11.3337 15.6157 11.0475 15.8808 10.7705C16.347 10.2853 16.875 9.73406 16.875 9C16.875 8.26594 16.347 7.71539 15.8808 7.22953ZM15.0687 9.99211C14.7319 10.3437 14.3831 10.7072 14.1982 11.1537C14.021 11.5826 14.0133 12.0727 14.0062 12.5473C13.9992 13.0395 13.9915 13.5548 13.7728 13.7728C13.5541 13.9908 13.0423 13.9992 12.5473 14.0062C12.0727 14.0133 11.5826 14.021 11.1537 14.1982C10.7072 14.3831 10.3437 14.7319 9.99211 15.0687C9.64055 15.4055 9.28125 15.75 9 15.75C8.71875 15.75 8.35664 15.4041 8.00789 15.0687C7.65914 14.7333 7.29281 14.3831 6.84633 14.1982C6.41742 14.021 5.92734 14.0133 5.45273 14.0062C4.96055 13.9992 4.44516 13.9915 4.22719 13.7728C4.00922 13.5541 4.00078 13.0423 3.99375 12.5473C3.98672 12.0727 3.97898 11.5826 3.8018 11.1537C3.61687 10.7072 3.26812 10.3437 2.93133 9.99211C2.59453 9.64055 2.25 9.28125 2.25 9C2.25 8.71875 2.59594 8.35664 2.93133 8.00789C3.26672 7.65914 3.61687 7.29281 3.8018 6.84633C3.97898 6.41742 3.98672 5.92734 3.99375 5.45273C4.00078 4.96055 4.00852 4.44516 4.22719 4.22719C4.44586 4.00922 4.95773 4.00078 5.45273 3.99375C5.92734 3.98672 6.41742 3.97898 6.84633 3.8018C7.29281 3.61687 7.65633 3.26812 8.00789 2.93133C8.35945 2.59453 8.71875 2.25 9 2.25C9.28125 2.25 9.64336 2.59594 9.99211 2.93133C10.3409 3.26672 10.7072 3.61687 11.1537 3.8018C11.5826 3.97898 12.0727 3.98672 12.5473 3.99375C13.0395 4.00078 13.5548 4.00852 13.7728 4.22719C13.9908 4.44586 13.9992 4.95773 14.0062 5.45273C14.0133 5.92734 14.021 6.41742 14.1982 6.84633C14.3831 7.29281 14.7319 7.65633 15.0687 8.00789C15.4055 8.35945 15.75 8.71875 15.75 9C15.75 9.28125 15.4041 9.64336 15.0687 9.99211ZM12.2105 6.91453C12.2628 6.96677 12.3043 7.02881 12.3326 7.0971C12.3609 7.16538 12.3754 7.23858 12.3754 7.3125C12.3754 7.38642 12.3609 7.45962 12.3326 7.5279C12.3043 7.59619 12.2628 7.65823 12.2105 7.71047L8.27297 11.648C8.22073 11.7003 8.15869 11.7418 8.0904 11.7701C8.02212 11.7984 7.94892 11.8129 7.875 11.8129C7.80108 11.8129 7.72788 11.7984 7.6596 11.7701C7.59131 11.7418 7.52927 11.7003 7.47703 11.648L5.78953 9.96047C5.68398 9.85492 5.62469 9.71177 5.62469 9.5625C5.62469 9.41323 5.68398 9.27008 5.78953 9.16453C5.89508 9.05898 6.03823 8.99969 6.1875 8.99969C6.33677 8.99969 6.47992 9.05898 6.58547 9.16453L7.875 10.4548L11.4145 6.91453C11.4668 6.86223 11.5288 6.82074 11.5971 6.79244C11.6654 6.76413 11.7386 6.74956 11.8125 6.74956C11.8864 6.74956 11.9596 6.76413 12.0279 6.79244C12.0962 6.82074 12.1582 6.86223 12.2105 6.91453Z"
          fill="#B0ADBD"/>
</svg>
