<svg xmlns="http://www.w3.org/2000/svg" preserveAspectRatio="xMidYMid meet" viewBox="0 0 20 20" fill="none">
  <path d="M12.9417 15.8078C12.9998 15.8659 13.0458 15.9348 13.0773 16.0107C13.1087 16.0866 13.1249 16.1679 13.1249 16.25C13.1249 16.3321 13.1087 16.4134 13.0773 16.4893C13.0458 16.5652 12.9998 16.6341 12.9417 16.6922C12.8836 16.7503 12.8147 16.7963 12.7388 16.8277C12.663 16.8592 12.5816 16.8753 12.4995 16.8753C12.4174 16.8753 12.3361 16.8592 12.2602 16.8277C12.1843 16.7963 12.1154 16.7503 12.0573 16.6922L5.80733 10.4422C5.74922 10.3841 5.70312 10.3152 5.67167 10.2393C5.64021 10.1635 5.62402 10.0821 5.62402 10C5.62402 9.91786 5.64021 9.83653 5.67167 9.76066C5.70312 9.68478 5.74922 9.61585 5.80733 9.55781L12.0573 3.30781C12.1746 3.19053 12.3337 3.12465 12.4995 3.12465C12.6654 3.12465 12.8244 3.19053 12.9417 3.30781C13.059 3.42508 13.1249 3.58414 13.1249 3.75C13.1249 3.91585 13.059 4.07491 12.9417 4.19218L7.13311 10L12.9417 15.8078Z" fill="#363440"/>
</svg>