<svg xmlns="http://www.w3.org/2000/svg" preserveAspectRatio="xMidYMid meet" viewBox="0 0 20 20" fill="none">
  <path d="M14.1925 10.4422L7.94254 16.6922C7.88447 16.7503 7.81553 16.7963 7.73966 16.8277C7.66379 16.8592 7.58247 16.8753 7.50035 16.8753C7.41823 16.8753 7.33691 16.8592 7.26104 16.8277C7.18517 16.7963 7.11623 16.7503 7.05816 16.6922C7.00009 16.6341 6.95403 16.5652 6.9226 16.4893C6.89117 16.4134 6.875 16.3321 6.875 16.25C6.875 16.1679 6.89117 16.0866 6.9226 16.0107C6.95403 15.9348 7.00009 15.8659 7.05816 15.8078L12.8668 10L7.05816 4.19218C6.94088 4.07491 6.875 3.91585 6.875 3.75C6.875 3.58414 6.94088 3.42508 7.05816 3.30781C7.17544 3.19053 7.3345 3.12465 7.50035 3.12465C7.6662 3.12465 7.82526 3.19053 7.94254 3.30781L14.1925 9.55781C14.2506 9.61585 14.2967 9.68479 14.3282 9.76066C14.3597 9.83653 14.3758 9.91786 14.3758 10C14.3758 10.0821 14.3597 10.1635 14.3282 10.2393C14.2967 10.3152 14.2506 10.3841 14.1925 10.4422Z" fill="#363440"/>
</svg>