<svg xmlns="http://www.w3.org/2000/svg" preserveAspectRatio="xMidYMid meet" viewBox="0 0 16 16" fill="none">
  <path d="M3 11.25C3 11.9375 3.44875 12.5 4 12.5C4.12065 12.4973 4.2395 12.4701 4.3493 12.42C4.45911 12.3699 4.55759 12.2981 4.63875 12.2087C4.73087 12.1149 4.85624 12.0612 4.98771 12.0591C5.11919 12.0571 5.24618 12.1069 5.34118 12.1978C5.43619 12.2887 5.49157 12.4133 5.49533 12.5448C5.49908 12.6762 5.45091 12.8038 5.36125 12.9C5.18715 13.0874 4.97661 13.2373 4.74254 13.3405C4.50847 13.4436 4.25579 13.4979 4 13.5C2.89688 13.5 2 12.4906 2 11.25C2 10.0094 2.89688 9 4 9C4.25579 9.00207 4.50847 9.05636 4.74254 9.15953C4.97661 9.2627 5.18715 9.41259 5.36125 9.6C5.45091 9.69618 5.49908 9.8238 5.49533 9.95523C5.49157 10.0867 5.43619 10.2113 5.34118 10.3022C5.24618 10.3931 5.11919 10.4429 4.98771 10.4409C4.85624 10.4388 4.73087 10.3851 4.63875 10.2913C4.55759 10.2019 4.45911 10.1301 4.3493 10.08C4.2395 10.0299 4.12065 10.0027 4 10C3.44875 10 3 10.5625 3 11.25ZM7.975 10.7069C7.725 10.6344 7.46625 10.56 7.32188 10.4669C7.24375 10.4163 7.245 10.4044 7.25187 10.3481C7.25297 10.3027 7.26488 10.2582 7.28662 10.2183C7.30836 10.1784 7.3393 10.1443 7.37687 10.1187C7.66437 9.92375 8.33563 10.0106 8.61563 10.0837C8.74392 10.1181 8.88063 10.1002 8.99567 10.0338C9.11071 9.96737 9.19467 9.85799 9.22906 9.72969C9.26346 9.60139 9.24548 9.46468 9.17908 9.34964C9.11268 9.2346 9.0033 9.15065 8.875 9.11625C8.7425 9.08187 7.5625 8.79 6.8225 9.28875C6.66601 9.39377 6.53452 9.53191 6.43732 9.69337C6.34011 9.85483 6.27958 10.0357 6.26 10.2231C6.135 11.2156 7.11313 11.4987 7.6975 11.6675C8.45125 11.8856 8.5175 11.975 8.49625 12.1419C8.47688 12.2925 8.4175 12.3506 8.3625 12.3875C8.075 12.5787 7.41437 12.485 7.14062 12.41C7.01266 12.3743 6.87574 12.3909 6.76 12.4561C6.64425 12.5213 6.55916 12.6298 6.52344 12.7578C6.48772 12.8858 6.50429 13.0227 6.56952 13.1384C6.63475 13.2542 6.74328 13.3393 6.87125 13.375C7.18124 13.4562 7.50019 13.4982 7.82062 13.5C8.18437 13.5 8.58937 13.4375 8.91375 13.2212C9.07385 13.1149 9.2084 12.9743 9.30771 12.8097C9.40702 12.6452 9.46864 12.4606 9.48812 12.2694C9.625 11.1875 8.59312 10.8856 7.975 10.7069ZM13.1681 9.02938C13.1063 9.00723 13.0407 8.9975 12.9751 9.00072C12.9095 9.00394 12.8451 9.02006 12.7858 9.04815C12.7264 9.07624 12.6731 9.11576 12.629 9.16444C12.5849 9.21312 12.5509 9.27002 12.5288 9.33187L11.75 11.5131L10.9706 9.33187C10.926 9.20697 10.8337 9.1049 10.7138 9.04811C10.594 8.99133 10.4565 8.98447 10.3316 9.02906C10.2067 9.07365 10.1046 9.16603 10.0478 9.28588C9.99101 9.40573 9.98416 9.54322 10.0288 9.66813L11.2788 13.1681C11.3134 13.2653 11.3773 13.3494 11.4616 13.4088C11.5459 13.4682 11.6465 13.5001 11.7497 13.5001C11.8528 13.5001 11.9535 13.4682 12.0378 13.4088C12.1221 13.3494 12.186 13.2653 12.2206 13.1681L13.4706 9.66813C13.5151 9.5433 13.5083 9.40592 13.4516 9.28614C13.3949 9.16637 13.2929 9.07402 13.1681 9.02938ZM13.5 5.5V7C13.5 7.13261 13.4473 7.25979 13.3536 7.35355C13.2598 7.44732 13.1326 7.5 13 7.5C12.8674 7.5 12.7402 7.44732 12.6464 7.35355C12.5527 7.25979 12.5 7.13261 12.5 7V6H9.5C9.36739 6 9.24021 5.94732 9.14645 5.85355C9.05268 5.75979 9 5.63261 9 5.5V2.5H3.5V7C3.5 7.13261 3.44732 7.25979 3.35355 7.35355C3.25979 7.44732 3.13261 7.5 3 7.5C2.86739 7.5 2.74021 7.44732 2.64645 7.35355C2.55268 7.25979 2.5 7.13261 2.5 7V2.5C2.5 2.23478 2.60536 1.98043 2.79289 1.79289C2.98043 1.60536 3.23478 1.5 3.5 1.5H9.5C9.56568 1.49995 9.63073 1.51284 9.69143 1.53793C9.75212 1.56303 9.80728 1.59983 9.85375 1.64625L13.3538 5.14625C13.4002 5.19272 13.437 5.24788 13.4621 5.30858C13.4872 5.36927 13.5001 5.43432 13.5 5.5ZM11.7931 5L10 3.20688V5H11.7931Z" fill="#343330"/>
</svg>