<svg xmlns="http://www.w3.org/2000/svg" preserveAspectRatio="xMidYMid meet" viewBox="0 0 20 20" fill="none">
  <path d="M17.9424 17.0575L14.0306 13.1466C15.1644 11.7854 15.7298 10.0395 15.6091 8.27214C15.4884 6.50475 14.691 4.85192 13.3828 3.65748C12.0745 2.46304 10.3561 1.81895 8.5851 1.8592C6.81406 1.89945 5.12671 2.62094 3.87407 3.87358C2.62143 5.12622 1.89994 6.81357 1.85969 8.58462C1.81944 10.3557 2.46353 12.074 3.65797 13.3823C4.85241 14.6906 6.50524 15.488 8.27263 15.6086C10.04 15.7293 11.7859 15.1639 13.1471 14.0302L17.058 17.9419C17.1161 17.9999 17.185 18.046 17.2609 18.0774C17.3367 18.1089 17.4181 18.125 17.5002 18.125C17.5823 18.125 17.6636 18.1089 17.7395 18.0774C17.8154 18.046 17.8843 17.9999 17.9424 17.9419C18.0004 17.8838 18.0465 17.8149 18.0779 17.739C18.1094 17.6631 18.1255 17.5818 18.1255 17.4997C18.1255 17.4176 18.1094 17.3363 18.0779 17.2604C18.0465 17.1845 18.0004 17.1156 17.9424 17.0575ZM3.12518 8.74969C3.12518 7.63717 3.45508 6.54963 4.07316 5.62461C4.69124 4.69958 5.56975 3.97861 6.59758 3.55287C7.62542 3.12712 8.75642 3.01573 9.84756 3.23277C10.9387 3.44981 11.941 3.98554 12.7277 4.77221C13.5143 5.55888 14.0501 6.56116 14.2671 7.65231C14.4841 8.74345 14.3727 9.87445 13.947 10.9023C13.5213 11.9301 12.8003 12.8086 11.8753 13.4267C10.9502 14.0448 9.8627 14.3747 8.75018 14.3747C7.25884 14.373 5.82906 13.7799 4.77453 12.7253C3.72 11.6708 3.12683 10.241 3.12518 8.74969Z" fill="#6F6C7D"/>
</svg>