<svg xmlns="http://www.w3.org/2000/svg" preserveAspectRatio="xMidYMid meet" viewBox="0 0 20 20" fill="none">
  <path opacity="0.5" d="M14.5 3L12 5L12.5 7L14.3826 7.6221L17 5.5L15 5L14.5 3Z" fill="#5878D2"/>
  <path d="M9.37899 2.0188C9.65447 1.99966 9.89306 2.20816 9.9122 2.48364C9.93108 2.75893 9.72366 2.99772 9.44833 3.01684C8.12512 3.1088 6.85613 3.57845 5.79208 4.37036C4.72797 5.16233 3.91334 6.24342 3.4454 7.48462C2.97755 8.72573 2.87604 10.0751 3.15243 11.3723C3.41156 12.5885 3.99258 13.7111 4.83309 14.6233L5.00497 14.803L5.1827 14.9768C6.08627 15.8263 7.20286 16.4182 8.4161 16.6897C9.71062 16.9791 11.0619 16.8913 12.3077 16.4358C13.5535 15.9804 14.6428 15.1774 15.4454 14.1213V14.1204C16.2478 13.0644 16.7299 11.7999 16.835 10.4778C16.8571 10.2028 17.0981 9.99805 17.3731 10.0198C17.6484 10.0417 17.854 10.2826 17.8321 10.5579C17.7117 12.0708 17.1597 13.5174 16.2413 14.7258C15.3228 15.9344 14.0762 16.8541 12.6505 17.3752C11.225 17.8963 9.67951 17.9974 8.19833 17.6663C6.7171 17.3349 5.36192 16.5848 4.29403 15.5061V15.5071C3.22609 14.4284 2.49022 13.0649 2.17391 11.5803C1.85771 10.0958 1.97442 8.55131 2.50985 7.1311C3.04536 5.71094 3.97782 4.47479 5.1954 3.5686C6.41303 2.6624 7.8648 2.12402 9.37899 2.0188Z" fill="#5878D2"/>
  <path d="M8.48891 6.27476C8.74598 6.17412 9.0366 6.30097 9.13735 6.55797C9.23799 6.81503 9.11113 7.10565 8.85415 7.2064C8.40088 7.38386 7.99839 7.67151 7.68422 8.04332C7.37025 8.41499 7.15368 8.85901 7.05434 9.33531C6.95502 9.81184 6.97639 10.3065 7.11587 10.7728C7.25536 11.239 7.50865 11.6635 7.85317 12.0072C8.19778 12.3508 8.62287 12.6033 9.0895 12.7416C9.55608 12.8798 10.0498 12.8987 10.526 12.7982C11.0022 12.6977 11.4461 12.4804 11.817 12.1654C12.188 11.8503 12.4747 11.4472 12.651 10.9935C12.7511 10.7362 13.0412 10.6084 13.2985 10.7084C13.5558 10.8083 13.6835 11.0985 13.5836 11.3558C13.3472 11.9645 12.9621 12.5044 12.4645 12.9271C11.9669 13.3498 11.3719 13.6418 10.7331 13.7767C10.0942 13.9116 9.43144 13.8851 8.80532 13.6996C8.17945 13.5141 7.60934 13.1761 7.14712 12.7152C6.68485 12.2541 6.34496 11.6845 6.15786 11.0589C5.97075 10.4333 5.9426 9.77045 6.07583 9.13121C6.2091 8.49219 6.49927 7.89643 6.92055 7.39781C7.34195 6.89909 7.88096 6.51281 8.48891 6.27476Z" fill="#5878D2"/>
  <path d="M12.4325 6.71864C12.6278 6.52352 12.9443 6.52343 13.1395 6.71864C13.3346 6.91387 13.3346 7.23045 13.1395 7.42567L10.2821 10.2831C10.0869 10.4782 9.77031 10.4782 9.57509 10.2831C9.37987 10.0879 9.37997 9.77134 9.57509 9.57606L12.4325 6.71864Z" fill="#5878D2"/>
  <path d="M14.1965 2.10219C14.3198 2.00807 14.4811 1.97616 14.633 2.01821C14.8066 2.06629 14.9409 2.2038 14.9846 2.37856L15.4826 4.3727L17.4778 4.87172C17.6525 4.91541 17.791 5.04968 17.8391 5.22328C17.8872 5.39687 17.8375 5.58322 17.7102 5.71059L15.425 7.99574C15.3009 8.11983 15.1207 8.16999 14.9504 8.12758L12.6643 7.55629C12.4851 7.51151 12.3448 7.37118 12.3 7.19203L11.7287 4.90688C11.6862 4.73659 11.7365 4.55645 11.8606 4.43227L14.1467 2.14614L14.1965 2.10219ZM12.7678 4.93813L13.1975 6.65785L14.9172 7.08852L16.3791 5.6266L14.9504 5.27016C14.7713 5.22539 14.631 5.08591 14.5862 4.90688L14.2287 3.47719L12.7678 4.93813Z" fill="#5878D2"/>
</svg>