<svg xmlns="http://www.w3.org/2000/svg" preserveAspectRatio="xMidYMid meet" viewBox="0 0 16 16" fill="none">
  <path d="M9.35378 8.64664C9.30735 8.60015 9.2522 8.56328 9.1915 8.53811C9.13081 8.51295 9.06574 8.5 9.00003 8.5C8.93433 8.5 8.86926 8.51295 8.80856 8.53811C8.74786 8.56328 8.69272 8.60015 8.64628 8.64664L7.50003 9.79352L6.20691 8.50039L7.35378 7.35414C7.4476 7.26032 7.50031 7.13308 7.50031 7.00039C7.50031 6.86771 7.4476 6.74046 7.35378 6.64664C7.25996 6.55282 7.13272 6.50012 7.00003 6.50012C6.86735 6.50012 6.7401 6.55282 6.64628 6.64664L5.50003 7.79352L4.35378 6.64664C4.25996 6.55282 4.13272 6.50012 4.00003 6.50012C3.86735 6.50012 3.7401 6.55282 3.64628 6.64664C3.55246 6.74046 3.49976 6.86771 3.49976 7.00039C3.49976 7.13308 3.55246 7.26032 3.64628 7.35414L4.04316 7.75039L2.58566 9.20727C2.39989 9.39299 2.25253 9.61349 2.152 9.85617C2.05146 10.0989 1.99971 10.359 1.99971 10.6216C1.99971 10.8843 2.05146 11.1444 2.152 11.3871C2.25253 11.6298 2.39989 11.8503 2.58566 12.036L2.92191 12.3716L1.14628 14.1466C1.09983 14.1931 1.06298 14.2482 1.03784 14.3089C1.0127 14.3696 0.999756 14.4347 0.999756 14.5004C0.999756 14.5661 1.0127 14.6311 1.03784 14.6918C1.06298 14.7525 1.09983 14.8077 1.14628 14.8541C1.2401 14.948 1.36735 15.0007 1.50003 15.0007C1.56573 15.0007 1.63079 14.9877 1.69148 14.9626C1.75218 14.9374 1.80733 14.9006 1.85378 14.8541L3.62878 13.0785L3.96441 13.4148C4.15013 13.6005 4.37063 13.7479 4.61331 13.8484C4.85599 13.949 5.1161 14.0007 5.37878 14.0007C5.64147 14.0007 5.90158 13.949 6.14426 13.8484C6.38694 13.7479 6.60744 13.6005 6.79316 13.4148L8.25003 11.9573L8.64628 12.3541C8.69274 12.4006 8.74789 12.4374 8.80859 12.4626C8.86928 12.4877 8.93434 12.5007 9.00003 12.5007C9.06573 12.5007 9.13079 12.4877 9.19148 12.4626C9.25218 12.4374 9.30733 12.4006 9.35378 12.3541C9.40024 12.3077 9.43709 12.2525 9.46223 12.1918C9.48737 12.1311 9.50031 12.0661 9.50031 12.0004C9.50031 11.9347 9.48737 11.8696 9.46223 11.8089C9.43709 11.7482 9.40024 11.6931 9.35378 11.6466L8.20691 10.5004L9.35378 9.35414C9.40027 9.30771 9.43715 9.25256 9.46231 9.19186C9.48748 9.13116 9.50043 9.0661 9.50043 9.00039C9.50043 8.93469 9.48748 8.86962 9.46231 8.80892C9.43715 8.74822 9.40027 8.69308 9.35378 8.64664ZM6.08566 12.7091C5.89814 12.8965 5.64389 13.0018 5.37878 13.0018C5.11368 13.0018 4.85943 12.8965 4.67191 12.7091L3.29316 11.3285C3.10576 11.141 3.0005 10.8867 3.0005 10.6216C3.0005 10.3565 3.10576 10.1023 3.29316 9.91477L4.75003 8.45727L7.54316 11.2504L6.08566 12.7091ZM14.8538 1.14664C14.8073 1.10016 14.7522 1.06328 14.6915 1.03811C14.6308 1.01295 14.5657 1 14.5 1C14.4343 1 14.3693 1.01295 14.3086 1.03811C14.2479 1.06328 14.1927 1.10016 14.1463 1.14664L12.3713 2.92227L12.0357 2.58602C11.6602 2.21161 11.1515 2.00136 10.6213 2.00136C10.091 2.00136 9.5824 2.21161 9.20691 2.58602L7.75003 4.04352L7.35378 3.64664C7.25996 3.55282 7.13272 3.50012 7.00003 3.50012C6.86735 3.50012 6.7401 3.55282 6.64628 3.64664C6.55246 3.74046 6.49976 3.86771 6.49976 4.00039C6.49976 4.13308 6.55246 4.26032 6.64628 4.35414L11.6463 9.35414C11.6927 9.4006 11.7479 9.43745 11.8086 9.46259C11.8693 9.48773 11.9343 9.50067 12 9.50067C12.0657 9.50067 12.1308 9.48773 12.1915 9.46259C12.2522 9.43745 12.3073 9.4006 12.3538 9.35414C12.4002 9.30769 12.4371 9.25254 12.4622 9.19184C12.4874 9.13114 12.5003 9.06609 12.5003 9.00039C12.5003 8.9347 12.4874 8.86964 12.4622 8.80895C12.4371 8.74825 12.4002 8.6931 12.3538 8.64664L11.9569 8.25039L13.4144 6.79352C13.6002 6.6078 13.7475 6.3873 13.8481 6.14462C13.9486 5.90193 14.0004 5.64183 14.0004 5.37914C14.0004 5.11646 13.9486 4.85635 13.8481 4.61367C13.7475 4.37099 13.6002 4.15049 13.4144 3.96477L13.0782 3.62914L14.8538 1.85414C14.9003 1.80771 14.9372 1.75256 14.9623 1.69186C14.9875 1.63116 15.0004 1.5661 15.0004 1.50039C15.0004 1.43469 14.9875 1.36962 14.9623 1.30892C14.9372 1.24822 14.9003 1.19308 14.8538 1.14664ZM12.7069 6.08414L11.25 7.54352L8.45691 4.75039L9.91441 3.29352C10.1019 3.10612 10.3562 3.00086 10.6213 3.00086C10.8864 3.00086 11.1406 3.10612 11.3282 3.29352L12.7069 4.66852C12.8003 4.76144 12.8743 4.87188 12.9249 4.99351C12.9754 5.11514 13.0014 5.24555 13.0014 5.37727C13.0014 5.50898 12.9754 5.6394 12.9249 5.76103C12.8743 5.88266 12.8003 5.9931 12.7069 6.08602V6.08414Z" fill="#6F6C7D"/>
</svg>