<svg xmlns="http://www.w3.org/2000/svg" preserveAspectRatio="xMidYMid meet" viewBox="0 0 20 20" fill="none">
  <path d="M16.7064 9.26845C16.6889 9.19342 16.6531 9.12387 16.6023 9.06596C16.5515 9.00804 16.4871 8.96355 16.415 8.93642L11.7877 7.20126L12.9596 1.34189C12.9795 1.24188 12.9664 1.13809 12.922 1.04624C12.8777 0.954396 12.8046 0.879514 12.7139 0.832954C12.6232 0.786393 12.5197 0.770694 12.4193 0.788239C12.3188 0.805783 12.2268 0.855613 12.1572 0.930171L3.40721 10.3052C3.35466 10.3615 3.31681 10.4299 3.297 10.5044C3.2772 10.5788 3.27605 10.657 3.29366 10.732C3.31127 10.807 3.3471 10.8766 3.39797 10.9344C3.44885 10.9923 3.5132 11.0367 3.58533 11.0638L8.21268 12.7989L7.0408 18.6583C7.02068 18.7583 7.03375 18.8622 7.07802 18.9541C7.12229 19.0461 7.19536 19.121 7.28611 19.1677C7.35244 19.2014 7.42577 19.2191 7.50018 19.2192C7.56452 19.2192 7.62818 19.206 7.68719 19.1803C7.74619 19.1546 7.79928 19.1171 7.84315 19.07L16.5931 9.69501C16.6456 9.63868 16.6834 9.5703 16.7031 9.4959C16.7229 9.4215 16.724 9.34339 16.7064 9.26845ZM8.28143 17.2239L9.20721 12.5927C9.22917 12.4836 9.2116 12.3702 9.15763 12.2729C9.10367 12.1756 9.01684 12.1006 8.91268 12.0614L4.56893 10.4325L11.7142 2.77626L10.7908 7.4083C10.7688 7.5174 10.7864 7.63075 10.8404 7.72808C10.8943 7.82541 10.9812 7.90037 11.0853 7.93955L15.4291 9.56845L8.28143 17.2239Z" fill="#6F6C7D"/>
</svg>