<svg xmlns="http://www.w3.org/2000/svg" preserveAspectRatio="xMidYMid meet" viewBox="0 0 18 18" fill="none">
    <path d="M15.023 7.14792L9.39804 12.7729C9.3458 12.8252 9.28376 12.8667 9.21547 12.895C9.14719 12.9233 9.07399 12.9379 9.00007 12.9379C8.92615 12.9379 8.85295 12.9233 8.78466 12.895C8.71638 12.8667 8.65434 12.8252 8.6021 12.7729L2.9771 7.14792C2.87155 7.04237 2.81226 6.89921 2.81226 6.74995C2.81226 6.60068 2.87155 6.45753 2.9771 6.35198C3.08265 6.24643 3.2258 6.18713 3.37507 6.18713C3.52434 6.18713 3.66749 6.24643 3.77304 6.35198L9.00007 11.5797L14.2271 6.35198C14.2794 6.29972 14.3414 6.25826 14.4097 6.22998C14.478 6.20169 14.5512 6.18713 14.6251 6.18713C14.699 6.18713 14.7722 6.20169 14.8404 6.22998C14.9087 6.25826 14.9708 6.29972 15.023 6.35198C15.0753 6.40424 15.1168 6.46628 15.145 6.53457C15.1733 6.60285 15.1879 6.67604 15.1879 6.74995C15.1879 6.82386 15.1733 6.89704 15.145 6.96533C15.1168 7.03361 15.0753 7.09565 15.023 7.14792Z"
          fill="#202939"/>
</svg>
