<svg xmlns="http://www.w3.org/2000/svg" preserveAspectRatio="xMidYMid meet" viewBox="0 0 20 20" fill="none">
  <path d="M18.4561 8.41834L12.2061 2.16834C12.1405 2.10287 12.057 2.05829 11.9662 2.04023C11.8753 2.02218 11.7811 2.03146 11.6955 2.06691C11.6099 2.10235 11.5367 2.16237 11.4852 2.23938C11.4337 2.31639 11.4062 2.40694 11.4061 2.49959V5.79646C7.14984 6.07693 2.00062 10.0933 1.41155 15.223C1.39242 15.3864 1.42533 15.5516 1.50558 15.6951C1.58583 15.8387 1.70933 15.9532 1.8585 16.0225C2.00766 16.0918 2.17488 16.1122 2.33632 16.0809C2.49777 16.0495 2.64521 15.968 2.75765 15.848C3.63734 14.9097 6.79671 11.9215 11.4061 11.7285V14.9996C11.4062 15.0922 11.4337 15.1828 11.4852 15.2598C11.5367 15.3368 11.6099 15.3968 11.6955 15.4323C11.7811 15.4677 11.8753 15.477 11.9662 15.4589C12.057 15.4409 12.1405 15.3963 12.2061 15.3308L18.4561 9.08084C18.5439 8.99295 18.5932 8.87381 18.5932 8.74959C18.5932 8.62537 18.5439 8.50623 18.4561 8.41834ZM12.3436 13.8683V11.2496C12.3436 11.1253 12.2942 11.006 12.2063 10.9181C12.1184 10.8302 11.9992 10.7808 11.8748 10.7808C9.70843 10.7808 7.59671 11.3472 5.59984 12.4644C4.43595 13.1182 3.36386 13.9234 2.41155 14.859C2.77874 12.784 3.98656 10.7965 5.84906 9.21287C7.69281 7.65115 9.94437 6.71834 11.8748 6.71834C11.9992 6.71834 12.1184 6.66895 12.2063 6.58104C12.2942 6.49314 12.3436 6.37391 12.3436 6.24959V3.63162L17.4616 8.74959L12.3436 13.8683Z" fill="#6F6C7D"/>
</svg>