<svg xmlns="http://www.w3.org/2000/svg" preserveAspectRatio="xMidYMid meet" viewBox="0 0 16 16" fill="none">
  <path d="M14.035 6.48812C13.3394 6.10937 12.4044 5.83687 11.375 5.70875V5.25C11.375 4.4925 10.7762 3.80625 9.6875 3.31687C8.6975 2.87062 7.3875 2.625 6 2.625C4.6125 2.625 3.3025 2.87062 2.3125 3.31687C1.22375 3.80625 0.625 4.4925 0.625 5.25V7.75C0.625 8.5075 1.22375 9.19375 2.3125 9.68312C2.96812 9.97812 3.76312 10.1831 4.625 10.2913V10.75C4.625 11.5075 5.22375 12.1937 6.3125 12.6831C7.3025 13.1294 8.6125 13.375 10 13.375C11.3875 13.375 12.6975 13.1294 13.6875 12.6831C14.7744 12.1937 15.375 11.5075 15.375 10.75V8.25C15.375 7.58437 14.8994 6.95875 14.035 6.48812ZM13.6763 7.14687C14.2881 7.48 14.625 7.875 14.625 8.25C14.625 9.13688 12.7256 10.125 10 10.125C9.55679 10.1253 9.11402 10.0973 8.67437 10.0413C9.02085 9.9483 9.35958 9.82856 9.6875 9.68312C10.7744 9.19375 11.375 8.5075 11.375 7.75V6.46438C12.275 6.585 13.0813 6.8225 13.6763 7.14687ZM6.76 9.59875C6.515 9.61562 6.26 9.625 6 9.625C5.66875 9.625 5.35 9.61 5.045 9.58313C5.03731 9.58248 5.02957 9.58248 5.02187 9.58313C4.79812 9.5625 4.58437 9.535 4.375 9.50187V7.7575C4.91307 7.83633 5.45619 7.8756 6 7.875C6.54381 7.8756 7.08693 7.83633 7.625 7.7575V9.5C7.35375 9.54313 7.06812 9.57625 6.76937 9.5975L6.76 9.59875ZM10.625 6.61812V7.75C10.625 8.34625 9.76562 8.9875 8.375 9.34437V7.61562C8.82538 7.51395 9.26491 7.36911 9.6875 7.18313C10.0236 7.03714 10.3389 6.84715 10.625 6.61812ZM6 3.375C8.72563 3.375 10.625 4.36313 10.625 5.25C10.625 6.13687 8.72563 7.125 6 7.125C3.27437 7.125 1.375 6.13687 1.375 5.25C1.375 4.36313 3.27437 3.375 6 3.375ZM1.375 7.75V6.61812C1.66124 6.84627 1.97649 7.03542 2.3125 7.18062C2.73509 7.36661 3.17462 7.51145 3.625 7.61312V9.34188C2.23438 8.9875 1.375 8.34625 1.375 7.75ZM5.375 10.75V10.3575C5.58125 10.3688 5.78937 10.375 6 10.375C6.24625 10.375 6.48917 10.3673 6.72875 10.3519C7.0219 10.4576 7.3212 10.5455 7.625 10.615V12.3444C6.23438 11.9875 5.375 11.3462 5.375 10.75ZM8.375 12.5V10.7563C8.91303 10.8355 9.45616 10.8752 10 10.875C10.5438 10.8756 11.0869 10.8363 11.625 10.7575V12.5C10.5481 12.6667 9.45192 12.6667 8.375 12.5ZM12.375 12.3444V10.6156C12.8254 10.5139 13.2649 10.3691 13.6875 10.1831C14.0235 10.0379 14.3388 9.84877 14.625 9.62062V10.75C14.625 11.3462 13.7656 11.9875 12.375 12.3444Z" fill="#363440"/>
</svg>