<svg xmlns="http://www.w3.org/2000/svg" preserveAspectRatio="xMidYMid meet"  viewBox="0 0 20 20" fill="none">
<path d="M16.8584 9.23208C16.8347 9.1319 16.7867 9.03913 16.7185 8.96199C16.6504 8.88484 16.5642 8.82573 16.4678 8.78989L11.967 7.10161L13.1123 1.3727C13.1382 1.23959 13.1202 1.10166 13.0608 0.979716C13.0015 0.857774 12.9041 0.758439 12.7834 0.6967C12.6626 0.634962 12.5251 0.61417 12.3915 0.637463C12.2579 0.660755 12.1355 0.726868 12.0427 0.825824L3.29275 10.2008C3.22168 10.2757 3.17027 10.367 3.14311 10.4666C3.11595 10.5662 3.11389 10.671 3.1371 10.7716C3.16031 10.8722 3.20808 10.9655 3.27614 11.0431C3.3442 11.1207 3.43043 11.1803 3.52713 11.2165L8.02947 12.9047L6.88728 18.6274C6.86135 18.7605 6.87941 18.8984 6.93874 19.0204C6.99808 19.1423 7.09547 19.2416 7.21621 19.3034C7.33695 19.3651 7.4745 19.3859 7.6081 19.3626C7.74169 19.3393 7.86409 19.2732 7.95681 19.1743L16.7068 9.79926C16.7766 9.72436 16.8269 9.63347 16.8533 9.53457C16.8798 9.43567 16.8815 9.3318 16.8584 9.23208ZM8.54431 16.7188L9.36228 12.6266C9.39156 12.4815 9.36836 12.3307 9.29682 12.201C9.22529 12.0714 9.11005 11.9714 8.97166 11.9188L4.84353 10.368L11.4545 3.2852L10.6373 7.37739C10.608 7.52252 10.6312 7.67333 10.7027 7.80296C10.7743 7.93258 10.8895 8.0326 11.0279 8.0852L15.1529 9.63208L8.54431 16.7188Z" fill="#2A292E"/>
</svg>