<svg width="16" height="16" viewBox="0 0 16 16" fill="none" xmlns="http://www.w3.org/2000/svg">
<path fill-rule="evenodd" clip-rule="evenodd" d="M6.44444 12.322C8.53397 12.322 10.2279 10.6109 10.2279 8.5C10.2279 6.38915 8.53397 4.67797 6.44444 4.67797C4.35491 4.67797 2.66102 6.38915 2.66102 8.5C2.66102 10.6109 4.35491 12.322 6.44444 12.322ZM6.44444 14C9.45133 14 11.8889 11.5376 11.8889 8.5C11.8889 5.46243 9.45133 3 6.44444 3C3.43756 3 1 5.46243 1 8.5C1 11.5376 3.43756 14 6.44444 14ZM10.5926 11.4919C12.3715 11.4919 13.8136 10.0351 13.8136 8.2381C13.8136 6.44105 12.3715 4.98426 10.5926 4.98426C8.8137 4.98426 7.37163 6.44105 7.37163 8.2381C7.37163 10.0351 8.8137 11.4919 10.5926 11.4919ZM10.5926 12.6905C13.0267 12.6905 15 10.6971 15 8.2381C15 5.77911 13.0267 3.78571 10.5926 3.78571C8.15845 3.78571 6.18518 5.77911 6.18518 8.2381C6.18518 10.6971 8.15845 12.6905 10.5926 12.6905Z" fill="#363440"/>
</svg>
