<svg width="16" height="16" viewBox="0 0 16 16" fill="none" xmlns="http://www.w3.org/2000/svg">
    <g clip-path="url(#clip0_3534_8719)">
        <path d="M8.02152 7.00435L6.88434 9.23851L4.04956 14.8036C3.95785 14.9826 3.84576 15.1434 3.71737 15.2838L3.70514 15.296C3.6868 15.3143 3.66846 15.3346 3.65012 15.353C3.6114 15.3936 3.5686 15.4303 3.52784 15.4649C3.51765 15.473 3.50746 15.4832 3.49727 15.4893C3.48708 15.4974 3.47689 15.5056 3.4667 15.5137C3.45651 15.5218 3.44428 15.532 3.43409 15.5402C3.41983 15.5503 3.4076 15.5605 3.39334 15.5707C3.37499 15.5849 3.35461 15.5971 3.33627 15.6114C3.32812 15.6175 3.31997 15.6236 3.31182 15.6276C3.2894 15.6419 3.26698 15.6561 3.24253 15.6704C3.22215 15.6826 3.20381 15.6928 3.18343 15.705C3.16305 15.7172 3.14267 15.7273 3.12229 15.7375C3.07949 15.7579 3.03466 15.7803 2.99186 15.7986C2.92257 15.8291 2.85124 15.8555 2.77787 15.8779C2.76361 15.882 2.74934 15.8861 2.73508 15.8901C2.72285 15.8942 2.71266 15.8962 2.70043 15.8983C2.69228 15.9003 2.68209 15.9023 2.67394 15.9044C2.66579 15.9064 2.65764 15.9084 2.64745 15.9105C2.63726 15.9125 2.62707 15.9145 2.61688 15.9166C2.6128 15.9166 2.61076 15.9186 2.60465 15.9186C2.59446 15.9207 2.58631 15.9227 2.57612 15.9247C2.54759 15.9308 2.51905 15.9369 2.49052 15.941C2.47626 15.943 2.46199 15.9451 2.44773 15.9471C2.43346 15.9491 2.42123 15.9512 2.40697 15.9532C2.3927 15.9532 2.38047 15.9552 2.36621 15.9573C2.36213 15.9573 2.36009 15.9593 2.35806 15.9593C2.35602 15.9593 2.35398 15.9593 2.35194 15.9593C2.31934 15.9634 2.28469 15.9654 2.25208 15.9675C2.21744 15.9675 2.18076 15.9695 2.14611 15.9695H2.12369C2.12369 15.9695 2.10943 15.9695 2.10331 15.9695H2.09516C2.06867 15.9695 2.04217 15.9675 2.01568 15.9654C2.00957 15.9654 2.00142 15.9654 1.9953 15.9654C1.979 15.9654 1.96269 15.9634 1.94435 15.9613C1.93009 15.9593 1.91582 15.9573 1.90156 15.9552C1.88321 15.9552 1.86487 15.9512 1.84653 15.9491C1.83023 15.9471 1.81392 15.9451 1.79762 15.943C1.78132 15.941 1.76501 15.939 1.75075 15.9349C1.73852 15.9349 1.72629 15.9308 1.71406 15.9288C1.67331 15.9207 1.63255 15.9105 1.59179 15.9003C1.57141 15.8942 1.55103 15.8881 1.53065 15.882C1.53065 15.882 1.53065 15.882 1.52861 15.882C1.50823 15.8759 1.48581 15.8677 1.46543 15.8616C1.44709 15.8555 1.42875 15.8494 1.41041 15.8433C1.38595 15.8352 1.35946 15.825 1.33501 15.8128C1.31259 15.8047 1.28813 15.7925 1.26368 15.7823C1.23922 15.7701 1.21273 15.7599 1.18827 15.7477C1.18216 15.7457 1.17605 15.7436 1.17197 15.7396C1.15567 15.7314 1.13936 15.7233 1.12306 15.7131C1.11491 15.709 1.10472 15.705 1.09657 15.6989C1.07822 15.6887 1.05784 15.6765 1.0395 15.6643C1.01709 15.6521 0.994668 15.6378 0.974289 15.6236C0.968175 15.6195 0.960023 15.6154 0.953909 15.6093C0.937606 15.5992 0.92334 15.589 0.907037 15.5788C0.890733 15.5666 0.876467 15.5564 0.862202 15.5442C0.858126 15.5422 0.85405 15.5381 0.849974 15.5361C0.835708 15.5259 0.823481 15.5157 0.811253 15.5035C0.805139 15.4995 0.796987 15.4934 0.790874 15.4872C0.78476 15.4811 0.776608 15.475 0.770494 15.471C0.758266 15.4608 0.746039 15.4506 0.733811 15.4404C0.729735 15.4364 0.723621 15.4323 0.719545 15.4262C0.715469 15.4221 0.711393 15.4181 0.70528 15.412C0.686938 15.3957 0.668597 15.3774 0.650255 15.3611C0.631913 15.3428 0.613572 15.3265 0.597268 15.3082C0.580965 15.2899 0.562623 15.2716 0.54632 15.2533C0.530016 15.2349 0.513712 15.2166 0.497409 15.1963C0.483143 15.178 0.468877 15.1597 0.454612 15.1413C0.448498 15.1352 0.442384 15.1271 0.43627 15.119C0.430156 15.1108 0.424043 15.1027 0.419967 15.0966C0.413853 15.0864 0.405701 15.0762 0.397549 15.0661C0.397549 15.064 0.395511 15.062 0.393473 15.06C0.389397 15.0538 0.385321 15.0477 0.381246 15.0416C0.375132 15.0335 0.369018 15.0254 0.364942 15.0172C0.344562 14.9867 0.324183 14.9562 0.305841 14.9236C0.293614 14.9053 0.283424 14.885 0.273234 14.8646C0.214134 14.7608 0.165223 14.651 0.126502 14.5391C0.114274 14.5065 0.104084 14.4739 0.0938947 14.4393C0.0898188 14.4271 0.0857429 14.4129 0.081667 14.4007C0.0775911 14.3905 0.0755531 14.3783 0.0735152 14.3681C0.0653634 14.3356 0.0572116 14.301 0.0490598 14.2684C0.0490598 14.2664 0.0490598 14.2623 0.0470218 14.2603C0.0449839 14.244 0.040908 14.2298 0.03887 14.2155C0.0368321 14.2054 0.0347941 14.1952 0.0347941 14.185C0.0307182 14.1626 0.0286803 14.1423 0.0246044 14.1199C0.0225664 14.1036 0.0205285 14.0853 0.0184905 14.069C0.0184905 14.0629 0.0164526 14.0548 0.0164526 14.0466C0.0144146 14.0283 0.0123767 14.008 0.0123767 13.9897C0.0123767 13.9876 0.0123767 13.9836 0.0123767 13.9815C0.0123767 13.9795 0.0123767 13.9754 0.0123767 13.9734C0.0123767 13.9714 0.0123767 13.9693 0.0123767 13.9673C0.0103387 13.9469 0.00830078 13.9246 0.00830078 13.9042C0.00830078 13.8798 0.00830078 13.8554 0.00830078 13.831C0.00830078 13.8106 0.00830078 13.7882 0.00830078 13.7679C0.00830078 13.7536 0.00830078 13.7414 0.0103387 13.7272C0.0103387 13.7129 0.0103387 13.6967 0.0123767 13.6824C0.0123767 13.6661 0.0144146 13.6519 0.0164526 13.6377C0.0164526 13.6234 0.0184905 13.6112 0.0205285 13.599C0.0205285 13.5827 0.0225664 13.5664 0.0266423 13.5522C0.0286803 13.5359 0.0307182 13.5217 0.0347941 13.5054C0.0347941 13.4973 0.0368321 13.4871 0.03887 13.4769C0.040908 13.4667 0.0429459 13.4586 0.0449839 13.4484C0.0449839 13.4464 0.0449839 13.4444 0.0449839 13.4423V13.4382C0.0592495 13.365 0.0755531 13.2938 0.0979706 13.2226C0.110198 13.1819 0.124464 13.1432 0.13873 13.1025C0.146881 13.0822 0.155033 13.0618 0.161147 13.0415C0.169299 13.0232 0.177451 13.0028 0.185602 12.9825C0.193754 12.9642 0.201906 12.9458 0.210058 12.9275C0.220248 12.9072 0.230437 12.8848 0.240627 12.8644L5.97949 1.57765C5.97949 1.57765 5.97949 1.57969 5.97949 1.58172C5.8185 2.06396 5.82665 2.6052 6.04267 3.10779L6.08139 3.19732L8.02152 7.00231V7.00435Z"
              fill="#6F6C7D"/>
        <path d="M0.00406958 13.9693C0.00406958 13.9693 0.00406958 13.9734 0.00406958 13.9754C0.00406958 13.953 0.00203479 13.9286 0 13.9042C0 13.9246 0.00203479 13.9469 0.00406958 13.9673V13.9693Z"
              fill="#4C4957"/>
        <path d="M0.00423206 13.9917C0.00423206 14.012 0.00626685 14.0304 0.00830164 14.0487C0.00626685 14.0263 0.00423206 14.0059 0.00219727 13.9836C0.00219727 13.9856 0.00219727 13.9897 0.00219727 13.9917H0.00423206Z"
              fill="#4C4957"/>
        <path d="M0.0163574 13.5502C0.0183922 13.5257 0.0224618 13.4993 0.0285662 13.4749C0.0285662 13.483 0.0265314 13.4932 0.0244966 13.5034C0.020427 13.5196 0.0183922 13.5359 0.0163574 13.5502Z"
              fill="#4C4957"/>
        <path d="M0.0285645 13.4749C0.0305992 13.4627 0.032634 13.4525 0.0346688 13.4403C0.0346688 13.4423 0.0346688 13.4444 0.0346688 13.4464C0.0346688 13.4545 0.0305992 13.4647 0.0285645 13.4749Z"
              fill="#4C4957"/>
        <path d="M0.450442 15.1434C0.464686 15.1617 0.476894 15.18 0.493173 15.1983C0.472825 15.1739 0.452477 15.1474 0.432129 15.121C0.438233 15.1271 0.444338 15.1352 0.450442 15.1434Z"
              fill="#4C4957"/>
        <path d="M0.698982 15.414C0.698982 15.414 0.707121 15.4242 0.713226 15.4282C0.688808 15.4079 0.664391 15.3855 0.644043 15.3631C0.662356 15.3814 0.680669 15.3977 0.698982 15.414Z"
              fill="#4C4957"/>
        <path d="M0.805016 15.5056C0.817225 15.5157 0.831468 15.5259 0.843677 15.5381C0.823329 15.5239 0.802981 15.5076 0.784668 15.4913C0.790772 15.4954 0.798912 15.5015 0.805016 15.5076V15.5056Z"
              fill="#4C4957"/>
        <path d="M1.18596 15.7477C1.21038 15.7599 1.23683 15.7721 1.26125 15.7823C1.23073 15.7701 1.20021 15.7558 1.16968 15.7396C1.15341 15.7314 1.13713 15.7233 1.12085 15.7131C1.13713 15.7212 1.15341 15.7314 1.16968 15.7396C1.17375 15.7416 1.17986 15.7436 1.18596 15.7477Z"
              fill="#4C4957"/>
        <path d="M2.34533 15.9613C2.34533 15.9613 2.3494 15.9613 2.35143 15.9613C2.28022 15.9695 2.209 15.9736 2.13778 15.9736C2.13168 15.9736 2.12354 15.9736 2.11743 15.9736H2.13981C2.17441 15.9736 2.21103 15.9736 2.24562 15.9715C2.27818 15.9715 2.31277 15.9675 2.34533 15.9634V15.9613Z"
              fill="#4C4957"/>
        <path d="M2.36198 15.9593C2.37622 15.9593 2.38843 15.9573 2.40268 15.9552C2.3864 15.9573 2.37012 15.9593 2.35181 15.9613C2.35384 15.9613 2.35791 15.9613 2.35995 15.9593H2.36198Z"
              fill="#4C4957"/>
        <path d="M2.61271 15.9186C2.61271 15.9186 2.63306 15.9145 2.64323 15.9125C2.62899 15.9166 2.61678 15.9186 2.60254 15.9206C2.60661 15.9206 2.61068 15.9207 2.61475 15.9186H2.61271Z"
              fill="#4C4957"/>
        <path d="M3.46249 15.5137C3.47266 15.5056 3.48284 15.4974 3.49301 15.4893C3.47266 15.5076 3.45028 15.5239 3.42993 15.5402C3.44214 15.532 3.45231 15.5218 3.46249 15.5137Z"
              fill="#4C4957"/>
        <path d="M3.7151 15.2817C3.69271 15.3062 3.67237 15.3285 3.64795 15.3509C3.66626 15.3326 3.68458 15.3143 3.70289 15.2939L3.7151 15.2817Z"
              fill="#4C4957"/>
        <path d="M10.1142 1.68346L9.95522 1.37214C9.47426 0.318134 8.23315 -0.162068 7.16119 0.299821C6.90848 0.409698 6.68635 0.56027 6.50293 0.743398C7.08986 0.137041 8.0049 -0.0867824 8.83638 0.242848C9.49464 0.505332 9.9491 1.05472 10.1162 1.68956V1.68549L10.1142 1.68346Z"
              fill="#4C4957"/>
        <path d="M15.6211 12.3476L15.3949 12.1136C13.7401 10.4065 11.6043 9.36059 9.29529 9.11032L8.18053 6.88022L6.27912 3.07523L6.2404 2.9857C6.02846 2.48311 6.01827 1.94187 6.17723 1.45963C6.17723 1.45963 6.17723 1.4576 6.17723 1.45556L6.25671 1.29685C6.36064 1.03844 6.50737 0.812578 6.68671 0.623346C6.68671 0.623346 6.68671 0.621311 6.68875 0.619276C6.87013 0.436148 7.08615 0.285576 7.33478 0.175699C8.38433 -0.28619 9.60098 0.194012 10.0717 1.24802L10.2266 1.5573L10.2287 1.5634L15.617 12.3456L15.6211 12.3476Z"
              fill="#4C4957"/>
        <path d="M6.18115 1.45556C6.28493 1.14424 6.45788 0.859376 6.68985 0.623344C6.51079 0.812577 6.36428 1.03843 6.26051 1.29685L6.18115 1.45556Z"
              fill="#4C4957"/>
        <path d="M16 13.8615V13.8655C16 13.9123 16 13.9612 15.9959 14.0059C15.9959 14.0059 15.9959 14.008 15.9959 14.01C15.9939 14.0568 15.9878 14.1056 15.9817 14.1504C15.9756 14.1992 15.9674 14.246 15.9572 14.2928C15.947 14.3396 15.9368 14.3885 15.9226 14.4332C15.9144 14.4699 15.9022 14.5085 15.8879 14.5452C15.8716 14.6001 15.8512 14.653 15.8268 14.7059C15.8125 14.7425 15.7962 14.7791 15.7779 14.8137C15.7697 14.8321 15.7616 14.8483 15.7514 14.8646C15.7473 14.8748 15.7432 14.885 15.7351 14.8951C15.7066 14.948 15.678 14.9969 15.6454 15.0477C15.6454 15.0518 15.6413 15.0559 15.6373 15.0599C15.6189 15.0864 15.6006 15.1128 15.5802 15.1393C15.4987 15.2492 15.409 15.3509 15.3092 15.4425C15.2602 15.4893 15.2073 15.532 15.1522 15.5727C15.1278 15.591 15.1013 15.6093 15.0768 15.6297C15.0198 15.6704 14.9586 15.709 14.8955 15.7416C14.871 15.7558 14.8465 15.768 14.82 15.7823C14.7243 15.8311 14.6224 15.8718 14.5205 15.9044C14.4879 15.9145 14.4553 15.9247 14.4206 15.9329C14.386 15.941 14.3534 15.9491 14.3187 15.9573C14.2841 15.9654 14.2494 15.9715 14.2148 15.9756C14.1822 15.9817 14.1496 15.9878 14.117 15.9898C14.1068 15.9919 14.0986 15.9939 14.0884 15.9919C14.0599 15.9939 14.0314 15.998 14.0008 15.998C13.9661 15.998 13.9295 16 13.8948 16C13.8622 16 13.8337 16 13.8031 15.998C13.7929 15.998 13.7827 15.998 13.7746 15.998C13.7522 15.9959 13.7297 15.9939 13.7073 15.9919C13.6869 15.9919 13.6666 15.9898 13.6462 15.9878C13.6177 15.9837 13.5871 15.9797 13.5586 15.9736C13.5545 15.9736 13.5524 15.9736 13.5504 15.9736C13.5178 15.9695 13.4893 15.9613 13.4567 15.9552C13.4139 15.9471 13.3731 15.9369 13.3323 15.9247C13.2895 15.9125 13.2488 15.9003 13.208 15.8861C13.1978 15.882 13.1876 15.88 13.1775 15.8738C13.151 15.8657 13.1245 15.8555 13.098 15.8433C13.0796 15.8352 13.0593 15.827 13.0389 15.8189C13.0287 15.8148 13.0205 15.8108 13.0103 15.8047C12.9574 15.7802 12.9044 15.7518 12.8534 15.7233C12.8473 15.7212 12.8412 15.7172 12.8371 15.7131C12.8086 15.6948 12.7801 15.6785 12.7495 15.6582C12.6904 15.6195 12.6313 15.5768 12.5763 15.532C12.5477 15.5096 12.5212 15.4872 12.4947 15.4608C12.4683 15.4364 12.4438 15.412 12.4193 15.3875C12.4193 15.3875 12.4193 15.3875 12.4173 15.3855C12.3928 15.3611 12.3684 15.3346 12.3439 15.3082C12.3399 15.3062 12.3399 15.3041 12.3358 15.3021C11.2251 14.187 9.75574 13.5746 8.19263 13.5746C6.62953 13.5746 5.07253 14.2237 3.95166 15.4079C4.07801 15.2675 4.18806 15.1067 4.27773 14.9277L7.05546 9.36263C7.43044 9.3199 7.8095 9.29955 8.19263 9.29955C8.57577 9.29955 8.92426 9.3199 9.28497 9.35856C11.594 9.60883 13.7297 10.6547 15.3846 12.3619L15.6108 12.5959L15.7616 12.897C15.9165 13.2083 15.9898 13.5359 15.9898 13.8635L16 13.8615Z"
              fill="#363440"/>
    </g>
    <defs>
        <clipPath id="clip0_3534_8719">
            <rect width="16" height="16" fill="white"/>
        </clipPath>
    </defs>
</svg>
