<svg preserveAspectRatio="xMidYMid meet" viewBox="0 0 20 20" fill="none" xmlns="http://www.w3.org/2000/svg">
<path d="M16.25 2.5H3.75C3.41848 2.5 3.10054 2.6317 2.86612 2.86612C2.6317 3.10054 2.5 3.41848 2.5 3.75V16.25C2.5 16.5815 2.6317 16.8995 2.86612 17.1339C3.10054 17.3683 3.41848 17.5 3.75 17.5H16.25C16.5815 17.5 16.8995 17.3683 17.1339 17.1339C17.3683 16.8995 17.5 16.5815 17.5 16.25V3.75C17.5 3.41848 17.3683 3.10054 17.1339 2.86612C16.8995 2.6317 16.5815 2.5 16.25 2.5ZM16.25 3.75V11.875H14.0078C13.8437 11.8746 13.6812 11.9068 13.5297 11.9697C13.3781 12.0325 13.2406 12.1249 13.125 12.2414L11.6164 13.75H8.38359L6.875 12.2414C6.75935 12.1248 6.62168 12.0324 6.46999 11.9695C6.3183 11.9066 6.15562 11.8745 5.99141 11.875H3.75V3.75H16.25ZM16.25 16.25H3.75V13.125H5.99141L7.5 14.6336C7.61565 14.7502 7.75332 14.8426 7.90501 14.9055C8.0567 14.9684 8.21938 15.0005 8.38359 15H11.6164C11.7806 15.0005 11.9433 14.9684 12.095 14.9055C12.2467 14.8426 12.3843 14.7502 12.5 14.6336L14.0086 13.125H16.25V16.25ZM7.05781 9.81719C6.94054 9.69991 6.87465 9.54085 6.87465 9.375C6.87465 9.20915 6.94054 9.05009 7.05781 8.93281C7.17509 8.81554 7.33415 8.74965 7.5 8.74965C7.66585 8.74965 7.82491 8.81554 7.94219 8.93281L9.375 10.3664V5.625C9.375 5.45924 9.44085 5.30027 9.55806 5.18306C9.67527 5.06585 9.83424 5 10 5C10.1658 5 10.3247 5.06585 10.4419 5.18306C10.5592 5.30027 10.625 5.45924 10.625 5.625V10.3664L12.0578 8.93281C12.1159 8.87474 12.1848 8.82868 12.2607 8.79725C12.3366 8.76583 12.4179 8.74965 12.5 8.74965C12.5821 8.74965 12.6634 8.76583 12.7393 8.79725C12.8152 8.82868 12.8841 8.87474 12.9422 8.93281C13.0003 8.99088 13.0463 9.05982 13.0777 9.13569C13.1092 9.21156 13.1253 9.29288 13.1253 9.375C13.1253 9.45712 13.1092 9.53844 13.0777 9.61431C13.0463 9.69018 13.0003 9.75912 12.9422 9.81719L10.4422 12.3172C10.3841 12.3753 10.3152 12.4214 10.2393 12.4529C10.1635 12.4843 10.0821 12.5005 10 12.5005C9.91787 12.5005 9.83654 12.4843 9.76066 12.4529C9.68479 12.4214 9.61586 12.3753 9.55781 12.3172L7.05781 9.81719Z" fill="#6F6C7D"/>
</svg>
