<svg preserveAspectRatio="xMidYMid meet" viewBox="0 0 20 20" fill="none" xmlns="http://www.w3.org/2000/svg">
<path d="M19.3756 9.68805C19.3748 8.86018 19.1395 8.04947 18.6971 7.34974C18.2547 6.65001 17.6231 6.08987 16.8756 5.73414V5.62555C16.8749 4.82025 16.6149 4.03658 16.1342 3.39048C15.6535 2.74439 14.9776 2.27019 14.2065 2.03807C13.4354 1.80595 12.61 1.82822 11.8526 2.1016C11.0951 2.37498 10.4457 2.88494 10.0006 3.55602C9.55544 2.88494 8.90609 2.37498 8.14861 2.1016C7.39114 1.82822 6.56578 1.80595 5.79466 2.03807C5.02354 2.27019 4.34763 2.74439 3.86694 3.39048C3.38625 4.03658 3.12631 4.82025 3.12559 5.62555V5.73414C2.37741 6.0889 1.74527 6.64869 1.30262 7.34846C0.859977 8.04823 0.625 8.85925 0.625 9.68727C0.625 10.5153 0.859977 11.3263 1.30262 12.0261C1.74527 12.7259 2.37741 13.2856 3.12559 13.6404V13.7505C3.12631 14.5558 3.38625 15.3395 3.86694 15.9856C4.34763 16.6317 5.02354 17.1059 5.79466 17.338C6.56578 17.5702 7.39114 17.5479 8.14861 17.2745C8.90609 17.0011 9.55544 16.4912 10.0006 15.8201C10.4457 16.4912 11.0951 17.0011 11.8526 17.2745C12.61 17.5479 13.4354 17.5702 14.2065 17.338C14.9776 17.1059 15.6535 16.6317 16.1342 15.9856C16.6149 15.3395 16.8749 14.5558 16.8756 13.7505V13.6404C17.623 13.2849 18.2545 12.7251 18.6969 12.0256C19.1394 11.3261 19.3747 10.5157 19.3756 9.68805ZM6.87559 16.2505C6.25914 16.2505 5.66446 16.0226 5.20576 15.6108C4.74707 15.199 4.4567 14.6322 4.39043 14.0193C4.59254 14.0481 4.79643 14.0628 5.00059 14.063H5.62559C5.79135 14.063 5.95032 13.9972 6.06753 13.88C6.18474 13.7628 6.25059 13.6038 6.25059 13.438C6.25059 13.2723 6.18474 13.1133 6.06753 12.9961C5.95032 12.8789 5.79135 12.813 5.62559 12.813H5.00059C4.26274 12.8139 3.54839 12.5537 2.98401 12.0784C2.41962 11.6031 2.04161 10.9435 1.9169 10.2163C1.79218 9.48902 1.92881 8.74112 2.3026 8.10496C2.67638 7.4688 3.26321 6.98542 3.95918 6.74039C4.08096 6.69728 4.18638 6.61749 4.26095 6.512C4.33552 6.40652 4.37557 6.28051 4.37559 6.15133V5.62555C4.37559 4.96251 4.63898 4.32662 5.10782 3.85778C5.57666 3.38894 6.21255 3.12555 6.87559 3.12555C7.53863 3.12555 8.17451 3.38894 8.64335 3.85778C9.1122 4.32662 9.37559 4.96251 9.37559 5.62555V10.9584C8.68927 10.3411 7.79866 9.99987 6.87559 10.0005C6.70983 10.0005 6.55086 10.0664 6.43364 10.1836C6.31643 10.3008 6.25059 10.4598 6.25059 10.6255C6.25059 10.7913 6.31643 10.9503 6.43364 11.0675C6.55086 11.1847 6.70983 11.2505 6.87559 11.2505C7.53863 11.2505 8.17451 11.5139 8.64335 11.9828C9.1122 12.4516 9.37559 13.0875 9.37559 13.7505C9.37559 14.4136 9.1122 15.0495 8.64335 15.5183C8.17451 15.9872 7.53863 16.2505 6.87559 16.2505ZM15.0006 12.813H14.3756C14.2098 12.813 14.0509 12.8789 13.9336 12.9961C13.8164 13.1133 13.7506 13.2723 13.7506 13.438C13.7506 13.6038 13.8164 13.7628 13.9336 13.88C14.0509 13.9972 14.2098 14.063 14.3756 14.063H15.0006C15.2047 14.0628 15.4086 14.0481 15.6107 14.0193C15.5588 14.4995 15.3689 14.9544 15.0639 15.329C14.759 15.7035 14.3521 15.9817 13.8924 16.1299C13.4327 16.2782 12.9399 16.29 12.4735 16.1641C12.0072 16.0382 11.5874 15.7799 11.2648 15.4205C10.9421 15.061 10.7305 14.6158 10.6555 14.1386C10.5806 13.6615 10.6454 13.1728 10.8422 12.7318C11.0391 12.2907 11.3595 11.9161 11.7647 11.6532C12.1699 11.3903 12.6426 11.2505 13.1256 11.2505C13.2913 11.2505 13.4503 11.1847 13.5675 11.0675C13.6847 10.9503 13.7506 10.7913 13.7506 10.6255C13.7506 10.4598 13.6847 10.3008 13.5675 10.1836C13.4503 10.0664 13.2913 10.0005 13.1256 10.0005C12.2025 9.99987 11.3119 10.3411 10.6256 10.9584V5.62555C10.6256 4.96251 10.889 4.32662 11.3578 3.85778C11.8267 3.38894 12.4625 3.12555 13.1256 3.12555C13.7886 3.12555 14.4245 3.38894 14.8934 3.85778C15.3622 4.32662 15.6256 4.96251 15.6256 5.62555V6.15133C15.6256 6.28051 15.6657 6.40652 15.7402 6.512C15.8148 6.61749 15.9202 6.69728 16.042 6.74039C16.738 6.98542 17.3248 7.4688 17.6986 8.10496C18.0724 8.74112 18.209 9.48902 18.0843 10.2163C17.9596 10.9435 17.5816 11.6031 17.0172 12.0784C16.4528 12.5537 15.7384 12.8139 15.0006 12.813ZM16.2506 8.75055C16.2506 8.91631 16.1847 9.07528 16.0675 9.19249C15.9503 9.3097 15.7913 9.37555 15.6256 9.37555H15.3131C14.5672 9.37555 13.8518 9.07923 13.3244 8.55179C12.7969 8.02434 12.5006 7.30897 12.5006 6.56305V6.25055C12.5006 6.08479 12.5664 5.92582 12.6836 5.80861C12.8009 5.6914 12.9598 5.62555 13.1256 5.62555C13.2913 5.62555 13.4503 5.6914 13.5675 5.80861C13.6847 5.92582 13.7506 6.08479 13.7506 6.25055V6.56305C13.7506 6.97745 13.9152 7.37488 14.2082 7.6679C14.5013 7.96093 14.8987 8.12555 15.3131 8.12555H15.6256C15.7913 8.12555 15.9503 8.1914 16.0675 8.30861C16.1847 8.42582 16.2506 8.58479 16.2506 8.75055ZM4.68809 9.37555H4.37559C4.20983 9.37555 4.05085 9.3097 3.93364 9.19249C3.81643 9.07528 3.75059 8.91631 3.75059 8.75055C3.75059 8.58479 3.81643 8.42582 3.93364 8.30861C4.05085 8.1914 4.20983 8.12555 4.37559 8.12555H4.68809C5.10249 8.12555 5.49992 7.96093 5.79294 7.6679C6.08597 7.37488 6.25059 6.97745 6.25059 6.56305V6.25055C6.25059 6.08479 6.31643 5.92582 6.43364 5.80861C6.55086 5.6914 6.70983 5.62555 6.87559 5.62555C7.04135 5.62555 7.20032 5.6914 7.31753 5.80861C7.43474 5.92582 7.50059 6.08479 7.50059 6.25055V6.56305C7.50059 7.30897 7.20427 8.02434 6.67682 8.55179C6.14938 9.07923 5.43401 9.37555 4.68809 9.37555Z" fill="#6F6C7D"/>
</svg>
