<svg preserveAspectRatio="xMidYMid meet" viewBox="0 0 20 20" fill="none" xmlns="http://www.w3.org/2000/svg">
<path d="M17.5003 10.0003C17.5003 10.1661 17.4345 10.3251 17.3173 10.4423C17.2001 10.5595 17.0411 10.6253 16.8753 10.6253H10.0003C9.83459 10.6253 9.67562 10.5595 9.55841 10.4423C9.4412 10.3251 9.37535 10.1661 9.37535 10.0003C9.37535 9.83459 9.4412 9.67562 9.55841 9.55841C9.67562 9.4412 9.83459 9.37535 10.0003 9.37535H16.8753C17.0411 9.37535 17.2001 9.4412 17.3173 9.55841C17.4345 9.67562 17.5003 9.83459 17.5003 10.0003ZM10.0003 5.62535H16.8753C17.0411 5.62535 17.2001 5.5595 17.3173 5.44229C17.4345 5.32508 17.5003 5.16611 17.5003 5.00035C17.5003 4.83459 17.4345 4.67562 17.3173 4.55841C17.2001 4.4412 17.0411 4.37535 16.8753 4.37535H10.0003C9.83459 4.37535 9.67562 4.4412 9.55841 4.55841C9.4412 4.67562 9.37535 4.83459 9.37535 5.00035C9.37535 5.16611 9.4412 5.32508 9.55841 5.44229C9.67562 5.5595 9.83459 5.62535 10.0003 5.62535ZM16.8753 14.3753H10.0003C9.83459 14.3753 9.67562 14.4412 9.55841 14.5584C9.4412 14.6756 9.37535 14.8346 9.37535 15.0003C9.37535 15.1661 9.4412 15.3251 9.55841 15.4423C9.67562 15.5595 9.83459 15.6253 10.0003 15.6253H16.8753C17.0411 15.6253 17.2001 15.5595 17.3173 15.4423C17.4345 15.3251 17.5003 15.1661 17.5003 15.0003C17.5003 14.8346 17.4345 14.6756 17.3173 14.5584C17.2001 14.4412 17.0411 14.3753 16.8753 14.3753ZM6.43316 3.30816L4.37535 5.36675L3.56753 4.55816C3.45026 4.44088 3.2912 4.375 3.12535 4.375C2.9595 4.375 2.80044 4.44088 2.68316 4.55816C2.56588 4.67544 2.5 4.8345 2.5 5.00035C2.5 5.1662 2.56588 5.32526 2.68316 5.44254L3.93316 6.69254C3.99121 6.75065 4.06014 6.79674 4.13601 6.8282C4.21188 6.85965 4.29321 6.87584 4.37535 6.87584C4.45748 6.87584 4.53881 6.85965 4.61469 6.8282C4.69056 6.79674 4.75949 6.75065 4.81753 6.69254L7.31754 4.19253C7.43481 4.07526 7.5007 3.9162 7.5007 3.75035C7.50069 3.5845 7.43481 3.42544 7.31754 3.30816C7.20026 3.19088 7.0412 3.125 6.87535 3.125C6.7095 3.125 6.55044 3.19088 6.43316 3.30816ZM6.43316 8.30816L4.37535 10.3668L3.56753 9.55816C3.45026 9.44088 3.2912 9.375 3.12535 9.375C2.9595 9.375 2.80044 9.44088 2.68316 9.55816C2.56588 9.67544 2.5 9.8345 2.5 10.0003C2.5 10.0825 2.51618 10.1638 2.5476 10.2397C2.57903 10.3155 2.62509 10.3845 2.68316 10.4425L3.93316 11.6925C3.99121 11.7506 4.06014 11.7967 4.13601 11.8282C4.21188 11.8597 4.29321 11.8758 4.37535 11.8758C4.45748 11.8758 4.53881 11.8597 4.61469 11.8282C4.69056 11.7967 4.75949 11.7506 4.81753 11.6925L7.31754 9.19254C7.43481 9.07526 7.50069 8.9162 7.5007 8.75035C7.50069 8.5845 7.43481 8.42544 7.31754 8.30816C7.20026 8.19088 7.0412 8.125 6.87535 8.125C6.7095 8.125 6.55044 8.19088 6.43316 8.30816ZM6.43316 13.3082L4.37535 15.3668L3.56753 14.5582C3.50947 14.5001 3.44053 14.454 3.36466 14.4226C3.28879 14.3912 3.20747 14.375 3.12535 14.375C3.04323 14.375 2.96191 14.3912 2.88604 14.4226C2.81017 14.454 2.74123 14.5001 2.68316 14.5582C2.62509 14.6162 2.57903 14.6852 2.5476 14.761C2.51618 14.8369 2.5 14.9182 2.5 15.0003C2.5 15.0825 2.51618 15.1638 2.5476 15.2397C2.57903 15.3155 2.62509 15.3845 2.68316 15.4425L3.93316 16.6925C3.99121 16.7506 4.06014 16.7967 4.13601 16.8282C4.21188 16.8597 4.29321 16.8758 4.37535 16.8758C4.45748 16.8758 4.53881 16.8597 4.61469 16.8282C4.69056 16.7967 4.75949 16.7506 4.81753 16.6925L7.31754 14.1925C7.43481 14.0753 7.5007 13.9162 7.5007 13.7503C7.50069 13.5845 7.43481 13.4254 7.31754 13.3082C7.20026 13.1909 7.0412 13.125 6.87535 13.125C6.7095 13.125 6.55044 13.1909 6.43316 13.3082Z" fill="#6F6C7D"/>
</svg>
