<svg preserveAspectRatio="xMidYMid meet" viewBox="0 0 20 20" fill="none" xmlns="http://www.w3.org/2000/svg">
<path d="M5.00069 2.5C4.53316 2.50023 4.07507 2.63156 3.67843 2.87908C3.28179 3.12659 2.96251 3.48037 2.75684 3.90024C2.55117 4.3201 2.46736 4.78922 2.51493 5.25433C2.56249 5.71943 2.73952 6.16188 3.02592 6.53142C3.31231 6.90097 3.6966 7.1828 4.13512 7.3449C4.57365 7.50701 5.04885 7.5429 5.50675 7.4485C5.96465 7.3541 6.3869 7.13319 6.72555 6.81085C7.06421 6.48852 7.30569 6.07768 7.42257 5.62499L8.75069 5.62499C8.91645 5.62499 9.07543 5.69084 9.19264 5.80805C9.30985 5.92526 9.37569 6.08423 9.37569 6.24999L9.37569 13.75C9.37569 13.9158 9.30985 14.0747 9.19264 14.1919C9.07543 14.3091 8.91645 14.375 8.75069 14.375L7.42257 14.375C7.27045 13.7858 6.90868 13.2724 6.40506 12.9309C5.90145 12.5894 5.29058 12.4432 4.68694 12.5199C4.08331 12.5966 3.52836 12.8908 3.12612 13.3473C2.72388 13.8039 2.50196 14.3915 2.50196 15C2.50196 15.6085 2.72388 16.1961 3.12612 16.6526C3.52836 17.1092 4.08331 17.4034 4.68694 17.4801C5.29058 17.5567 5.90145 17.4106 6.40506 17.0691C6.90868 16.7276 7.27045 16.2142 7.42257 15.625L8.75069 15.625C9.24798 15.625 9.72489 15.4275 10.0765 15.0758C10.4282 14.7242 10.6257 14.2473 10.6257 13.75L10.6257 10.625L12.5788 10.625C12.7309 11.2142 13.0927 11.7276 13.5963 12.0691C14.0999 12.4106 14.7108 12.5567 15.3144 12.4801C15.9181 12.4034 16.473 12.1092 16.8753 11.6526C17.2775 11.1961 17.4994 10.6085 17.4994 9.99999C17.4994 9.39151 17.2775 8.80392 16.8753 8.34735C16.473 7.89078 15.9181 7.59659 15.3144 7.51992C14.7108 7.44325 14.0999 7.58936 13.5963 7.93087C13.0927 8.27238 12.7309 8.78583 12.5788 9.37499L10.6257 9.37499L10.6257 6.24999C10.6257 5.75271 10.4282 5.2758 10.0765 4.92417C9.72489 4.57254 9.24797 4.37499 8.75069 4.37499L7.42257 4.37499C7.28323 3.83854 6.96989 3.36346 6.53163 3.02416C6.09337 2.68487 5.55495 2.50052 5.00069 2.5ZM5.00069 16.25C4.75347 16.25 4.51179 16.1767 4.30623 16.0393C4.10067 15.902 3.94045 15.7068 3.84585 15.4783C3.75124 15.2499 3.72648 14.9986 3.77471 14.7561C3.82294 14.5137 3.942 14.2909 4.11681 14.1161C4.29163 13.9413 4.51436 13.8222 4.75683 13.774C4.99931 13.7258 5.25064 13.7505 5.47905 13.8451C5.70746 13.9398 5.90268 14.1 6.04003 14.3055C6.17738 14.5111 6.25069 14.7528 6.25069 15C6.25069 15.3315 6.119 15.6495 5.88458 15.8839C5.65016 16.1183 5.33222 16.25 5.00069 16.25ZM15.0007 8.74999C15.2479 8.74999 15.4896 8.82331 15.6952 8.96066C15.9007 9.09801 16.0609 9.29323 16.1555 9.52164C16.2502 9.75005 16.2749 10.0014 16.2267 10.2439C16.1784 10.4863 16.0594 10.7091 15.8846 10.8839C15.7098 11.0587 15.487 11.1777 15.2446 11.226C15.0021 11.2742 14.7507 11.2495 14.5223 11.1548C14.2939 11.0602 14.0987 10.9 13.9614 10.6945C13.824 10.4889 13.7507 10.2472 13.7507 9.99999C13.7507 9.66847 13.8824 9.35053 14.1168 9.11611C14.3512 8.88169 14.6692 8.74999 15.0007 8.74999ZM6.25069 4.99999C6.25069 5.24722 6.17738 5.4889 6.04003 5.69446C5.90268 5.90002 5.70746 6.06023 5.47905 6.15484C5.25064 6.24945 4.99931 6.27421 4.75683 6.22598C4.51436 6.17774 4.29163 6.05869 4.11681 5.88388C3.942 5.70906 3.82294 5.48633 3.77471 5.24386C3.72648 5.00138 3.75124 4.75005 3.84584 4.52164C3.94045 4.29323 4.10067 4.09801 4.30623 3.96066C4.51179 3.82331 4.75347 3.75 5.00069 3.75C5.33221 3.75 5.65016 3.88169 5.88458 4.11611C6.119 4.35053 6.25069 4.66847 6.25069 4.99999Z" fill="#6F6C7D"/>
</svg>
