<svg xmlns="http://www.w3.org/2000/svg" preserveAspectRatio="xMidYMid meet" viewBox="0 0 16 16" fill="none">
    <path d="M8.75 8C8.75 8.14834 8.70601 8.29334 8.6236 8.41668C8.54119 8.54001 8.42406 8.63614 8.28701 8.69291C8.14997 8.74967 7.99917 8.76453 7.85368 8.73559C7.7082 8.70665 7.57456 8.63522 7.46967 8.53033C7.36478 8.42544 7.29335 8.2918 7.26441 8.14632C7.23547 8.00083 7.25033 7.85003 7.30709 7.71299C7.36386 7.57594 7.45999 7.45881 7.58332 7.3764C7.70666 7.29399 7.85166 7.25 8 7.25C8.19891 7.25 8.38968 7.32902 8.53033 7.46967C8.67098 7.61032 8.75 7.80109 8.75 8ZM12.25 7.25C12.1017 7.25 11.9567 7.29399 11.8333 7.3764C11.71 7.45881 11.6139 7.57594 11.5571 7.71299C11.5003 7.85003 11.4855 8.00083 11.5144 8.14632C11.5434 8.2918 11.6148 8.42544 11.7197 8.53033C11.8246 8.63522 11.9582 8.70665 12.1037 8.73559C12.2492 8.76453 12.4 8.74967 12.537 8.69291C12.6741 8.63614 12.7912 8.54001 12.8736 8.41668C12.956 8.29334 13 8.14834 13 8C13 7.80109 12.921 7.61032 12.7803 7.46967C12.6397 7.32902 12.4489 7.25 12.25 7.25ZM3.75 7.25C3.60166 7.25 3.45666 7.29399 3.33332 7.3764C3.20999 7.45881 3.11386 7.57594 3.05709 7.71299C3.00032 7.85003 2.98547 8.00083 3.01441 8.14632C3.04335 8.2918 3.11478 8.42544 3.21967 8.53033C3.32456 8.63522 3.4582 8.70665 3.60368 8.73559C3.74917 8.76453 3.89997 8.74967 4.03701 8.69291C4.17406 8.63614 4.29119 8.54001 4.3736 8.41668C4.45601 8.29334 4.5 8.14834 4.5 8C4.5 7.80109 4.42098 7.61032 4.28033 7.46967C4.13968 7.32902 3.94891 7.25 3.75 7.25Z"
          fill="#363440"/>
</svg>
