<svg xmlns="http://www.w3.org/2000/svg" preserveAspectRatio="xMidYMid meet" viewBox="0 0 18 18" fill="none">
    <path d="M16.5586 15.2446C14.9724 14.4712 14.0625 12.8132 14.0625 10.6884V9.47336C14.0631 9.24795 13.9957 9.0276 13.8692 8.84108C13.7426 8.65456 13.5627 8.51054 13.3531 8.42781L11.6016 7.73453C11.4638 7.67941 11.3533 7.57207 11.2943 7.43589C11.2353 7.29971 11.2326 7.14573 11.2866 7.0075L12.7856 3.28094C12.8874 3.03635 12.9387 2.77374 12.9366 2.50885C12.9344 2.24395 12.8788 1.98222 12.7731 1.73931C12.6674 1.49641 12.5138 1.27733 12.3214 1.09521C12.1291 0.913078 11.9019 0.771645 11.6536 0.679375C11.17 0.502163 10.6363 0.520549 10.1659 0.730627C9.69564 0.940704 9.32579 1.32591 9.13501 1.80438C9.13474 1.80718 9.13474 1.81001 9.13501 1.81281L7.65705 5.55484C7.60208 5.69328 7.49444 5.80427 7.35775 5.86345C7.22106 5.92264 7.06647 5.92519 6.92791 5.87055L5.14056 5.14281C4.93449 5.05931 4.70818 5.03919 4.49061 5.08504C4.27304 5.13088 4.07409 5.2406 3.91923 5.40016C2.43845 6.92242 1.68751 8.70133 1.68751 10.6877C1.68362 12.7203 2.46972 14.675 3.87986 16.139C3.93269 16.1942 3.99623 16.2381 4.06658 16.268C4.13694 16.2978 4.21265 16.313 4.28908 16.3127H16.3125C16.4397 16.3125 16.563 16.2693 16.6624 16.1901C16.7619 16.1109 16.8316 16.0003 16.8601 15.8765C16.8887 15.7526 16.8744 15.6227 16.8196 15.5079C16.7649 15.3932 16.6729 15.3004 16.5586 15.2446ZM4.7208 6.18766L6.50744 6.91188C6.71367 6.99438 6.93416 7.03536 7.15627 7.03246C7.37838 7.02956 7.59772 6.98284 7.80173 6.89498C8.00574 6.80712 8.1904 6.67984 8.34511 6.52046C8.49982 6.36107 8.62154 6.17271 8.7033 5.96617L10.1799 2.23961C10.3599 1.81 10.8457 1.58781 11.2648 1.74742C11.3716 1.78706 11.4693 1.84793 11.552 1.92636C11.6347 2.00479 11.7006 2.09916 11.7458 2.20376C11.791 2.30837 11.8146 2.42105 11.815 2.535C11.8155 2.64895 11.7929 2.76182 11.7485 2.8668L10.2438 6.59266C10.0791 7.00826 10.086 7.47225 10.2631 7.88276C10.4401 8.29327 10.7728 8.61675 11.1881 8.78219L12.9375 9.47336V10.6877C12.9375 10.7109 12.9375 10.7341 12.9375 10.758L3.92134 7.15164C4.16104 6.80901 4.42842 6.4866 4.7208 6.18766ZM8.0958 15.1877C7.25832 14.3843 6.66503 13.3606 6.38439 12.2345C6.34528 12.0921 6.25172 11.9708 6.12392 11.8968C5.99612 11.8227 5.84433 11.8019 5.70133 11.8389C5.55833 11.8758 5.43558 11.9675 5.35961 12.0941C5.28363 12.2208 5.26051 12.3722 5.29525 12.5158C5.54059 13.4845 5.97975 14.3934 6.58619 15.1877H4.53095C3.42155 13.9517 2.80935 12.3485 2.81251 10.6877C2.80563 9.80767 2.99113 8.93681 3.35603 8.13602L13.0451 12.0116C13.256 13.2773 13.7876 14.3657 14.5842 15.187L8.0958 15.1877Z" fill="#202939"/>
</svg>
