<svg xmlns="http://www.w3.org/2000/svg" preserveAspectRatio="xMidYMid meet" viewBox="0 0 20 20" fill="none">
  <path opacity="0.2" d="M16.4264 16.4266C15.0804 17.7727 11.114 15.9868 7.56239 12.4376C4.01083 8.88836 2.22723 4.92195 3.57333 3.57351C4.91942 2.22507 8.88583 4.01336 12.4374 7.56257C15.9889 11.1118 17.7725 15.0782 16.4264 16.4266Z" fill="#F9A240"/>
  <path d="M15.3218 9.99988C17.2475 7.29598 18.2296 4.50145 16.8639 3.13582C15.4983 1.7702 12.7038 2.75223 9.99988 4.67801C7.29598 2.75223 4.50145 1.7702 3.13582 3.13582C1.7702 4.50145 2.75223 7.29598 4.67801 9.99988C2.75223 12.7038 1.7702 15.4983 3.13582 16.8639C3.57567 17.3038 4.16317 17.4999 4.84754 17.4999C6.29129 17.4999 8.16629 16.6272 10.0038 15.3218C11.8335 16.6272 13.7085 17.4999 15.1561 17.4999C15.8405 17.4999 16.4288 17.303 16.8679 16.8639C18.2296 15.4983 17.2475 12.7038 15.3218 9.99988ZM15.9804 4.01942C16.5772 4.61629 16.1741 6.55067 14.5335 8.96317C14.0145 8.32065 13.4619 7.706 12.878 7.12176C12.2937 6.53871 11.6791 5.9869 11.0366 5.46863C13.4491 3.82801 15.3835 3.42176 15.9804 4.01942ZM13.7725 9.99988C13.2197 10.6992 12.626 11.3652 11.9944 11.9944C11.3652 12.626 10.6992 13.2197 9.99988 13.7725C9.30054 13.2197 8.63453 12.626 8.00535 11.9944C7.37381 11.3652 6.78006 10.6992 6.22723 9.99988C7.33637 8.6022 8.6022 7.33637 9.99988 6.22723C10.6992 6.78006 11.3652 7.37381 11.9944 8.00535C12.626 8.63453 13.2197 9.30054 13.7725 9.99988ZM4.01942 4.01942C4.19129 3.84676 4.47488 3.7577 4.8491 3.7577C5.77254 3.7577 7.24676 4.29676 8.96238 5.46863C8.32054 5.98732 7.70616 6.53911 7.12176 7.12176C6.53871 7.70606 5.9869 8.32071 5.46863 8.96317C3.82801 6.55067 3.42254 4.61629 4.01942 4.01942ZM4.01942 15.9804C3.42254 15.3835 3.82801 13.4491 5.46863 11.0366C5.98766 11.6791 6.54025 12.2938 7.1241 12.878C7.70802 13.4606 8.32187 14.0124 8.96317 14.5311C6.55067 16.1718 4.61629 16.578 4.01942 15.9804ZM15.9804 15.9804C15.3835 16.578 13.4491 16.1741 11.0366 14.5335C11.6788 14.014 12.2934 13.4615 12.878 12.878C13.4611 12.2937 14.0129 11.6791 14.5311 11.0366C16.1718 13.4491 16.5772 15.3835 15.9804 15.9804ZM10.9374 9.99988C10.9374 10.1853 10.8824 10.3666 10.7794 10.5207C10.6764 10.6749 10.53 10.7951 10.3586 10.866C10.1873 10.937 9.99884 10.9555 9.81699 10.9194C9.63513 10.8832 9.46808 10.7939 9.33697 10.6628C9.20586 10.5317 9.11657 10.3646 9.0804 10.1828C9.04422 10.0009 9.06279 9.81242 9.13375 9.64112C9.2047 9.46981 9.32487 9.3234 9.47904 9.22038C9.63321 9.11737 9.81446 9.06238 9.99988 9.06238C10.2485 9.06238 10.487 9.16116 10.6628 9.33697C10.8386 9.51279 10.9374 9.75124 10.9374 9.99988Z" fill="#F9A240"/>
</svg>