<svg xmlns="http://www.w3.org/2000/svg" preserveAspectRatio="xMidYMid meet" viewBox="0 0 16 16" fill="none">
  <path d="M14.2075 1.79267C14.0818 1.667 13.9248 1.57713 13.7527 1.5323C13.5807 1.48748 13.3998 1.48933 13.2288 1.53767H13.2194L1.22313 5.17767C1.02785 5.23382 0.854315 5.34814 0.725628 5.50539C0.596941 5.66263 0.51921 5.85535 0.502785 6.05788C0.48636 6.26041 0.532021 6.46313 0.633688 6.63906C0.735355 6.81499 0.888203 6.95577 1.07188 7.04267L6.42313 9.57704L8.95751 14.9283C9.03752 15.0997 9.16489 15.2446 9.32458 15.3459C9.48428 15.4472 9.66963 15.5008 9.85876 15.5002C9.88751 15.5002 9.91625 15.4989 9.945 15.4964C10.1468 15.4801 10.3388 15.4024 10.4952 15.2738C10.6516 15.1452 10.7649 14.9719 10.82 14.777L14.4575 2.78079C14.4575 2.77767 14.4575 2.77454 14.4575 2.77142C14.5065 2.60077 14.5091 2.42016 14.4652 2.24815C14.4212 2.07614 14.3323 1.91893 14.2075 1.79267ZM9.86438 14.4908L9.86125 14.4995L7.40125 9.30642L10.3538 6.35329C10.4436 6.25876 10.4929 6.13288 10.4912 6.0025C10.4896 5.87212 10.437 5.74755 10.3448 5.65535C10.2526 5.56315 10.128 5.51062 9.99767 5.50895C9.86729 5.50728 9.74141 5.55661 9.64688 5.64642L6.69375 8.59892L1.5 6.13892H1.50875L13.5 2.50017L9.86438 14.4908Z" fill="#363440"/>
</svg>