<svg xmlns="http://www.w3.org/2000/svg" preserveAspectRatio="xMidYMid meet" viewBox="0 0 20 20" fill="none">
  <path d="M14.4133 9.33672C14.5007 9.42382 14.57 9.52731 14.6173 9.64126C14.6647 9.75522 14.689 9.87739 14.689 10.0008C14.689 10.1242 14.6647 10.2463 14.6173 10.3603C14.57 10.4743 14.5007 10.5777 14.4133 10.6648L8.78828 16.2898C8.61216 16.466 8.37329 16.5649 8.12422 16.5649C7.87515 16.5649 7.63628 16.466 7.46016 16.2898C7.28404 16.1137 7.18509 15.8749 7.18509 15.6258C7.18509 15.3767 7.28404 15.1378 7.46016 14.9617L11.4844 10.9375H2.5C2.25136 10.9375 2.0129 10.8387 1.83709 10.6629C1.66127 10.4871 1.5625 10.2486 1.5625 10C1.5625 9.75136 1.66127 9.5129 1.83709 9.33709C2.0129 9.16127 2.25136 9.0625 2.5 9.0625H11.4844L7.46172 5.03828C7.2856 4.86216 7.18665 4.62329 7.18666 4.37422C7.18666 4.12515 7.2856 3.88628 7.46172 3.71016C7.63784 3.53404 7.87671 3.43509 8.12578 3.43509C8.37485 3.43509 8.61372 3.53404 8.78984 3.71016L14.4133 9.33672ZM16.875 2.1875C16.6264 2.1875 16.3879 2.28627 16.2121 2.46209C16.0363 2.6379 15.9375 2.87636 15.9375 3.125V16.875C15.9375 17.1236 16.0363 17.3621 16.2121 17.5379C16.3879 17.7137 16.6264 17.8125 16.875 17.8125C17.1236 17.8125 17.3621 17.7137 17.5379 17.5379C17.7137 17.3621 17.8125 17.1236 17.8125 16.875V3.125C17.8125 2.87636 17.7137 2.6379 17.5379 2.46209C17.3621 2.28627 17.1236 2.1875 16.875 2.1875Z" fill="#343330"/>
</svg>