<svg xmlns="http://www.w3.org/2000/svg" preserveAspectRatio="xMidYMid meet" viewBox="0 0 16 16" fill="none">
  <path d="M7.37899 0.018797C7.65447 -0.000340926 7.89306 0.208162 7.9122 0.483641C7.93108 0.758933 7.72366 0.997716 7.44833 1.01684C6.12512 1.1088 4.85613 1.57845 3.79208 2.37036C2.72797 3.16233 1.91334 4.24342 1.4454 5.48462C0.977551 6.72573 0.876038 8.07506 1.15243 9.37231C1.41156 10.5885 1.99258 11.7111 2.83309 12.6233L3.00497 12.803L3.1827 12.9768C4.08627 13.8263 5.20286 14.4182 6.4161 14.6897C7.71062 14.9791 9.06188 14.8913 10.3077 14.4358C11.5535 13.9804 12.6428 13.1774 13.4454 12.1213V12.1204C14.2478 11.0644 14.7299 9.79988 14.835 8.47778C14.8571 8.20278 15.0981 7.99805 15.3731 8.01977C15.6484 8.04168 15.854 8.28259 15.8321 8.55786C15.7117 10.0708 15.1597 11.5174 14.2413 12.7258C13.3228 13.9344 12.0762 14.8541 10.6505 15.3752C9.22496 15.8963 7.67951 15.9974 6.19833 15.6663C4.7171 15.3349 3.36192 14.5848 2.29403 13.5061V13.5071C1.22609 12.4284 0.490224 11.0649 0.173915 9.58032C-0.142285 8.09584 -0.0255807 6.55131 0.509852 5.1311C1.04536 3.71094 1.97782 2.47479 3.1954 1.5686C4.41303 0.662401 5.8648 0.124022 7.37899 0.018797Z" fill="#6F6C7D"/>
  <path d="M6.48891 4.27476C6.74598 4.17412 7.0366 4.30097 7.13735 4.55797C7.23799 4.81503 7.11113 5.10565 6.85415 5.2064C6.40088 5.38386 5.99839 5.67151 5.68422 6.04332C5.37025 6.41499 5.15368 6.85901 5.05434 7.33531C4.95502 7.81184 4.97639 8.30646 5.11587 8.77281C5.25536 9.23897 5.50865 9.66355 5.85317 10.0072C6.19778 10.3508 6.62287 10.6033 7.0895 10.7416C7.55608 10.8798 8.04981 10.8987 8.52602 10.7982C9.00221 10.6977 9.44607 10.4804 9.81704 10.1654C10.188 9.85027 10.4747 9.44724 10.651 8.99351C10.7511 8.73625 11.0412 8.60838 11.2985 8.70836C11.5558 8.80833 11.6835 9.09848 11.5836 9.35582C11.3472 9.96446 10.9621 10.5044 10.4645 10.9271C9.96688 11.3498 9.37187 11.6418 8.73305 11.7767C8.09419 11.9116 7.43144 11.8851 6.80532 11.6996C6.17945 11.5141 5.60934 11.1761 5.14712 10.7152C4.68485 10.2541 4.34496 9.6845 4.15786 9.05894C3.97075 8.43334 3.9426 7.77045 4.07583 7.13121C4.2091 6.49219 4.49927 5.89643 4.92055 5.39781C5.34195 4.89909 5.88096 4.51281 6.48891 4.27476Z" fill="#6F6C7D"/>
  <path d="M10.4325 4.71864C10.6278 4.52352 10.9443 4.52343 11.1395 4.71864C11.3346 4.91387 11.3346 5.23045 11.1395 5.42567L8.28212 8.2831C8.08689 8.47817 7.77031 8.47817 7.57509 8.2831C7.37987 8.08788 7.37997 7.77134 7.57509 7.57606L10.4325 4.71864Z" fill="#6F6C7D"/>
  <path d="M12.1965 0.10219C12.3198 0.00807266 12.4811 -0.0238373 12.633 0.0182058C12.8066 0.0662901 12.9409 0.2038 12.9846 0.378557L13.4826 2.3727L15.4778 2.87172C15.6525 2.91541 15.791 3.04968 15.8391 3.22328C15.8872 3.39687 15.8375 3.58322 15.7102 3.71059L13.425 5.99574C13.3009 6.11983 13.1207 6.16999 12.9504 6.12758L10.6643 5.55629C10.4851 5.51151 10.3448 5.37118 10.3 5.19203L9.72873 2.90688C9.68616 2.73659 9.73653 2.55645 9.86057 2.43227L12.1467 0.146135L12.1965 0.10219ZM10.7678 2.93813L11.1975 4.65785L12.9172 5.08852L14.3791 3.6266L12.9504 3.27016C12.7713 3.22539 12.631 3.08591 12.5862 2.90688L12.2287 1.47719L10.7678 2.93813Z" fill="#6F6C7D"/>
</svg>