<svg xmlns="http://www.w3.org/2000/svg" preserveAspectRatio="xMidYMid meet" viewBox="0 0 20 20" fill="none">
  <path d="M18.4999 14.6946L11.6678 2.82974C11.4971 2.53906 11.2534 2.29803 10.9608 2.13057C10.6682 1.9631 10.337 1.875 9.99986 1.875C9.66275 1.875 9.33149 1.9631 9.03892 2.13057C8.74635 2.29803 8.50262 2.53906 8.33189 2.82974L1.49986 14.6946C1.33559 14.9757 1.24902 15.2955 1.24902 15.6211C1.24902 15.9468 1.33559 16.2665 1.49986 16.5477C1.6684 16.8401 1.91171 17.0825 2.20483 17.2498C2.49795 17.4172 2.83032 17.5036 3.16783 17.5001H16.8319C17.1691 17.5033 17.5012 17.4168 17.794 17.2494C18.0868 17.0821 18.3299 16.8399 18.4983 16.5477C18.6628 16.2667 18.7496 15.947 18.7499 15.6214C18.7502 15.2957 18.6639 14.9759 18.4999 14.6946ZM17.4163 15.9219C17.3567 16.0235 17.2712 16.1075 17.1685 16.1651C17.0658 16.2228 16.9496 16.2521 16.8319 16.2501H3.16783C3.05008 16.2521 2.9339 16.2228 2.83121 16.1651C2.72852 16.1075 2.64302 16.0235 2.58346 15.9219C2.52951 15.8306 2.50105 15.7264 2.50105 15.6204C2.50105 15.5143 2.52951 15.4101 2.58346 15.3188L9.41549 3.45396C9.47625 3.35284 9.56215 3.26917 9.66482 3.21108C9.7675 3.153 9.88346 3.12247 10.0014 3.12247C10.1194 3.12247 10.2354 3.153 10.338 3.21108C10.4407 3.26917 10.5266 3.35284 10.5874 3.45396L17.4194 15.3188C17.4729 15.4104 17.5008 15.5147 17.5002 15.6208C17.4997 15.7269 17.4707 15.8309 17.4163 15.9219ZM9.37486 11.2501V8.12505C9.37486 7.95929 9.44071 7.80032 9.55792 7.68311C9.67513 7.5659 9.8341 7.50005 9.99986 7.50005C10.1656 7.50005 10.3246 7.5659 10.4418 7.68311C10.559 7.80032 10.6249 7.95929 10.6249 8.12505V11.2501C10.6249 11.4158 10.559 11.5748 10.4418 11.692C10.3246 11.8092 10.1656 11.8751 9.99986 11.8751C9.8341 11.8751 9.67513 11.8092 9.55792 11.692C9.44071 11.5748 9.37486 11.4158 9.37486 11.2501ZM10.9374 14.0626C10.9374 14.248 10.8824 14.4292 10.7794 14.5834C10.6763 14.7376 10.5299 14.8577 10.3586 14.9287C10.1873 14.9996 9.99882 15.0182 9.81696 14.982C9.63511 14.9459 9.46806 14.8566 9.33695 14.7255C9.20584 14.5944 9.11655 14.4273 9.08038 14.2454C9.0442 14.0636 9.06277 13.8751 9.13372 13.7038C9.20468 13.5325 9.32484 13.3861 9.47901 13.283C9.63319 13.18 9.81444 13.1251 9.99986 13.1251C10.2485 13.1251 10.487 13.2238 10.6628 13.3996C10.8386 13.5755 10.9374 13.8139 10.9374 14.0626Z" fill="#363440"/>
</svg>