<svg preserveAspectRatio="xMidYMid meet" viewBox="0 0 40 40" fill="none" xmlns="http://www.w3.org/2000/svg">
    <g clip-path="url(#clip0_4425_8565)">
        <path d="M18.3151 12.3993C19.3464 11.3429 20.7839 10.6881 22.3724 10.6881C24.4844 10.6881 26.3281 11.8442 27.3099 13.5631C28.1875 13.1768 29.138 12.9799 30.099 12.9799C33.9089 12.9799 36.9974 16.0391 36.9974 19.8144C36.9974 23.5898 33.9089 26.649 30.099 26.649C29.6328 26.649 29.1797 26.603 28.7396 26.516C27.875 28.0302 26.2266 29.0534 24.3386 29.0534C23.5469 29.0534 22.7995 28.8743 22.1328 28.5546C21.2578 30.5804 19.2162 31.9974 16.836 31.9974C14.3594 31.9974 12.2474 30.4576 11.4375 28.2988C11.0755 28.373 10.7084 28.4114 10.3386 28.4114C7.39064 28.4139 5.00002 26.0402 5.00002 23.1141C4.99481 21.2264 6.01304 19.4768 7.66929 18.5227C7.33075 17.7579 7.15627 16.9318 7.15887 16.0979C7.15887 12.7292 9.94273 10 13.375 10C15.3125 9.99745 17.1406 10.885 18.3151 12.3993Z"
              fill="#00A1E0"/>
        <path d="M15.7838 21.6827C15.7838 21.7134 15.763 21.739 15.7317 21.739H15.2395C15.2083 21.739 15.1875 21.7134 15.1875 21.6827V17.7948C15.1875 17.7641 15.2083 17.7411 15.2395 17.7411H15.7317C15.763 17.7411 15.7838 17.7667 15.7838 17.7948V21.6827ZM24.0703 17.7436C24.0833 17.7487 24.1172 17.7667 24.1041 17.8076L23.9609 18.1913C23.9505 18.2194 23.9401 18.2373 23.8802 18.2194C23.7994 18.1938 23.7161 18.181 23.6328 18.181C23.5599 18.181 23.4922 18.1913 23.4349 18.2092C23.375 18.2271 23.3229 18.2603 23.2786 18.3038C23.2213 18.3575 23.177 18.424 23.1484 18.4982C23.0807 18.69 23.0547 18.8972 23.0494 18.91H23.6432C23.6927 18.91 23.7083 18.933 23.7057 18.9688L23.6354 19.3474C23.625 19.4037 23.5729 19.4011 23.5729 19.4011H22.9609L22.5442 21.7236C22.5078 21.9308 22.4531 22.1354 22.3802 22.335C22.3151 22.5038 22.2474 22.6266 22.138 22.7417C22.0442 22.8465 21.927 22.9284 21.7942 22.977C21.6718 23.023 21.5156 23.046 21.3437 23.046C21.263 23.046 21.1744 23.0435 21.0729 23.0205C21.0156 23.0077 20.9583 22.9923 20.9036 22.9719C20.8802 22.9642 20.8619 22.9361 20.875 22.8977C20.888 22.8619 20.9974 22.5677 21.013 22.5268C21.0312 22.4808 21.0807 22.4987 21.0807 22.4987C21.1145 22.5115 21.1354 22.5217 21.1797 22.5294C21.2239 22.537 21.2838 22.5447 21.3281 22.5447C21.4088 22.5447 21.4817 22.5345 21.5468 22.514C21.625 22.491 21.6692 22.4449 21.7161 22.3861C21.7656 22.3247 21.8047 22.2403 21.8463 22.1252C21.888 22.0101 21.9244 21.8592 21.9557 21.6776L22.3724 19.396H21.9635C21.914 19.396 21.8984 19.373 21.9036 19.3372L21.9713 18.9586C21.9817 18.9049 22.0338 18.9049 22.0338 18.9049H22.4531L22.4765 18.7821C22.539 18.4163 22.664 18.1375 22.8489 17.9559C23.0338 17.7718 23.2994 17.6797 23.6354 17.6797C23.7317 17.6797 23.8151 17.6848 23.888 17.6976C23.9583 17.7155 24.0104 17.7257 24.0703 17.7436ZM28.6458 19.0046C28.6276 19.0532 28.539 19.3039 28.5052 19.3858C28.4922 19.4165 28.4739 19.4395 28.4375 19.4344C28.4375 19.4344 28.3307 19.4113 28.2343 19.4113C28.1666 19.4113 28.0703 19.419 27.9843 19.4446C27.8984 19.4702 27.8203 19.5162 27.7552 19.5802C27.6875 19.6441 27.6328 19.7336 27.5937 19.8487C27.5547 19.9638 27.5312 20.1454 27.5312 20.3271V21.6853C27.5312 21.716 27.5078 21.7415 27.4765 21.7415H26.9896C26.9583 21.7415 26.9323 21.7185 26.9323 21.6853V18.9663C26.9323 18.9356 26.9557 18.91 26.9869 18.91H27.4635C27.4948 18.91 27.5182 18.9356 27.5182 18.9663V19.1888C27.5885 19.0942 27.7161 19.0123 27.8307 18.9612C27.9453 18.91 28.0755 18.8716 28.3099 18.8844C28.4297 18.8921 28.5885 18.9254 28.6198 18.9356C28.6432 18.9484 28.6562 18.9765 28.6458 19.0046C28.6458 19.0021 28.6458 19.0021 28.6458 19.0046ZM12.9479 21.2223C12.9479 21.2223 13.1145 21.3502 13.4922 21.3272C13.7578 21.3118 13.9922 21.2632 13.9922 21.2632V20.4345C13.9922 20.4345 13.7552 20.3961 13.4895 20.3936C13.1119 20.3884 12.9505 20.5266 12.9531 20.5266C12.8411 20.6033 12.7864 20.7184 12.7864 20.8795C12.7864 20.9819 12.8047 21.0612 12.8411 21.1174C12.8645 21.1507 12.875 21.166 12.9479 21.2223ZM13.6849 19.9434C13.6849 19.9434 13.8307 19.9562 13.9895 19.9792V19.9025C13.9895 19.6595 13.9375 19.5444 13.8359 19.4676C13.7317 19.3909 13.5781 19.35 13.3776 19.35C13.3776 19.35 12.927 19.3448 12.5703 19.5341C12.5547 19.5444 12.539 19.5495 12.539 19.5495C12.539 19.5495 12.4948 19.5648 12.4791 19.5188L12.3489 19.1735C12.3281 19.1223 12.3645 19.1018 12.3645 19.1018C12.5312 18.974 12.9349 18.8972 12.9349 18.8972C13.0989 18.8691 13.2656 18.8537 13.4323 18.8512C13.802 18.8512 14.0885 18.9356 14.2838 19.1018C14.4791 19.2707 14.5781 19.5418 14.5781 19.905V21.5727C14.5781 21.5727 14.5807 21.6213 14.5364 21.6316C14.5364 21.6316 14.4687 21.6495 14.4062 21.6648C14.3437 21.6776 14.1198 21.7236 13.9375 21.7543C13.75 21.785 13.5625 21.8004 13.375 21.8004C13.1953 21.8004 13.0286 21.7825 12.8854 21.7518C12.75 21.7236 12.6224 21.6699 12.5078 21.5906C12.4036 21.5165 12.3203 21.4193 12.2656 21.3067C12.2083 21.1916 12.1797 21.0535 12.1797 20.8898C12.1797 20.7312 12.2135 20.5905 12.2786 20.4703C12.3437 20.3501 12.4349 20.2503 12.5468 20.171C12.664 20.0892 12.7942 20.0303 12.9323 19.9945C13.0781 19.9562 13.2291 19.9383 13.3906 19.9383C13.513 19.9331 13.6093 19.9357 13.6849 19.9434ZM16.9557 20.0303H18.2786C18.2656 19.8641 18.2317 19.7132 18.1562 19.6006C18.0416 19.4293 17.8802 19.3372 17.6354 19.3372C17.3906 19.3372 17.2187 19.4318 17.1041 19.6006C17.0312 19.7132 16.9817 19.8564 16.9557 20.0303ZM18.802 19.6492C18.9218 20.0585 18.8593 20.414 18.8567 20.4345C18.8515 20.4805 18.802 20.4805 18.802 20.4805L16.9479 20.478C16.9609 20.7542 17.026 20.9512 17.164 21.0842C17.2994 21.2146 17.5104 21.2965 17.7994 21.299C18.2395 21.299 18.4297 21.2121 18.5625 21.1635C18.5625 21.1635 18.6119 21.1456 18.6328 21.1942L18.7526 21.5267C18.776 21.583 18.7578 21.6009 18.7369 21.6136C18.6198 21.6776 18.3385 21.7953 17.802 21.7953C17.5416 21.7953 17.3151 21.7594 17.1302 21.6878C16.9531 21.6239 16.7942 21.519 16.664 21.3834C16.5416 21.2504 16.4479 21.0918 16.3958 20.9205C16.3385 20.7312 16.3099 20.5368 16.3125 20.3398C16.3125 20.1327 16.3385 19.9383 16.3932 19.7592C16.4427 19.5853 16.5286 19.4267 16.6432 19.286C16.7604 19.1504 16.9062 19.0405 17.0703 18.9663C17.2422 18.887 17.4505 18.8486 17.6823 18.8486C17.8645 18.8486 18.0468 18.8844 18.2135 18.9535C18.3307 19.0021 18.4479 19.0916 18.5651 19.217C18.6406 19.3014 18.7552 19.4753 18.802 19.6492ZM31.8125 20.0303H33.1354C33.1224 19.8641 33.0885 19.7132 33.013 19.6006C32.8958 19.4293 32.7369 19.3372 32.4922 19.3372C32.2474 19.3372 32.0755 19.4318 31.9609 19.6006C31.8854 19.7132 31.8359 19.8564 31.8125 20.0303ZM33.6562 19.6492C33.776 20.0585 33.7135 20.414 33.7109 20.4345C33.7057 20.4805 33.6562 20.4831 33.6562 20.4831L31.802 20.4805C31.8125 20.7568 31.8802 20.9537 32.0182 21.0867C32.151 21.2172 32.3646 21.299 32.6536 21.3016C33.0937 21.3016 33.2812 21.2146 33.414 21.166C33.414 21.166 33.4661 21.1481 33.4843 21.1967L33.6041 21.5292C33.6276 21.5855 33.6093 21.6034 33.5885 21.6162C33.4713 21.6802 33.1901 21.7978 32.6562 21.7978C32.3958 21.7978 32.1692 21.762 31.9843 21.6904C31.8073 21.6264 31.6484 21.5216 31.5182 21.386C31.3932 21.253 31.3021 21.0944 31.25 20.923C31.1927 20.7338 31.164 20.5394 31.1666 20.3424C31.1666 20.1352 31.1927 19.9408 31.2474 19.7618C31.3021 19.5802 31.3854 19.4216 31.4974 19.2886C31.6145 19.153 31.7604 19.043 31.9244 18.9688C32.0937 18.8895 32.3047 18.8512 32.5364 18.8512C32.7343 18.8512 32.9166 18.8921 33.0677 18.9561C33.1849 19.0046 33.2994 19.0942 33.4192 19.2195C33.4948 19.3014 33.6093 19.4753 33.6562 19.6492ZM30.8515 21.2325L30.9843 21.5983C31.0026 21.6418 30.9635 21.6622 30.9635 21.6622C30.7552 21.7415 30.4687 21.7978 30.1875 21.7978C29.7135 21.7978 29.3489 21.6622 29.1041 21.3988C28.8619 21.1353 28.7396 20.7747 28.7396 20.3271C28.7396 20.1199 28.7708 19.9255 28.8307 19.749C28.8906 19.5699 28.9791 19.4139 29.0963 19.2809C29.2187 19.1453 29.3698 19.0379 29.5364 18.9663C29.7109 18.8895 29.9166 18.8512 30.1458 18.8512C30.302 18.8512 30.4401 18.8614 30.5573 18.8768C30.6849 18.8972 30.8515 18.9407 30.9218 18.9688C30.9349 18.974 30.9713 18.9919 30.9557 19.0328C30.9036 19.176 30.8698 19.2707 30.8203 19.4011C30.7994 19.4574 30.7552 19.4395 30.7552 19.4395C30.5755 19.3832 30.4036 19.3576 30.177 19.3576C29.9062 19.3576 29.7031 19.4472 29.5703 19.6211C29.4349 19.795 29.3619 20.0252 29.3593 20.3296C29.3593 20.6647 29.4427 20.9128 29.5937 21.0663C29.7448 21.2197 29.9557 21.2965 30.2213 21.2965C30.3281 21.2965 30.4297 21.2888 30.5208 21.276C30.6119 21.2632 30.6953 21.2351 30.776 21.2044C30.7812 21.1993 30.8333 21.1814 30.8515 21.2325ZM25.8047 20.3271C25.8047 20.015 25.7448 19.7694 25.6302 19.5981C25.5156 19.4267 25.3385 19.3448 25.0963 19.3448C24.8541 19.3448 24.6797 19.4267 24.5651 19.5981C24.4505 19.7694 24.3932 20.015 24.3932 20.3271C24.3932 20.6391 24.4505 20.8847 24.5677 21.0586C24.6823 21.23 24.8541 21.3144 25.0989 21.3144C25.3437 21.3144 25.5182 21.23 25.6328 21.0586C25.7448 20.8872 25.8047 20.6391 25.8047 20.3271ZM26.3515 19.749C26.4062 19.9255 26.4323 20.1224 26.4323 20.3271C26.4323 20.5342 26.4062 20.7286 26.3515 20.9051C26.302 21.0765 26.2187 21.2351 26.1015 21.3732C25.9869 21.5062 25.8437 21.6136 25.6797 21.6853C25.5104 21.7594 25.3151 21.7978 25.0911 21.7978C24.8672 21.7978 24.6718 21.7594 24.5052 21.6853C24.3437 21.6136 24.1979 21.5062 24.0833 21.3732C23.9687 21.2351 23.8854 21.0765 23.8333 20.9051C23.7786 20.7184 23.75 20.5214 23.7526 20.3271C23.7526 20.1199 23.7786 19.9255 23.8333 19.749C23.888 19.5699 23.9713 19.4139 24.0807 19.2809C24.1953 19.1479 24.3411 19.0405 24.5026 18.9663C24.6692 18.8895 24.8672 18.8512 25.0885 18.8512C25.3099 18.8512 25.5078 18.8895 25.677 18.9663C25.8437 19.043 25.9869 19.1479 26.0989 19.2809C26.2161 19.4139 26.2994 19.5725 26.3515 19.749ZM19.2448 21.409L19.375 21.056C19.3932 20.9972 19.4479 21.0202 19.4609 21.0279C19.4974 21.0484 19.5234 21.0688 19.5703 21.0944C19.9531 21.3323 20.3047 21.3348 20.4166 21.3348C20.7005 21.3348 20.8776 21.1865 20.8776 20.987V20.9742C20.8776 20.7568 20.6041 20.6749 20.289 20.5803L20.2187 20.5573C19.7838 20.437 19.3229 20.2605 19.3229 19.7234V19.7132C19.3229 19.2016 19.7422 18.8461 20.3437 18.8461H20.4088C20.7604 18.8461 21.1041 18.9458 21.3489 19.0942C21.3698 19.107 21.3932 19.1325 21.3802 19.1684C21.3672 19.199 21.2578 19.4881 21.2474 19.5213C21.2239 19.5802 21.1614 19.5418 21.1614 19.5418C20.9036 19.4088 20.6172 19.3372 20.3281 19.3321C20.0729 19.3321 19.9088 19.4651 19.9088 19.6441V19.6543C19.9088 19.8641 20.1901 19.9536 20.5156 20.0585L20.5703 20.0764C21.0026 20.2094 21.4635 20.3961 21.4635 20.9077V20.9179C21.4635 21.4704 21.0547 21.8132 20.3984 21.8132C20.0755 21.8132 19.7682 21.7646 19.4427 21.5932C19.3802 21.5574 19.3203 21.5292 19.2604 21.4858C19.2526 21.473 19.2239 21.4627 19.2448 21.409ZM9.63538 21.409L9.76559 21.056C9.78642 20.9947 9.8333 21.0151 9.85153 21.0279C9.88799 21.0484 9.91403 21.0688 9.9609 21.0944C10.3437 21.3323 10.6953 21.3348 10.8073 21.3348C11.0937 21.3348 11.2708 21.1865 11.2708 20.987V20.9742C11.2708 20.7568 10.9974 20.6749 10.6823 20.5803L10.6119 20.5573C10.1797 20.437 9.71611 20.2605 9.71611 19.7234V19.7132C9.71611 19.2016 10.1354 18.8461 10.7369 18.8461H10.802C11.1536 18.8461 11.4948 18.9458 11.7422 19.0942C11.7656 19.107 11.7864 19.1325 11.7734 19.1684L11.6406 19.5213C11.6172 19.5802 11.552 19.5418 11.552 19.5418C11.2942 19.4088 11.0104 19.3372 10.7187 19.3321C10.4635 19.3321 10.2994 19.4651 10.2994 19.6441V19.6543C10.2994 19.8641 10.5807 19.9536 10.9062 20.0585L10.9609 20.0764C11.3932 20.2094 11.8541 20.3961 11.8541 20.9077V20.9179C11.8541 21.4704 11.4453 21.8132 10.789 21.8132C10.4661 21.8132 10.1588 21.7646 9.8333 21.5932C9.7708 21.5574 9.7109 21.5292 9.65101 21.4858C9.64319 21.473 9.61455 21.4627 9.63538 21.409Z"
              fill="white"/>
    </g>
    <defs>
        <clipPath id="clip0_4425_8565">
            <rect width="32" height="22" fill="white" transform="translate(5 10)"/>
        </clipPath>
    </defs>
</svg>
