<svg width="20" height="20" viewBox="0 0 20 20" fill="none" xmlns="http://www.w3.org/2000/svg"><path d="M14.893 5.107a2.5 2.5 0 0 0-3.53-.005l-.91.954a.625.625 0 0 1-.905-.86l.915-.96a3.75 3.75 0 0 1 5.303 5.303l-.96.917a.626.626 0 0 1-.86-.905l.955-.91a2.5 2.5 0 0 0-.008-3.534zm-5.345 8.837l-.91.954a2.5 2.5 0 0 1-3.536-3.535l.954-.91a.625.625 0 0 0-.86-.905l-.962.915a3.75 3.75 0 0 0 5.303 5.303l.915-.96a.625.625 0 1 0-.904-.86v-.002zm6.702-2.069h-1.875a.624.624 0 1 0 0 1.25h1.875a.624.624 0 1 0 0-1.25zm-12.5-3.75h1.875a.625.625 0 0 0 0-1.25H3.75a.625.625 0 0 0 0 1.25zm8.75 5.625a.624.624 0 0 0-.625.625v1.875a.624.624 0 1 0 1.25 0v-1.875a.624.624 0 0 0-.625-.625zm-5-7.5a.625.625 0 0 0 .625-.625V3.75a.625.625 0 0 0-1.25 0v1.875a.625.625 0 0 0 .625.625z" fill="#363440"/></svg>