<svg preserveAspectRatio="xMidYMid meet" viewBox="0 0 20 20" fill="none" xmlns="http://www.w3.org/2000/svg">
    <path d="M17.5 13.3809V15.6541C17.5 15.9779 17.3683 16.2884 17.1339 16.5174C16.8995 16.7464 16.5815 16.875 16.25 16.875H3.75C3.41848 16.875 3.10054 16.7464 2.86612 16.5174C2.6317 16.2884 2.5 15.9779 2.5 15.6541V13.3809C2.5 13.219 2.56585 13.0637 2.68306 12.9492C2.80027 12.8347 2.95924 12.7704 3.125 12.7704C3.29076 12.7704 3.44973 12.8347 3.56694 12.9492C3.68415 13.0637 3.75 13.219 3.75 13.3809V15.6541H16.25V13.3809C16.25 13.219 16.3158 13.0637 16.4331 12.9492C16.5503 12.8347 16.7092 12.7704 16.875 12.7704C17.0408 12.7704 17.1997 12.8347 17.3169 12.9492C17.4342 13.0637 17.5 13.219 17.5 13.3809Z"
          fill="white"/>
    <path d="M5.8083 8.4556C5.75019 8.3989 5.70409 8.33157 5.67264 8.25747C5.64119 8.18336 5.625 8.10392 5.625 8.0237C5.625 7.94347 5.64119 7.86404 5.67264 7.78993C5.70409 7.71582 5.75019 7.64849 5.8083 7.5918L9.5583 3.92904C9.61635 3.87228 9.68528 3.82725 9.76115 3.79653C9.83703 3.76581 9.91836 3.75 10.0005 3.75C10.0826 3.75 10.164 3.76581 10.2398 3.79653C10.3157 3.82725 10.3846 3.87228 10.4427 3.92904L14.1927 7.5918C14.31 7.70634 14.3758 7.8617 14.3758 8.0237C14.3758 8.18569 14.31 8.34105 14.1927 8.4556C14.0754 8.57014 13.9163 8.6345 13.7505 8.6345C13.5846 8.6345 13.4256 8.57014 13.3083 8.4556L10.6255 5.83444V12.2969C10.6255 12.4588 10.5596 12.6141 10.4424 12.7286C10.3252 12.8431 10.1663 12.9074 10.0005 12.9074C9.83473 12.9074 9.67576 12.8431 9.55855 12.7286C9.44134 12.6141 9.37549 12.4588 9.37549 12.2969V5.83444L6.69268 8.4556C6.63463 8.51236 6.5657 8.55738 6.48983 8.5881C6.41396 8.61882 6.33263 8.63464 6.25049 8.63464C6.16836 8.63464 6.08703 8.61882 6.01115 8.5881C5.93528 8.55738 5.86635 8.51236 5.8083 8.4556Z"
          fill="white"/>
</svg>
