<svg preserveAspectRatio="xMidYMid meet" viewBox="0 0 32 32" fill="none" xmlns="http://www.w3.org/2000/svg">
    <g clip-path="url(#clip0_3502_8624)">
        <path d="M22.1634 11.9294V9.08543C22.9329 8.72618 23.4249 7.95668 23.4294 7.10468V7.03793C23.4256 5.83118 22.4491 4.85018 21.2379 4.84643H21.1711C19.9599 4.85018 18.9796 5.82668 18.9759 7.03793V7.10468C18.9796 7.94843 19.4679 8.71418 20.2299 9.07718L20.2419 9.08468V11.9362C19.1559 12.1004 18.1284 12.5534 17.2734 13.2449L17.2854 13.2374L9.45685 7.13993C10.1641 4.49918 6.7186 2.80793 5.0626 4.98368C3.4021 7.15568 5.93785 10.0304 8.3011 8.65568L8.2891 8.66318L15.9841 14.6512C15.3046 15.6749 14.9409 16.8742 14.9454 18.1004C14.9454 19.4399 15.3714 20.6864 16.0936 21.7057L16.0816 21.6862L13.7379 24.0262C13.5504 23.9677 13.3554 23.9362 13.1596 23.9324H13.1559C11.3476 23.9324 10.4371 26.1239 11.7181 27.4049C12.9991 28.6822 15.1906 27.7762 15.1906 25.9672C15.1869 25.7639 15.1516 25.5607 15.0894 25.3694L15.0931 25.3852L17.4099 23.0684C18.9414 24.2362 20.9259 24.6352 22.7889 24.1469C24.6481 23.6549 26.1834 22.3387 26.9409 20.5687C27.7029 18.7994 27.6046 16.7797 26.6754 15.0922C25.7499 13.4047 24.0931 12.2407 22.1949 11.9362L22.1559 11.9287L22.1634 11.9294ZM21.1981 21.3082C18.3429 21.3007 16.9209 17.8469 18.9444 15.8317C20.9641 13.8157 24.4134 15.2459 24.4134 18.1012V18.1049C24.4134 19.8742 22.9801 21.3082 21.2064 21.3082H21.1981Z"
              fill="#FF7A59"/>
    </g>
    <defs>
        <clipPath id="clip0_3502_8624">
            <rect width="24" height="24" fill="white" transform="translate(4 4)"/>
        </clipPath>
    </defs>
</svg>
