<svg xmlns="http://www.w3.org/2000/svg" preserveAspectRatio="xMidYMid meet" viewBox="0 0 20 20" fill="none">
    <path d="M5.625 5H16.875C17.0408 5 17.1997 5.06585 17.3169 5.18306C17.4342 5.30027 17.5 5.45924 17.5 5.625V16.875C17.5 17.0408 17.4342 17.1997 17.3169 17.3169C17.1997 17.4342 17.0408 17.5 16.875 17.5H5.625C5.45924 17.5 5.30027 17.4342 5.18306 17.3169C5.06585 17.1997 5 17.0408 5 16.875V5.625C5 5.45924 5.06585 5.30027 5.18306 5.18306C5.30027 5.06585 5.45924 5 5.625 5ZM6.25 16.25H16.25V6.25H6.25V16.25ZM2.5 3.125V14.375C2.5 14.5408 2.56585 14.6997 2.68306 14.8169C2.80027 14.9342 2.95924 15 3.125 15C3.29076 15 3.44973 14.9342 3.56694 14.8169C3.68415 14.6997 3.75 14.5408 3.75 14.375V3.75H14.375C14.5408 3.75 14.6997 3.68415 14.8169 3.56694C14.9342 3.44973 15 3.29076 15 3.125C15 2.95924 14.9342 2.80027 14.8169 2.68306C14.6997 2.56585 14.5408 2.5 14.375 2.5H3.125C2.95924 2.5 2.80027 2.56585 2.68306 2.68306C2.56585 2.80027 2.5 2.95924 2.5 3.125Z" fill="#2A292E"/>
</svg>