<svg width="18" height="18" viewBox="0 0 18 18" fill="none" xmlns="http://www.w3.org/2000/svg"><g clip-path="url(#clip0_10642_2442)"><path d="M3.764 9c0-.571.097-1.12.27-1.633L1.005 5.102A8.646 8.646 0 0 0 .083 9c0 1.401.331 2.723.92 3.896l3.028-2.27A5.107 5.107 0 0 1 3.764 9z" fill="#FBBC05"/><path d="M9.083 3.8c1.267 0 2.412.44 3.312 1.16l2.619-2.56C13.418 1.04 11.373.2 9.082.2 5.526.2 2.469 2.191 1.005 5.101l3.03 2.265C4.732 5.292 6.722 3.8 9.083 3.8z" fill="#EA4335"/><path d="M9.083 14.2c-2.362 0-4.351-1.492-5.05-3.566l-3.028 2.265c1.463 2.91 4.52 4.901 8.078 4.901 2.194 0 4.29-.763 5.863-2.193l-2.876-2.176c-.81.5-1.832.769-2.988.769" fill="#34A853"/><path d="M17.673 9c0-.52-.082-1.08-.205-1.6H9.082v3.4h4.827a3.96 3.96 0 0 1-1.838 2.63l2.875 2.177c1.652-1.502 2.727-3.738 2.727-6.607z" fill="#4285F4"/></g><defs><clipPath id="clip0_10642_2442"><path fill="#fff" d="M0 0h18v18H0z"/></clipPath></defs></svg>