<svg xmlns="http://www.w3.org/2000/svg" preserveAspectRatio="xMidYMid meet" viewBox="0 0 20 20" fill="none">
    <path d="M18.0161 3.86955C17.9199 3.64729 17.7605 3.45822 17.5577 3.32584C17.3549 3.19347 17.1176 3.12363 16.8755 3.12502H3.12547C2.88354 3.1255 2.64695 3.19617 2.44439 3.32846C2.24184 3.46076 2.08203 3.64899 1.98435 3.87032C1.88667 4.09165 1.85531 4.33658 1.89409 4.57538C1.93287 4.81418 2.04011 5.03659 2.20281 5.21565L2.20906 5.22268L7.50047 10.8727V16.875C7.50042 17.1013 7.56176 17.3233 7.67796 17.5174C7.79417 17.7115 7.96087 17.8704 8.1603 17.9772C8.35973 18.084 8.58441 18.1347 8.81038 18.1239C9.03636 18.113 9.25515 18.0411 9.44344 17.9156L11.9434 16.2485C12.1148 16.1343 12.2553 15.9796 12.3525 15.798C12.4497 15.6165 12.5005 15.4138 12.5005 15.2078V10.8727L17.7927 5.22268L17.7989 5.21565C17.9633 5.03741 18.0716 4.8147 18.1102 4.57531C18.1488 4.33592 18.1161 4.09045 18.0161 3.86955ZM11.5895 10.0219C11.3724 10.252 11.2512 10.5563 11.2505 10.8727V15.2078L8.75047 16.875V10.8727C8.75119 10.5551 8.63045 10.2494 8.41297 10.018L3.12547 4.37502H16.8755L11.5895 10.0219Z"
          fill="#6E4EFB"/>
    <path d="M16.036 15.1517L16.9199 14.2678C17.0371 14.1506 17.1961 14.0848 17.3618 14.0848C17.5276 14.0848 17.6866 14.1506 17.8038 14.2678C17.921 14.385 17.9868 14.544 17.9868 14.7098C17.9868 14.8755 17.921 15.0345 17.8038 15.1517L16.9199 16.0356L17.8038 16.9195C17.921 17.0367 17.9868 17.1956 17.9868 17.3614C17.9868 17.5272 17.921 17.6861 17.8038 17.8034C17.6866 17.9206 17.5276 17.9864 17.3618 17.9864C17.1961 17.9864 17.0371 17.9206 16.9199 17.8034L16.036 16.9195L15.1521 17.8034C15.0349 17.9206 14.8759 17.9864 14.7102 17.9864C14.5444 17.9864 14.3854 17.9206 14.2682 17.8034C14.151 17.6861 14.0852 17.5272 14.0852 17.3614C14.0852 17.1956 14.151 17.0367 14.2682 16.9195L15.1521 16.0356L14.2682 15.1517C14.151 15.0345 14.0852 14.8755 14.0852 14.7098C14.0852 14.544 14.151 14.385 14.2682 14.2678C14.3854 14.1506 14.5444 14.0848 14.7102 14.0848C14.8759 14.0848 15.0349 14.1506 15.1521 14.2678L16.036 15.1517Z"
          fill="#6E4EFB"/>
</svg>
