<svg xmlns="http://www.w3.org/2000/svg" width="20" height="21" viewBox="0 0 20 21" fill="none">
    <path d="M16.25 11.125H3.75C3.41848 11.125 3.10054 11.2567 2.86612 11.4911C2.6317 11.7255 2.5 12.0435 2.5 12.375V15.5C2.5 15.8315 2.6317 16.1495 2.86612 16.3839C3.10054 16.6183 3.41848 16.75 3.75 16.75H16.25C16.5815 16.75 16.8995 16.6183 17.1339 16.3839C17.3683 16.1495 17.5 15.8315 17.5 15.5V12.375C17.5 12.0435 17.3683 11.7255 17.1339 11.4911C16.8995 11.2567 16.5815 11.125 16.25 11.125ZM16.25 15.5H3.75V12.375H16.25V15.5ZM16.25 4.25H3.75C3.41848 4.25 3.10054 4.3817 2.86612 4.61612C2.6317 4.85054 2.5 5.16848 2.5 5.5V8.625C2.5 8.95652 2.6317 9.27446 2.86612 9.50888C3.10054 9.7433 3.41848 9.875 3.75 9.875H16.25C16.5815 9.875 16.8995 9.7433 17.1339 9.50888C17.3683 9.27446 17.5 8.95652 17.5 8.625V5.5C17.5 5.16848 17.3683 4.85054 17.1339 4.61612C16.8995 4.3817 16.5815 4.25 16.25 4.25ZM16.25 8.625H3.75V5.5H16.25V8.625Z" />
</svg>