<svg xmlns="http://www.w3.org/2000/svg" preserveAspectRatio="xMidYMid meet" viewBox="0 0 24 24" fill="none">
    <path d="M22.5 12.7501V18.7501C22.5 19.1479 22.342 19.5295 22.0607 19.8108C21.7794 20.0921 21.3978 20.2501 21 20.2501H3C2.60218 20.2501 2.22064 20.0921 1.93934 19.8108C1.65804 19.5295 1.5 19.1479 1.5 18.7501V12.7501C1.5 12.3523 1.65804 11.9707 1.93934 11.6894C2.22064 11.4081 2.60218 11.2501 3 11.2501H7.5C7.69891 11.2501 7.88968 11.3291 8.03033 11.4698C8.17098 11.6104 8.25 11.8012 8.25 12.0001C8.25 12.199 8.17098 12.3898 8.03033 12.5304C7.88968 12.6711 7.69891 12.7501 7.5 12.7501H3V18.7501H21V12.7501H16.5C16.3011 12.7501 16.1103 12.6711 15.9697 12.5304C15.829 12.3898 15.75 12.199 15.75 12.0001C15.75 11.8012 15.829 11.6104 15.9697 11.4698C16.1103 11.3291 16.3011 11.2501 16.5 11.2501H21C21.3978 11.2501 21.7794 11.4081 22.0607 11.6894C22.342 11.9707 22.5 12.3523 22.5 12.7501ZM8.03063 7.28073L11.25 4.06041V12.0001C11.25 12.199 11.329 12.3898 11.4697 12.5304C11.6103 12.6711 11.8011 12.7501 12 12.7501C12.1989 12.7501 12.3897 12.6711 12.5303 12.5304C12.671 12.3898 12.75 12.199 12.75 12.0001V4.06041L15.9694 7.28073C16.1101 7.42146 16.301 7.50052 16.5 7.50052C16.699 7.50052 16.8899 7.42146 17.0306 7.28073C17.1714 7.14 17.2504 6.94912 17.2504 6.7501C17.2504 6.55108 17.1714 6.36021 17.0306 6.21948L12.5306 1.71948C12.461 1.64974 12.3783 1.59443 12.2872 1.55668C12.1962 1.51894 12.0986 1.49951 12 1.49951C11.9014 1.49951 11.8038 1.51894 11.7128 1.55668C11.6217 1.59443 11.539 1.64974 11.4694 1.71948L6.96937 6.21948C6.82864 6.36021 6.74958 6.55108 6.74958 6.7501C6.74958 6.94912 6.82864 7.14 6.96938 7.28073C7.11011 7.42146 7.30098 7.50052 7.5 7.50052C7.69902 7.50052 7.88989 7.42146 8.03063 7.28073ZM18.75 15.7501C18.75 15.5276 18.684 15.3101 18.5604 15.1251C18.4368 14.9401 18.2611 14.7959 18.0555 14.7107C17.85 14.6256 17.6238 14.6033 17.4055 14.6467C17.1873 14.6901 16.9868 14.7973 16.8295 14.9546C16.6722 15.1119 16.565 15.3124 16.5216 15.5306C16.4782 15.7489 16.5005 15.9751 16.5856 16.1806C16.6708 16.3862 16.815 16.5619 17 16.6855C17.185 16.8091 17.4025 16.8751 17.625 16.8751C17.9234 16.8751 18.2095 16.7566 18.4205 16.5456C18.6315 16.3346 18.75 16.0485 18.75 15.7501Z" fill="white"/>
</svg>