<svg xmlns="http://www.w3.org/2000/svg" preserveAspectRatio="xMidYMid meet" viewBox="0 0 24 24" fill="none">
    <path d="M21 14.25V19.5C21 19.8978 20.842 20.2794 20.5607 20.5607C20.2794 20.842 19.8978 21 19.5 21H4.5C4.10218 21 3.72064 20.842 3.43934 20.5607C3.15804 20.2794 3 19.8978 3 19.5V14.25C3 14.0511 3.07902 13.8603 3.21967 13.7197C3.36032 13.579 3.55109 13.5 3.75 13.5C3.94891 13.5 4.13968 13.579 4.28033 13.7197C4.42098 13.8603 4.5 14.0511 4.5 14.25V19.5H19.5V14.25C19.5 14.0511 19.579 13.8603 19.7197 13.7197C19.8603 13.579 20.0511 13.5 20.25 13.5C20.4489 13.5 20.6397 13.579 20.7803 13.7197C20.921 13.8603 21 14.0511 21 14.25ZM8.78063 8.03064L11.25 5.56032V14.25C11.25 14.4489 11.329 14.6397 11.4697 14.7803C11.6103 14.921 11.8011 15 12 15C12.1989 15 12.3897 14.921 12.5303 14.7803C12.671 14.6397 12.75 14.4489 12.75 14.25V5.56032L15.2194 8.03064C15.3601 8.17137 15.551 8.25043 15.75 8.25043C15.949 8.25043 16.1399 8.17137 16.2806 8.03064C16.4214 7.8899 16.5004 7.69903 16.5004 7.50001C16.5004 7.30099 16.4214 7.11012 16.2806 6.96938L12.5306 3.21939C12.461 3.14965 12.3783 3.09433 12.2872 3.05659C12.1962 3.01885 12.0986 2.99942 12 2.99942C11.9014 2.99942 11.8038 3.01885 11.7128 3.05659C11.6217 3.09433 11.539 3.14965 11.4694 3.21939L7.71937 6.96938C7.57864 7.11012 7.49958 7.30099 7.49958 7.50001C7.49958 7.69903 7.57864 7.8899 7.71937 8.03064C7.86011 8.17137 8.05098 8.25043 8.25 8.25043C8.44902 8.25043 8.63989 8.17137 8.78063 8.03064Z"
          fill="#202939"/>
</svg>
