<svg xmlns="http://www.w3.org/2000/svg" preserveAspectRatio="xMidYMid meet" viewBox="0 0 24 24" fill="none">
    <path d="M15.7497 5.25001C15.7497 5.0511 15.8287 4.86033 15.9693 4.71968C16.11 4.57903 16.3007 4.50001 16.4997 4.50001H17.9997V3.00001C17.9997 2.8011 18.0787 2.61033 18.2193 2.46968C18.36 2.32903 18.5507 2.25001 18.7497 2.25001C18.9486 2.25001 19.1393 2.32903 19.28 2.46968C19.4206 2.61033 19.4997 2.8011 19.4997 3.00001V4.50001H20.9997C21.1986 4.50001 21.3893 4.57903 21.53 4.71968C21.6706 4.86033 21.7497 5.0511 21.7497 5.25001C21.7497 5.44892 21.6706 5.63969 21.53 5.78034C21.3893 5.92099 21.1986 6.00001 20.9997 6.00001H19.4997V7.50001C19.4997 7.69892 19.4206 7.88969 19.28 8.03034C19.1393 8.17099 18.9486 8.25001 18.7497 8.25001C18.5507 8.25001 18.36 8.17099 18.2193 8.03034C18.0787 7.88969 17.9997 7.69892 17.9997 7.50001V6.00001H16.4997C16.3007 6.00001 16.11 5.92099 15.9693 5.78034C15.8287 5.63969 15.7497 5.44892 15.7497 5.25001ZM21.6147 10.3763C21.9573 12.413 21.6438 14.506 20.7194 16.353C19.795 18.2 18.3075 19.7054 16.4717 20.6518C14.636 21.5983 12.5469 21.9369 10.5062 21.6187C8.46543 21.3005 6.57863 20.342 5.11817 18.8815C3.65772 17.421 2.69919 15.5342 2.38098 13.4935C2.06277 11.4528 2.40135 9.36371 3.34783 7.52795C4.29431 5.69218 5.79972 4.20471 7.64669 3.2803C9.49367 2.35589 11.5866 2.04237 13.6234 2.38501C13.8181 2.41944 13.9913 2.52935 14.1054 2.69083C14.2195 2.85232 14.2651 3.05231 14.2325 3.24731C14.1999 3.4423 14.0916 3.61653 13.9312 3.73209C13.7708 3.84766 13.5712 3.8952 13.3759 3.86439C12.1929 3.66538 10.9808 3.72655 9.82379 4.04364C8.66684 4.36073 7.59287 4.92613 6.67665 5.70048C5.76042 6.47483 5.02393 7.43954 4.51844 8.52746C4.01296 9.61538 3.75061 10.8004 3.74966 12C3.74788 14.0196 4.49014 15.969 5.83466 17.4759C6.67113 16.2638 7.8473 15.3261 9.21528 14.7806C8.48046 14.2019 7.94425 13.4085 7.68123 12.5109C7.4182 11.6132 7.44144 10.6559 7.74771 9.77209C8.05398 8.88826 8.62805 8.12184 9.39009 7.57941C10.1521 7.03697 11.0643 6.74549 11.9997 6.74549C12.935 6.74549 13.8472 7.03697 14.6092 7.57941C15.3713 8.12184 15.9453 8.88826 16.2516 9.77209C16.5579 10.6559 16.5811 11.6132 16.3181 12.5109C16.0551 13.4085 15.5189 14.2019 14.784 14.7806C16.152 15.3261 17.3282 16.2638 18.1647 17.4759C19.5092 15.969 20.2514 14.0196 20.2497 12C20.2497 11.5389 20.2114 11.0786 20.1353 10.6238C20.118 10.5262 20.1203 10.4262 20.1419 10.3295C20.1635 10.2328 20.2041 10.1414 20.2612 10.0604C20.3184 9.97951 20.391 9.91072 20.4749 9.85802C20.5588 9.80533 20.6523 9.76978 20.7501 9.75343C20.8478 9.73709 20.9478 9.74026 21.0443 9.76278C21.1407 9.78529 21.2318 9.8267 21.3122 9.88461C21.3926 9.94252 21.4607 10.0158 21.5126 10.1002C21.5645 10.1846 21.5992 10.2784 21.6147 10.3763ZM11.9997 14.25C12.593 14.25 13.173 14.0741 13.6664 13.7444C14.1597 13.4148 14.5442 12.9462 14.7713 12.3981C14.9984 11.8499 15.0578 11.2467 14.942 10.6647C14.8263 10.0828 14.5405 9.54825 14.121 9.12869C13.7014 8.70913 13.1669 8.42341 12.5849 8.30765C12.003 8.1919 11.3998 8.25131 10.8516 8.47837C10.3034 8.70543 9.83489 9.08995 9.50525 9.5833C9.17561 10.0766 8.99966 10.6567 8.99966 11.25C8.99966 12.0457 9.31573 12.8087 9.87834 13.3713C10.4409 13.9339 11.204 14.25 11.9997 14.25ZM11.9997 20.25C13.8309 20.2519 15.6103 19.6414 17.0547 18.5156C16.5121 17.6671 15.7647 16.9688 14.8812 16.4851C13.9978 16.0014 13.0068 15.7478 11.9997 15.7478C10.9925 15.7478 10.0015 16.0014 9.11808 16.4851C8.23466 16.9688 7.48722 17.6671 6.94466 18.5156C8.38906 19.6414 10.1684 20.2519 11.9997 20.25Z" fill="#202939"/>
</svg>