<svg xmlns="http://www.w3.org/2000/svg" preserveAspectRatio="xMidYMid meet" viewBox="0 0 24 24" fill="none">
    <path d="M12 12C12.1989 12 12.3897 12.079 12.5303 12.2197C12.671 12.3603 12.75 12.5511 12.75 12.75L12.75 19.5C12.75 19.6989 12.671 19.8897 12.5303 20.0303C12.3897 20.171 12.1989 20.25 12 20.25C11.8011 20.25 11.6103 20.171 11.4697 20.0303C11.329 19.8897 11.25 19.6989 11.25 19.5L11.25 12.75C11.25 12.5511 11.329 12.3603 11.4697 12.2197C11.6103 12.079 11.8011 12 12 12ZM6.75 19.5L6.75 6.75C6.75 6.55109 6.67098 6.36032 6.53033 6.21967C6.38968 6.07902 6.19891 6 6 6C5.80109 6 5.61032 6.07902 5.46967 6.21967C5.32902 6.36032 5.25 6.55109 5.25 6.75L5.25 19.5C5.25 19.6989 5.32902 19.8897 5.46967 20.0303C5.61032 20.171 5.80109 20.25 6 20.25C6.19891 20.25 6.38968 20.171 6.53033 20.0303C6.67098 19.8897 6.75 19.6989 6.75 19.5ZM17.25 14.25L17.25 19.5C17.25 19.6989 17.329 19.8897 17.4697 20.0303C17.6103 20.171 17.8011 20.25 18 20.25C18.1989 20.25 18.3897 20.171 18.5303 20.0303C18.671 19.8897 18.75 19.6989 18.75 19.5L18.75 14.25C18.75 14.0511 18.671 13.8603 18.5303 13.7197C18.3897 13.579 18.1989 13.5 18 13.5C17.8011 13.5 17.6103 13.579 17.4697 13.7197C17.329 13.8603 17.25 14.0511 17.25 14.25ZM15.2194 2.46938C15.1496 2.53903 15.0943 2.62175 15.0566 2.71279C15.0188 2.80384 14.9994 2.90144 14.9994 3C14.9994 3.09856 15.0188 3.19616 15.0566 3.2872C15.0943 3.37825 15.1496 3.46097 15.2194 3.53062L17.6897 6L10.5 6C10.3011 6 10.1103 6.07902 9.96967 6.21967C9.82902 6.36032 9.75 6.55109 9.75 6.75C9.75 6.94891 9.82902 7.13968 9.96967 7.28033C10.1103 7.42098 10.3011 7.5 10.5 7.5L17.6897 7.5L15.2194 9.96937C15.0786 10.1101 14.9996 10.301 14.9996 10.5C14.9996 10.699 15.0786 10.8899 15.2194 11.0306C15.3601 11.1714 15.551 11.2504 15.75 11.2504C15.949 11.2504 16.1399 11.1714 16.2806 11.0306L20.0306 7.28062C20.1004 7.21097 20.1557 7.12825 20.1934 7.0372C20.2312 6.94616 20.2506 6.84856 20.2506 6.75C20.2506 6.65144 20.2312 6.55384 20.1934 6.46279C20.1557 6.37175 20.1004 6.28903 20.0306 6.21937L16.2806 2.46938C16.211 2.39964 16.1283 2.34432 16.0372 2.30658C15.9462 2.26884 15.8486 2.24941 15.75 2.24941C15.6514 2.24941 15.5538 2.26884 15.4628 2.30658C15.3717 2.34432 15.289 2.39964 15.2194 2.46938Z" fill="#343330"/>
</svg>