<svg xmlns="http://www.w3.org/2000/svg"  preserveAspectRatio="xMidYMid meet" viewBox="0 0 24 24" fill="none">
    <path d="M6 21C5.80109 21 5.61032 20.921 5.46967 20.7803C5.32902 20.6397 5.25 20.4489 5.25 20.25L5.25 3.75C5.25 3.55109 5.32902 3.36032 5.46967 3.21967C5.61032 3.07902 5.80109 3 6 3C6.19891 3 6.38968 3.07902 6.53033 3.21967C6.67098 3.36032 6.75 3.55109 6.75 3.75L6.75 20.25C6.75 20.4489 6.67098 20.6397 6.53033 20.7803C6.38968 20.921 6.19891 21 6 21ZM12.75 20.25L12.75 3.75C12.75 3.55109 12.671 3.36032 12.5303 3.21967C12.3897 3.07902 12.1989 3 12 3C11.8011 3 11.6103 3.07902 11.4697 3.21967C11.329 3.36032 11.25 3.55109 11.25 3.75L11.25 20.25C11.25 20.4489 11.329 20.6397 11.4697 20.7803C11.6103 20.921 11.8011 21 12 21C12.1989 21 12.3897 20.921 12.5303 20.7803C12.671 20.6397 12.75 20.4489 12.75 20.25ZM17.25 10.5L17.25 20.25C17.25 20.4489 17.329 20.6397 17.4697 20.7803C17.6103 20.921 17.8011 21 18 21C18.1989 21 18.3897 20.921 18.5303 20.7803C18.671 20.6397 18.75 20.4489 18.75 20.25L18.75 10.5C18.75 10.3011 18.671 10.1103 18.5303 9.96967C18.3897 9.82902 18.1989 9.75 18 9.75C17.8011 9.75 17.6103 9.82902 17.4697 9.96967C17.329 10.1103 17.25 10.3011 17.25 10.5ZM17.25 2.25L17.25 3.75L15.75 3.75C15.5511 3.75 15.3603 3.82902 15.2197 3.96967C15.079 4.11032 15 4.30109 15 4.5C15 4.69891 15.079 4.88968 15.2197 5.03033C15.3603 5.17098 15.5511 5.25 15.75 5.25L17.25 5.25L17.25 6.75C17.25 6.94891 17.329 7.13968 17.4697 7.28033C17.6103 7.42098 17.8011 7.5 18 7.5C18.1989 7.5 18.3897 7.42098 18.5303 7.28033C18.671 7.13968 18.75 6.94891 18.75 6.75L18.75 5.25L20.25 5.25C20.4489 5.25 20.6397 5.17098 20.7803 5.03033C20.921 4.88968 21 4.69891 21 4.5C21 4.30109 20.921 4.11032 20.7803 3.96967C20.6397 3.82902 20.4489 3.75 20.25 3.75L18.75 3.75L18.75 2.25C18.75 2.05109 18.671 1.86032 18.5303 1.71967C18.3897 1.57902 18.1989 1.5 18 1.5C17.8011 1.5 17.6103 1.57902 17.4697 1.71967C17.329 1.86032 17.25 2.05109 17.25 2.25Z" fill="#343330"/>
</svg>