<svg xmlns="http://www.w3.org/2000/svg" width="20" height="20" viewBox="0 0 20 20" fill="none">
    <path d="M10.9375 10C10.9375 10.1854 10.8825 10.3667 10.7795 10.5208C10.6765 10.675 10.5301 10.7952 10.3588 10.8661C10.1875 10.9371 9.99896 10.9557 9.8171 10.9195C9.63525 10.8833 9.4682 10.794 9.33709 10.6629C9.20598 10.5318 9.11669 10.3648 9.08051 10.1829C9.04434 10.001 9.06291 9.81254 9.13386 9.64123C9.20482 9.46993 9.32498 9.32351 9.47915 9.2205C9.63332 9.11748 9.81458 9.0625 10 9.0625C10.2486 9.0625 10.4871 9.16127 10.6629 9.33709C10.8387 9.5129 10.9375 9.75136 10.9375 10ZM15.3125 9.0625C15.1271 9.0625 14.9458 9.11748 14.7917 9.2205C14.6375 9.32351 14.5173 9.46993 14.4464 9.64123C14.3754 9.81254 14.3568 10.001 14.393 10.1829C14.4292 10.3648 14.5185 10.5318 14.6496 10.6629C14.7807 10.794 14.9477 10.8833 15.1296 10.9195C15.3115 10.9557 15.5 10.9371 15.6713 10.8661C15.8426 10.7952 15.989 10.675 16.092 10.5208C16.195 10.3667 16.25 10.1854 16.25 10C16.25 9.75136 16.1512 9.5129 15.9754 9.33709C15.7996 9.16127 15.5611 9.0625 15.3125 9.0625ZM4.6875 9.0625C4.50208 9.0625 4.32082 9.11748 4.16665 9.2205C4.01248 9.32351 3.89232 9.46993 3.82136 9.64123C3.75041 9.81254 3.73184 10.001 3.76801 10.1829C3.80419 10.3648 3.89348 10.5318 4.02459 10.6629C4.1557 10.794 4.32275 10.8833 4.5046 10.9195C4.68646 10.9557 4.87496 10.9371 5.04627 10.8661C5.21757 10.7952 5.36399 10.675 5.467 10.5208C5.57002 10.3667 5.625 10.1854 5.625 10C5.625 9.75136 5.52623 9.5129 5.35041 9.33709C5.1746 9.16127 4.93614 9.0625 4.6875 9.0625Z"
          fill="#392039"/>
</svg>
