<svg xmlns="http://www.w3.org/2000/svg" preserveAspectRatio="xMidYMid meet" viewBox="0 0 20 20" fill="none">
  <path d="M8.125 3.28125H4.375C4.08492 3.28125 3.80672 3.39648 3.6016 3.6016C3.39648 3.80672 3.28125 4.08492 3.28125 4.375V8.125C3.28125 8.26863 3.30954 8.41086 3.36451 8.54356C3.41947 8.67626 3.50004 8.79683 3.6016 8.8984C3.70317 8.99996 3.82374 9.08053 3.95644 9.13549C4.08914 9.19046 4.23137 9.21875 4.375 9.21875H8.125C8.26863 9.21875 8.41086 9.19046 8.54356 9.13549C8.67626 9.08053 8.79683 8.99996 8.8984 8.8984C8.99996 8.79683 9.08053 8.67626 9.13549 8.54356C9.19046 8.41086 9.21875 8.26863 9.21875 8.125V4.375C9.21875 4.23137 9.19046 4.08914 9.13549 3.95644C9.08053 3.82374 8.99996 3.70317 8.8984 3.6016C8.79683 3.50004 8.67626 3.41947 8.54356 3.36451C8.41086 3.30954 8.26863 3.28125 8.125 3.28125ZM8.28125 8.125C8.28125 8.16644 8.26479 8.20618 8.23549 8.23549C8.20618 8.26479 8.16644 8.28125 8.125 8.28125H4.375C4.33356 8.28125 4.29382 8.26479 4.26451 8.23549C4.23521 8.20618 4.21875 8.16644 4.21875 8.125V4.375C4.21875 4.33356 4.23521 4.29382 4.26451 4.26451C4.29382 4.23521 4.33356 4.21875 4.375 4.21875H8.125C8.16644 4.21875 8.20618 4.23521 8.23549 4.26451C8.26479 4.29382 8.28125 4.33356 8.28125 4.375V8.125ZM15.625 3.28125H11.875C11.5849 3.28125 11.3067 3.39648 11.1016 3.6016C10.8965 3.80672 10.7812 4.08492 10.7812 4.375V8.125C10.7812 8.26863 10.8095 8.41086 10.8645 8.54356C10.9195 8.67626 11 8.79683 11.1016 8.8984C11.2032 8.99996 11.3237 9.08053 11.4564 9.13549C11.5891 9.19046 11.7314 9.21875 11.875 9.21875H15.625C15.7686 9.21875 15.9109 9.19046 16.0436 9.13549C16.1763 9.08053 16.2968 8.99996 16.3984 8.8984C16.5 8.79683 16.5805 8.67626 16.6355 8.54356C16.6905 8.41086 16.7188 8.26863 16.7188 8.125V4.375C16.7188 4.08492 16.6035 3.80672 16.3984 3.6016C16.1933 3.39648 15.9151 3.28125 15.625 3.28125ZM15.7812 8.125C15.7812 8.16644 15.7648 8.20618 15.7355 8.23549C15.7062 8.26479 15.6664 8.28125 15.625 8.28125H11.875C11.8336 8.28125 11.7938 8.26479 11.7645 8.23549C11.7352 8.20618 11.7188 8.16644 11.7188 8.125V4.375C11.7188 4.33356 11.7352 4.29382 11.7645 4.26451C11.7938 4.23521 11.8336 4.21875 11.875 4.21875H15.625C15.6664 4.21875 15.7062 4.23521 15.7355 4.26451C15.7648 4.29382 15.7812 4.33356 15.7812 4.375V8.125ZM8.125 10.7812H4.375C4.08492 10.7812 3.80672 10.8965 3.6016 11.1016C3.39648 11.3067 3.28125 11.5849 3.28125 11.875V15.625C3.28125 15.9151 3.39648 16.1933 3.6016 16.3984C3.80672 16.6035 4.08492 16.7188 4.375 16.7188H8.125C8.26863 16.7188 8.41086 16.6905 8.54356 16.6355C8.67626 16.5805 8.79683 16.5 8.8984 16.3984C8.99996 16.2968 9.08053 16.1763 9.13549 16.0436C9.19046 15.9109 9.21875 15.7686 9.21875 15.625V11.875C9.21875 11.7314 9.19046 11.5891 9.13549 11.4564C9.08053 11.3237 8.99996 11.2032 8.8984 11.1016C8.79683 11 8.67626 10.9195 8.54356 10.8645C8.41086 10.8095 8.26863 10.7812 8.125 10.7812ZM8.28125 15.625C8.28125 15.6664 8.26479 15.7062 8.23549 15.7355C8.20618 15.7648 8.16644 15.7812 8.125 15.7812H4.375C4.33356 15.7812 4.29382 15.7648 4.26451 15.7355C4.23521 15.7062 4.21875 15.6664 4.21875 15.625V11.875C4.21875 11.8336 4.23521 11.7938 4.26451 11.7645C4.29382 11.7352 4.33356 11.7188 4.375 11.7188H8.125C8.16644 11.7188 8.20618 11.7352 8.23549 11.7645C8.26479 11.7938 8.28125 11.8336 8.28125 11.875V15.625ZM15.625 10.7812H11.875C11.5849 10.7812 11.3067 10.8965 11.1016 11.1016C10.8965 11.3067 10.7812 11.5849 10.7812 11.875V15.625C10.7812 15.9151 10.8965 16.1933 11.1016 16.3984C11.3067 16.6035 11.5849 16.7188 11.875 16.7188H15.625C15.9151 16.7188 16.1933 16.6035 16.3984 16.3984C16.6035 16.1933 16.7188 15.9151 16.7188 15.625V11.875C16.7188 11.5849 16.6035 11.3067 16.3984 11.1016C16.1933 10.8965 15.9151 10.7812 15.625 10.7812ZM15.7812 15.625C15.7812 15.6664 15.7648 15.7062 15.7355 15.7355C15.7062 15.7648 15.6664 15.7812 15.625 15.7812H11.875C11.8336 15.7812 11.7938 15.7648 11.7645 15.7355C11.7352 15.7062 11.7188 15.6664 11.7188 15.625V11.875C11.7188 11.8336 11.7352 11.7938 11.7645 11.7645C11.7938 11.7352 11.8336 11.7188 11.875 11.7188H15.625C15.6664 11.7188 15.7062 11.7352 15.7355 11.7645C15.7648 11.7938 15.7812 11.8336 15.7812 11.875V15.625Z" fill="#363440"/>
</svg>
