<svg xmlns="http://www.w3.org/2000/svg" preserveAspectRatio="xMidYMid meet" viewBox="0 0 24 24" fill="none">
    <path d="M20.25 4.6875H3.75C3.4019 4.6875 3.06806 4.82578 2.82192 5.07192C2.57578 5.31806 2.4375 5.6519 2.4375 6V18C2.4375 18.3481 2.57578 18.6819 2.82192 18.9281C3.06806 19.1742 3.4019 19.3125 3.75 19.3125H20.25C20.5981 19.3125 20.9319 19.1742 21.1781 18.9281C21.4242 18.6819 21.5625 18.3481 21.5625 18V6C21.5625 5.6519 21.4242 5.31806 21.1781 5.07192C20.9319 4.82578 20.5981 4.6875 20.25 4.6875ZM9.5625 13.6875V10.3125H14.4375V13.6875H9.5625ZM14.4375 14.8125V18.1875H9.5625V14.8125H14.4375ZM3.5625 10.3125H8.4375V13.6875H3.5625V10.3125ZM9.5625 9.1875V5.8125H14.4375V9.1875H9.5625ZM15.5625 10.3125H20.4375V13.6875H15.5625V10.3125ZM20.4375 6V9.1875H15.5625V5.8125H20.25C20.2997 5.8125 20.3474 5.83225 20.3826 5.86742C20.4177 5.90258 20.4375 5.95027 20.4375 6ZM3.75 5.8125H8.4375V9.1875H3.5625V6C3.5625 5.95027 3.58225 5.90258 3.61742 5.86742C3.65258 5.83225 3.70027 5.8125 3.75 5.8125ZM3.5625 18V14.8125H8.4375V18.1875H3.75C3.70027 18.1875 3.65258 18.1677 3.61742 18.1326C3.58225 18.0974 3.5625 18.0497 3.5625 18ZM20.25 18.1875H15.5625V14.8125H20.4375V18C20.4375 18.0497 20.4177 18.0974 20.3826 18.1326C20.3474 18.1677 20.2997 18.1875 20.25 18.1875Z"
          fill="#2A292E"/>
</svg>
