<svg xmlns="http://www.w3.org/2000/svg" preserveAspectRatio="xMidYMid meet" viewBox="0 0 20 20" fill="none">
    <path d="M17.9422 17.0578L14.0305 13.1469C15.1643 11.7857 15.7297 10.0398 15.609 8.27244C15.4883 6.50506 14.6909 4.85223 13.3827 3.65779C12.0744 2.46334 10.356 1.81926 8.58498 1.85951C6.81394 1.89976 5.12659 2.62125 3.87395 3.87389C2.62131 5.12653 1.89982 6.81388 1.85957 8.58492C1.81932 10.356 2.46341 12.0744 3.65785 13.3826C4.85229 14.6909 6.50512 15.4883 8.2725 15.6089C10.0399 15.7296 11.7858 15.1642 13.1469 14.0305L17.0579 17.9422C17.1159 18.0003 17.1849 18.0463 17.2607 18.0777C17.3366 18.1092 17.4179 18.1253 17.5001 18.1253C17.5822 18.1253 17.6635 18.1092 17.7394 18.0777C17.8152 18.0463 17.8842 18.0003 17.9422 17.9422C18.0003 17.8841 18.0464 17.8152 18.0778 17.7393C18.1092 17.6634 18.1254 17.5821 18.1254 17.5C18.1254 17.4179 18.1092 17.3366 18.0778 17.2607C18.0464 17.1848 18.0003 17.1159 17.9422 17.0578ZM3.12506 8.75C3.12506 7.63748 3.45496 6.54994 4.07304 5.62491C4.69112 4.69989 5.56963 3.97892 6.59746 3.55317C7.6253 3.12743 8.7563 3.01604 9.84744 3.23308C10.9386 3.45012 11.9409 3.98585 12.7275 4.77252C13.5142 5.55919 14.0499 6.56147 14.267 7.65261C14.484 8.74376 14.3726 9.87475 13.9469 10.9026C13.5211 11.9304 12.8002 12.8089 11.8751 13.427C10.9501 14.0451 9.86258 14.375 8.75006 14.375C7.25872 14.3733 5.82894 13.7802 4.77441 12.7256C3.71987 11.6711 3.12671 10.2413 3.12506 8.75Z"
          fill="#343330"/>
</svg>
