<svg xmlns="http://www.w3.org/2000/svg" preserveAspectRatio="xMidYMid meet" viewBox="0 0 16 16" fill="none">
    <path d="M13 4V6C13 6.13261 12.9473 6.25979 12.8536 6.35355C12.7598 6.44732 12.6326 6.5 12.5 6.5C12.3674 6.5 12.2402 6.44732 12.1464 6.35355C12.0527 6.25979 12 6.13261 12 6V4.5H8.5V12.5H10C10.1326 12.5 10.2598 12.5527 10.3536 12.6464C10.4473 12.7402 10.5 12.8674 10.5 13C10.5 13.1326 10.4473 13.2598 10.3536 13.3536C10.2598 13.4473 10.1326 13.5 10 13.5H6C5.86739 13.5 5.74021 13.4473 5.64645 13.3536C5.55268 13.2598 5.5 13.1326 5.5 13C5.5 12.8674 5.55268 12.7402 5.64645 12.6464C5.74021 12.5527 5.86739 12.5 6 12.5H7.5V4.5H4V6C4 6.13261 3.94732 6.25979 3.85355 6.35355C3.75979 6.44732 3.63261 6.5 3.5 6.5C3.36739 6.5 3.24021 6.44732 3.14645 6.35355C3.05268 6.25979 3 6.13261 3 6V4C3 3.86739 3.05268 3.74021 3.14645 3.64645C3.24021 3.55268 3.36739 3.5 3.5 3.5H12.5C12.6326 3.5 12.7598 3.55268 12.8536 3.64645C12.9473 3.74021 13 3.86739 13 4Z"
          fill="#2A292E"/>
</svg>
