<svg xmlns="http://www.w3.org/2000/svg" preserveAspectRatio="xMidYMid meet" viewBox="0 0 12 12" fill="none">
    <path d="M10.0153 4.76534L6.26528 8.51534C6.23045 8.5502 6.18909 8.57786 6.14357 8.59674C6.09804 8.61561 6.04925 8.62532 5.99996 8.62532C5.95068 8.62532 5.90189 8.61561 5.85636 8.59674C5.81084 8.57786 5.76948 8.5502 5.73465 8.51534L1.98465 4.76534C1.91429 4.69497 1.87476 4.59954 1.87476 4.50003C1.87476 4.40051 1.91429 4.30508 1.98465 4.23471C2.05502 4.16435 2.15045 4.12482 2.24996 4.12482C2.34948 4.12482 2.44491 4.16435 2.51528 4.23471L5.99996 7.71987L9.48465 4.23471C9.51949 4.19987 9.56086 4.17223 9.60638 4.15338C9.6519 4.13452 9.70069 4.12482 9.74996 4.12482C9.79924 4.12482 9.84803 4.13452 9.89355 4.15338C9.93907 4.17223 9.98044 4.19987 10.0153 4.23471C10.0501 4.26955 10.0778 4.31092 10.0966 4.35644C10.1155 4.40196 10.1252 4.45075 10.1252 4.50003C10.1252 4.5493 10.1155 4.59809 10.0966 4.64361C10.0778 4.68913 10.0501 4.7305 10.0153 4.76534Z"
          fill="#2A292E"/>
</svg>
