<svg xmlns="http://www.w3.org/2000/svg" preserveAspectRatio="xMidYMid meet" viewBox="0 0 20 20" fill="none">
    <path d="M16.875 3.75H3.125C2.79348 3.75 2.47554 3.8817 2.24112 4.11612C2.0067 4.35054 1.875 4.66848 1.875 5V15C1.875 15.3315 2.0067 15.6495 2.24112 15.8839C2.47554 16.1183 2.79348 16.25 3.125 16.25H16.875C17.2065 16.25 17.5245 16.1183 17.7589 15.8839C17.9933 15.6495 18.125 15.3315 18.125 15V5C18.125 4.66848 17.9933 4.35054 17.7589 4.11612C17.5245 3.8817 17.2065 3.75 16.875 3.75ZM8.125 11.25V8.75H11.875V11.25H8.125ZM11.875 12.5V15H8.125V12.5H11.875ZM3.125 8.75H6.875V11.25H3.125V8.75ZM8.125 7.5V5H11.875V7.5H8.125ZM13.125 8.75H16.875V11.25H13.125V8.75ZM16.875 7.5H13.125V5H16.875V7.5ZM6.875 5V7.5H3.125V5H6.875ZM3.125 12.5H6.875V15H3.125V12.5ZM16.875 15H13.125V12.5H16.875V15Z"
          fill="#343330"/>
</svg>
