<svg xmlns="http://www.w3.org/2000/svg" preserveAspectRatio="xMidYMid meet" viewBox="0 0 12 12" fill="none">
    <path d="M9.57375 9.17631C9.60139 9.20206 9.62355 9.23311 9.63892 9.26761C9.65429 9.30211 9.66256 9.33936 9.66323 9.37712C9.66389 9.41488 9.65695 9.45239 9.6428 9.48741C9.62865 9.52243 9.6076 9.55425 9.58089 9.58095C9.55419 9.60766 9.52237 9.62872 9.48735 9.64286C9.45233 9.65701 9.41482 9.66395 9.37706 9.66329C9.33929 9.66262 9.30205 9.65435 9.26755 9.63898C9.23305 9.62361 9.202 9.60145 9.17625 9.57382L6 6.39803L2.82375 9.57382C2.77044 9.6235 2.69992 9.65054 2.62706 9.64926C2.55419 9.64797 2.48468 9.61845 2.43315 9.56692C2.38162 9.51539 2.3521 9.44587 2.35081 9.37301C2.34953 9.30015 2.37657 9.22963 2.42625 9.17631L5.60203 6.00006L2.42625 2.82381C2.37657 2.7705 2.34953 2.69998 2.35081 2.62712C2.3521 2.55426 2.38162 2.48474 2.43315 2.43321C2.48468 2.38168 2.55419 2.35216 2.62706 2.35087C2.69992 2.34959 2.77044 2.37663 2.82375 2.42631L6 5.6021L9.17625 2.42631C9.22957 2.37663 9.30009 2.34959 9.37295 2.35087C9.44581 2.35216 9.51533 2.38168 9.56686 2.43321C9.61839 2.48474 9.64791 2.55426 9.64919 2.62712C9.65048 2.69998 9.62343 2.7705 9.57375 2.82381L6.39797 6.00006L9.57375 9.17631Z"
          fill="#363440"/>
</svg>
