<svg xmlns="http://www.w3.org/2000/svg" preserveAspectRatio="xMidYMid meet" viewBox="0 0 18 18" fill="none">
  <path d="M6.87512 14.0755C6.67737 14.0755 6.47961 13.9996 6.32932 13.8493L2.10846 9.6284C1.80629 9.32624 1.80629 8.83739 2.10846 8.53522C2.41063 8.23305 2.89948 8.23305 3.20165 8.53522L7.42251 12.7577C7.72467 13.0598 7.72467 13.5487 7.42251 13.8508C7.27063 14.0011 7.07288 14.0755 6.87512 14.0755Z" fill="#369B7C"/>
  <path d="M6.87594 14.0756C6.67819 14.0756 6.48043 13.9997 6.33014 13.8494C6.02797 13.5473 6.02797 13.0584 6.33014 12.7562L14.7734 4.31452C15.0756 4.01235 15.5645 4.01235 15.8666 4.31452C16.1688 4.61668 16.1688 5.10553 15.8666 5.4077L7.42333 13.8494C7.27145 14.0013 7.0737 14.0756 6.87594 14.0756Z" fill="#369B7C"/>
</svg>