<svg xmlns="http://www.w3.org/2000/svg" preserveAspectRatio="xMidYMid meet" viewBox="0 0 20 20" fill="none">
    <path d="M9.16015 12.3374C9.99781 11.7798 10.6338 10.9674 10.974 10.0203C11.3142 9.07325 11.3406 8.04185 11.0493 7.07862C10.758 6.1154 10.1644 5.27149 9.35642 4.67169C8.5484 4.07189 7.5688 3.74805 6.56249 3.74805C5.55618 3.74805 4.57659 4.07189 3.76856 4.67169C2.96054 5.27149 2.36699 6.1154 2.07569 7.07862C1.78439 8.04185 1.81079 9.07325 2.15101 10.0203C2.49122 10.9674 3.12718 11.7798 3.96484 12.3374C2.4496 12.8959 1.15554 13.9293 0.275774 15.2835C0.229537 15.3523 0.19742 15.4295 0.181291 15.5107C0.165162 15.592 0.165342 15.6756 0.181822 15.7568C0.198302 15.838 0.230752 15.915 0.277286 15.9836C0.32382 16.0521 0.38351 16.1107 0.452886 16.1559C0.522262 16.2012 0.59994 16.2322 0.681406 16.2472C0.762871 16.2621 0.846499 16.2607 0.927427 16.2431C1.00836 16.2255 1.08497 16.1919 1.15282 16.1444C1.22067 16.0969 1.2784 16.0364 1.32265 15.9664C1.89014 15.0935 2.66668 14.3763 3.58174 13.8798C4.4968 13.3833 5.5214 13.1232 6.56249 13.1232C7.60358 13.1232 8.62818 13.3833 9.54325 13.8798C10.4583 14.3763 11.2348 15.0935 11.8023 15.9664C11.894 16.1026 12.0356 16.1973 12.1965 16.23C12.3575 16.2626 12.5248 16.2307 12.6623 16.1409C12.7999 16.0512 12.8966 15.911 12.9316 15.7506C12.9665 15.5901 12.9369 15.4224 12.8492 15.2835C11.9694 13.9293 10.6754 12.8959 9.16015 12.3374ZM3.12499 8.43745C3.12499 7.75758 3.3266 7.09297 3.70432 6.52768C4.08203 5.96238 4.6189 5.52179 5.24702 5.26161C5.87514 5.00144 6.56631 4.93336 7.23312 5.066C7.89993 5.19864 8.51243 5.52603 8.99317 6.00677C9.47392 6.48751 9.80131 7.10002 9.93394 7.76683C10.0666 8.43363 9.9985 9.1248 9.73833 9.75292C9.47815 10.381 9.03756 10.9179 8.47227 11.2956C7.90697 11.6733 7.24237 11.8749 6.56249 11.8749C5.65113 11.8739 4.77739 11.5114 4.13296 10.867C3.48852 10.2226 3.12603 9.34881 3.12499 8.43745ZM19.5422 16.1484C19.4034 16.2389 19.2342 16.2706 19.0721 16.2365C18.9099 16.2023 18.7679 16.1052 18.6773 15.9664C18.1105 15.093 17.3341 14.3755 16.4188 13.8791C15.5036 13.3828 14.4787 13.1236 13.4375 13.1249C13.2717 13.1249 13.1128 13.0591 12.9956 12.9419C12.8783 12.8247 12.8125 12.6657 12.8125 12.4999C12.8125 12.3342 12.8783 12.1752 12.9956 12.058C13.1128 11.9408 13.2717 11.8749 13.4375 11.8749C13.9437 11.8745 14.4436 11.7622 14.9014 11.5461C15.3592 11.3301 15.7636 11.0156 16.0858 10.6251C16.408 10.2346 16.6399 9.77779 16.765 9.28727C16.8902 8.79676 16.9055 8.28466 16.8098 7.78756C16.7141 7.29047 16.5097 6.82064 16.2114 6.41166C15.9131 6.00268 15.5281 5.66464 15.084 5.42169C14.6399 5.17874 14.1476 5.03688 13.6423 5.00625C13.137 4.97562 12.6311 5.05696 12.1609 5.24448C12.0843 5.27762 12.0017 5.29506 11.9182 5.29577C11.8347 5.29647 11.7519 5.28043 11.6747 5.24859C11.5974 5.21675 11.5274 5.16975 11.4686 5.11038C11.4099 5.05101 11.3637 4.98046 11.3326 4.90291C11.3016 4.82536 11.2864 4.74238 11.288 4.65887C11.2896 4.57536 11.308 4.49302 11.3419 4.41671C11.3759 4.3404 11.4248 4.27167 11.4857 4.21458C11.5467 4.15749 11.6185 4.1132 11.6969 4.08432C12.773 3.65514 13.97 3.6397 15.0568 4.04097C16.1437 4.44224 17.0434 5.23179 17.5825 6.2573C18.1216 7.28282 18.2617 8.47164 17.976 9.59442C17.6903 10.7172 16.9989 11.6944 16.0351 12.3374C17.5504 12.8959 18.8444 13.9293 19.7242 15.2835C19.8147 15.4224 19.8464 15.5915 19.8123 15.7537C19.7781 15.9158 19.681 16.0578 19.5422 16.1484Z"
          fill="#363440"/>
</svg>
