<svg xmlns="http://www.w3.org/2000/svg" preserveAspectRatio="xMidYMid meet" viewBox="0 0 20 20" fill="none">
    <path d="M12.8492 15.2835C12.9107 15.3778 12.9456 15.487 12.9502 15.5995C12.9548 15.712 12.9289 15.8236 12.8753 15.9226C12.8217 16.0216 12.7423 16.1043 12.6456 16.1619C12.5489 16.2195 12.4384 16.2499 12.3258 16.2499H0.799219C0.686638 16.2499 0.57615 16.2195 0.47943 16.1619C0.38271 16.1043 0.303348 16.0216 0.24973 15.9226C0.196112 15.8236 0.170229 15.712 0.174814 15.5995C0.1794 15.487 0.214284 15.3778 0.275782 15.2835C1.15555 13.9293 2.4496 12.8959 3.96484 12.3374C3.12719 11.7798 2.49123 10.9674 2.15101 10.0203C1.8108 9.07325 1.78439 8.04185 2.0757 7.07862C2.367 6.1154 2.96055 5.27149 3.76857 4.67169C4.57659 4.07189 5.55619 3.74805 6.5625 3.74805C7.56881 3.74805 8.54841 4.07189 9.35643 4.67169C10.1645 5.27149 10.758 6.1154 11.0493 7.07862C11.3406 8.04185 11.3142 9.07325 10.974 10.0203C10.6338 10.9674 9.99781 11.7798 9.16016 12.3374C10.6754 12.8959 11.9694 13.9293 12.8492 15.2835ZM19.7172 15.2718C18.8372 13.9233 17.546 12.8943 16.0352 12.3374C17.0241 11.6713 17.7219 10.6534 17.9868 9.49084C18.2516 8.3283 18.0634 7.10853 17.4606 6.07981C16.8578 5.0511 15.8856 4.29076 14.742 3.95357C13.5983 3.61637 12.3692 3.72766 11.3047 4.26479C11.264 4.28581 11.2284 4.31552 11.2004 4.35182C11.1725 4.38811 11.1529 4.43011 11.143 4.47483C11.133 4.51956 11.1331 4.56592 11.1431 4.61062C11.1531 4.65533 11.1728 4.69729 11.2008 4.73354C11.9923 5.72089 12.4469 6.93576 12.4979 8.20019C12.549 9.46463 12.1938 10.7122 11.4844 11.7601C11.4385 11.8286 11.4216 11.9124 11.4372 11.9933C11.4529 12.0742 11.4999 12.1457 11.568 12.1921C12.4929 12.8377 13.2847 13.6555 13.9 14.6007C14.1482 14.9808 14.2495 15.4381 14.1852 15.8874C14.1779 15.9321 14.1805 15.9779 14.1926 16.0215C14.2048 16.0651 14.2263 16.1055 14.2557 16.14C14.285 16.1745 14.3215 16.2022 14.3626 16.2212C14.4037 16.2401 14.4485 16.25 14.4938 16.2499H19.2047C19.3423 16.25 19.4761 16.2046 19.5853 16.1208C19.6945 16.0371 19.773 15.9196 19.8086 15.7867C19.8303 15.6992 19.8334 15.6082 19.8177 15.5195C19.8019 15.4308 19.7677 15.3464 19.7172 15.2718Z"
          fill="#363440"/>
</svg>
