<svg xmlns="http://www.w3.org/2000/svg" preserveAspectRatio="xMidYMid meet" viewBox="0 0 11 11" fill="none">
    <path d="M7.99219 4.52246H7.89551V2.93369C7.89551 1.84325 7.00831 0.956055 5.91787 0.956055H5.08213C3.99169 0.956055 3.10449 1.84325 3.10449 2.93369V4.52246H3.00781C2.76871 4.52317 2.53961 4.61846 2.37054 4.78753C2.20147 4.9566 2.10618 5.18571 2.10547 5.4248V9.07715C2.10618 9.31625 2.20147 9.54535 2.37054 9.71442C2.53961 9.88349 2.76871 9.97878 3.00781 9.97949H7.99219C8.23129 9.97878 8.46039 9.88349 8.62946 9.71442C8.79853 9.54535 8.89382 9.31625 8.89453 9.07715V5.4248C8.89382 5.18571 8.79853 4.9566 8.62946 4.78753C8.46039 4.61846 8.23129 4.52317 7.99219 4.52246ZM6.01562 7.60311L6.14453 8.63672H4.85547L4.98438 7.60311C4.8135 7.492 4.68312 7.32865 4.61265 7.1374C4.54219 6.94616 4.53543 6.73726 4.59337 6.54185C4.65131 6.34645 4.77086 6.175 4.93418 6.05308C5.09751 5.93115 5.29586 5.86528 5.49968 5.86528C5.70349 5.86528 5.90185 5.93115 6.06517 6.05308C6.2285 6.175 6.34804 6.34645 6.40599 6.54185C6.46393 6.73726 6.45716 6.94616 6.3867 7.1374C6.31624 7.32865 6.18585 7.492 6.01498 7.60311H6.01562ZM7.03613 4.52246H3.96387V2.93369C3.96421 2.63721 4.08213 2.35298 4.29178 2.14334C4.50142 1.9337 4.78565 1.81577 5.08213 1.81543H5.91787C6.21435 1.81577 6.49858 1.9337 6.70822 2.14334C6.91787 2.35298 7.03579 2.63721 7.03613 2.93369V4.52246Z"
          fill="#A57A37"/>
</svg>
