<svg xmlns="http://www.w3.org/2000/svg" preserveAspectRatio="xMidYMid meet" viewBox="0 0 12 12" fill="none">
    <path d="M4.76534 1.98472L8.51534 5.73472C8.5502 5.76955 8.57786 5.81091 8.59674 5.85643C8.61561 5.90196 8.62532 5.95075 8.62532 6.00004C8.62532 6.04932 8.61561 6.09811 8.59674 6.14364C8.57786 6.18916 8.5502 6.23052 8.51534 6.26535L4.76534 10.0153C4.69497 10.0857 4.59954 10.1252 4.50003 10.1252C4.40051 10.1252 4.30508 10.0857 4.23471 10.0153C4.16435 9.94498 4.12482 9.84955 4.12482 9.75004C4.12482 9.65052 4.16435 9.55509 4.23471 9.48472L7.71987 6.00004L4.23471 2.51535C4.19987 2.48051 4.17223 2.43914 4.15338 2.39362C4.13452 2.3481 4.12482 2.29931 4.12482 2.25004C4.12482 2.20076 4.13452 2.15197 4.15338 2.10645C4.17223 2.06093 4.19987 2.01956 4.23471 1.98472C4.26955 1.94988 4.31092 1.92224 4.35644 1.90339C4.40196 1.88453 4.45075 1.87483 4.50003 1.87483C4.5493 1.87483 4.59809 1.88453 4.64361 1.90339C4.68913 1.92224 4.7305 1.94988 4.76534 1.98472Z"
          fill="#363440"/>
</svg>
