<svg xmlns="http://www.w3.org/2000/svg" preserveAspectRatio="xMidYMid meet" viewBox="0 0 20 20" fill="none">
    <path d="M18.7289 16.25H17.5V7.5C17.5 7.16848 17.3683 6.85054 17.1339 6.61612C16.8995 6.3817 16.5815 6.25 16.25 6.25H12.8125C12.7296 6.25 12.6501 6.28292 12.5915 6.34153C12.5329 6.40013 12.5 6.47962 12.5 6.5625V16.25H11.25V2.53203C11.2521 2.33733 11.2098 2.14471 11.1264 1.96875C11.0431 1.79279 10.9207 1.6381 10.7687 1.51641C10.5616 1.35487 10.3088 1.26272 10.0462 1.25305C9.78368 1.24337 9.52477 1.31666 9.30625 1.4625L3.05625 5.625C2.8848 5.73939 2.74429 5.8944 2.64724 6.07623C2.55019 6.25807 2.49961 6.46108 2.5 6.66719V16.25H1.27109C1.10958 16.2476 0.95316 16.3065 0.833292 16.4148C0.713423 16.523 0.639003 16.6727 0.625 16.8336C0.619323 16.9191 0.631285 17.0048 0.660143 17.0855C0.689001 17.1662 0.734137 17.2401 0.792749 17.3026C0.851362 17.365 0.922197 17.4148 1.00086 17.4488C1.07952 17.4828 1.16432 17.5002 1.25 17.5H18.75C18.8357 17.5002 18.9205 17.4828 18.9991 17.4488C19.0778 17.4148 19.1486 17.365 19.2073 17.3026C19.2659 17.2401 19.311 17.1662 19.3399 17.0855C19.3687 17.0048 19.3807 16.9191 19.375 16.8336C19.361 16.6727 19.2866 16.523 19.1667 16.4148C19.0468 16.3065 18.8904 16.2476 18.7289 16.25ZM5.9375 14.375C5.93769 14.4607 5.92026 14.5455 5.88629 14.6241C5.85233 14.7028 5.80255 14.7736 5.74005 14.8323C5.67756 14.8909 5.60368 14.936 5.52301 14.9649C5.44233 14.9937 5.35659 15.0057 5.27109 15C5.11004 14.986 4.96028 14.9115 4.85198 14.7914C4.74369 14.6714 4.68492 14.5148 4.6875 14.3531V13.1461C4.6853 12.9846 4.74423 12.8283 4.85246 12.7085C4.9607 12.5887 5.11024 12.5142 5.27109 12.5C5.35659 12.4943 5.44233 12.5063 5.52301 12.5351C5.60368 12.564 5.67756 12.6091 5.74005 12.6677C5.80255 12.7264 5.85233 12.7972 5.88629 12.8759C5.92026 12.9545 5.93769 13.0393 5.9375 13.125V14.375ZM5.9375 10C5.93769 10.0857 5.92026 10.1705 5.88629 10.2491C5.85233 10.3278 5.80255 10.3986 5.74005 10.4573C5.67756 10.5159 5.60368 10.561 5.52301 10.5899C5.44233 10.6187 5.35659 10.6307 5.27109 10.625C5.11011 10.6108 4.96045 10.5362 4.8522 10.4162C4.74394 10.2962 4.6851 10.1397 4.6875 9.97812V8.77109C4.6853 8.60963 4.74423 8.45331 4.85246 8.33348C4.9607 8.21365 5.11024 8.13918 5.27109 8.125C5.35659 8.11932 5.44233 8.13128 5.52301 8.16014C5.60368 8.189 5.67756 8.23414 5.74005 8.29275C5.80255 8.35136 5.85233 8.4222 5.88629 8.50086C5.92026 8.57952 5.93769 8.66432 5.9375 8.75V10ZM9.0625 14.375C9.06269 14.4607 9.04526 14.5455 9.01129 14.6241C8.97733 14.7028 8.92755 14.7736 8.86505 14.8323C8.80256 14.8909 8.72868 14.936 8.64801 14.9649C8.56733 14.9937 8.48159 15.0057 8.39609 15C8.23531 14.986 8.08577 14.9117 7.97752 14.792C7.86927 14.6723 7.81031 14.5161 7.8125 14.3547V13.1461C7.8105 12.9848 7.86951 12.8286 7.97773 12.709C8.08595 12.5893 8.23538 12.515 8.39609 12.5008C8.48159 12.4951 8.56733 12.5071 8.64801 12.5359C8.72868 12.5648 8.80256 12.6099 8.86505 12.6685C8.92755 12.7271 8.97733 12.798 9.01129 12.8766C9.04526 12.9553 9.06269 13.0401 9.0625 13.1258V14.375ZM9.0625 10C9.06269 10.0857 9.04526 10.1705 9.01129 10.2491C8.97733 10.3278 8.92755 10.3986 8.86505 10.4573C8.80256 10.5159 8.72868 10.561 8.64801 10.5899C8.56733 10.6187 8.48159 10.6307 8.39609 10.625C8.23538 10.6108 8.08595 10.5365 7.97773 10.4168C7.86951 10.2971 7.8105 10.141 7.8125 9.97969V8.77109C7.8105 8.60977 7.86951 8.45364 7.97773 8.33398C8.08595 8.21431 8.23538 8.13995 8.39609 8.12578C8.48159 8.1201 8.56733 8.13207 8.64801 8.16092C8.72868 8.18978 8.80256 8.23492 8.86505 8.29353C8.92755 8.35214 8.97733 8.42298 9.01129 8.50164C9.04526 8.5803 9.06269 8.6651 9.0625 8.75078V10Z"
          fill="#363440"/>
</svg>
