<svg xmlns="http://www.w3.org/2000/svg" preserveAspectRatio="xMidYMid meet" viewBox="0 0 12 12" fill="none">
    <path d="M10.6875 6.00002C10.6875 6.1492 10.6283 6.29228 10.5228 6.39777C10.4173 6.50326 10.2742 6.56252 10.125 6.56252H3.23439L5.64939 8.97705C5.75506 9.08272 5.81443 9.22604 5.81443 9.37549C5.81443 9.52493 5.75506 9.66825 5.64939 9.77392C5.54372 9.8796 5.4004 9.93896 5.25095 9.93896C5.10151 9.93896 4.95819 9.8796 4.85252 9.77392L1.47752 6.39892C1.42508 6.34667 1.38347 6.28457 1.35508 6.2162C1.32669 6.14782 1.31207 6.07452 1.31207 6.00049C1.31207 5.92645 1.32669 5.85315 1.35508 5.78478C1.38347 5.7164 1.42508 5.65431 1.47752 5.60205L4.85252 2.22705C4.90484 2.17473 4.96696 2.13322 5.03532 2.1049C5.10368 2.07659 5.17696 2.06201 5.25095 2.06201C5.32495 2.06201 5.39822 2.07659 5.46659 2.1049C5.53495 2.13322 5.59707 2.17473 5.64939 2.22705C5.70171 2.27937 5.74322 2.34149 5.77154 2.40985C5.79985 2.47822 5.81443 2.55149 5.81443 2.62549C5.81443 2.69948 5.79985 2.77276 5.77154 2.84112C5.74322 2.90948 5.70171 2.9716 5.64939 3.02393L3.23439 5.43752H10.125C10.2742 5.43752 10.4173 5.49678 10.5228 5.60227C10.6283 5.70776 10.6875 5.85083 10.6875 6.00002Z"
          fill="#363440"/>
</svg>
