<svg width="141" height="24" viewBox="0 0 141 24" fill="none" xmlns="http://www.w3.org/2000/svg"><path d="M135.621 18.957c-1.101 0-2.034-.183-2.8-.55-.75-.367-1.324-.845-1.723-1.435a4.01 4.01 0 0 1-.669-1.961h1.866c.048.398.183.79.407 1.172.239.366.598.67 1.076.909.479.223 1.101.335 1.867.335.239 0 .534-.024.885-.072a4.243 4.243 0 0 0 1.005-.263 2.07 2.07 0 0 0 .837-.574c.223-.256.335-.582.335-.981 0-.494-.191-.877-.574-1.148-.383-.271-.877-.478-1.484-.622-.606-.16-1.252-.31-1.938-.454a14.037 14.037 0 0 1-1.914-.55c-.606-.24-1.1-.567-1.483-.981-.383-.43-.574-1.013-.574-1.746 0-1.084.39-1.922 1.172-2.512.798-.606 1.97-.908 3.517-.908 1.053 0 1.906.167 2.56.502.67.319 1.173.733 1.508 1.244.351.51.558 1.06.622 1.65H138.3c-.063-.51-.319-.949-.765-1.316-.431-.366-1.149-.55-2.154-.55-1.898 0-2.847.574-2.847 1.722 0 .479.191.845.574 1.1.383.256.878.463 1.484.623.606.143 1.244.287 1.914.43a10.5 10.5 0 0 1 1.938.55c.606.24 1.1.582 1.483 1.029.383.43.575 1.02.575 1.77 0 1.164-.447 2.057-1.34 2.678-.878.606-2.058.91-3.541.91zM123.36 18.957c-1.1 0-2.034-.183-2.799-.55-.75-.367-1.324-.845-1.723-1.435a4.012 4.012 0 0 1-.67-1.961h1.866c.048.398.184.79.407 1.172.239.366.598.67 1.077.909.478.223 1.1.335 1.866.335.239 0 .534-.024.885-.072a4.243 4.243 0 0 0 1.005-.263 2.08 2.08 0 0 0 .838-.574c.223-.256.335-.582.335-.981 0-.494-.192-.877-.575-1.148-.382-.271-.877-.478-1.483-.622-.606-.16-1.252-.31-1.938-.454a14.037 14.037 0 0 1-1.914-.55c-.606-.24-1.101-.567-1.484-.981-.382-.43-.574-1.013-.574-1.746 0-1.084.391-1.922 1.173-2.512.797-.606 1.97-.908 3.517-.908 1.053 0 1.906.167 2.56.502.67.319 1.172.733 1.507 1.244.351.51.559 1.06.622 1.65h-1.818c-.064-.51-.319-.949-.766-1.316-.43-.366-1.148-.55-2.153-.55-1.898 0-2.847.574-2.847 1.722 0 .479.191.845.574 1.1.383.256.877.463 1.483.623a92.75 92.75 0 0 0 1.914.43 10.5 10.5 0 0 1 1.938.55c.607.24 1.101.582 1.484 1.029.383.43.574 1.02.574 1.77 0 1.164-.446 2.057-1.34 2.678-.877.606-2.057.91-3.541.91zM109.107 18.957c-1.165 0-2.186-.27-3.063-.813a5.717 5.717 0 0 1-2.01-2.248c-.478-.941-.717-1.978-.717-3.11 0-1.148.239-2.184.717-3.109a5.543 5.543 0 0 1 2.01-2.224c.877-.558 1.898-.837 3.063-.837.989 0 1.834.19 2.536.574.718.382 1.3.9 1.746 1.554V6.807h1.795v11.959h-1.795v-1.913a4.911 4.911 0 0 1-1.746 1.53c-.702.383-1.547.574-2.536.574zm.239-1.626c.893 0 1.643-.207 2.249-.622a3.945 3.945 0 0 0 1.412-1.65 5.424 5.424 0 0 0 .478-2.273c0-.829-.159-1.586-.478-2.272a3.945 3.945 0 0 0-1.412-1.65c-.606-.415-1.356-.622-2.249-.622-.877 0-1.635.207-2.273.622a4.057 4.057 0 0 0-1.46 1.65c-.335.686-.502 1.443-.502 2.272 0 .814.167 1.571.502 2.273a4.057 4.057 0 0 0 1.46 1.65c.638.415 1.396.622 2.273.622zM89.11 23.502V6.807h1.795V8.72a4.681 4.681 0 0 1 1.723-1.53c.718-.383 1.571-.574 2.56-.574 1.165 0 2.177.279 3.039.837a5.476 5.476 0 0 1 2.033 2.224c.479.925.718 1.961.718 3.11 0 1.131-.239 2.168-.718 3.109a5.645 5.645 0 0 1-2.033 2.248c-.862.542-1.874.813-3.039.813-.989 0-1.842-.191-2.56-.574a5.214 5.214 0 0 1-1.723-1.554v6.673h-1.794zm5.839-6.171c.893 0 1.65-.207 2.273-.622a4.055 4.055 0 0 0 1.46-1.65 5.206 5.206 0 0 0 .502-2.273c0-.829-.168-1.586-.503-2.272a4.055 4.055 0 0 0-1.46-1.65c-.621-.415-1.379-.622-2.272-.622-.877 0-1.627.207-2.25.622a3.943 3.943 0 0 0-1.41 1.65c-.32.686-.48 1.443-.48 2.272 0 .814.16 1.571.48 2.273.318.685.789 1.235 1.41 1.65.623.415 1.373.622 2.25.622zM80.386 18.957c-1.212 0-2.273-.27-3.182-.813a5.887 5.887 0 0 1-2.13-2.248c-.494-.941-.741-1.978-.741-3.11 0-1.148.24-2.184.718-3.109a5.43 5.43 0 0 1 2.057-2.224c.894-.558 1.946-.837 3.159-.837 1.228 0 2.28.279 3.158.837a5.43 5.43 0 0 1 2.058 2.224c.478.925.717 1.961.717 3.11v.717H76.175c.096.702.32 1.347.67 1.937a4.2 4.2 0 0 0 1.46 1.388c.606.334 1.308.502 2.105.502.846 0 1.556-.183 2.13-.55a4.047 4.047 0 0 0 1.34-1.46h1.962a5.91 5.91 0 0 1-1.986 2.632c-.894.67-2.05 1.004-3.47 1.004zM76.2 11.83h8.135c-.16-1.02-.59-1.874-1.292-2.56-.702-.685-1.627-1.028-2.775-1.028-1.149 0-2.074.343-2.776 1.028-.686.686-1.116 1.54-1.292 2.56zM66.413 18.766V6.806h1.794V9.75a5.11 5.11 0 0 1 .359-.813 4.68 4.68 0 0 1 .813-1.053c.351-.35.79-.646 1.316-.885.543-.255 1.18-.382 1.915-.382h.12v1.793h-.216c-.893 0-1.667.248-2.321.742-.638.478-1.132 1.108-1.483 1.89a6.077 6.077 0 0 0-.503 2.463v5.262h-1.794zM57.382 18.957c-1.213 0-2.265-.27-3.159-.813a5.594 5.594 0 0 1-2.057-2.248c-.479-.941-.718-1.978-.718-3.11 0-1.148.24-2.184.718-3.109a5.43 5.43 0 0 1 2.057-2.224c.894-.558 1.946-.837 3.159-.837 1.228 0 2.28.279 3.158.837a5.429 5.429 0 0 1 2.057 2.224c.479.925.718 1.961.718 3.11 0 1.131-.239 2.168-.718 3.109a5.593 5.593 0 0 1-2.057 2.248c-.877.542-1.93.813-3.158.813zm0-1.626c.893 0 1.643-.207 2.249-.622a3.943 3.943 0 0 0 1.411-1.65 5.424 5.424 0 0 0 .479-2.273c0-.829-.16-1.586-.479-2.272a3.943 3.943 0 0 0-1.411-1.65c-.606-.415-1.356-.622-2.25-.622-.877 0-1.626.207-2.248.622a3.944 3.944 0 0 0-1.412 1.65c-.32.686-.479 1.443-.479 2.272 0 .814.16 1.571.479 2.273.319.685.79 1.235 1.412 1.65.622.415 1.371.622 2.249.622zM41.987 18.957c-1.58 0-2.943-.359-4.092-1.076a7.389 7.389 0 0 1-2.656-2.942c-.606-1.228-.909-2.591-.909-4.09 0-1.499.303-2.862.91-4.09a7.22 7.22 0 0 1 2.655-2.918c1.149-.734 2.512-1.1 4.092-1.1 1.196 0 2.273.215 3.23.645a7.06 7.06 0 0 1 2.44 1.723 7.248 7.248 0 0 1 1.508 2.559h-1.89a5.005 5.005 0 0 0-1.89-2.32c-.862-.574-1.947-.861-3.255-.861-1.276 0-2.369.287-3.278.86A5.392 5.392 0 0 0 36.82 7.62c-.463.957-.694 2.033-.694 3.229 0 1.18.231 2.256.694 3.229a5.55 5.55 0 0 0 2.033 2.296c.91.558 2.002.837 3.278.837 1.308 0 2.393-.287 3.254-.861a5.005 5.005 0 0 0 1.89-2.32h1.89a7.54 7.54 0 0 1-1.507 2.56 7.336 7.336 0 0 1-2.44 1.745c-.957.415-2.034.622-3.23.622z" fill="#363440"/><path fill-rule="evenodd" clip-rule="evenodd" d="M132.604 18.856l-.002-.001c-.814-.399-1.461-.93-1.917-1.604l-.001-.003-.002-.002a4.515 4.515 0 0 1-.751-2.201l-.036-.533h2.842l.053.44c.038.32.147.642.336.969.18.272.461.517.869.722.389.18.93.285 1.65.285.208 0 .479-.02.817-.067.312-.043.608-.12.888-.232l.003-.002.004-.001c.264-.1.473-.246.64-.437.13-.148.212-.352.212-.652 0-.343-.122-.57-.364-.742-.317-.224-.747-.41-1.31-.543l-.006-.002-.006-.001a38.64 38.64 0 0 0-1.914-.449h-.002a14.504 14.504 0 0 1-1.982-.57l-.005-.002-.006-.002c-.665-.263-1.225-.629-1.666-1.106l-.004-.004-.003-.003c-.484-.545-.7-1.256-.7-2.077 0-1.22.449-2.213 1.369-2.908.921-.7 2.219-1.01 3.819-1.01 1.097 0 2.034.172 2.781.553.73.348 1.307.815 1.7 1.413.394.574.631 1.2.704 1.874l.06.552h-2.814l-.054-.436c-.046-.368-.226-.696-.588-.993l-.003-.002-.004-.003c-.293-.25-.861-.431-1.83-.431-.915 0-1.518.14-1.877.358-.319.193-.471.458-.471.865 0 .32.114.528.352.686.322.215.76.403 1.328.553.598.142 1.229.284 1.891.425.712.133 1.387.325 2.023.576.672.265 1.235.651 1.676 1.164.484.546.697 1.265.697 2.098 0 1.313-.516 2.365-1.553 3.087l-.002.001c-.987.682-2.278.998-3.824.998-1.154 0-2.165-.192-3.015-.6h-.002zm7.323-5.256c-.383-.447-.877-.79-1.483-1.029a10.5 10.5 0 0 0-1.938-.55 91.299 91.299 0 0 1-1.914-.43c-.606-.16-1.101-.367-1.484-.622s-.574-.622-.574-1.1c0-1.149.949-1.723 2.847-1.723 1.005 0 1.723.184 2.154.55.446.367.702.806.765 1.316h1.819a3.614 3.614 0 0 0-.622-1.65c-.335-.51-.838-.925-1.508-1.244-.654-.335-1.507-.502-2.56-.502-1.547 0-2.719.302-3.517.908-.782.59-1.172 1.428-1.172 2.512 0 .733.191 1.315.574 1.746.383.414.877.741 1.483.98.606.224 1.244.407 1.914.55.686.144 1.332.296 1.938.455.607.144 1.101.35 1.484.622.383.271.574.654.574 1.148 0 .399-.112.725-.335.98a2.07 2.07 0 0 1-.837.575 4.243 4.243 0 0 1-1.005.263 6.75 6.75 0 0 1-.885.072c-.766 0-1.388-.112-1.867-.335-.478-.24-.837-.543-1.076-.91a3.022 3.022 0 0 1-.407-1.171h-1.866a4.058 4.058 0 0 0 .669 1.961c.399.59.973 1.068 1.723 1.435.766.367 1.699.55 2.8.55 1.483 0 2.663-.303 3.541-.909.893-.621 1.34-1.514 1.34-2.678 0-.75-.192-1.34-.575-1.77zm-19.583 5.256l-.002-.001c-.815-.399-1.462-.93-1.917-1.604l-.002-.003-.001-.002a4.505 4.505 0 0 1-.751-2.201l-.036-.533h2.842l.052.44c.039.32.148.642.336.969.181.272.461.517.87.722.389.18.93.285 1.649.285.209 0 .48-.02.818-.067.312-.043.607-.12.887-.232l.004-.002.004-.001c.263-.1.473-.246.64-.437.13-.148.211-.352.211-.652 0-.343-.121-.57-.364-.742-.316-.224-.747-.41-1.31-.543l-.006-.002-.006-.001a38.858 38.858 0 0 0-1.913-.449h-.002a14.504 14.504 0 0 1-1.982-.57l-.006-.002-.005-.002c-.665-.263-1.226-.629-1.667-1.106l-.003-.004-.003-.003c-.484-.545-.7-1.256-.7-2.077 0-1.22.449-2.213 1.369-2.908.92-.7 2.218-1.01 3.819-1.01 1.096 0 2.034.172 2.781.553.729.348 1.306.815 1.7 1.413.394.574.631 1.2.704 1.874l.06.552H125.6l-.055-.436c-.046-.368-.226-.696-.587-.993l-.004-.002-.003-.003c-.293-.25-.861-.431-1.83-.431-.915 0-1.518.14-1.877.358-.319.193-.472.458-.472.865 0 .32.115.528.352.686.323.215.76.403 1.328.553.599.142 1.229.284 1.891.425a10.99 10.99 0 0 1 2.024.576c.671.265 1.235.651 1.676 1.164.483.546.697 1.265.697 2.098 0 1.313-.516 2.365-1.554 3.087l-.001.001c-.988.682-2.279.998-3.825.998-1.154 0-2.165-.192-3.015-.6h-.001zm7.323-5.256c-.383-.447-.877-.79-1.484-1.029a10.5 10.5 0 0 0-1.938-.55 92.75 92.75 0 0 1-1.914-.43c-.606-.16-1.1-.367-1.483-.622s-.574-.622-.574-1.1c0-1.149.949-1.723 2.847-1.723 1.005 0 1.723.184 2.153.55.447.367.702.806.766 1.316h1.818a3.453 3.453 0 0 0-.09-.498 3.617 3.617 0 0 0-.532-1.152c-.335-.51-.837-.925-1.507-1.244-.654-.335-1.507-.502-2.56-.502-1.547 0-2.72.302-3.517.908-.782.59-1.173 1.428-1.173 2.512 0 .733.192 1.315.574 1.746.383.414.878.741 1.484.98.606.224 1.244.407 1.914.55.686.144 1.332.296 1.938.455.606.144 1.101.35 1.483.622.383.271.575.654.575 1.148 0 .399-.112.725-.335.98a2.08 2.08 0 0 1-.838.575 4.243 4.243 0 0 1-1.005.263 6.75 6.75 0 0 1-.885.072c-.766 0-1.388-.112-1.866-.335-.479-.24-.838-.543-1.077-.91a3.039 3.039 0 0 1-.407-1.171h-1.866a4.06 4.06 0 0 0 .67 1.961c.399.59.973 1.068 1.723 1.435.765.367 1.699.55 2.799.55 1.484 0 2.664-.303 3.541-.909.894-.621 1.34-1.514 1.34-2.678 0-.75-.191-1.34-.574-1.77zm-21.89 4.965l-.004-.003a6.208 6.208 0 0 1-2.183-2.44c-.517-1.016-.772-2.13-.772-3.336 0-1.218.254-2.334.773-3.336a6.033 6.033 0 0 1 2.186-2.418c.966-.615 2.082-.915 3.33-.915 1.052 0 1.983.204 2.773.634.368.197.706.427 1.011.691V6.309h2.791v12.955h-2.791v-1.128c-.305.26-.643.489-1.011.686-.79.43-1.721.634-2.773.634-1.245 0-2.359-.291-3.325-.888l-.005-.003zm5.866-.182a5.061 5.061 0 0 0 1.248-.928c.182-.187.348-.387.498-.602v1.913h1.795V6.806h-1.795v1.938a4.725 4.725 0 0 0-.498-.615 4.928 4.928 0 0 0-1.248-.94c-.702-.382-1.547-.573-2.536-.573-1.165 0-2.186.279-3.063.837a5.543 5.543 0 0 0-2.01 2.224c-.478.925-.717 1.961-.717 3.11 0 1.131.239 2.168.717 3.109a5.717 5.717 0 0 0 2.01 2.248c.877.542 1.898.813 3.063.813.989 0 1.834-.191 2.536-.574zm-.327-2.087l.003-.002a3.448 3.448 0 0 0 1.235-1.444 4.933 4.933 0 0 0 .433-2.064c0-.763-.147-1.448-.432-2.062a3.446 3.446 0 0 0-1.236-1.446l-.003-.001-.002-.002c-.507-.347-1.153-.535-1.968-.535-.796 0-1.456.187-2.001.542a3.563 3.563 0 0 0-1.284 1.45c-.299.613-.452 1.294-.452 2.054 0 .742.152 1.425.453 2.056a3.56 3.56 0 0 0 1.283 1.45c.545.354 1.205.54 2.001.54.815 0 1.461-.188 1.968-.534l.002-.002zm1.691-1.237a3.945 3.945 0 0 1-1.412 1.65c-.606.415-1.356.622-2.249.622-.877 0-1.635-.207-2.273-.622a4.057 4.057 0 0 1-1.46-1.65 5.205 5.205 0 0 1-.502-2.273c0-.829.167-1.586.502-2.272a4.057 4.057 0 0 1 1.46-1.65c.638-.415 1.396-.622 2.273-.622.893 0 1.643.207 2.249.622a3.945 3.945 0 0 1 1.412 1.65c.319.686.478 1.443.478 2.272 0 .814-.159 1.571-.478 2.273zM88.612 24V6.309h2.792v1.11c.3-.258.63-.481.991-.67.804-.428 1.74-.632 2.793-.632 1.245 0 2.354.3 3.305.915.955.59 1.693 1.4 2.211 2.418.518 1.002.773 2.118.773 3.336 0 1.205-.256 2.32-.772 3.336a6.153 6.153 0 0 1-2.21 2.442l-.003.002c-.952.599-2.06.89-3.304.89-1.053 0-1.99-.204-2.795-.633l-.005-.003-.006-.003a5.935 5.935 0 0 1-.978-.692V24h-2.792zm2.293-7.171c.152.216.318.418.499.607.352.368.76.684 1.224.947.718.383 1.571.574 2.56.574 1.165 0 2.177-.27 3.039-.813a5.645 5.645 0 0 0 2.033-2.248c.479-.941.718-1.978.718-3.11 0-1.148-.239-2.184-.718-3.109a5.476 5.476 0 0 0-2.033-2.224c-.862-.558-1.874-.837-3.039-.837-.989 0-1.842.19-2.56.574a4.69 4.69 0 0 0-1.723 1.53V6.807h-1.794v16.695h1.794v-6.673zm6.043-.536l.002-.002a3.557 3.557 0 0 0 1.283-1.45c.3-.63.452-1.313.452-2.055 0-.76-.153-1.441-.452-2.053a3.556 3.556 0 0 0-1.283-1.451l-.002-.002-.003-.002c-.525-.35-1.182-.538-1.996-.538-.796 0-1.446.187-1.973.538a3.445 3.445 0 0 0-1.236 1.446c-.285.614-.432 1.299-.432 2.062 0 .746.146 1.432.433 2.065.28.602.69 1.08 1.235 1.443.527.351 1.177.538 1.973.538.814 0 1.471-.188 1.996-.538l.003-.001zm-5.66-1.234a5.424 5.424 0 0 1-.478-2.273c0-.829.16-1.586.478-2.272a3.943 3.943 0 0 1 1.412-1.65c.622-.415 1.371-.622 2.249-.622.893 0 1.65.207 2.273.622a4.055 4.055 0 0 1 1.46 1.65c.334.686.502 1.443.502 2.272 0 .814-.168 1.571-.503 2.273a4.055 4.055 0 0 1-1.46 1.65c-.621.415-1.379.622-2.272.622-.877 0-1.627-.207-2.25-.622a3.943 3.943 0 0 1-1.41-1.65zM76.946 18.57l-.003-.001a6.386 6.386 0 0 1-2.306-2.436l-.002-.003-.002-.002c-.534-1.017-.798-2.134-.798-3.342 0-1.218.254-2.334.772-3.336a5.927 5.927 0 0 1 2.24-2.422c.983-.613 2.13-.91 3.42-.91 1.303 0 2.451.296 3.421.911.971.59 1.72 1.4 2.238 2.421.519 1.002.773 2.118.773 3.336v1.216H76.78c.109.418.272.81.49 1.178.32.5.745.904 1.28 1.215.521.287 1.136.438 1.86.438.771 0 1.381-.167 1.857-.47a3.55 3.55 0 0 0 1.174-1.278l.141-.262h2.988l-.264.679a6.407 6.407 0 0 1-2.15 2.848l-.001.001c-1 .75-2.27 1.105-3.769 1.105-1.288 0-2.44-.29-3.437-.884l-.003-.002zm5.594-1.79c-.575.367-1.284.55-2.13.55-.797 0-1.5-.167-2.105-.501a4.2 4.2 0 0 1-1.46-1.388 5.037 5.037 0 0 1-.67-1.937H86.2v-.718c0-1.148-.239-2.184-.717-3.109a5.43 5.43 0 0 0-2.058-2.224c-.877-.558-1.93-.837-3.158-.837-1.213 0-2.265.279-3.159.837a5.43 5.43 0 0 0-2.057 2.224c-.479.925-.718 1.961-.718 3.11 0 1.131.247 2.168.742 3.109.51.94 1.22 1.69 2.13 2.248.908.542 1.97.813 3.181.813 1.42 0 2.576-.335 3.47-1.004a5.884 5.884 0 0 0 1.986-2.631H83.88a4.047 4.047 0 0 1-1.34 1.459zm-16.626 2.484V6.31h2.792v1.567a4.924 4.924 0 0 1 1.78-1.33c.621-.292 1.334-.429 2.123-.429h.619v2.79h-.714c-.795 0-1.46.218-2.02.641l-.002.001c-.565.424-1.008.984-1.327 1.693a5.58 5.58 0 0 0-.46 2.262v5.76h-2.79zm2.796-8.224c.35-.78.845-1.41 1.483-1.89.654-.493 1.428-.74 2.32-.74h.216V6.615h-.12c-.129 0-.255.003-.378.011a4.213 4.213 0 0 0-1.536.371c-.526.24-.965.534-1.316.885a5.034 5.034 0 0 0-.673.818 5.11 5.11 0 0 0-.499 1.047V6.808h-1.794v11.959h1.794v-5.262c0-.877.168-1.698.503-2.464zm-14.748 7.528l-.003-.001a6.091 6.091 0 0 1-2.238-2.445c-.516-1.016-.772-2.13-.772-3.336 0-1.218.255-2.334.773-3.336a5.927 5.927 0 0 1 2.24-2.422c.983-.613 2.13-.91 3.42-.91 1.303 0 2.451.296 3.421.911.97.59 1.719 1.4 2.238 2.42.518 1.003.773 2.119.773 3.337 0 1.205-.255 2.32-.772 3.336a6.09 6.09 0 0 1-2.238 2.445h-.002c-.97.6-2.117.889-3.42.889-1.29 0-2.434-.29-3.417-.886l-.003-.002zm8.635-8.891a5.429 5.429 0 0 0-2.057-2.224c-.877-.558-1.93-.837-3.158-.837-1.213 0-2.265.279-3.159.837a5.43 5.43 0 0 0-2.057 2.224c-.479.925-.718 1.961-.718 3.11 0 1.131.24 2.168.718 3.109a5.594 5.594 0 0 0 2.057 2.248c.894.542 1.946.813 3.159.813 1.228 0 2.28-.27 3.158-.813a5.593 5.593 0 0 0 2.057-2.248c.479-.941.718-1.978.718-3.11 0-1.148-.239-2.184-.718-3.109zm-3.245 6.619l.002-.002a3.445 3.445 0 0 0 1.235-1.444 4.926 4.926 0 0 0 .433-2.064c0-.763-.146-1.448-.432-2.062a3.445 3.445 0 0 0-1.236-1.446l-.002-.001-.003-.002c-.507-.347-1.153-.535-1.967-.535-.797 0-1.446.187-1.973.538a3.445 3.445 0 0 0-1.236 1.446c-.286.614-.432 1.299-.432 2.062 0 .746.145 1.432.433 2.064.28.603.69 1.082 1.235 1.444.527.351 1.176.538 1.973.538.814 0 1.46-.188 1.967-.534l.003-.002zm1.69-1.237a3.943 3.943 0 0 1-1.411 1.65c-.606.415-1.356.622-2.25.622-.877 0-1.626-.207-2.248-.622a3.944 3.944 0 0 1-1.412-1.65 5.424 5.424 0 0 1-.479-2.273c0-.829.16-1.586.479-2.272.319-.685.79-1.236 1.412-1.65.622-.415 1.371-.622 2.249-.622.893 0 1.643.207 2.249.622a3.943 3.943 0 0 1 1.411 1.65c.32.686.479 1.443.479 2.272 0 .814-.16 1.571-.479 2.273zM37.63 18.302l-.002-.001a7.887 7.887 0 0 1-2.832-3.137l-.001-.002-.002-.003c-.643-1.302-.96-2.742-.96-4.31 0-1.568.317-3.008.96-4.31l.002-.003v-.002A7.718 7.718 0 0 1 37.63 3.42c1.24-.792 2.7-1.178 4.358-1.178 1.255 0 2.402.226 3.431.689a7.556 7.556 0 0 1 2.607 1.842 7.746 7.746 0 0 1 1.61 2.733l.228.66H46.94l-.127-.31a4.507 4.507 0 0 0-1.705-2.094c-.76-.506-1.742-.777-2.978-.777-1.2 0-2.196.269-3.012.784l-.002.001a4.894 4.894 0 0 0-1.849 2.067c-.426.88-.644 1.882-.644 3.012 0 1.112.218 2.114.645 3.013a5.053 5.053 0 0 0 1.85 2.09c.815.5 1.812.76 3.012.76 1.236 0 2.217-.27 2.978-.777a4.507 4.507 0 0 0 1.705-2.094l.127-.31h2.927l-.232.664a8.039 8.039 0 0 1-1.606 2.726l-.002.002-.002.002a7.833 7.833 0 0 1-2.604 1.865l-.003.001-.003.001c-1.028.446-2.174.663-3.428.663-1.657 0-3.116-.377-4.356-1.152l-.002-.001zm1.223-1.928a5.55 5.55 0 0 1-2.033-2.296c-.463-.973-.694-2.05-.694-3.23 0-1.195.231-2.271.694-3.228a5.392 5.392 0 0 1 2.033-2.272c.91-.574 2.002-.861 3.278-.861 1.308 0 2.393.287 3.254.86a5.005 5.005 0 0 1 1.89 2.32h1.89a7.825 7.825 0 0 0-.19-.498 7.171 7.171 0 0 0-1.317-2.06 7.06 7.06 0 0 0-2.44-1.723c-.957-.43-2.034-.645-3.23-.645-1.58 0-2.943.366-4.092 1.1a7.22 7.22 0 0 0-2.656 2.918c-.606 1.228-.909 2.591-.909 4.09 0 1.499.303 2.862.91 4.09a7.389 7.389 0 0 0 2.655 2.942c1.149.717 2.512 1.076 4.092 1.076 1.196 0 2.273-.207 3.23-.622a7.336 7.336 0 0 0 2.44-1.746 7.515 7.515 0 0 0 1.508-2.559h-1.89a5.005 5.005 0 0 1-1.89 2.32c-.862.574-1.947.861-3.255.861-1.276 0-2.369-.279-3.278-.837zm45.482-4.544a5.143 5.143 0 0 0-.103-.499 4.356 4.356 0 0 0-1.189-2.06c-.702-.686-1.627-1.029-2.775-1.029-1.149 0-2.074.343-2.776 1.028a4.533 4.533 0 0 0-1.182 2.061 5.43 5.43 0 0 0-.11.499h8.135zm-7.507-.499a4.016 4.016 0 0 1 1.015-1.706c.592-.578 1.384-.885 2.425-.885 1.042 0 1.834.308 2.427.887.486.475.826 1.04 1.02 1.704h-6.887zM11.437 19.378a7.946 7.946 0 0 0 7.948-7.945 7.946 7.946 0 0 0-7.948-7.945 7.946 7.946 0 0 0-7.948 7.945 7.946 7.946 0 0 0 7.948 7.945zm0 3.488c6.316 0 11.437-5.119 11.437-11.433S17.754 0 11.437 0C5.121 0 0 5.119 0 11.433s5.12 11.433 11.437 11.433zm8.714-5.213a6.765 6.765 0 1 0 0-13.528 6.765 6.765 0 1 0 0 13.527zm0 2.491c5.113 0 9.258-4.144 9.258-9.255 0-5.112-4.145-9.256-9.258-9.256-5.113 0-9.259 4.144-9.259 9.256 0 5.111 4.146 9.255 9.259 9.255z" fill="#363440"/></svg>