<svg width="24" height="24" viewBox="0 0 24 24" fill="none" xmlns="http://www.w3.org/2000/svg">
<g clip-path="url(#clip0_12573_7242)">
<path d="M5.018 12C5.018 11.238 5.148 10.507 5.378 9.822L1.34 6.802C0.528697 8.41448 0.107388 10.1949 0.109997 12C0.109997 13.868 0.551997 15.63 1.338 17.194L5.374 14.169C5.13866 13.47 5.01843 12.7375 5.018 12Z" fill="#FBBC05"/>
<path d="M12.11 5.06703C13.8 5.06703 15.327 5.65303 16.527 6.61303L20.018 3.20003C17.891 1.38703 15.164 0.267029 12.11 0.267029C7.36797 0.267029 3.29197 2.92203 1.33997 6.80203L5.37997 9.82203C6.30997 7.05603 8.96197 5.06703 12.11 5.06703Z" fill="#EA4335"/>
<path d="M12.11 18.933C8.96097 18.933 6.30897 16.944 5.37797 14.178L1.33997 17.198C3.29097 21.078 7.36697 23.733 12.11 23.733C15.036 23.733 17.83 22.716 19.928 20.809L16.094 17.907C15.013 18.574 13.651 18.933 12.109 18.933" fill="#34A853"/>
<path d="M23.564 12C23.564 11.307 23.454 10.56 23.291 9.867H12.109V14.4H18.545C18.224 15.946 17.348 17.134 16.095 17.907L19.928 20.809C22.131 18.807 23.564 15.825 23.564 12Z" fill="#4285F4"/>
</g>
<defs>
<clipPath id="clip0_12573_7242">
<rect width="24" height="24" fill="white"/>
</clipPath>
</defs>
</svg>
