<svg xmlns="http://www.w3.org/2000/svg" preserveAspectRatio="xMidYMid meet" viewBox="0 0 16 16" fill="none">
    <path d="M15.3125 6.915C15.2197 6.78634 15.0976 6.6816 14.9563 6.60944C14.8151 6.53728 14.6586 6.49977 14.5 6.5H13.5V5.5C13.5 5.23478 13.3946 4.98043 13.2071 4.79289C13.0196 4.60536 12.7652 4.5 12.5 4.5H8.16687L6.43375 3.2C6.26036 3.07074 6.05002 3.00063 5.83375 3H2.5C2.23478 3 1.98043 3.10536 1.79289 3.29289C1.60536 3.48043 1.5 3.73478 1.5 4V13C1.5 13.1326 1.55268 13.2598 1.64645 13.3536C1.74021 13.4473 1.86739 13.5 2 13.5H13.1938C13.2987 13.5 13.401 13.467 13.4861 13.4056C13.5713 13.3443 13.6349 13.2577 13.6681 13.1581L15.4487 7.81625C15.4988 7.66594 15.5126 7.50591 15.4889 7.34926C15.4652 7.19261 15.4048 7.04379 15.3125 6.915ZM5.83375 4L7.56687 5.3C7.74022 5.42934 7.95059 5.49946 8.16687 5.5H12.5V6.5H9.15187C8.95433 6.49999 8.76121 6.55849 8.59688 6.66813L7.34688 7.5H4.33875C4.13871 7.49945 3.94314 7.55912 3.77749 7.67127C3.61184 7.78341 3.48379 7.94282 3.41 8.12875L2.5 10.4038V4H5.83375ZM12.8337 12.5H2.73875L4.33875 8.5H7.34875C7.5463 8.50001 7.73942 8.4415 7.90375 8.33187L9.15375 7.5H14.5L12.8337 12.5Z" fill="#343330"/>
</svg>