<svg xmlns="http://www.w3.org/2000/svg" preserveAspectRatio="xMidYMid meet"  viewBox="0 0 16 17" fill="none">
  <path d="M8.00003 5.50003C7.40668 5.50003 6.82667 5.67598 6.33332 6.00562C5.83997 6.33526 5.45545 6.8038 5.22839 7.35198C5.00133 7.90016 4.94192 8.50336 5.05767 9.0853C5.17343 9.66724 5.45915 10.2018 5.87871 10.6213C6.29827 11.0409 6.83281 11.3266 7.41476 11.4424C7.9967 11.5581 8.5999 11.4987 9.14808 11.2717C9.69626 11.0446 10.1648 10.6601 10.4944 10.1667C10.8241 9.67339 11 9.09337 11 8.50003C10.9992 7.70463 10.6829 6.94205 10.1204 6.37962C9.55801 5.81719 8.79542 5.50086 8.00003 5.50003ZM8.00003 10.5C7.60447 10.5 7.21779 10.3827 6.88889 10.163C6.55999 9.9432 6.30364 9.63085 6.15227 9.2654C6.00089 8.89994 5.96129 8.49781 6.03846 8.10985C6.11563 7.72189 6.30611 7.36552 6.58581 7.08581C6.86552 6.80611 7.22189 6.61563 7.60985 6.53846C7.99781 6.46129 8.39994 6.50089 8.7654 6.65227C9.13085 6.80364 9.4432 7.05999 9.66297 7.38889C9.88273 7.71779 10 8.10447 10 8.50003C10 9.03046 9.78931 9.53917 9.41424 9.91424C9.03917 10.2893 8.53046 10.5 8.00003 10.5ZM13.5 8.63503C13.5025 8.54503 13.5025 8.45503 13.5 8.36503L14.4325 7.20003C14.4814 7.13886 14.5153 7.06706 14.5313 6.99042C14.5474 6.91378 14.5452 6.83443 14.525 6.75878C14.3722 6.18415 14.1435 5.63243 13.845 5.11815C13.806 5.05085 13.7517 4.9936 13.6866 4.95096C13.6215 4.90832 13.5473 4.88146 13.47 4.87253L11.9875 4.70753C11.9259 4.64253 11.8634 4.58003 11.8 4.52003L11.625 3.03378C11.616 2.95641 11.5891 2.88222 11.5463 2.81711C11.5036 2.752 11.4462 2.69779 11.3788 2.65878C10.8643 2.36087 10.3126 2.13242 9.73815 1.9794C9.66245 1.95928 9.58308 1.95722 9.50643 1.97339C9.42979 1.98957 9.35802 2.02353 9.2969 2.07253L8.13503 3.00003C8.04503 3.00003 7.95503 3.00003 7.86503 3.00003L6.70003 2.0694C6.63886 2.02051 6.56706 1.98666 6.49042 1.9706C6.41378 1.95453 6.33443 1.95669 6.25878 1.9769C5.68425 2.13005 5.13256 2.35871 4.61815 2.6569C4.55085 2.69598 4.4936 2.75023 4.45096 2.81533C4.40832 2.88044 4.38146 2.95459 4.37253 3.0319L4.20753 4.5169C4.14253 4.57899 4.08003 4.64149 4.02003 4.7044L2.53378 4.87503C2.45641 4.88403 2.38222 4.91098 2.31711 4.95373C2.252 4.99649 2.19779 5.05386 2.15878 5.12128C1.86087 5.63576 1.63242 6.18743 1.4794 6.7619C1.45928 6.83761 1.45722 6.91698 1.47339 6.99362C1.48957 7.07027 1.52353 7.14204 1.57253 7.20315L2.50003 8.36503C2.50003 8.45503 2.50003 8.54503 2.50003 8.63503L1.5694 9.80003C1.52051 9.8612 1.48666 9.93299 1.4706 10.0096C1.45453 10.0863 1.45669 10.1656 1.4769 10.2413C1.62977 10.8159 1.85845 11.3676 2.1569 11.8819C2.19598 11.9492 2.25023 12.0065 2.31533 12.0491C2.38044 12.0917 2.45459 12.1186 2.5319 12.1275L4.0144 12.2925C4.07649 12.3575 4.13899 12.42 4.2019 12.48L4.37503 13.9663C4.38403 14.0436 4.41098 14.1178 4.45373 14.1829C4.49649 14.2481 4.55386 14.3023 4.62128 14.3413C5.13576 14.6392 5.68743 14.8676 6.2619 15.0207C6.33761 15.0408 6.41698 15.0428 6.49362 15.0267C6.57027 15.0105 6.64204 14.9765 6.70315 14.9275L7.86503 14C7.95503 14.0025 8.04503 14.0025 8.13503 14L9.30003 14.9325C9.3612 14.9814 9.43299 15.0153 9.50964 15.0313C9.58628 15.0474 9.66562 15.0452 9.74128 15.025C10.3159 14.8722 10.8676 14.6435 11.3819 14.345C11.4492 14.306 11.5065 14.2517 11.5491 14.1866C11.5917 14.1215 11.6186 14.0473 11.6275 13.97L11.7925 12.4875C11.8575 12.4259 11.92 12.3634 11.98 12.3L13.4663 12.125C13.5436 12.116 13.6178 12.0891 13.6829 12.0463C13.7481 12.0036 13.8023 11.9462 13.8413 11.8788C14.1392 11.3643 14.3676 10.8126 14.5207 10.2382C14.5408 10.1625 14.5428 10.0831 14.5267 10.0064C14.5105 9.92979 14.4765 9.85802 14.4275 9.7969L13.5 8.63503ZM12.4938 8.22878C12.5044 8.40946 12.5044 8.5906 12.4938 8.77128C12.4863 8.89498 12.5251 9.01703 12.6025 9.11378L13.4894 10.2219C13.3876 10.5453 13.2573 10.8591 13.1 11.1594L11.6875 11.3194C11.5645 11.3331 11.4509 11.3918 11.3688 11.4844C11.2485 11.6197 11.1203 11.7478 10.985 11.8682C10.8925 11.9503 10.8337 12.0639 10.82 12.1869L10.6632 13.5982C10.3628 13.7555 10.0491 13.8858 9.72565 13.9875L8.6169 13.1007C8.52818 13.0298 8.41797 12.9912 8.3044 12.9913H8.2744C8.09373 13.0019 7.91258 13.0019 7.7319 12.9913C7.60821 12.9838 7.48615 13.0226 7.3894 13.1L6.27815 13.9875C5.95474 13.8858 5.641 13.7555 5.34065 13.5982L5.18065 12.1875C5.167 12.0645 5.10821 11.9509 5.01565 11.8688C4.88035 11.7485 4.75221 11.6203 4.6319 11.485C4.54974 11.3925 4.43616 11.3337 4.31315 11.32L2.9019 11.1625C2.74452 10.8622 2.61422 10.5485 2.51253 10.225L3.3994 9.11628C3.47684 9.01953 3.5156 8.89748 3.50815 8.77378C3.49753 8.5931 3.49753 8.41196 3.50815 8.23128C3.5156 8.10758 3.47684 7.98552 3.3994 7.88878L2.51253 6.77815C2.61429 6.45474 2.7446 6.141 2.9019 5.84065L4.31253 5.68065C4.43554 5.667 4.54911 5.60821 4.63128 5.51565C4.75159 5.38035 4.87972 5.25221 5.01503 5.1319C5.10795 5.04968 5.16698 4.93585 5.18065 4.81253L5.33753 3.4019C5.63784 3.24452 5.95158 3.11422 6.27503 3.01253L7.38378 3.8994C7.48052 3.97684 7.60258 4.0156 7.72628 4.00815C7.90696 3.99753 8.0881 3.99753 8.26878 4.00815C8.39248 4.0156 8.51453 3.97684 8.61128 3.8994L9.7219 3.01253C10.0453 3.11429 10.3591 3.2446 10.6594 3.4019L10.8194 4.81253C10.8331 4.93554 10.8918 5.04911 10.9844 5.13128C11.1197 5.25159 11.2478 5.37972 11.3682 5.51503C11.4503 5.60758 11.5639 5.66637 11.6869 5.68003L13.0982 5.8369C13.2555 6.13722 13.3858 6.45096 13.4875 6.7744L12.6007 7.88315C12.5225 7.98071 12.4837 8.10403 12.4919 8.22878H12.4938Z" fill="#2A292E"/>
</svg>