<svg xmlns="http://www.w3.org/2000/svg" preserveAspectRatio="xMidYMid meet" viewBox="0 0 20 20" fill="none">
    <path d="M4.21249 3.20486C4.15761 3.14299 4.09099 3.09263 4.01649 3.0567C3.942 3.02077 3.86111 2.99997 3.77853 2.99553C3.69594 2.99109 3.61329 3.00308 3.53537 3.03081C3.45746 3.05855 3.38582 3.10147 3.32461 3.1571C3.2634 3.21272 3.21384 3.27994 3.17881 3.35486C3.14377 3.42978 3.12395 3.5109 3.1205 3.59354C3.11704 3.67617 3.13003 3.75867 3.15869 3.83625C3.18736 3.91383 3.23114 3.98495 3.28749 4.04549L4.79062 5.69939C1.95312 7.4408 0.732805 10.1252 0.678899 10.2471C0.643362 10.327 0.625 10.4135 0.625 10.501C0.625 10.5884 0.643362 10.6749 0.678899 10.7549C0.706243 10.8166 1.36796 12.2838 2.83905 13.7549C4.79921 15.7142 7.27499 16.7502 9.99999 16.7502C11.4005 16.7582 12.7868 16.4698 14.068 15.9041L15.7867 17.7955C15.8416 17.8574 15.9082 17.9077 15.9827 17.9437C16.0572 17.9796 16.1381 18.0004 16.2207 18.0048C16.3033 18.0093 16.3859 17.9973 16.4638 17.9695C16.5417 17.9418 16.6134 17.8989 16.6746 17.8433C16.7358 17.7876 16.7854 17.7204 16.8204 17.6455C16.8554 17.5706 16.8753 17.4894 16.8787 17.4068C16.8822 17.3242 16.8692 17.2417 16.8405 17.1641C16.8118 17.0865 16.7681 17.0154 16.7117 16.9549L4.21249 3.20486ZM7.91015 9.12986L11.1656 12.7119C10.6754 12.9698 10.1134 13.0576 9.56783 12.9615C9.02229 12.8653 8.52413 12.5907 8.15157 12.1808C7.77901 11.7709 7.55314 11.2488 7.50945 10.6966C7.46575 10.1444 7.6067 9.59329 7.91015 9.12986ZM9.99999 15.5002C7.5953 15.5002 5.49452 14.626 3.75546 12.9025C3.04164 12.1931 2.43454 11.3839 1.95312 10.5002C2.31952 9.81346 3.48905 7.89158 5.65234 6.64236L7.05859 8.18533C6.51416 8.8826 6.23377 9.74989 6.26697 10.6339C6.30017 11.5179 6.64483 12.3617 7.24002 13.0162C7.83521 13.6707 8.64261 14.0936 9.51952 14.2104C10.3964 14.3271 11.2864 14.1301 12.032 13.6541L13.1828 14.9197C12.1672 15.3094 11.0878 15.5062 9.99999 15.5002ZM10.4687 8.04471C10.3059 8.01363 10.162 7.91912 10.0689 7.78199C9.97568 7.64485 9.94079 7.47632 9.97187 7.31346C10.0029 7.1506 10.0975 7.00675 10.2346 6.91357C10.3717 6.82039 10.5403 6.7855 10.7031 6.81658C11.4997 6.97101 12.225 7.37881 12.7708 7.97915C13.3167 8.57949 13.6539 9.34021 13.732 10.1478C13.7475 10.3129 13.6967 10.4773 13.5909 10.6049C13.4851 10.7325 13.333 10.8129 13.168 10.8283C13.1484 10.8294 13.1289 10.8294 13.1094 10.8283C12.9532 10.829 12.8024 10.7711 12.6867 10.6661C12.571 10.5612 12.4988 10.4167 12.4844 10.2611C12.4318 9.72392 12.2072 9.21805 11.844 8.81872C11.4809 8.4194 10.9985 8.14794 10.4687 8.04471ZM19.3187 10.7549C19.2859 10.8283 18.4945 12.5806 16.7125 14.1767C16.6516 14.233 16.5801 14.2766 16.5022 14.305C16.4243 14.3334 16.3415 14.346 16.2587 14.342C16.1759 14.3381 16.0947 14.3178 16.0198 14.2821C15.9449 14.2465 15.8779 14.1964 15.8226 14.1346C15.7673 14.0728 15.7249 14.0006 15.6977 13.9223C15.6706 13.844 15.6593 13.761 15.6645 13.6783C15.6698 13.5955 15.6914 13.5146 15.7282 13.4403C15.765 13.366 15.8162 13.2998 15.8789 13.2455C16.7532 12.46 17.4876 11.5317 18.0508 10.5002C17.5683 9.61562 16.9599 8.80586 16.2445 8.09627C14.5055 6.37439 12.4047 5.50017 9.99999 5.50017C9.49332 5.49956 8.98745 5.54058 8.48749 5.62283C8.40619 5.63721 8.32284 5.63534 8.24227 5.61732C8.1617 5.5993 8.08549 5.5655 8.01805 5.51786C7.95062 5.47023 7.89329 5.4097 7.84938 5.33979C7.80547 5.26987 7.77584 5.19194 7.76222 5.11051C7.7486 5.02908 7.75124 4.94575 7.77 4.86535C7.78877 4.78495 7.82327 4.70906 7.87153 4.64207C7.91979 4.57507 7.98085 4.51831 8.05117 4.47505C8.12149 4.43179 8.19969 4.40289 8.28124 4.39002C8.84934 4.29622 9.4242 4.24944 9.99999 4.25017C12.725 4.25017 15.2008 5.28611 17.1609 7.24627C18.632 8.71736 19.2937 10.1853 19.3211 10.2471C19.3566 10.327 19.375 10.4135 19.375 10.501C19.375 10.5884 19.3566 10.6749 19.3211 10.7549H19.3187Z"
          fill="#343330"/>
</svg>
