<svg xmlns="http://www.w3.org/2000/svg" preserveAspectRatio="xMidYMid meet" viewBox="0 0 20 20" fill="none">
    <path opacity="0.2"
          d="M15.2202 12.3306L11.1843 13.8149C11.1002 13.8457 11.0239 13.8944 10.9606 13.9577C10.8974 14.021 10.8486 14.0973 10.8179 14.1813L9.33349 18.2173C9.28969 18.336 9.21056 18.4384 9.10677 18.5107C9.00299 18.583 8.87953 18.6218 8.75302 18.6218C8.62652 18.6218 8.50306 18.583 8.39927 18.5107C8.29549 18.4384 8.21636 18.336 8.17256 18.2173L6.68818 14.1813C6.65741 14.0973 6.60869 14.021 6.54541 13.9577C6.48213 13.8944 6.40581 13.8457 6.32177 13.8149L2.28584 12.3306C2.16716 12.2868 2.06477 12.2076 1.99244 12.1038C1.92012 12.0001 1.88135 11.8766 1.88135 11.7501C1.88135 11.6236 1.92012 11.5001 1.99244 11.3963C2.06477 11.2926 2.16716 11.2134 2.28584 11.1696L6.32177 9.68525C6.40581 9.65448 6.48213 9.60576 6.54541 9.54248C6.60869 9.4792 6.65741 9.40288 6.68818 9.31884L8.17256 5.28291C8.21636 5.16423 8.29549 5.06184 8.39927 4.98951C8.50306 4.91719 8.62652 4.87842 8.75302 4.87842C8.87953 4.87842 9.00299 4.91719 9.10677 4.98951C9.21056 5.06184 9.28969 5.16423 9.33349 5.28291L10.8179 9.31884C10.8486 9.40288 10.8974 9.4792 10.9606 9.54248C11.0239 9.60576 11.1002 9.65448 11.1843 9.68525L15.2202 11.1696C15.3389 11.2134 15.4413 11.2926 15.5136 11.3963C15.5859 11.5001 15.6247 11.6236 15.6247 11.7501C15.6247 11.8766 15.5859 12.0001 15.5136 12.1038C15.4413 12.2076 15.3389 12.2868 15.2202 12.3306Z"
          fill="#6E4EFB"/>
    <path d="M15.436 10.5828L11.404 9.09844L9.91958 5.06328C9.83168 4.82448 9.67264 4.61838 9.46393 4.4728C9.25521 4.32722 9.00687 4.24917 8.75239 4.24917C8.49792 4.24917 8.24958 4.32722 8.04086 4.4728C7.83215 4.61838 7.67311 4.82448 7.58521 5.06328L6.09927 9.09375L2.06411 10.5781C1.82531 10.666 1.61921 10.8251 1.47363 11.0338C1.32806 11.2425 1.25 11.4908 1.25 11.7453C1.25 11.9998 1.32806 12.2481 1.47363 12.4568C1.61921 12.6656 1.82531 12.8246 2.06411 12.9125L6.0938 14.4062L7.57818 18.4391C7.66608 18.6779 7.82512 18.884 8.03383 19.0295C8.24255 19.1751 8.49089 19.2532 8.74536 19.2532C8.99983 19.2532 9.24818 19.1751 9.45689 19.0295C9.66561 18.884 9.82465 18.6779 9.91255 18.4391L11.3969 14.407L15.4321 12.9227C15.6709 12.8348 15.877 12.6757 16.0226 12.467C16.1681 12.2583 16.2462 12.0099 16.2462 11.7555C16.2462 11.501 16.1681 11.2527 16.0226 11.0439C15.877 10.8352 15.6709 10.6762 15.4321 10.5883L15.436 10.5828ZM10.968 13.2344C10.7991 13.2964 10.6457 13.3944 10.5185 13.5216C10.3913 13.6488 10.2933 13.8022 10.2313 13.9711L8.74693 17.9914L7.26568 13.968C7.20364 13.8 7.10594 13.6474 6.9793 13.5208C6.85266 13.3941 6.70009 13.2964 6.53208 13.2344L2.51177 11.75L6.53208 10.2656C6.70009 10.2036 6.85266 10.1059 6.9793 9.97925C7.10594 9.85261 7.20364 9.70004 7.26568 9.53203L8.75005 5.51172L10.2344 9.53203C10.2964 9.70093 10.3944 9.85431 10.5216 9.98153C10.6489 10.1088 10.8022 10.2068 10.9711 10.2688L14.9915 11.7531L10.968 13.2344ZM11.2501 3.625C11.2501 3.45924 11.3159 3.30027 11.4331 3.18306C11.5503 3.06585 11.7093 3 11.8751 3H13.1251V1.75C13.1251 1.58424 13.1909 1.42527 13.3081 1.30806C13.4253 1.19085 13.5843 1.125 13.7501 1.125C13.9158 1.125 14.0748 1.19085 14.192 1.30806C14.3092 1.42527 14.3751 1.58424 14.3751 1.75V3H15.6251C15.7908 3 15.9498 3.06585 16.067 3.18306C16.1842 3.30027 16.2501 3.45924 16.2501 3.625C16.2501 3.79076 16.1842 3.94973 16.067 4.06694C15.9498 4.18415 15.7908 4.25 15.6251 4.25H14.3751V5.5C14.3751 5.66576 14.3092 5.82473 14.192 5.94194C14.0748 6.05915 13.9158 6.125 13.7501 6.125C13.5843 6.125 13.4253 6.05915 13.3081 5.94194C13.1909 5.82473 13.1251 5.66576 13.1251 5.5V4.25H11.8751C11.7093 4.25 11.5503 4.18415 11.4331 4.06694C11.3159 3.94973 11.2501 3.79076 11.2501 3.625ZM19.3751 7.375C19.3751 7.54076 19.3092 7.69973 19.192 7.81694C19.0748 7.93415 18.9158 8 18.7501 8H18.1251V8.625C18.1251 8.79076 18.0592 8.94973 17.942 9.06694C17.8248 9.18415 17.6658 9.25 17.5001 9.25C17.3343 9.25 17.1753 9.18415 17.0581 9.06694C16.9409 8.94973 16.8751 8.79076 16.8751 8.625V8H16.2501C16.0843 8 15.9253 7.93415 15.8081 7.81694C15.6909 7.69973 15.6251 7.54076 15.6251 7.375C15.6251 7.20924 15.6909 7.05027 15.8081 6.93306C15.9253 6.81585 16.0843 6.75 16.2501 6.75H16.8751V6.125C16.8751 5.95924 16.9409 5.80027 17.0581 5.68306C17.1753 5.56585 17.3343 5.5 17.5001 5.5C17.6658 5.5 17.8248 5.56585 17.942 5.68306C18.0592 5.80027 18.1251 5.95924 18.1251 6.125V6.75H18.7501C18.9158 6.75 19.0748 6.81585 19.192 6.93306C19.3092 7.05027 19.3751 7.20924 19.3751 7.375Z"
          fill="#6E4EFB"/>
</svg>
