<svg xmlns="http://www.w3.org/2000/svg" preserveAspectRatio="xMidYMid meet" viewBox="0 0 180 180" fill="none">
    <path d="M90.2414 78.7989L77.468 103.933L45.626 166.54C44.5959 168.555 43.3369 170.363 41.8948 171.942L41.7574 172.08C41.5514 172.286 41.3454 172.515 41.1393 172.721C40.7044 173.179 40.2237 173.591 39.7659 173.98C39.6514 174.071 39.5369 174.186 39.4225 174.254C39.308 174.346 39.1936 174.438 39.0791 174.529C38.9647 174.621 38.8273 174.735 38.7129 174.827C38.5526 174.941 38.4153 175.056 38.255 175.17C38.049 175.33 37.8201 175.468 37.6141 175.628C37.5225 175.697 37.4309 175.765 37.3394 175.811C37.0876 175.971 36.8358 176.131 36.5611 176.292C36.3321 176.429 36.1261 176.544 35.8972 176.681C35.6683 176.818 35.4394 176.933 35.2105 177.047C34.7297 177.276 34.2261 177.528 33.7454 177.734C32.9671 178.077 32.1659 178.375 31.3418 178.627C31.1816 178.672 31.0213 178.718 30.8611 178.764C30.7238 178.81 30.6093 178.833 30.4719 178.855C30.3804 178.878 30.2659 178.901 30.1744 178.924C30.0828 178.947 29.9912 178.97 29.8768 178.993C29.7623 179.016 29.6479 179.039 29.5334 179.062C29.4876 179.062 29.4647 179.084 29.3961 179.084C29.2816 179.107 29.19 179.13 29.0756 179.153C28.7551 179.222 28.4346 179.29 28.1141 179.336C27.9539 179.359 27.7937 179.382 27.6334 179.405C27.4732 179.428 27.3358 179.451 27.1756 179.474C27.0153 179.474 26.878 179.496 26.7178 179.519C26.672 179.519 26.6491 179.542 26.6262 179.542C26.6033 179.542 26.5804 179.542 26.5575 179.542C26.1913 179.588 25.8021 179.611 25.4358 179.634C25.0467 179.634 24.6346 179.657 24.2455 179.657H23.9937C23.9937 179.657 23.8334 179.657 23.7648 179.657H23.6732C23.3756 179.657 23.078 179.634 22.7804 179.611C22.7118 179.611 22.6202 179.611 22.5515 179.611C22.3684 179.611 22.1853 179.588 21.9792 179.565C21.819 179.542 21.6588 179.519 21.4985 179.496C21.2925 179.496 21.0865 179.451 20.8805 179.428C20.6973 179.405 20.5142 179.382 20.3311 179.359C20.1479 179.336 19.9648 179.313 19.8046 179.268C19.6672 179.268 19.5299 179.222 19.3925 179.199C18.9347 179.107 18.4769 178.993 18.019 178.878C17.7901 178.81 17.5612 178.741 17.3323 178.672C17.3323 178.672 17.3323 178.672 17.3094 178.672C17.0805 178.604 16.8287 178.512 16.5998 178.443C16.3937 178.375 16.1877 178.306 15.9817 178.237C15.707 178.146 15.4094 178.031 15.1347 177.894C14.8829 177.803 14.6082 177.665 14.3335 177.551C14.0588 177.413 13.7612 177.299 13.4865 177.162C13.4179 177.139 13.3492 177.116 13.3034 177.07C13.1203 176.978 12.9371 176.887 12.754 176.772C12.6624 176.727 12.548 176.681 12.4564 176.612C12.2504 176.498 12.0215 176.36 11.8155 176.223C11.5637 176.086 11.3119 175.925 11.0829 175.765C11.0143 175.719 10.9227 175.674 10.854 175.605C10.6709 175.491 10.5107 175.376 10.3275 175.262C10.1444 175.124 9.98415 175.01 9.82391 174.872C9.77813 174.85 9.73235 174.804 9.68657 174.781C9.52633 174.666 9.38898 174.552 9.25163 174.415C9.18296 174.369 9.09139 174.3 9.02272 174.232C8.95404 174.163 8.86248 174.094 8.7938 174.048C8.65645 173.934 8.5191 173.819 8.38176 173.705C8.33597 173.659 8.2673 173.613 8.22152 173.545C8.17573 173.499 8.12995 173.453 8.06128 173.385C7.85526 173.201 7.64923 172.995 7.44321 172.812C7.23719 172.606 7.03117 172.423 6.84803 172.217C6.6649 172.011 6.45888 171.805 6.27575 171.599C6.09262 171.393 5.90949 171.187 5.72636 170.958C5.56612 170.752 5.40588 170.546 5.24564 170.34C5.17696 170.271 5.10829 170.18 5.03961 170.088C4.97094 169.997 4.90227 169.905 4.85648 169.836C4.78781 169.722 4.69624 169.608 4.60468 169.493C4.60468 169.47 4.58179 169.447 4.5589 169.424C4.51311 169.356 4.46733 169.287 4.42155 169.218C4.35287 169.127 4.2842 169.035 4.23842 168.944C4.0095 168.6 3.78059 168.257 3.57456 167.891C3.43722 167.685 3.32276 167.456 3.2083 167.227C2.54445 166.059 1.99506 164.823 1.56012 163.564C1.42277 163.198 1.30832 162.832 1.19386 162.443C1.14808 162.305 1.10229 162.145 1.05651 162.008C1.01073 161.893 0.987838 161.756 0.964946 161.641C0.873381 161.275 0.781815 160.886 0.69025 160.52C0.69025 160.497 0.69025 160.451 0.667358 160.428C0.644467 160.245 0.598684 160.085 0.575793 159.925C0.552901 159.81 0.53001 159.696 0.53001 159.581C0.484227 159.329 0.461336 159.101 0.415553 158.849C0.392662 158.666 0.36977 158.46 0.346879 158.276C0.346879 158.208 0.323987 158.116 0.323987 158.025C0.301096 157.819 0.278205 157.59 0.278205 157.384C0.278205 157.361 0.278205 157.315 0.278205 157.292C0.278205 157.269 0.278205 157.223 0.278205 157.201C0.278205 157.178 0.278205 157.155 0.278205 157.132C0.255313 156.903 0.232422 156.651 0.232422 156.422C0.232422 156.148 0.232422 155.873 0.232422 155.598C0.232422 155.369 0.232422 155.118 0.232422 154.889C0.232422 154.728 0.232422 154.591 0.255313 154.431C0.255313 154.271 0.255313 154.087 0.278205 153.927C0.278205 153.744 0.301096 153.584 0.323987 153.424C0.323987 153.263 0.346879 153.126 0.36977 152.989C0.36977 152.806 0.392662 152.622 0.438444 152.462C0.461336 152.279 0.484227 152.119 0.53001 151.936C0.53001 151.844 0.552901 151.73 0.575793 151.615C0.598684 151.501 0.621576 151.409 0.644467 151.295C0.644467 151.272 0.644467 151.249 0.644467 151.226V151.18C0.804707 150.356 0.987838 149.555 1.23964 148.754C1.37699 148.296 1.53723 147.861 1.69747 147.403C1.78904 147.174 1.8806 146.945 1.94928 146.716C2.04084 146.51 2.13241 146.282 2.22397 146.053C2.31554 145.847 2.4071 145.641 2.49867 145.435C2.61313 145.206 2.72758 144.954 2.84204 144.725L67.3042 17.7485C67.3042 17.7485 67.3042 17.7714 67.3042 17.7943C65.4958 23.2195 65.5873 29.3085 68.0138 34.9626L68.4488 35.9698L90.2414 78.776V78.7989Z"
          fill="#F7F4FD"/>
    <path d="M0.184455 157.155C0.184455 157.155 0.184455 157.201 0.184455 157.224C0.184455 156.972 0.161563 156.697 0.138672 156.422C0.138672 156.651 0.161563 156.903 0.184455 157.132V157.155Z"
          fill="#F7F4FD"/>
    <path d="M0.184024 157.407C0.184024 157.636 0.206916 157.842 0.229807 158.048C0.206916 157.796 0.184024 157.567 0.161133 157.315C0.161133 157.338 0.161133 157.384 0.161133 157.407H0.184024Z"
          fill="#F7F4FD"/>
    <path d="M0.319336 152.439C0.342227 152.165 0.38801 151.867 0.456684 151.592C0.456684 151.684 0.433793 151.798 0.410901 151.913C0.365119 152.096 0.342227 152.279 0.319336 152.439Z"
          fill="#F7F4FD"/>
    <path d="M0.458008 151.592C0.480899 151.455 0.503791 151.34 0.526682 151.203C0.526682 151.226 0.526682 151.249 0.526682 151.272C0.526682 151.363 0.480899 151.478 0.458008 151.592Z"
          fill="#F7F4FD"/>
    <path d="M5.19528 170.363C5.35552 170.569 5.49287 170.775 5.676 170.981C5.44709 170.706 5.21817 170.409 4.98926 170.111C5.05793 170.18 5.12661 170.271 5.19528 170.363Z"
          fill="#F7F4FD"/>
    <path d="M7.99209 173.407C7.99209 173.407 8.08366 173.522 8.15233 173.568C7.87763 173.339 7.60294 173.087 7.37402 172.835C7.58005 173.041 7.78607 173.224 7.99209 173.407Z"
          fill="#F7F4FD"/>
    <path d="M9.17911 174.438C9.31646 174.552 9.4767 174.666 9.61405 174.804C9.38513 174.644 9.15622 174.46 8.9502 174.277C9.01887 174.323 9.11044 174.392 9.17911 174.46V174.438Z"
          fill="#F7F4FD"/>
    <path d="M13.463 177.162C13.7377 177.299 14.0353 177.436 14.31 177.551C13.9666 177.413 13.6232 177.253 13.2799 177.07C13.0967 176.978 12.9136 176.887 12.7305 176.772C12.9136 176.864 13.0967 176.978 13.2799 177.07C13.3256 177.093 13.3943 177.116 13.463 177.162Z"
          fill="#F7F4FD"/>
    <path d="M26.4838 179.565C26.4838 179.565 26.5295 179.565 26.5524 179.565C25.7512 179.657 24.95 179.703 24.1488 179.703C24.0802 179.703 23.9886 179.703 23.9199 179.703H24.1717C24.5609 179.703 24.9729 179.703 25.3621 179.68C25.7283 179.68 26.1175 179.634 26.4838 179.588V179.565Z"
          fill="#F7F4FD"/>
    <path d="M26.6721 179.542C26.8323 179.542 26.9697 179.519 27.1299 179.497C26.9468 179.519 26.7636 179.542 26.5576 179.565C26.5805 179.565 26.6263 179.565 26.6492 179.542H26.6721Z"
          fill="#F7F4FD"/>
    <path d="M29.4846 179.085C29.4846 179.085 29.7135 179.039 29.8279 179.016C29.6677 179.062 29.5304 179.085 29.3701 179.107C29.4159 179.107 29.4617 179.107 29.5075 179.085H29.4846Z"
          fill="#F7F4FD"/>
    <path d="M39.0313 174.529C39.1458 174.438 39.2602 174.346 39.3747 174.255C39.1458 174.461 38.894 174.644 38.665 174.827C38.8024 174.735 38.9168 174.621 39.0313 174.529Z"
          fill="#F7F4FD"/>
    <path d="M41.8707 171.92C41.6188 172.194 41.3899 172.446 41.1152 172.698C41.3213 172.492 41.5273 172.286 41.7333 172.057L41.8707 171.92Z"
          fill="#F7F4FD"/>
    <path d="M113.751 18.939L111.966 15.4366C106.563 3.57909 92.6223 -1.82319 80.5814 3.37307C77.7429 4.60919 75.2477 6.30312 73.1875 8.36331C79.7802 1.54179 90.0585 -0.976219 99.3981 2.73212C106.792 5.68506 111.897 11.8656 113.774 19.0076V18.9619L113.751 18.939Z"
          fill="#F7F4FD"/>
    <path d="M175.604 138.911L173.063 136.278C154.476 117.073 130.485 105.307 104.549 102.491L92.0278 77.4025L70.6702 34.5963L70.2352 33.5891C67.8545 27.935 67.7401 21.846 69.5256 16.4208C69.5256 16.4208 69.5256 16.398 69.5256 16.3751L70.4183 14.5896C71.5858 11.6824 73.234 9.1415 75.2484 7.01264C75.2484 7.01264 75.2484 6.98975 75.2713 6.96686C77.3087 4.90667 79.7351 3.21273 82.5279 1.97662C94.317 -3.21964 107.983 2.18264 113.271 14.0402L115.011 17.5196L115.034 17.5883L175.559 138.888L175.604 138.911Z"
          fill="#F7F4FD"/>
    <path d="M69.5723 16.3751C70.7397 12.8728 72.6855 9.66805 75.2951 7.0127C73.2807 9.14156 71.6325 11.6825 70.465 14.5896L69.5723 16.3751Z"
          fill="#F7F4FD"/>
    <path d="M179.861 155.942V155.987C179.861 156.514 179.861 157.063 179.815 157.567C179.815 157.567 179.815 157.59 179.815 157.613C179.793 158.139 179.724 158.688 179.655 159.192C179.587 159.741 179.495 160.268 179.381 160.794C179.266 161.321 179.152 161.87 178.991 162.374C178.9 162.786 178.762 163.221 178.602 163.633C178.419 164.251 178.19 164.846 177.915 165.441C177.755 165.853 177.572 166.265 177.366 166.655C177.275 166.861 177.183 167.044 177.068 167.227C177.023 167.341 176.977 167.456 176.885 167.57C176.565 168.165 176.244 168.715 175.878 169.287C175.878 169.333 175.832 169.379 175.787 169.424C175.581 169.722 175.375 170.02 175.146 170.317C174.23 171.553 173.223 172.698 172.101 173.728C171.552 174.254 170.956 174.735 170.338 175.193C170.064 175.399 169.766 175.605 169.491 175.834C168.85 176.292 168.164 176.727 167.454 177.093C167.179 177.253 166.905 177.39 166.607 177.551C165.531 178.1 164.387 178.558 163.242 178.924C162.876 179.039 162.51 179.153 162.12 179.245C161.731 179.336 161.365 179.428 160.976 179.519C160.587 179.611 160.198 179.68 159.808 179.725C159.442 179.794 159.076 179.863 158.71 179.886C158.595 179.908 158.504 179.931 158.389 179.908C158.069 179.931 157.748 179.977 157.405 179.977C157.016 179.977 156.604 180 156.214 180C155.848 180 155.528 180 155.184 179.977C155.07 179.977 154.955 179.977 154.864 179.977C154.612 179.954 154.36 179.931 154.108 179.908C153.88 179.908 153.651 179.886 153.422 179.863C153.101 179.817 152.758 179.771 152.437 179.702C152.392 179.702 152.369 179.702 152.346 179.702C151.98 179.657 151.659 179.565 151.293 179.496C150.812 179.405 150.354 179.29 149.896 179.153C149.416 179.016 148.958 178.878 148.5 178.718C148.386 178.672 148.271 178.649 148.157 178.581C147.859 178.489 147.561 178.375 147.264 178.237C147.058 178.146 146.829 178.054 146.6 177.963C146.486 177.917 146.394 177.871 146.28 177.802C145.684 177.528 145.089 177.207 144.517 176.887C144.448 176.864 144.38 176.818 144.334 176.772C144.013 176.566 143.693 176.383 143.349 176.154C142.686 175.719 142.022 175.239 141.404 174.735C141.083 174.483 140.786 174.231 140.488 173.934C140.19 173.659 139.916 173.384 139.641 173.11C139.641 173.11 139.641 173.11 139.618 173.087C139.343 172.812 139.069 172.515 138.794 172.217C138.748 172.194 138.748 172.171 138.703 172.148C126.227 159.604 109.722 152.714 92.1643 152.714C74.6066 152.714 57.1176 160.016 44.5273 173.339C45.9466 171.759 47.1827 169.951 48.19 167.936L79.3909 105.329C83.603 104.849 87.8607 104.62 92.1643 104.62C96.4679 104.62 100.382 104.849 104.434 105.284C130.37 108.099 154.36 119.865 172.948 139.071L175.489 141.703L177.183 145.091C178.923 148.594 179.747 152.279 179.747 155.964L179.861 155.942Z"
          fill="#F7F4FD"/>
</svg>
