<svg preserveAspectRatio="xMidYMid meet" viewBox="0 0 120 94" fill="none" xmlns="http://www.w3.org/2000/svg">
<path fill-rule="evenodd" clip-rule="evenodd" d="M46.6667 79.3136C64.5769 79.3136 79.096 64.8463 79.096 47C79.096 29.1537 64.5769 14.6864 46.6667 14.6864C28.7564 14.6864 14.2373 29.1537 14.2373 47C14.2373 64.8463 28.7564 79.3136 46.6667 79.3136ZM46.6667 93.5C72.44 93.5 93.3333 72.6812 93.3333 47C93.3333 21.3188 72.44 0.5 46.6667 0.5C20.8934 0.5 0 21.3188 0 47C0 72.6812 20.8934 93.5 46.6667 93.5ZM82.2222 72.2954C97.4699 72.2954 109.831 59.9789 109.831 44.7857C109.831 29.5925 97.4699 17.276 82.2222 17.276C66.9746 17.276 54.6139 29.5925 54.6139 44.7857C54.6139 59.9789 66.9746 72.2954 82.2222 72.2954ZM82.2222 82.4286C103.086 82.4286 120 65.5753 120 44.7857C120 23.9961 103.086 7.14286 82.2222 7.14286C61.3581 7.14286 44.4444 23.9961 44.4444 44.7857C44.4444 65.5753 61.3581 82.4286 82.2222 82.4286Z" fill="#F4F5F9"/>
</svg>
