<svg xmlns="http://www.w3.org/2000/svg" preserveAspectRatio="xMidYMid meet" viewBox="0 0 24 24" fill="none">
    <path d="M22.5 19.6874H20.8125V8.99994C20.8125 8.65184 20.6742 8.318 20.4281 8.07186C20.1819 7.82572 19.8481 7.68744 19.5 7.68744H13.3125V2.99994C13.3124 2.76238 13.2478 2.52931 13.1257 2.32557C13.0035 2.12183 12.8284 1.95506 12.6189 1.84305C12.4094 1.73104 12.1734 1.67798 11.9361 1.68954C11.6989 1.7011 11.4692 1.77684 11.2716 1.90869L3.77156 6.90837C3.59183 7.02829 3.44449 7.19071 3.3426 7.38124C3.24071 7.57177 3.18744 7.7845 3.1875 8.00056V19.6874H1.5C1.35082 19.6874 1.20774 19.7467 1.10225 19.8522C0.996763 19.9577 0.9375 20.1007 0.9375 20.2499C0.9375 20.3991 0.996763 20.5422 1.10225 20.6477C1.20774 20.7532 1.35082 20.8124 1.5 20.8124H22.5C22.6492 20.8124 22.7923 20.7532 22.8977 20.6477C23.0032 20.5422 23.0625 20.3991 23.0625 20.2499C23.0625 20.1007 23.0032 19.9577 22.8977 19.8522C22.7923 19.7467 22.6492 19.6874 22.5 19.6874ZM19.5 8.81244C19.5497 8.81244 19.5974 8.83219 19.6326 8.86735C19.6677 8.90252 19.6875 8.95021 19.6875 8.99994V19.6874H13.3125V8.81244H19.5ZM4.3125 8.00056C4.31256 7.96976 4.3202 7.93945 4.33475 7.91231C4.3493 7.88517 4.37032 7.86203 4.39594 7.84494L11.8959 2.84431C11.9241 2.82549 11.9569 2.81467 11.9908 2.81301C12.0247 2.81134 12.0584 2.8189 12.0883 2.83487C12.1182 2.85084 12.1432 2.87462 12.1607 2.90369C12.1782 2.93276 12.1874 2.96602 12.1875 2.99994V19.6874H4.3125V8.00056ZM10.3125 10.4999V11.9999C10.3125 12.1491 10.2532 12.2922 10.1477 12.3977C10.0423 12.5032 9.89918 12.5624 9.75 12.5624C9.60082 12.5624 9.45774 12.5032 9.35225 12.3977C9.24676 12.2922 9.1875 12.1491 9.1875 11.9999V10.4999C9.1875 10.3508 9.24676 10.2077 9.35225 10.1022C9.45774 9.9967 9.60082 9.93744 9.75 9.93744C9.89918 9.93744 10.0423 9.9967 10.1477 10.1022C10.2532 10.2077 10.3125 10.3508 10.3125 10.4999ZM7.3125 10.4999V11.9999C7.3125 12.1491 7.25324 12.2922 7.14775 12.3977C7.04226 12.5032 6.89918 12.5624 6.75 12.5624C6.60082 12.5624 6.45774 12.5032 6.35225 12.3977C6.24676 12.2922 6.1875 12.1491 6.1875 11.9999V10.4999C6.1875 10.3508 6.24676 10.2077 6.35225 10.1022C6.45774 9.9967 6.60082 9.93744 6.75 9.93744C6.89918 9.93744 7.04226 9.9967 7.14775 10.1022C7.25324 10.2077 7.3125 10.3508 7.3125 10.4999ZM7.3125 15.7499V17.2499C7.3125 17.3991 7.25324 17.5422 7.14775 17.6477C7.04226 17.7532 6.89918 17.8124 6.75 17.8124C6.60082 17.8124 6.45774 17.7532 6.35225 17.6477C6.24676 17.5422 6.1875 17.3991 6.1875 17.2499V15.7499C6.1875 15.6007 6.24676 15.4577 6.35225 15.3522C6.45774 15.2467 6.60082 15.1874 6.75 15.1874C6.89918 15.1874 7.04226 15.2467 7.14775 15.3522C7.25324 15.4577 7.3125 15.6007 7.3125 15.7499ZM10.3125 15.7499V17.2499C10.3125 17.3991 10.2532 17.5422 10.1477 17.6477C10.0423 17.7532 9.89918 17.8124 9.75 17.8124C9.60082 17.8124 9.45774 17.7532 9.35225 17.6477C9.24676 17.5422 9.1875 17.3991 9.1875 17.2499V15.7499C9.1875 15.6007 9.24676 15.4577 9.35225 15.3522C9.45774 15.2467 9.60082 15.1874 9.75 15.1874C9.89918 15.1874 10.0423 15.2467 10.1477 15.3522C10.2532 15.4577 10.3125 15.6007 10.3125 15.7499Z"
          fill="#2A292E"/>
</svg>
