<svg xmlns="http://www.w3.org/2000/svg" preserveAspectRatio="xMidYMid meet" viewBox="0 0 24 24" fill="none">
    <path d="M21.4866 19.9687C20.0044 17.4075 17.6775 15.6103 14.9738 14.8481C16.2883 14.1799 17.3394 13.0885 17.9577 11.7498C18.5761 10.411 18.7255 8.90311 18.3819 7.4691C18.0384 6.03508 17.2219 4.75856 16.064 3.84537C14.9062 2.93218 13.4746 2.43555 12 2.43555C10.5254 2.43555 9.0938 2.93218 7.93599 3.84537C6.77818 4.75856 5.96167 6.03508 5.61811 7.4691C5.27456 8.90311 5.42398 10.411 6.04229 11.7498C6.6606 13.0885 7.71176 14.1799 9.02627 14.8481C6.32252 15.6094 3.99564 17.4065 2.51346 19.9687C2.47276 20.0328 2.44543 20.1043 2.43312 20.1792C2.4208 20.2541 2.42376 20.3306 2.44181 20.4043C2.45986 20.478 2.49263 20.5473 2.53814 20.608C2.58366 20.6687 2.64098 20.7195 2.70666 20.7575C2.77234 20.7955 2.84502 20.8197 2.92033 20.8289C2.99564 20.838 3.07202 20.8319 3.14488 20.8107C3.21774 20.7896 3.28557 20.7539 3.3443 20.7059C3.40302 20.6579 3.45142 20.5985 3.48658 20.5312C5.28752 17.4197 8.46939 15.5625 12 15.5625C15.5306 15.5625 18.7125 17.4197 20.5135 20.5312C20.5486 20.5985 20.597 20.6579 20.6557 20.7059C20.7145 20.7539 20.7823 20.7896 20.8552 20.8107C20.928 20.8319 21.0044 20.838 21.0797 20.8289C21.155 20.8197 21.2277 20.7955 21.2934 20.7575C21.3591 20.7195 21.4164 20.6687 21.4619 20.608C21.5074 20.5473 21.5402 20.478 21.5582 20.4043C21.5763 20.3306 21.5792 20.2541 21.5669 20.1792C21.5546 20.1043 21.5273 20.0328 21.4866 19.9687ZM6.56252 8.99998C6.56252 7.92455 6.88142 6.87326 7.4789 5.97907C8.07638 5.08488 8.9256 4.38794 9.91918 3.97639C10.9128 3.56484 12.0061 3.45716 13.0608 3.66696C14.1156 3.87677 15.0845 4.39464 15.8449 5.15509C16.6054 5.91554 17.1232 6.88441 17.333 7.93918C17.5428 8.99395 17.4352 10.0873 17.0236 11.0808C16.6121 12.0744 15.9151 12.9236 15.0209 13.5211C14.1267 14.1186 13.0755 14.4375 12 14.4375C10.5584 14.4357 9.1764 13.8623 8.15704 12.843C7.13769 11.8236 6.56426 10.4416 6.56252 8.99998Z"
          fill="#2A292E"/>
</svg>
