<svg xmlns="http://www.w3.org/2000/svg" width="20" height="21" viewBox="0 0 20 21" fill="none">
    <path d="M17.7594 6.23209L14.268 2.74146C14.1519 2.62536 14.0141 2.53326 13.8624 2.47042C13.7107 2.40759 13.5482 2.37524 13.384 2.37524C13.2198 2.37524 13.0572 2.40759 12.9056 2.47042C12.7539 2.53326 12.6161 2.62536 12.5 2.74146L2.86641 12.3751C2.74983 12.4907 2.65741 12.6284 2.59451 12.7801C2.5316 12.9318 2.49948 13.0944 2.50001 13.2586V16.7501C2.50001 17.0816 2.6317 17.3995 2.86612 17.6339C3.10054 17.8684 3.41849 18.0001 3.75001 18.0001H16.875C17.0408 18.0001 17.1997 17.9342 17.3169 17.817C17.4342 17.6998 17.5 17.5408 17.5 17.3751C17.5 17.2093 17.4342 17.0503 17.3169 16.9331C17.1997 16.8159 17.0408 16.7501 16.875 16.7501H9.00938L17.7594 8.00006C17.8755 7.88398 17.9676 7.74617 18.0304 7.59449C18.0933 7.44282 18.1256 7.28025 18.1256 7.11607C18.1256 6.95189 18.0933 6.78933 18.0304 6.63765C17.9676 6.48597 17.8755 6.34816 17.7594 6.23209ZM10.625 6.38365L11.9289 7.68756L5.31251 14.304L4.0086 13.0001L10.625 6.38365ZM3.75001 16.7501V14.5086L5.99141 16.7501H3.75001ZM7.50001 16.4915L6.19688 15.1876L12.8125 8.57115L14.1164 9.87506L7.50001 16.4915ZM15 8.99146L11.5094 5.50006L13.3844 3.62506L16.875 7.11646L15 8.99146Z"
          fill="#343330"/>
</svg>
