<svg xmlns="http://www.w3.org/2000/svg" preserveAspectRatio="xMidYMid meet" viewBox="0 0 18 18" fill="none">
    <path d="M8.60221 12.7733L2.97721 7.14828C2.92494 7.09602 2.88349 7.03398 2.8552 6.96569C2.82692 6.89741 2.81236 6.82422 2.81236 6.75031C2.81236 6.6764 2.82692 6.60322 2.8552 6.53493C2.88349 6.46665 2.92494 6.40461 2.97721 6.35234C3.02947 6.30008 3.09151 6.25862 3.1598 6.23034C3.22808 6.20206 3.30127 6.1875 3.37518 6.1875C3.44908 6.1875 3.52227 6.20206 3.59055 6.23034C3.65884 6.25862 3.72088 6.30008 3.77314 6.35234L9.00018 11.5801L14.2272 6.35234C14.3328 6.2468 14.4759 6.1875 14.6252 6.1875C14.7744 6.1875 14.9176 6.2468 15.0231 6.35234C15.1287 6.45789 15.188 6.60105 15.188 6.75031C15.188 6.89958 15.1287 7.04273 15.0231 7.14828L9.39814 12.7733C9.3459 12.8256 9.28387 12.8671 9.21558 12.8954C9.14729 12.9237 9.0741 12.9383 9.00018 12.9383C8.92625 12.9383 8.85306 12.9237 8.78477 12.8954C8.71648 12.8671 8.65445 12.8256 8.60221 12.7733Z" fill="#2A292E"/>
</svg>