<svg xmlns="http://www.w3.org/2000/svg" width="20" height="21" viewBox="0 0 20 21" fill="none">
    <path d="M10 2.375C8.39303 2.375 6.82214 2.85152 5.486 3.74431C4.14985 4.6371 3.10844 5.90605 2.49348 7.3907C1.87852 8.87535 1.71762 10.509 2.03112 12.0851C2.34463 13.6612 3.11846 15.1089 4.25476 16.2452C5.39106 17.3815 6.8388 18.1554 8.4149 18.4689C9.99099 18.7824 11.6247 18.6215 13.1093 18.0065C14.594 17.3916 15.8629 16.3502 16.7557 15.014C17.6485 13.6779 18.125 12.107 18.125 10.5C18.1227 8.34581 17.266 6.28051 15.7427 4.75727C14.2195 3.23403 12.1542 2.37727 10 2.375ZM10 17.375C8.64026 17.375 7.31105 16.9718 6.18046 16.2164C5.04987 15.4609 4.16868 14.3872 3.64833 13.1309C3.12798 11.8747 2.99183 10.4924 3.2571 9.15875C3.52238 7.82513 4.17716 6.60013 5.13864 5.63864C6.10013 4.67716 7.32514 4.02237 8.65876 3.7571C9.99238 3.49183 11.3747 3.62798 12.631 4.14833C13.8872 4.66868 14.9609 5.54987 15.7164 6.68045C16.4718 7.81104 16.875 9.14025 16.875 10.5C16.8729 12.3227 16.1479 14.0702 14.8591 15.3591C13.5702 16.6479 11.8227 17.3729 10 17.375ZM13.75 10.5C13.75 10.6658 13.6842 10.8247 13.5669 10.9419C13.4497 11.0592 13.2908 11.125 13.125 11.125H10.625V13.625C10.625 13.7908 10.5592 13.9497 10.4419 14.0669C10.3247 14.1842 10.1658 14.25 10 14.25C9.83424 14.25 9.67527 14.1842 9.55806 14.0669C9.44085 13.9497 9.375 13.7908 9.375 13.625V11.125H6.875C6.70924 11.125 6.55027 11.0592 6.43306 10.9419C6.31585 10.8247 6.25 10.6658 6.25 10.5C6.25 10.3342 6.31585 10.1753 6.43306 10.0581C6.55027 9.94085 6.70924 9.875 6.875 9.875H9.375V7.375C9.375 7.20924 9.44085 7.05027 9.55806 6.93306C9.67527 6.81585 9.83424 6.75 10 6.75C10.1658 6.75 10.3247 6.81585 10.4419 6.93306C10.5592 7.05027 10.625 7.20924 10.625 7.375V9.875H13.125C13.2908 9.875 13.4497 9.94085 13.5669 10.0581C13.6842 10.1753 13.75 10.3342 13.75 10.5Z" fill="#6E4EFB"/>
</svg>