<svg xmlns="http://www.w3.org/2000/svg" preserveAspectRatio="xMidYMid meet" viewBox="0 0 18 18" fill="none">
    <path d="M16.875 14.6248H15.75V6.74975C15.75 6.45139 15.6315 6.16524 15.4205 5.95426C15.2095 5.74328 14.9234 5.62475 14.625 5.62475H10.125V2.24975C10.1251 2.04603 10.0699 1.8461 9.96533 1.67129C9.86071 1.49649 9.71059 1.35337 9.53098 1.25722C9.35138 1.16106 9.14904 1.11548 8.94556 1.12534C8.74208 1.1352 8.54509 1.20013 8.37563 1.31319L2.75062 5.06225C2.59632 5.16521 2.46986 5.30472 2.38252 5.46837C2.29517 5.63202 2.24965 5.81472 2.25 6.00022V14.6248H1.125C0.975816 14.6248 0.832742 14.684 0.727252 14.7895C0.621763 14.895 0.5625 15.0381 0.5625 15.1873C0.5625 15.3364 0.621763 15.4795 0.727252 15.585C0.832742 15.6905 0.975816 15.7498 1.125 15.7498H16.875C17.0242 15.7498 17.1673 15.6905 17.2727 15.585C17.3782 15.4795 17.4375 15.3364 17.4375 15.1873C17.4375 15.0381 17.3782 14.895 17.2727 14.7895C17.1673 14.684 17.0242 14.6248 16.875 14.6248ZM14.625 6.74975V14.6248H10.125V6.74975H14.625ZM3.375 6.00022L9 2.24975V14.6248H3.375V6.00022ZM7.875 7.87475V8.99975C7.875 9.14894 7.81574 9.29201 7.71025 9.3975C7.60476 9.50299 7.46168 9.56225 7.3125 9.56225C7.16332 9.56225 7.02024 9.50299 6.91475 9.3975C6.80926 9.29201 6.75 9.14894 6.75 8.99975V7.87475C6.75 7.72557 6.80926 7.5825 6.91475 7.47701C7.02024 7.37152 7.16332 7.31225 7.3125 7.31225C7.46168 7.31225 7.60476 7.37152 7.71025 7.47701C7.81574 7.5825 7.875 7.72557 7.875 7.87475ZM5.625 7.87475V8.99975C5.625 9.14894 5.56574 9.29201 5.46025 9.3975C5.35476 9.50299 5.21168 9.56225 5.0625 9.56225C4.91332 9.56225 4.77024 9.50299 4.66475 9.3975C4.55926 9.29201 4.5 9.14894 4.5 8.99975V7.87475C4.5 7.72557 4.55926 7.5825 4.66475 7.47701C4.77024 7.37152 4.91332 7.31225 5.0625 7.31225C5.21168 7.31225 5.35476 7.37152 5.46025 7.47701C5.56574 7.5825 5.625 7.72557 5.625 7.87475ZM5.625 11.8123V12.9373C5.625 13.0864 5.56574 13.2295 5.46025 13.335C5.35476 13.4405 5.21168 13.4998 5.0625 13.4998C4.91332 13.4998 4.77024 13.4405 4.66475 13.335C4.55926 13.2295 4.5 13.0864 4.5 12.9373V11.8123C4.5 11.6631 4.55926 11.52 4.66475 11.4145C4.77024 11.309 4.91332 11.2498 5.0625 11.2498C5.21168 11.2498 5.35476 11.309 5.46025 11.4145C5.56574 11.52 5.625 11.6631 5.625 11.8123ZM7.875 11.8123V12.9373C7.875 13.0864 7.81574 13.2295 7.71025 13.335C7.60476 13.4405 7.46168 13.4998 7.3125 13.4998C7.16332 13.4998 7.02024 13.4405 6.91475 13.335C6.80926 13.2295 6.75 13.0864 6.75 12.9373V11.8123C6.75 11.6631 6.80926 11.52 6.91475 11.4145C7.02024 11.309 7.16332 11.2498 7.3125 11.2498C7.46168 11.2498 7.60476 11.309 7.71025 11.4145C7.81574 11.52 7.875 11.6631 7.875 11.8123Z" fill="#2A292E"/>
</svg>