<svg xmlns="http://www.w3.org/2000/svg" preserveAspectRatio="xMidYMid meet" viewBox="0 0 12 12" fill="none">
    <path d="M10.0151 5.26531L6.26512 9.01531C6.23029 9.05018 6.18893 9.07784 6.14341 9.09671C6.09789 9.11558 6.04909 9.12529 5.99981 9.12529C5.95053 9.12529 5.90173 9.11558 5.8562 9.09671C5.81068 9.07784 5.76932 9.05018 5.73449 9.01531L1.98449 5.26531C1.93199 5.21287 1.89623 5.14602 1.88173 5.07324C1.86724 5.00046 1.87467 4.92501 1.90307 4.85645C1.93148 4.78789 1.97959 4.72931 2.04131 4.6881C2.10304 4.6469 2.1756 4.62494 2.24981 4.625H9.74981C9.82402 4.62494 9.89658 4.6469 9.9583 4.6881C10.02 4.72931 10.0681 4.78789 10.0965 4.85645C10.1249 4.92501 10.1324 5.00046 10.1179 5.07324C10.1034 5.14602 10.0676 5.21287 10.0151 5.26531Z"
          fill="rgba(0, 0, 0, 0.54)"/>
</svg>
