<svg xmlns="http://www.w3.org/2000/svg" preserveAspectRatio="xMidYMid meet" viewBox="0 0 16 16" fill="none">
  <circle cx="8" cy="8" r="8" fill="#369B7C"/>
  <path d="M7.04558 11.3326C6.92496 11.3326 6.80435 11.287 6.71268 11.1967L4.13823 8.66178C3.95392 8.48031 3.95392 8.18672 4.13823 8.00525C4.32253 7.82377 4.6207 7.82377 4.805 8.00525L7.37945 10.5411C7.56375 10.7226 7.56375 11.0162 7.37945 11.1977C7.28682 11.2879 7.1662 11.3326 7.04558 11.3326Z" fill="white"/>
  <path d="M7.04486 11.3324C6.92424 11.3324 6.80363 11.2868 6.71196 11.1965C6.52765 11.015 6.52765 10.7214 6.71196 10.54L11.8618 5.47009C12.0461 5.28862 12.3443 5.28862 12.5286 5.47009C12.7129 5.65156 12.7129 5.94515 12.5286 6.12663L7.37873 11.1965C7.28609 11.2877 7.16548 11.3324 7.04486 11.3324Z" fill="white"/>
</svg>