<svg xmlns="http://www.w3.org/2000/svg" preserveAspectRatio="xMidYMid meet" viewBox="0 0 16 16" fill="none">
  <path d="M10.8538 6.14625C10.9002 6.19269 10.9371 6.24783 10.9623 6.30853C10.9874 6.36923 11.0004 6.43429 11.0004 6.5C11.0004 6.56571 10.9874 6.63077 10.9623 6.69147C10.9371 6.75217 10.9002 6.80731 10.8538 6.85375L7.35375 10.3538C7.30731 10.4002 7.25217 10.4371 7.19147 10.4623C7.13077 10.4874 7.06571 10.5004 7 10.5004C6.93429 10.5004 6.86923 10.4874 6.80853 10.4623C6.74783 10.4371 6.69269 10.4002 6.64625 10.3538L5.14625 8.85375C5.05243 8.75993 4.99972 8.63268 4.99972 8.5C4.99972 8.36732 5.05243 8.24007 5.14625 8.14625C5.24007 8.05243 5.36732 7.99972 5.5 7.99972C5.63268 7.99972 5.75993 8.05243 5.85375 8.14625L7 9.29313L10.1462 6.14625C10.1927 6.09976 10.2478 6.06288 10.3085 6.03772C10.3692 6.01256 10.4343 5.99961 10.5 5.99961C10.5657 5.99961 10.6308 6.01256 10.6915 6.03772C10.7522 6.06288 10.8073 6.09976 10.8538 6.14625ZM14 3V13C14 13.2652 13.8946 13.5196 13.7071 13.7071C13.5196 13.8946 13.2652 14 13 14H3C2.73478 14 2.48043 13.8946 2.29289 13.7071C2.10536 13.5196 2 13.2652 2 13V3C2 2.73478 2.10536 2.48043 2.29289 2.29289C2.48043 2.10536 2.73478 2 3 2H13C13.2652 2 13.5196 2.10536 13.7071 2.29289C13.8946 2.48043 14 2.73478 14 3ZM13 13V3H3V13H13Z" fill="#6F6C7D"/>
</svg>