<svg xmlns="http://www.w3.org/2000/svg" width="18" height="18" viewBox="0 0 18 18" fill="none">
    <path d="M14.6249 10.125C14.6264 10.3543 14.5567 10.5785 14.4255 10.7666C14.2943 10.9547 14.108 11.0976 13.8923 11.1755L10.2606 12.5114L8.9247 16.1402C8.84558 16.3552 8.70245 16.5406 8.51461 16.6717C8.32676 16.8027 8.10325 16.8729 7.87423 16.8729C7.6452 16.8729 7.42169 16.8027 7.23385 16.6717C7.04601 16.5406 6.90287 16.3552 6.82376 16.1402L5.4843 12.5156L1.85477 11.1797C1.63985 11.1006 1.45436 10.9574 1.32334 10.7696C1.19232 10.5818 1.12207 10.3582 1.12207 10.1292C1.12207 9.9002 1.19232 9.67668 1.32334 9.48884C1.45436 9.301 1.63985 9.15786 1.85477 9.07875L5.48641 7.74281L6.82235 4.11398C6.90146 3.89906 7.0446 3.71357 7.23244 3.58255C7.42029 3.45153 7.6438 3.38128 7.87282 3.38128C8.10184 3.38128 8.32536 3.45153 8.5132 3.58255C8.70104 3.71357 8.84418 3.89906 8.92329 4.11398L10.2592 7.74563L13.8881 9.08156C14.1034 9.15836 14.2898 9.29982 14.4217 9.4866C14.5536 9.67338 14.6246 9.89634 14.6249 10.125ZM10.6874 3.375H11.8124V4.5C11.8124 4.64918 11.8717 4.79226 11.9772 4.89775C12.0827 5.00324 12.2257 5.0625 12.3749 5.0625C12.5241 5.0625 12.6672 5.00324 12.7727 4.89775C12.8782 4.79226 12.9374 4.64918 12.9374 4.5V3.375H14.0624C14.2116 3.375 14.3547 3.31574 14.4602 3.21025C14.5657 3.10476 14.6249 2.96168 14.6249 2.8125C14.6249 2.66332 14.5657 2.52024 14.4602 2.41475C14.3547 2.30926 14.2116 2.25 14.0624 2.25H12.9374V1.125C12.9374 0.975816 12.8782 0.832742 12.7727 0.727252C12.6672 0.621763 12.5241 0.5625 12.3749 0.5625C12.2257 0.5625 12.0827 0.621763 11.9772 0.727252C11.8717 0.832742 11.8124 0.975816 11.8124 1.125V2.25H10.6874C10.5382 2.25 10.3952 2.30926 10.2897 2.41475C10.1842 2.52024 10.1249 2.66332 10.1249 2.8125C10.1249 2.96168 10.1842 3.10476 10.2897 3.21025C10.3952 3.31574 10.5382 3.375 10.6874 3.375ZM16.8749 5.625H16.3124V5.0625C16.3124 4.91332 16.2532 4.77024 16.1477 4.66475C16.0422 4.55926 15.8991 4.5 15.7499 4.5C15.6007 4.5 15.4577 4.55926 15.3522 4.66475C15.2467 4.77024 15.1874 4.91332 15.1874 5.0625V5.625H14.6249C14.4757 5.625 14.3327 5.68426 14.2272 5.78975C14.1217 5.89524 14.0624 6.03832 14.0624 6.1875C14.0624 6.33668 14.1217 6.47976 14.2272 6.58525C14.3327 6.69074 14.4757 6.75 14.6249 6.75H15.1874V7.3125C15.1874 7.46168 15.2467 7.60476 15.3522 7.71025C15.4577 7.81574 15.6007 7.875 15.7499 7.875C15.8991 7.875 16.0422 7.81574 16.1477 7.71025C16.2532 7.60476 16.3124 7.46168 16.3124 7.3125V6.75H16.8749C17.0241 6.75 17.1672 6.69074 17.2727 6.58525C17.3782 6.47976 17.4374 6.33668 17.4374 6.1875C17.4374 6.03832 17.3782 5.89524 17.2727 5.78975C17.1672 5.68426 17.0241 5.625 16.8749 5.625Z" fill="#6E4EFB"/>
</svg>