<svg xmlns="http://www.w3.org/2000/svg"  preserveAspectRatio="xMidYMid meet" viewBox="0 0 12 13" fill="none">
    <path d="M6 11.375C6.96418 11.375 7.90671 11.0891 8.7084 10.5534C9.51009 10.0177 10.1349 9.25637 10.5039 8.36558C10.8729 7.47479 10.9694 6.49459 10.7813 5.54893C10.5932 4.60328 10.1289 3.73464 9.44714 3.05285C8.76536 2.37107 7.89672 1.90677 6.95106 1.71867C6.00541 1.53057 5.02521 1.62711 4.13442 1.99609C3.24363 2.36506 2.48226 2.9899 1.94658 3.79159C1.41091 4.59328 1.125 5.53582 1.125 6.5C1.12636 7.79251 1.64042 9.03169 2.55436 9.94564C3.4683 10.8596 4.70749 11.3736 6 11.375ZM6 2.375C6.81585 2.375 7.61337 2.61693 8.29173 3.07019C8.97008 3.52345 9.49879 4.16769 9.811 4.92143C10.1232 5.67518 10.2049 6.50458 10.0457 7.30475C9.88657 8.10492 9.49371 8.83992 8.91681 9.41682C8.33992 9.99371 7.60492 10.3866 6.80475 10.5457C6.00457 10.7049 5.17517 10.6232 4.42143 10.311C3.66768 9.99879 3.02345 9.47008 2.57019 8.79173C2.11693 8.11337 1.875 7.31585 1.875 6.5C1.87624 5.40636 2.31123 4.35787 3.08455 3.58455C3.85787 2.81123 4.90636 2.37624 6 2.375ZM6.375 6.125L6.375 8.75C6.375 8.84946 6.33549 8.94484 6.26516 9.01516C6.19484 9.08549 6.09945 9.125 6 9.125C5.90054 9.125 5.80516 9.08549 5.73483 9.01516C5.66451 8.94484 5.625 8.84946 5.625 8.75L5.625 6.125C5.625 6.02554 5.66451 5.93016 5.73483 5.85983C5.80516 5.78951 5.90054 5.75 6 5.75C6.09945 5.75 6.19484 5.78951 6.26516 5.85983C6.33549 5.93016 6.375 6.02554 6.375 6.125ZM5.4375 4.4375C5.4375 4.32625 5.47049 4.21749 5.5323 4.12499C5.59411 4.03249 5.68196 3.96039 5.78474 3.91782C5.88752 3.87524 6.00062 3.8641 6.10974 3.88581C6.21885 3.90751 6.31908 3.96109 6.39775 4.03975C6.47641 4.11842 6.52999 4.21865 6.55169 4.32776C6.57339 4.43688 6.56226 4.54998 6.51968 4.65276C6.47711 4.75554 6.40501 4.84339 6.31251 4.9052C6.22 4.96701 6.11125 5 6 5C5.85081 5 5.70774 4.94074 5.60225 4.83525C5.49676 4.72976 5.4375 4.58668 5.4375 4.4375Z" fill="#343330"/>
</svg>