 <svg
                  aria-labelledby="cvcIconTitle"
                  fill="var(--colorIconCardCvc)"
                  height="20"
                  width="30"
                  role="img"
                  viewBox="0 0 30 20"
                  xmlns="http://www.w3.org/2000/svg"
                >
                  <g opacity="0.74">
                    <path
                      clip-rule="evenodd"
                      d="M25.2061 0.00488281C27.3194 0.112115 29 1.85996 29 4V11.3291C28.5428 11.0304 28.0336 10.8304 27.5 10.7188V8H1.5V16C1.5 17.3807 2.61929 18.5 4 18.5H10.1104V20H4L3.79395 19.9951C1.7488 19.8913 0.108652 18.2512 0.00488281 16.2061L0 16V4C0 1.85996 1.68056 0.112115 3.79395 0.00488281L4 0H25L25.2061 0.00488281ZM4 1.5C2.61929 1.5 1.5 2.61929 1.5 4V5H27.5V4C27.5 2.61929 26.3807 1.5 25 1.5H4Z"
                      fill-rule="evenodd"
                    ></path>
                    <path d="M27.5 12.7988C28.3058 13.1128 28.7725 13.7946 28.7725 14.6406C28.7722 15.4002 28.2721 15.9399 27.6523 16.1699C28.1601 16.3319 28.6072 16.6732 28.8086 17.2207C28.3597 18.6222 27.1605 19.6862 25.6826 19.9404C24.8389 19.7707 24.1662 19.2842 23.834 18.5H25C25.0914 18.5 25.1816 18.4939 25.2705 18.4844C25.5434 18.7862 25.9284 18.9501 26.3623 18.9502C27.142 18.9501 27.6922 18.5297 27.6924 17.79C27.6923 17.4212 27.5473 17.1544 27.2998 16.9795C27.4281 16.6786 27.5 16.3478 27.5 16V15.0527C27.5397 14.9481 27.5625 14.8309 27.5625 14.7002C27.5625 14.5657 27.5399 14.4422 27.5 14.3311V12.7988Z"></path>
                    <path d="M15.2207 18.5V18.8301H16.8799V19.9004H12.1104V18.8301H13.9902V18.5H15.2207Z"></path>
                    <path d="M19.9307 18.5L19.5762 18.7803H22.8369V19.9004H17.8164V18.8604L18.2549 18.5H19.9307Z"></path>
                  </g>
                  <path d="M26.3822 20.01C24.9722 20.01 23.8522 19.25 23.6422 17.81L24.8722 17.58C24.9922 18.45 25.6022 18.95 26.3622 18.95C27.1422 18.95 27.6922 18.53 27.6922 17.79C27.6922 17.05 27.1122 16.72 26.2822 16.72H25.5722V15.67H26.3022C27.0622 15.67 27.5622 15.34 27.5622 14.7C27.5622 14.07 27.1022 13.68 26.3922 13.68C25.6422 13.68 25.1322 14.18 24.9822 14.92L23.8122 14.76C24.0022 13.55 24.9822 12.61 26.4322 12.61C27.8822 12.61 28.7722 13.47 28.7722 14.64C28.7722 15.4 28.2722 15.94 27.6522 16.17C28.3422 16.39 28.9222 16.94 28.9222 17.89C28.9222 19.04 27.9522 20.01 26.3822 20.01Z"></path>
                  <path d="M17.8161 18.86L19.6161 17.38C20.5961 16.58 21.4761 15.87 21.4761 14.97C21.4761 14.23 21.0161 13.7 20.2561 13.7C19.5061 13.7 19.0161 14.29 19.0161 15C19.0161 15.23 19.0561 15.46 19.1361 15.68H17.9461C17.8461 15.39 17.8161 15.2 17.8161 14.93C17.8161 13.58 18.9261 12.61 20.2861 12.61C21.7861 12.61 22.7461 13.54 22.7461 14.89C22.7461 16.16 21.7861 17.03 20.7761 17.83L19.5761 18.78H22.8361V19.9H17.8161V18.86Z"></path>
                  <path d="M14.25 12.67H15.22V18.83H16.88V19.9H12.11V18.83H13.99V14.92H12.15V13.99L12.88 13.93C13.78 13.86 14.18 13.58 14.25 12.67Z"></path>
                </svg>