<svg preserveAspectRatio="xMidYMid meet" viewBox="0 0 20 20" fill="none" xmlns="http://www.w3.org/2000/svg">
    <rect x="0.5" y="0.5" width="19" height="19" rx="9.5" fill="white"/>
    <rect x="0.5" y="0.5" width="19" height="19" rx="9.5" stroke="#DFDEE6"/>
    <path d="M13.6405 13.1097C13.6754 13.1446 13.703 13.1859 13.7219 13.2314C13.7407 13.277 13.7504 13.3258 13.7504 13.375C13.7504 13.4243 13.7407 13.4731 13.7219 13.5186C13.703 13.5641 13.6754 13.6055 13.6405 13.6403C13.6057 13.6752 13.5643 13.7028 13.5188 13.7217C13.4733 13.7405 13.4245 13.7502 13.3752 13.7502C13.3259 13.7502 13.2771 13.7405 13.2316 13.7217C13.1861 13.7028 13.1447 13.6752 13.1099 13.6403L10.0002 10.5302L6.89052 13.6403C6.82016 13.7107 6.72472 13.7502 6.62521 13.7502C6.5257 13.7502 6.43026 13.7107 6.3599 13.6403C6.28953 13.57 6.25 13.4745 6.25 13.375C6.25 13.2755 6.28953 13.1801 6.3599 13.1097L9.47005 10L6.3599 6.89034C6.28953 6.81997 6.25 6.72454 6.25 6.62503C6.25 6.52551 6.28953 6.43008 6.3599 6.35971C6.43026 6.28935 6.5257 6.24982 6.62521 6.24982C6.72472 6.24982 6.82016 6.28935 6.89052 6.35971L10.0002 9.46987L13.1099 6.35971C13.1803 6.28935 13.2757 6.24982 13.3752 6.24982C13.4747 6.24982 13.5702 6.28935 13.6405 6.35971C13.7109 6.43008 13.7504 6.52551 13.7504 6.62503C13.7504 6.72454 13.7109 6.81997 13.6405 6.89034L10.5304 10L13.6405 13.1097Z"
          fill="#7D7D7F"/>
</svg>
