<svg xmlns="http://www.w3.org/2000/svg" preserveAspectRatio="xMidYMid meet" viewBox="0 0 20 20" fill="none">
    <path d="M18.4999 14.6945L11.6678 2.82968C11.4971 2.53899 11.2534 2.29797 10.9608 2.13051C10.6682 1.96304 10.337 1.87494 9.99986 1.87494C9.66275 1.87494 9.33149 1.96304 9.03892 2.13051C8.74635 2.29797 8.50262 2.53899 8.33189 2.82968L1.49986 14.6945C1.33559 14.9757 1.24902 15.2955 1.24902 15.6211C1.24902 15.9467 1.33559 16.2665 1.49986 16.5476C1.6684 16.8401 1.91171 17.0824 2.20483 17.2498C2.49795 17.4171 2.83032 17.5035 3.16783 17.5H16.8319C17.1691 17.5032 17.5012 17.4167 17.794 17.2494C18.0868 17.082 18.3299 16.8399 18.4983 16.5476C18.6628 16.2666 18.7496 15.9469 18.7499 15.6213C18.7502 15.2957 18.6639 14.9758 18.4999 14.6945ZM9.37486 8.12499C9.37486 7.95923 9.44071 7.80026 9.55792 7.68305C9.67513 7.56584 9.8341 7.49999 9.99986 7.49999C10.1656 7.49999 10.3246 7.56584 10.4418 7.68305C10.559 7.80026 10.6249 7.95923 10.6249 8.12499V11.25C10.6249 11.4158 10.559 11.5747 10.4418 11.6919C10.3246 11.8091 10.1656 11.875 9.99986 11.875C9.8341 11.875 9.67513 11.8091 9.55792 11.6919C9.44071 11.5747 9.37486 11.4158 9.37486 11.25V8.12499ZM9.99986 15C9.81444 15 9.63319 14.945 9.47901 14.842C9.32484 14.739 9.20468 14.5926 9.13372 14.4213C9.06277 14.2499 9.0442 14.0615 9.08038 13.8796C9.11655 13.6977 9.20584 13.5307 9.33695 13.3996C9.46806 13.2685 9.63511 13.1792 9.81696 13.143C9.99882 13.1068 10.1873 13.1254 10.3586 13.1964C10.5299 13.2673 10.6763 13.3875 10.7794 13.5416C10.8824 13.6958 10.9374 13.8771 10.9374 14.0625C10.9374 14.3111 10.8386 14.5496 10.6628 14.7254C10.487 14.9012 10.2485 15 9.99986 15Z" fill="#E26E6E"/>
</svg>