<svg xmlns="http://www.w3.org/2000/svg" width="20" height="20" viewBox="0 0 20 20" fill="none">
    <path d="M17.7595 2.24083C17.6023 2.08375 17.4061 1.97141 17.1911 1.91538C16.976 1.85935 16.7499 1.86167 16.5361 1.92208H16.5243L1.52903 6.47208C1.28494 6.54228 1.06802 6.68517 0.907157 6.88173C0.746298 7.07829 0.649134 7.31919 0.628603 7.57235C0.608072 7.82551 0.665148 8.07892 0.792232 8.29883C0.919316 8.51874 1.11038 8.69472 1.33997 8.80333L8.02903 11.9713L11.197 18.6604C11.297 18.8746 11.4562 19.0557 11.6559 19.1824C11.8555 19.309 12.0872 19.3759 12.3236 19.3752C12.3595 19.3752 12.3954 19.3736 12.4314 19.3705C12.6836 19.3501 12.9236 19.253 13.1191 19.0923C13.3146 18.9315 13.4563 18.7149 13.5251 18.4713L18.072 3.47599C18.072 3.47208 18.072 3.46818 18.072 3.46427C18.1332 3.25096 18.1365 3.0252 18.0816 2.81019C18.0267 2.59518 17.9155 2.39866 17.7595 2.24083ZM12.3306 18.1135L12.3267 18.1244L9.25169 11.633L12.9423 7.94161C13.0546 7.82345 13.1162 7.66611 13.1142 7.50313C13.1121 7.34015 13.0464 7.18444 12.9311 7.06919C12.8159 6.95394 12.6602 6.88827 12.4972 6.88618C12.3342 6.8841 12.1769 6.94576 12.0587 7.05802L8.36731 10.7486L1.87513 7.67365H1.88607L16.8751 3.12521L12.3306 18.1135Z"
          fill="#343330"/>
</svg>
