<svg xmlns="http://www.w3.org/2000/svg" width="20" height="20" viewBox="0 0 20 20" fill="none">
    <path d="M13.2532 10.4946L16.7508 8.97427C16.9812 8.8721 17.1754 8.70267 17.3078 8.4882C17.4402 8.27374 17.5046 8.02426 17.4927 7.7725C17.4808 7.52074 17.3931 7.27846 17.241 7.07746C17.089 6.87645 16.8797 6.7261 16.6407 6.64614L4.13443 2.56255C3.91571 2.49245 3.6819 2.48396 3.45867 2.53803C3.23545 2.59209 3.03143 2.70661 2.86902 2.86902C2.70661 3.03143 2.59209 3.23545 2.53803 3.45867C2.48396 3.6819 2.49245 3.91571 2.56255 4.13443L6.64614 16.6407C6.7232 16.882 6.8725 17.0938 7.07384 17.2475C7.27518 17.4012 7.51886 17.4893 7.77193 17.5001H7.83364C8.0763 17.5008 8.31383 17.4302 8.51665 17.297C8.71947 17.1638 8.87862 16.9738 8.97427 16.7508L10.4946 13.2532L14.3751 17.1336C14.4911 17.2497 14.6289 17.3418 14.7806 17.4047C14.9323 17.4675 15.0949 17.4999 15.259 17.4999C15.4232 17.4999 15.5858 17.4675 15.7375 17.4047C15.8891 17.3418 16.0269 17.2497 16.143 17.1336L17.1336 16.143C17.2497 16.0269 17.3418 15.8891 17.4047 15.7375C17.4675 15.5858 17.4999 15.4232 17.4999 15.259C17.4999 15.0949 17.4675 14.9323 17.4047 14.7806C17.3418 14.6289 17.2497 14.4911 17.1336 14.3751L13.2532 10.4946ZM15.2586 16.2501L11.379 12.3696C11.2349 12.2253 11.0577 12.1185 10.8629 12.0584C10.668 11.9983 10.4615 11.9868 10.2612 12.0249C10.0609 12.0629 9.87292 12.1494 9.7137 12.2767C9.55448 12.4041 9.42883 12.5685 9.34771 12.7555L7.83052 16.2438L3.75005 3.75005L16.2399 7.82896L12.7524 9.34536C12.5653 9.42649 12.401 9.55214 12.2736 9.71135C12.1463 9.87057 12.0598 10.0585 12.0217 10.2588C11.9837 10.4591 11.9952 10.6657 12.0553 10.8605C12.1154 11.0554 12.2222 11.2325 12.3665 11.3766L16.2501 15.2586L15.2586 16.2501ZM6.87505 1.87505V1.25005C6.87505 1.08429 6.9409 0.92532 7.05811 0.80811C7.17532 0.690899 7.33429 0.625051 7.50005 0.625051C7.66581 0.625051 7.82478 0.690899 7.94199 0.80811C8.0592 0.92532 8.12505 1.08429 8.12505 1.25005V1.87505C8.12505 2.04081 8.0592 2.19978 7.94199 2.31699C7.82478 2.4342 7.66581 2.50005 7.50005 2.50005C7.33429 2.50005 7.17532 2.4342 7.05811 2.31699C6.9409 2.19978 6.87505 2.04081 6.87505 1.87505ZM0.625051 7.50005C0.625051 7.33429 0.690899 7.17532 0.80811 7.05811C0.92532 6.9409 1.08429 6.87505 1.25005 6.87505H1.87505C2.04081 6.87505 2.19978 6.9409 2.31699 7.05811C2.4342 7.17532 2.50005 7.33429 2.50005 7.50005C2.50005 7.66581 2.4342 7.82478 2.31699 7.94199C2.19978 8.0592 2.04081 8.12505 1.87505 8.12505H1.25005C1.08429 8.12505 0.92532 8.0592 0.80811 7.94199C0.690899 7.82478 0.625051 7.66581 0.625051 7.50005ZM9.44146 2.22036L10.0665 0.970364C10.1406 0.822112 10.2707 0.709399 10.4279 0.657021C10.5852 0.604643 10.7569 0.616889 10.9051 0.691067C11.0534 0.765245 11.1661 0.895277 11.2185 1.05256C11.2709 1.20984 11.2586 1.38149 11.1844 1.52974L10.5594 2.77974C10.5227 2.85315 10.4719 2.9186 10.4098 2.97236C10.3478 3.02613 10.2758 3.06715 10.1979 3.09308C10.1201 3.11902 10.0378 3.12936 9.95596 3.12352C9.87408 3.11768 9.79416 3.09576 9.72075 3.05904C9.64735 3.02231 9.58189 2.97148 9.52813 2.90945C9.47437 2.84743 9.43335 2.77542 9.40741 2.69754C9.38148 2.61967 9.37113 2.53744 9.37698 2.45557C9.38282 2.37369 9.40473 2.29377 9.44146 2.22036ZM3.05943 9.72036C3.09621 9.79381 3.11815 9.87379 3.124 9.95572C3.12985 10.0377 3.11949 10.1199 3.09352 10.1979C3.06754 10.2758 3.02646 10.3478 2.97262 10.4099C2.91878 10.4719 2.85323 10.5227 2.77974 10.5594L1.52974 11.1844C1.38149 11.2586 1.20984 11.2709 1.05256 11.2185C0.895277 11.1661 0.765245 11.0534 0.691067 10.9051C0.616889 10.7569 0.604643 10.5852 0.657021 10.4279C0.709399 10.2707 0.822112 10.1406 0.970364 10.0665L2.22036 9.44146C2.29376 9.40465 2.3737 9.38266 2.4556 9.37676C2.5375 9.37085 2.61977 9.38114 2.69769 9.40705C2.77561 9.43295 2.84766 9.47395 2.90973 9.52771C2.9718 9.58147 3.02267 9.64694 3.05943 9.72036Z"
          fill="#343330"/>
</svg>
