<svg xmlns="http://www.w3.org/2000/svg" preserveAspectRatio="xMidYMid meet" viewBox="0 0 20 21" fill="none">
    <path d="M16.875 4.25H13.75V3.625C13.75 3.12772 13.5525 2.65081 13.2008 2.29917C12.8492 1.94754 12.3723 1.75 11.875 1.75H8.125C7.62772 1.75 7.15081 1.94754 6.79917 2.29917C6.44754 2.65081 6.25 3.12772 6.25 3.625V4.25H3.125C2.95924 4.25 2.80027 4.31585 2.68306 4.43306C2.56585 4.55027 2.5 4.70924 2.5 4.875C2.5 5.04076 2.56585 5.19973 2.68306 5.31694C2.80027 5.43415 2.95924 5.5 3.125 5.5H3.75V16.75C3.75 17.0815 3.8817 17.3995 4.11612 17.6339C4.35054 17.8683 4.66848 18 5 18H15C15.3315 18 15.6495 17.8683 15.8839 17.6339C16.1183 17.3995 16.25 17.0815 16.25 16.75V5.5H16.875C17.0408 5.5 17.1997 5.43415 17.3169 5.31694C17.4342 5.19973 17.5 5.04076 17.5 4.875C17.5 4.70924 17.4342 4.55027 17.3169 4.43306C17.1997 4.31585 17.0408 4.25 16.875 4.25ZM7.5 3.625C7.5 3.45924 7.56585 3.30027 7.68306 3.18306C7.80027 3.06585 7.95924 3 8.125 3H11.875C12.0408 3 12.1997 3.06585 12.3169 3.18306C12.4342 3.30027 12.5 3.45924 12.5 3.625V4.25H7.5V3.625ZM15 16.75H5V5.5H15V16.75ZM8.75 8.625V13.625C8.75 13.7908 8.68415 13.9497 8.56694 14.0669C8.44973 14.1842 8.29076 14.25 8.125 14.25C7.95924 14.25 7.80027 14.1842 7.68306 14.0669C7.56585 13.9497 7.5 13.7908 7.5 13.625V8.625C7.5 8.45924 7.56585 8.30027 7.68306 8.18306C7.80027 8.06585 7.95924 8 8.125 8C8.29076 8 8.44973 8.06585 8.56694 8.18306C8.68415 8.30027 8.75 8.45924 8.75 8.625ZM12.5 8.625V13.625C12.5 13.7908 12.4342 13.9497 12.3169 14.0669C12.1997 14.1842 12.0408 14.25 11.875 14.25C11.7092 14.25 11.5503 14.1842 11.4331 14.0669C11.3158 13.9497 11.25 13.7908 11.25 13.625V8.625C11.25 8.45924 11.3158 8.30027 11.4331 8.18306C11.5503 8.06585 11.7092 8 11.875 8C12.0408 8 12.1997 8.06585 12.3169 8.18306C12.4342 8.30027 12.5 8.45924 12.5 8.625Z" fill="#E26E6E"/>
</svg>