<svg xmlns="http://www.w3.org/2000/svg" preserveAspectRatio="xMidYMid meet" viewBox="0 0 120 93" fill="none">
    <path fill-rule="evenodd" clip-rule="evenodd"
          d="M46.6667 78.8136C64.5769 78.8136 79.096 64.3463 79.096 46.5C79.096 28.6537 64.5769 14.1864 46.6667 14.1864C28.7564 14.1864 14.2373 28.6537 14.2373 46.5C14.2373 64.3463 28.7564 78.8136 46.6667 78.8136ZM46.6667 93C72.4399 93 93.3333 72.1812 93.3333 46.5C93.3333 20.8188 72.4399 0 46.6667 0C20.8934 0 0 20.8188 0 46.5C0 72.1812 20.8934 93 46.6667 93ZM82.2222 71.7954C97.4699 71.7954 109.831 59.4789 109.831 44.2857C109.831 29.0925 97.4699 16.776 82.2222 16.776C66.9746 16.776 54.6139 29.0925 54.6139 44.2857C54.6139 59.4789 66.9746 71.7954 82.2222 71.7954ZM82.2222 81.9286C103.086 81.9286 120 65.0753 120 44.2857C120 23.4961 103.086 6.64286 82.2222 6.64286C61.3581 6.64286 44.4444 23.4961 44.4444 44.2857C44.4444 65.0753 61.3581 81.9286 82.2222 81.9286Z"
          fill="#F8F8FA"/>
</svg>
