<svg xmlns="http://www.w3.org/2000/svg" preserveAspectRatio="xMidYMid meet" viewBox="0 0 16 16" fill="none">
  <path d="M13.4869 7.38507C13.468 7.30494 13.4295 7.23071 13.375 7.169C13.3205 7.10729 13.2516 7.06 13.1744 7.03132L9.57377 5.6807L10.49 1.09757C10.5108 0.991087 10.4963 0.880741 10.4489 0.783187C10.4014 0.685633 10.3235 0.606165 10.2269 0.556774C10.1303 0.507384 10.0202 0.49075 9.91337 0.509384C9.80649 0.528018 9.70858 0.580908 9.6344 0.660074L2.6344 8.16007C2.57754 8.21998 2.53641 8.29304 2.51469 8.37272C2.49296 8.4524 2.4913 8.53622 2.50987 8.61669C2.52845 8.69717 2.56666 8.77179 2.62111 8.83389C2.67556 8.89599 2.74454 8.94364 2.8219 8.97257L6.42377 10.3232L5.51002 14.9013C5.48927 15.0078 5.50372 15.1182 5.55119 15.2157C5.59866 15.3133 5.67657 15.3927 5.77316 15.4421C5.86976 15.4915 5.97979 15.5081 6.08667 15.4895C6.19355 15.4709 6.29146 15.418 6.36565 15.3388L13.3656 7.83882C13.4215 7.7789 13.4617 7.70619 13.4829 7.62707C13.504 7.54795 13.5054 7.46485 13.4869 7.38507ZM6.83565 13.3744L7.49002 10.1007C7.51344 9.98459 7.49488 9.86394 7.43765 9.76024C7.38042 9.65654 7.28824 9.57653 7.17752 9.53445L3.87502 8.29382L9.16377 2.62757L8.51002 5.90132C8.4866 6.01743 8.50516 6.13808 8.56239 6.24178C8.61962 6.34548 8.7118 6.4255 8.82252 6.46757L12.1225 7.70507L6.83565 13.3744Z" fill="#363440"/>
</svg>