<svg xmlns="http://www.w3.org/2000/svg" preserveAspectRatio="xMidYMid meet" viewBox="0 0 20 20" fill="none">
    <path d="M17.7594 6.23184L14.268 2.74122C14.1519 2.62511 14.0141 2.53301 13.8624 2.47018C13.7107 2.40734 13.5482 2.375 13.384 2.375C13.2198 2.375 13.0572 2.40734 12.9056 2.47018C12.7539 2.53301 12.6161 2.62511 12.5 2.74122L2.86641 12.3748C2.74983 12.4905 2.65741 12.6281 2.59451 12.7798C2.5316 12.9315 2.49948 13.0942 2.50001 13.2584V16.7498C2.50001 17.0813 2.6317 17.3993 2.86612 17.6337C3.10054 17.8681 3.41849 17.9998 3.75001 17.9998H16.875C17.0408 17.9998 17.1997 17.934 17.3169 17.8168C17.4342 17.6995 17.5 17.5406 17.5 17.3748C17.5 17.2091 17.4342 17.0501 17.3169 16.9329C17.1997 16.8157 17.0408 16.7498 16.875 16.7498H9.00938L17.7594 7.99981C17.8755 7.88373 17.9676 7.74592 18.0304 7.59425C18.0933 7.44257 18.1256 7.28 18.1256 7.11583C18.1256 6.95165 18.0933 6.78908 18.0304 6.63741C17.9676 6.48573 17.8755 6.34792 17.7594 6.23184ZM10.625 6.3834L11.9289 7.68731L5.31251 14.3037L4.0086 12.9998L10.625 6.3834ZM3.75001 16.7498V14.5084L5.99141 16.7498H3.75001ZM7.50001 16.4912L6.19688 15.1873L12.8125 8.5709L14.1164 9.87481L7.50001 16.4912ZM15 8.99122L11.5094 5.49981L13.3844 3.62481L16.875 7.11622L15 8.99122Z"
          fill="#343330"/>
</svg>
