<svg xmlns="http://www.w3.org/2000/svg" preserveAspectRatio="xMidYMid meet" viewBox="0 0 20 20" fill="none">
    <path d="M16.3844 5.85684L11.643 1.11622C11.5269 1.00011 11.3891 0.908014 11.2374 0.845178C11.0858 0.782342 10.9232 0.75 10.759 0.75C10.5949 0.75 10.4323 0.782342 10.2806 0.845178C10.1289 0.908014 9.99112 1.00011 9.87504 1.11622L5.6852 5.31934C4.85239 5.0584 2.95083 4.74356 0.966451 6.3459C0.829674 6.45589 0.717591 6.59344 0.637498 6.74961C0.557405 6.90579 0.511098 7.07707 0.501591 7.25233C0.492084 7.42758 0.51959 7.60287 0.582319 7.76679C0.645047 7.93071 0.741593 8.07958 0.86567 8.20372L4.64067 11.9772L1.30786 15.3076C1.19058 15.4249 1.1247 15.584 1.1247 15.7498C1.1247 15.9157 1.19058 16.0747 1.30786 16.192C1.42513 16.3093 1.58419 16.3752 1.75004 16.3752C1.9159 16.3752 2.07496 16.3093 2.19223 16.192L5.5227 12.8592L9.29536 16.6318C9.41134 16.7483 9.54915 16.8408 9.7009 16.9039C9.85265 16.967 10.0154 16.9996 10.1797 16.9998C10.2094 16.9998 10.2383 16.9998 10.268 16.9998C10.4462 16.9875 10.6196 16.9369 10.7766 16.8516C10.9335 16.7662 11.0702 16.6481 11.1774 16.5053C12.7118 14.4662 12.5641 12.8084 12.2079 11.8178L16.3852 7.62481C16.5013 7.50868 16.5933 7.37083 16.6561 7.21913C16.7188 7.06742 16.7511 6.90484 16.751 6.74066C16.751 6.57649 16.7185 6.41393 16.6556 6.26229C16.5927 6.11064 16.5006 5.97287 16.3844 5.85684ZM15.5 6.74122L11.0258 11.2303C10.9334 11.323 10.8725 11.4424 10.8516 11.5717C10.8307 11.7009 10.8509 11.8335 10.9094 11.9506C11.6485 13.4295 10.7688 14.9654 10.1797 15.749L1.75004 7.31856C2.69379 6.55762 3.59692 6.35684 4.28754 6.35684C4.72577 6.35086 5.16038 6.43683 5.56333 6.60919C5.68088 6.66802 5.814 6.68829 5.94374 6.66711C6.07348 6.64593 6.19324 6.58438 6.28598 6.49122L10.7594 1.99981L15.5 6.74044V6.74122Z"
          fill="#343330"/>
</svg>
