<svg xmlns="http://www.w3.org/2000/svg" preserveAspectRatio="xMidYMid meet" viewBox="0 0 16 16" fill="none">
    <path d="M14 8.00028C14 8.13289 13.9473 8.26006 13.8536 8.35383C13.7598 8.4476 13.6326 8.50028 13.5 8.50028H3.7069L7.35378 12.1465C7.40023 12.193 7.43708 12.2481 7.46222 12.3088C7.48737 12.3695 7.50031 12.4346 7.50031 12.5003C7.50031 12.566 7.48737 12.631 7.46222 12.6917C7.43708 12.7524 7.40023 12.8076 7.35378 12.854C7.30732 12.9005 7.25217 12.9373 7.19148 12.9625C7.13078 12.9876 7.06572 13.0006 7.00003 13.0006C6.93433 13.0006 6.86928 12.9876 6.80858 12.9625C6.74788 12.9373 6.69273 12.9005 6.64628 12.854L2.14628 8.35403C2.09979 8.30759 2.06291 8.25245 2.03775 8.19175C2.01259 8.13105 1.99963 8.06599 1.99963 8.00028C1.99963 7.93457 2.01259 7.86951 2.03775 7.80881C2.06291 7.74811 2.09979 7.69296 2.14628 7.64653L6.64628 3.14653C6.7401 3.05271 6.86735 3 7.00003 3C7.13271 3 7.25996 3.05271 7.35378 3.14653C7.4476 3.24035 7.50031 3.3676 7.50031 3.50028C7.50031 3.63296 7.4476 3.76021 7.35378 3.85403L3.7069 7.50028H13.5C13.6326 7.50028 13.7598 7.55296 13.8536 7.64672C13.9473 7.74049 14 7.86767 14 8.00028Z"
          fill="#363440"/>
</svg>
