<svg xmlns="http://www.w3.org/2000/svg" preserveAspectRatio="xMidYMid meet" viewBox="0 0 20 20" fill="none">
    <path d="M17.942 6.06729L7.94205 16.0673C7.884 16.1254 7.81507 16.1715 7.7392 16.203C7.66332 16.2344 7.58199 16.2506 7.49986 16.2506C7.41772 16.2506 7.3364 16.2344 7.26052 16.203C7.18465 16.1715 7.11572 16.1254 7.05767 16.0673L2.68267 11.6923C2.5654 11.575 2.49951 11.416 2.49951 11.2501C2.49951 11.0843 2.5654 10.9252 2.68267 10.8079C2.79995 10.6906 2.95901 10.6248 3.12486 10.6248C3.29071 10.6248 3.44977 10.6906 3.56705 10.8079L7.49986 14.7415L17.0577 5.18292C17.1749 5.06564 17.334 4.99976 17.4999 4.99976C17.6657 4.99976 17.8248 5.06564 17.942 5.18292C18.0593 5.30019 18.1252 5.45925 18.1252 5.6251C18.1252 5.79096 18.0593 5.95002 17.942 6.06729Z"
          fill="#6E4EFB"/>
</svg>
