<svg xmlns="http://www.w3.org/2000/svg" preserveAspectRatio="xMidYMid meet" viewBox="0 0 16 16" fill="none">
    <path d="M15 13.0002H14V6.00016C14 5.73495 13.8946 5.48059 13.7071 5.29306C13.5196 5.10552 13.2652 5.00016 13 5.00016H9V2.00016C9.00012 1.81908 8.95106 1.64136 8.85807 1.48597C8.76507 1.33059 8.63163 1.20338 8.47199 1.11791C8.31234 1.03244 8.13248 0.99192 7.95161 1.00068C7.77073 1.00945 7.59564 1.06716 7.445 1.16766L2.445 4.50016C2.30784 4.59167 2.19543 4.71568 2.11779 4.86115C2.04015 5.00662 1.99969 5.16902 2 5.33391V13.0002H1C0.867392 13.0002 0.740215 13.0528 0.646447 13.1466C0.552678 13.2404 0.5 13.3676 0.5 13.5002C0.5 13.6328 0.552678 13.7599 0.646447 13.8537C0.740215 13.9475 0.867392 14.0002 1 14.0002H15C15.1326 14.0002 15.2598 13.9475 15.3536 13.8537C15.4473 13.7599 15.5 13.6328 15.5 13.5002C15.5 13.3676 15.4473 13.2404 15.3536 13.1466C15.2598 13.0528 15.1326 13.0002 15 13.0002ZM13 6.00016V13.0002H9V6.00016H13ZM3 5.33391L8 2.00016V13.0002H3V5.33391ZM7 7.00016V8.00016C7 8.13277 6.94732 8.25995 6.85355 8.35372C6.75979 8.44748 6.63261 8.50016 6.5 8.50016C6.36739 8.50016 6.24021 8.44748 6.14645 8.35372C6.05268 8.25995 6 8.13277 6 8.00016V7.00016C6 6.86755 6.05268 6.74038 6.14645 6.64661C6.24021 6.55284 6.36739 6.50016 6.5 6.50016C6.63261 6.50016 6.75979 6.55284 6.85355 6.64661C6.94732 6.74038 7 6.86755 7 7.00016ZM5 7.00016V8.00016C5 8.13277 4.94732 8.25995 4.85355 8.35372C4.75979 8.44748 4.63261 8.50016 4.5 8.50016C4.36739 8.50016 4.24021 8.44748 4.14645 8.35372C4.05268 8.25995 4 8.13277 4 8.00016V7.00016C4 6.86755 4.05268 6.74038 4.14645 6.64661C4.24021 6.55284 4.36739 6.50016 4.5 6.50016C4.63261 6.50016 4.75979 6.55284 4.85355 6.64661C4.94732 6.74038 5 6.86755 5 7.00016ZM5 10.5002V11.5002C5 11.6328 4.94732 11.7599 4.85355 11.8537C4.75979 11.9475 4.63261 12.0002 4.5 12.0002C4.36739 12.0002 4.24021 11.9475 4.14645 11.8537C4.05268 11.7599 4 11.6328 4 11.5002V10.5002C4 10.3676 4.05268 10.2404 4.14645 10.1466C4.24021 10.0528 4.36739 10.0002 4.5 10.0002C4.63261 10.0002 4.75979 10.0528 4.85355 10.1466C4.94732 10.2404 5 10.3676 5 10.5002ZM7 10.5002V11.5002C7 11.6328 6.94732 11.7599 6.85355 11.8537C6.75979 11.9475 6.63261 12.0002 6.5 12.0002C6.36739 12.0002 6.24021 11.9475 6.14645 11.8537C6.05268 11.7599 6 11.6328 6 11.5002V10.5002C6 10.3676 6.05268 10.2404 6.14645 10.1466C6.24021 10.0528 6.36739 10.0002 6.5 10.0002C6.63261 10.0002 6.75979 10.0528 6.85355 10.1466C6.94732 10.2404 7 10.3676 7 10.5002Z"
          fill="#343330"/>
</svg>
