<svg xmlns="http://www.w3.org/2000/svg" reserveAspectRatio="xMidYMid meet" viewBox="0 0 16 16" fill="none">
  <path d="M12.3544 11.6481C12.4477 11.7418 12.5001 11.8687 12.5001 12.0009C12.5001 12.1332 12.4477 12.26 12.3544 12.3538C12.2863 12.4206 10.6763 14 8 14C5.66313 14 3.96688 12.6 3 11.5094V13C3 13.1326 2.94732 13.2598 2.85355 13.3536C2.75979 13.4473 2.63261 13.5 2.5 13.5C2.36739 13.5 2.24021 13.4473 2.14645 13.3536C2.05268 13.2598 2 13.1326 2 13V10C2 9.86739 2.05268 9.74021 2.14645 9.64645C2.24021 9.55268 2.36739 9.5 2.5 9.5H5.5C5.63261 9.5 5.75979 9.55268 5.85355 9.64645C5.94732 9.74021 6 9.86739 6 10C6 10.1326 5.94732 10.2598 5.85355 10.3536C5.75979 10.4473 5.63261 10.5 5.5 10.5H3.465C4.235 11.4594 5.8125 13 8 13C10.25 13 11.6337 11.6588 11.6475 11.645C11.7417 11.5517 11.869 11.4996 12.0016 11.5002C12.1341 11.5008 12.261 11.554 12.3544 11.6481ZM13.5 2.5C13.3674 2.5 13.2402 2.55268 13.1464 2.64645C13.0527 2.74021 13 2.86739 13 3V4.49062C12.0331 3.4 10.3369 2 8 2C5.32375 2 3.71375 3.57938 3.64625 3.64625C3.55226 3.7399 3.49933 3.86706 3.4991 3.99974C3.49886 4.13242 3.55135 4.25976 3.645 4.35375C3.73865 4.44774 3.86581 4.50067 3.99849 4.5009C4.13117 4.50114 4.25851 4.44865 4.3525 4.355C4.36625 4.34125 5.75 3 8 3C10.1875 3 11.765 4.54063 12.535 5.5H10.5C10.3674 5.5 10.2402 5.55268 10.1464 5.64645C10.0527 5.74021 10 5.86739 10 6C10 6.13261 10.0527 6.25979 10.1464 6.35355C10.2402 6.44732 10.3674 6.5 10.5 6.5H13.5C13.6326 6.5 13.7598 6.44732 13.8536 6.35355C13.9473 6.25979 14 6.13261 14 6V3C14 2.86739 13.9473 2.74021 13.8536 2.64645C13.7598 2.55268 13.6326 2.5 13.5 2.5Z" fill="#343330"/>
</svg>