<svg xmlns="http://www.w3.org/2000/svg" preserveAspectRatio="xMidYMid meet" viewBox="0 0 20 20" fill="none">
    <path d="M16.5813 7.04375L12.2063 2.66875C12.1184 2.58082 11.9993 2.53136 11.875 2.53125H4.375C4.08492 2.53125 3.80672 2.64648 3.6016 2.8516C3.39648 3.05672 3.28125 3.33492 3.28125 3.625V17.375C3.28125 17.6651 3.39648 17.9433 3.6016 18.1484C3.80672 18.3535 4.08492 18.4688 4.375 18.4688H15.625C15.9151 18.4688 16.1933 18.3535 16.3984 18.1484C16.6035 17.9433 16.7188 17.6651 16.7188 17.375V7.375C16.7186 7.25072 16.6692 7.13157 16.5813 7.04375ZM12.3438 4.13125L15.1188 6.90625H12.3438V4.13125ZM15.625 17.5312H4.375C4.33356 17.5312 4.29382 17.5148 4.26451 17.4855C4.23521 17.4562 4.21875 17.4164 4.21875 17.375V3.625C4.21875 3.58356 4.23521 3.54382 4.26451 3.51451C4.29382 3.48521 4.33356 3.46875 4.375 3.46875H11.4062V7.375C11.4062 7.49932 11.4556 7.61855 11.5435 7.70646C11.6315 7.79436 11.7507 7.84375 11.875 7.84375H15.7812V17.375C15.7812 17.4164 15.7648 17.4562 15.7355 17.4855C15.7062 17.5148 15.6664 17.5312 15.625 17.5312ZM12.3438 12.375C12.3438 12.4993 12.2944 12.6185 12.2065 12.7065C12.1185 12.7944 11.9993 12.8438 11.875 12.8438H10.4688V14.25C10.4688 14.3743 10.4194 14.4935 10.3315 14.5815C10.2435 14.6694 10.1243 14.7188 10 14.7188C9.87568 14.7188 9.75645 14.6694 9.66854 14.5815C9.58064 14.4935 9.53125 14.3743 9.53125 14.25V12.8438H8.125C8.00068 12.8438 7.88145 12.7944 7.79354 12.7065C7.70564 12.6185 7.65625 12.4993 7.65625 12.375C7.65625 12.2507 7.70564 12.1315 7.79354 12.0435C7.88145 11.9556 8.00068 11.9062 8.125 11.9062H9.53125V10.5C9.53125 10.3757 9.58064 10.2565 9.66854 10.1685C9.75645 10.0806 9.87568 10.0312 10 10.0312C10.1243 10.0312 10.2435 10.0806 10.3315 10.1685C10.4194 10.2565 10.4688 10.3757 10.4688 10.5V11.9062H11.875C11.9993 11.9062 12.1185 11.9556 12.2065 12.0435C12.2944 12.1315 12.3438 12.2507 12.3438 12.375Z"
          fill="#2A292E"/>
</svg>
