<svg xmlns="http://www.w3.org/2000/svg" preserveAspectRatio="xMidYMid meet" viewBox="0 0 24 24" fill="none">
    <path d="M4.3125 17.375C4.3125 18.5122 5.06906 19.4375 6 19.4375C6.20639 19.4335 6.40981 19.3875 6.59789 19.3024C6.78597 19.2173 6.95478 19.0949 7.09406 18.9425C7.19833 18.8397 7.33858 18.7816 7.48502 18.7805C7.63145 18.7795 7.77252 18.8356 7.87825 18.9369C7.98397 19.0382 8.04601 19.1768 8.05118 19.3231C8.05635 19.4695 8.00424 19.6121 7.90594 19.7206C7.66233 19.9833 7.36761 20.1935 7.03987 20.3383C6.71213 20.4831 6.35827 20.5594 6 20.5625C4.44937 20.5625 3.1875 19.1328 3.1875 17.375C3.1875 15.6172 4.44937 14.1875 6 14.1875C6.35841 14.1909 6.71235 14.2675 7.0401 14.4126C7.36785 14.5576 7.66249 14.7682 7.90594 15.0312C8.00424 15.1398 8.05635 15.2824 8.05118 15.4287C8.04601 15.5751 7.98397 15.7136 7.87825 15.815C7.77252 15.9163 7.63145 15.9724 7.48502 15.9714C7.33858 15.9703 7.19833 15.9122 7.09406 15.8094C6.95498 15.6566 6.78625 15.5338 6.59816 15.4484C6.41006 15.3629 6.20654 15.3167 6 15.3125C5.06906 15.3125 4.3125 16.2369 4.3125 17.375ZM11.9109 16.7403C10.8928 16.4469 10.6538 16.3006 10.6922 15.9988C10.6976 15.904 10.7247 15.8117 10.7716 15.7291C10.8184 15.6465 10.8836 15.5758 10.9622 15.5225C11.4872 15.1672 12.6178 15.3519 12.9731 15.4437C13.116 15.4779 13.2666 15.4549 13.3928 15.3794C13.5189 15.304 13.6104 15.1823 13.6479 15.0402C13.6854 14.8981 13.6658 14.747 13.5933 14.6192C13.5208 14.4914 13.4012 14.397 13.26 14.3563C13.0725 14.3066 11.3756 13.8875 10.3341 14.5887C10.1226 14.732 9.94512 14.9199 9.81423 15.1392C9.68334 15.3586 9.60221 15.604 9.57656 15.8581C9.40781 17.1884 10.7259 17.5691 11.5988 17.8212C12.735 18.1494 12.9844 18.3209 12.93 18.7362C12.9252 18.8358 12.8973 18.9329 12.8484 19.0197C12.7996 19.1066 12.7313 19.181 12.6488 19.2369C12.1228 19.5866 11.01 19.3906 10.6622 19.295C10.5229 19.2662 10.3778 19.2913 10.2562 19.3651C10.1346 19.439 10.0456 19.5562 10.0069 19.6931C9.96832 19.83 9.98301 19.9765 10.0481 20.103C10.1131 20.2296 10.2237 20.3267 10.3575 20.375C10.8066 20.4947 11.269 20.5577 11.7338 20.5625C12.2484 20.5625 12.8156 20.4734 13.2675 20.1744C13.4848 20.0294 13.6674 19.8381 13.802 19.6143C13.9367 19.3905 14.0202 19.1396 14.0466 18.8797C14.235 17.4116 12.8363 17.0075 11.9109 16.7394V16.7403ZM19.6922 14.2203C19.6226 14.1954 19.5489 14.1845 19.4751 14.1882C19.4013 14.1918 19.3289 14.2099 19.2622 14.2415C19.1954 14.2731 19.1355 14.3176 19.0859 14.3723C19.0363 14.4271 18.998 14.4911 18.9731 14.5606L17.625 18.3266L16.2797 14.5625C16.2577 14.4897 16.2211 14.4221 16.1722 14.3638C16.1233 14.3056 16.0631 14.2578 15.9952 14.2235C15.9274 14.1891 15.8532 14.1689 15.7773 14.1641C15.7014 14.1592 15.6253 14.1698 15.5536 14.1951C15.4819 14.2205 15.4161 14.2602 15.3601 14.3117C15.3042 14.3633 15.2593 14.4256 15.2281 14.495C15.197 14.5644 15.1802 14.6394 15.1789 14.7155C15.1775 14.7915 15.1916 14.867 15.2203 14.9375L17.0953 20.1875C17.1344 20.2967 17.2062 20.3912 17.301 20.458C17.3958 20.5248 17.509 20.5607 17.625 20.5607C17.741 20.5607 17.8542 20.5248 17.949 20.458C18.0438 20.3912 18.1156 20.2967 18.1547 20.1875L20.0297 14.9375C20.0795 14.7969 20.0715 14.6422 20.0073 14.5076C19.9431 14.3729 19.8281 14.2692 19.6875 14.2194L19.6922 14.2203ZM20.0625 8.75V11C20.0625 11.1492 20.0032 11.2923 19.8977 11.3977C19.7923 11.5032 19.6492 11.5625 19.5 11.5625C19.3508 11.5625 19.2077 11.5032 19.1023 11.3977C18.9968 11.2923 18.9375 11.1492 18.9375 11V9.3125H14.25C14.1008 9.3125 13.9577 9.25324 13.8523 9.14775C13.7468 9.04226 13.6875 8.89918 13.6875 8.75V4.0625H5.25C5.20027 4.0625 5.15258 4.08225 5.11742 4.11742C5.08225 4.15258 5.0625 4.20027 5.0625 4.25V11C5.0625 11.1492 5.00324 11.2923 4.89775 11.3977C4.79226 11.5032 4.64918 11.5625 4.5 11.5625C4.35082 11.5625 4.20774 11.5032 4.10225 11.3977C3.99676 11.2923 3.9375 11.1492 3.9375 11V4.25C3.9375 3.9019 4.07578 3.56806 4.32192 3.32192C4.56806 3.07578 4.9019 2.9375 5.25 2.9375H14.25C14.3991 2.93763 14.5421 2.99698 14.6475 3.1025L19.8975 8.3525C20.003 8.45789 20.0624 8.60087 20.0625 8.75ZM18.1416 8.1875L14.8125 4.8575V8.1875H18.1416Z"
          fill="#6E4EFB"/>
</svg>
