<svg xmlns="http://www.w3.org/2000/svg" preserveAspectRatio="xMidYMid meet" viewBox="0 0 24 24" fill="none">
    <path d="M12.5895 3.23828C12.5121 3.16274 12.4202 3.10282 12.3191 3.06193C12.2179 3.02104 12.1095 3 12 3C11.8905 3 11.7821 3.02104 11.6809 3.06193C11.5798 3.10282 11.4879 3.16274 11.4105 3.23828L7.24419 7.30058C7.16677 7.37607 7.10536 7.46568 7.06346 7.56431C7.02157 7.66294 7 7.76864 7 7.8754C7 7.98215 7.02157 8.08786 7.06346 8.18649C7.10536 8.28511 7.16677 8.37473 7.24419 8.45021C7.32161 8.5257 7.41352 8.58558 7.51467 8.62643C7.61582 8.66728 7.72424 8.68831 7.83372 8.68831C7.94321 8.68831 8.05162 8.66728 8.15277 8.62643C8.25392 8.58558 8.34583 8.5257 8.42325 8.45021L11.1667 5.77417L11.1667 15.1875C11.1667 15.403 11.2545 15.6097 11.4108 15.762C11.5671 15.9144 11.779 16 12 16C12.221 16 12.4329 15.9144 12.5892 15.762C12.7455 15.6097 12.8333 15.403 12.8333 15.1875L12.8333 5.77417L15.5768 8.45021C15.7331 8.60267 15.9452 8.68831 16.1663 8.68831C16.3874 8.68831 16.5995 8.60267 16.7558 8.45021C16.9122 8.29776 17 8.091 17 7.8754C17 7.6598 16.9122 7.45303 16.7558 7.30058L12.5895 3.23828Z"
          fill="#2A292E"/>
    <path fill-rule="evenodd" clip-rule="evenodd"
          d="M2 19C2 18.4477 2.35817 18 2.8 18L21.2 18C21.6418 18 22 18.4477 22 19C22 19.5523 21.6418 20 21.2 20L2.8 20C2.35817 20 2 19.5523 2 19Z"
          fill="#2A292E"/>
</svg>
