<svg xmlns="http://www.w3.org/2000/svg" preserveAspectRatio="xMidYMid meet" viewBox="0 0 20 20" fill="none">
    <path d="M16.5813 5.79375L13.4563 2.66875C13.3684 2.58082 13.2493 2.53136 13.125 2.53125H6.875C6.58492 2.53125 6.30672 2.64648 6.1016 2.8516C5.89648 3.05672 5.78125 3.33492 5.78125 3.625V5.03125H4.375C4.08492 5.03125 3.80672 5.14648 3.6016 5.3516C3.39648 5.55672 3.28125 5.83492 3.28125 6.125V17.375C3.28125 17.6651 3.39648 17.9433 3.6016 18.1484C3.80672 18.3535 4.08492 18.4688 4.375 18.4688H13.125C13.4151 18.4688 13.6933 18.3535 13.8984 18.1484C14.1035 17.9433 14.2188 17.6651 14.2188 17.375V15.9688H15.625C15.9151 15.9688 16.1933 15.8535 16.3984 15.6484C16.6035 15.4433 16.7188 15.1651 16.7188 14.875V6.125C16.7186 6.00072 16.6692 5.88157 16.5813 5.79375ZM13.2812 17.375C13.2812 17.4164 13.2648 17.4562 13.2355 17.4855C13.2062 17.5148 13.1664 17.5312 13.125 17.5312H4.375C4.33356 17.5312 4.29382 17.5148 4.26451 17.4855C4.23521 17.4562 4.21875 17.4164 4.21875 17.375V6.125C4.21875 6.08356 4.23521 6.04382 4.26451 6.01451C4.29382 5.98521 4.33356 5.96875 4.375 5.96875H10.4305L13.2812 8.81953V17.375ZM15.7812 14.875C15.7812 14.9164 15.7648 14.9562 15.7355 14.9855C15.7062 15.0148 15.6664 15.0312 15.625 15.0312H14.2188V8.625C14.2186 8.50072 14.1692 8.38157 14.0813 8.29375L10.9563 5.16875C10.8684 5.08082 10.7493 5.03136 10.625 5.03125H6.71875V3.625C6.71875 3.58356 6.73521 3.54382 6.76451 3.51451C6.79382 3.48521 6.83356 3.46875 6.875 3.46875H12.9305L15.7812 6.31953V14.875ZM11.0938 12.375C11.0938 12.4993 11.0444 12.6185 10.9565 12.7065C10.8685 12.7944 10.7493 12.8438 10.625 12.8438H6.875C6.75068 12.8438 6.63145 12.7944 6.54354 12.7065C6.45564 12.6185 6.40625 12.4993 6.40625 12.375C6.40625 12.2507 6.45564 12.1315 6.54354 12.0435C6.63145 11.9556 6.75068 11.9062 6.875 11.9062H10.625C10.7493 11.9062 10.8685 11.9556 10.9565 12.0435C11.0444 12.1315 11.0938 12.2507 11.0938 12.375ZM11.0938 14.875C11.0938 14.9993 11.0444 15.1185 10.9565 15.2065C10.8685 15.2944 10.7493 15.3438 10.625 15.3438H6.875C6.75068 15.3438 6.63145 15.2944 6.54354 15.2065C6.45564 15.1185 6.40625 14.9993 6.40625 14.875C6.40625 14.7507 6.45564 14.6315 6.54354 14.5435C6.63145 14.4556 6.75068 14.4062 6.875 14.4062H10.625C10.7493 14.4062 10.8685 14.4556 10.9565 14.5435C11.0444 14.6315 11.0938 14.7507 11.0938 14.875Z"
          fill="#B0ADBD"/>
</svg>
