<svg xmlns="http://www.w3.org/2000/svg" preserveAspectRatio="xMidYMid meet" viewBox="0 0 17 17" fill="none">
  <path d="M8.125 0C6.51803 0 4.94714 0.476523 3.611 1.36931C2.27485 2.2621 1.23344 3.53105 0.618482 5.0157C0.00352044 6.50035 -0.157382 8.13401 0.156123 9.71011C0.469628 11.2862 1.24346 12.7339 2.37976 13.8702C3.51606 15.0065 4.9638 15.7804 6.5399 16.0939C8.11599 16.4074 9.74966 16.2465 11.2343 15.6315C12.719 15.0166 13.9879 13.9752 14.8807 12.639C15.7735 11.3029 16.25 9.73197 16.25 8.125C16.2477 5.97081 15.391 3.90551 13.8677 2.38227C12.3445 0.85903 10.2792 0.00227486 8.125 0ZM8.125 15C6.76526 15 5.43605 14.5968 4.30546 13.8414C3.17487 13.0859 2.29368 12.0122 1.77333 10.7559C1.25298 9.49971 1.11683 8.11737 1.3821 6.78375C1.64738 5.45013 2.30216 4.22513 3.26364 3.26364C4.22513 2.30216 5.45014 1.64737 6.78376 1.3821C8.11738 1.11683 9.49971 1.25298 10.756 1.77333C12.0122 2.29368 13.0859 3.17487 13.8414 4.30545C14.5968 5.43604 15 6.76525 15 8.125C14.9979 9.94773 14.2729 11.6952 12.9841 12.9841C11.6952 14.2729 9.94773 14.9979 8.125 15ZM9.375 11.875C9.375 12.0408 9.30916 12.1997 9.19195 12.3169C9.07474 12.4342 8.91576 12.5 8.75 12.5C8.41848 12.5 8.10054 12.3683 7.86612 12.1339C7.6317 11.8995 7.5 11.5815 7.5 11.25V8.125C7.33424 8.125 7.17527 8.05915 7.05806 7.94194C6.94085 7.82473 6.875 7.66576 6.875 7.5C6.875 7.33424 6.94085 7.17527 7.05806 7.05806C7.17527 6.94085 7.33424 6.875 7.5 6.875C7.83152 6.875 8.14947 7.0067 8.38389 7.24112C8.61831 7.47554 8.75 7.79348 8.75 8.125V11.25C8.91576 11.25 9.07474 11.3158 9.19195 11.4331C9.30916 11.5503 9.375 11.7092 9.375 11.875ZM6.875 4.6875C6.875 4.50208 6.92999 4.32082 7.033 4.16665C7.13601 4.01248 7.28243 3.89232 7.45374 3.82136C7.62504 3.75041 7.81354 3.73184 7.9954 3.76801C8.17726 3.80419 8.3443 3.89348 8.47542 4.02459C8.60653 4.1557 8.69582 4.32275 8.73199 4.5046C8.76816 4.68646 8.7496 4.87496 8.67864 5.04627C8.60768 5.21757 8.48752 5.36399 8.33335 5.467C8.17918 5.57002 7.99792 5.625 7.8125 5.625C7.56386 5.625 7.32541 5.52623 7.14959 5.35041C6.97378 5.1746 6.875 4.93614 6.875 4.6875Z" fill="#363440"/>
</svg>