<svg xmlns="http://www.w3.org/2000/svg" preserveAspectRatio="xMidYMid meet" viewBox="0 0 20 20" fill="none">
    <path d="M18.0715 10C18.0715 10.1658 18.0057 10.3247 17.8885 10.4419C17.7713 10.5592 17.6123 10.625 17.4465 10.625H11.1965V16.875C11.1965 17.0408 11.1307 17.1997 11.0135 17.3169C10.8963 17.4342 10.7373 17.5 10.5715 17.5C10.4058 17.5 10.2468 17.4342 10.1296 17.3169C10.0124 17.1997 9.94653 17.0408 9.94653 16.875V10.625H3.69653C3.53077 10.625 3.3718 10.5592 3.25459 10.4419C3.13738 10.3247 3.07153 10.1658 3.07153 10C3.07153 9.83424 3.13738 9.67527 3.25459 9.55806C3.3718 9.44085 3.53077 9.375 3.69653 9.375H9.94653V3.125C9.94653 2.95924 10.0124 2.80027 10.1296 2.68306C10.2468 2.56585 10.4058 2.5 10.5715 2.5C10.7373 2.5 10.8963 2.56585 11.0135 2.68306C11.1307 2.80027 11.1965 2.95924 11.1965 3.125V9.375H17.4465C17.6123 9.375 17.7713 9.44085 17.8885 9.55806C18.0057 9.67527 18.0715 9.83424 18.0715 10Z"
          fill="#343330"/>
</svg>
