<svg xmlns="http://www.w3.org/2000/svg" preserveAspectRatio="xMidYMid meet" viewBox="0 0 16 16" fill="none">
  <path opacity="0.2" d="M15 8.25C15 9.4925 12.7612 10.5 10 10.5C8.775 10.5 7.6525 10.3019 6.78312 9.9725C9.1725 9.80312 11 8.875 11 7.75V6.045C13.2825 6.25375 15 7.16125 15 8.25ZM11 5.25C11 4.0075 8.76125 3 6 3C3.23875 3 1 4.0075 1 5.25C1 6.4925 3.23875 7.5 6 7.5C8.76125 7.5 11 6.4925 11 5.25Z" fill="#363440"/>
  <path d="M11.5 5.59812V5.25C11.5 3.6825 9.13562 2.5 6 2.5C2.86438 2.5 0.5 3.6825 0.5 5.25V7.75C0.5 9.05562 2.14062 10.0931 4.5 10.4038V10.75C4.5 12.3175 6.86438 13.5 10 13.5C13.1356 13.5 15.5 12.3175 15.5 10.75V8.25C15.5 6.95625 13.9113 5.9175 11.5 5.59812ZM14.5 8.25C14.5 9.07625 12.5756 10 10 10C9.76688 10 9.53562 9.99188 9.3075 9.97688C10.6556 9.48563 11.5 8.6875 11.5 7.75V6.60875C13.3669 6.88687 14.5 7.64188 14.5 8.25ZM4.5 9.39062V7.90375C4.99736 7.96856 5.49843 8.00071 6 8C6.50157 8.00071 7.00264 7.96856 7.5 7.90375V9.39062C7.00338 9.46399 6.50201 9.50055 6 9.5C5.49799 9.50055 4.99662 9.46399 4.5 9.39062ZM10.5 6.87063V7.75C10.5 8.27437 9.72437 8.8375 8.5 9.17937V7.71875C9.30688 7.52313 9.99 7.23187 10.5 6.87063ZM6 3.5C8.57562 3.5 10.5 4.42375 10.5 5.25C10.5 6.07625 8.57562 7 6 7C3.42438 7 1.5 6.07625 1.5 5.25C1.5 4.42375 3.42438 3.5 6 3.5ZM1.5 7.75V6.87063C2.01 7.23187 2.69313 7.52313 3.5 7.71875V9.17937C2.27562 8.8375 1.5 8.27437 1.5 7.75ZM5.5 10.75V10.4894C5.66437 10.4956 5.83063 10.5 6 10.5C6.2425 10.5 6.47937 10.4919 6.71187 10.4781C6.97016 10.5706 7.23325 10.649 7.5 10.7131V12.1794C6.27563 11.8375 5.5 11.2744 5.5 10.75ZM8.5 12.3906V10.9C8.9972 10.9668 9.49833 11.0002 10 11C10.5016 11.0007 11.0026 10.9686 11.5 10.9038V12.3906C10.5053 12.5365 9.49468 12.5365 8.5 12.3906ZM12.5 12.1794V10.7188C13.3069 10.5231 13.99 10.2319 14.5 9.87062V10.75C14.5 11.2744 13.7244 11.8375 12.5 12.1794Z" fill="#363440"/>
</svg>