<svg xmlns="http://www.w3.org/2000/svg" width="20" height="20" viewBox="0 0 20 20" fill="none">
    <path d="M19.1406 8.64375C19.0246 8.48292 18.872 8.352 18.6954 8.2618C18.5188 8.1716 18.3233 8.12471 18.125 8.125H16.875V6.875C16.875 6.54348 16.7433 6.22554 16.5089 5.99112C16.2745 5.7567 15.9565 5.625 15.625 5.625H10.2086L8.04219 4C7.82545 3.83842 7.56252 3.75078 7.29219 3.75H3.125C2.79348 3.75 2.47554 3.8817 2.24112 4.11612C2.0067 4.35054 1.875 4.66848 1.875 5V16.25C1.875 16.4158 1.94085 16.5747 2.05806 16.6919C2.17527 16.8092 2.33424 16.875 2.5 16.875H16.4922C16.6234 16.875 16.7512 16.8337 16.8577 16.757C16.9641 16.6803 17.0437 16.5721 17.0852 16.4477L19.3109 9.77031C19.3735 9.58243 19.3907 9.38238 19.3611 9.18657C19.3315 8.99076 19.256 8.80474 19.1406 8.64375ZM7.29219 5L9.45859 6.625C9.67528 6.78668 9.93824 6.87433 10.2086 6.875H15.625V8.125H11.4398C11.1929 8.12499 10.9515 8.19812 10.7461 8.33516L9.18359 9.375H5.42344C5.17339 9.37431 4.92893 9.44891 4.72187 9.58908C4.5148 9.72926 4.35474 9.92852 4.2625 10.1609L3.125 13.0047V5H7.29219ZM16.0422 15.625H3.42344L5.42344 10.625H9.18594C9.43287 10.625 9.67427 10.5519 9.87969 10.4148L11.4422 9.375H18.125L16.0422 15.625Z"
          fill="#343330"/>
</svg>
