<svg xmlns="http://www.w3.org/2000/svg" preserveAspectRatio="xMidYMid meet"  viewBox="0 0 16 16" fill="none">
  <path d="M8 0C12.4183 0 16 3.58172 16 8C16 12.4183 12.4183 16 8 16C3.58172 16 0 12.4183 0 8C0 3.58172 3.58172 0 8 0ZM7.99902 3C7.85863 3 7.72133 3.04324 7.60449 3.12402C7.48763 3.20483 7.39587 3.3196 7.3418 3.4541L6.30664 6.01758L3.6543 6.25586C3.51437 6.26806 3.38059 6.32262 3.27051 6.41309C3.16036 6.50372 3.07856 6.62687 3.03516 6.76562C2.99183 6.90427 2.98859 7.05298 3.02637 7.19336C3.06421 7.33386 3.1416 7.45941 3.24805 7.55469L5.25977 9.37988L4.6582 12.0908C4.62632 12.2327 4.63562 12.3811 4.68457 12.5176C4.73353 12.6541 4.8201 12.7727 4.93359 12.8584C5.04699 12.944 5.1822 12.9927 5.32227 12.999C5.46245 13.0053 5.60149 12.9687 5.72168 12.8936L7.99707 11.458L10.2773 12.8936C10.3975 12.9687 10.5365 13.0053 10.6768 12.999C10.8168 12.9927 10.952 12.944 11.0654 12.8584C11.1789 12.7727 11.2655 12.6541 11.3145 12.5176C11.3634 12.3811 11.3727 12.2327 11.3408 12.0908L10.7383 9.37793L12.75 7.55469H12.752C12.8584 7.45941 12.9358 7.33386 12.9736 7.19336C13.0114 7.05298 13.0082 6.90427 12.9648 6.76562C12.9214 6.62687 12.8396 6.50372 12.7295 6.41309C12.6194 6.32262 12.4856 6.26806 12.3457 6.25586L9.69434 6.01758L8.65527 3.4541C8.60121 3.3197 8.51032 3.2048 8.39355 3.12402C8.27674 3.04324 8.1394 3.00003 7.99902 3Z" fill="#363440"/>
</svg>