<svg xmlns="http://www.w3.org/2000/svg" preserveAspectRatio="xMidYMid meet" viewBox="0 0 18 18" fill="none">
  <path d="M0.283921 6.67649L8.15892 11.1765C8.24393 11.2251 8.34015 11.2506 8.43806 11.2506C8.53598 11.2506 8.6322 11.2251 8.7172 11.1765L16.5922 6.67649C16.6784 6.62733 16.7501 6.55623 16.8 6.4704C16.8499 6.38458 16.8761 6.28708 16.8761 6.18782C16.8761 6.08856 16.8499 5.99107 16.8 5.90524C16.7501 5.81941 16.6784 5.74831 16.5922 5.69915L8.7172 1.19915C8.6322 1.15056 8.53598 1.125 8.43806 1.125C8.34015 1.125 8.24393 1.15056 8.15892 1.19915L0.283921 5.69915C0.197688 5.74831 0.125998 5.81941 0.0761325 5.90524C0.0262665 5.99107 0 6.08856 0 6.18782C0 6.28708 0.0262665 6.38458 0.0761325 6.4704C0.125998 6.55623 0.197688 6.62733 0.283921 6.67649ZM8.44017 2.33188L15.181 6.18431L8.44017 10.0367L1.69931 6.18431L8.44017 2.33188Z" fill="#363440"/>
  <path d="M5.14648 8.71289L5.06934 8.75781L1.69922 10.6846L8.44043 14.5371L15.1807 10.6846L11.8906 8.80371L13.0459 8.17285L16.5918 10.1992C16.678 10.2484 16.7499 10.3195 16.7998 10.4053C16.8496 10.491 16.8759 10.5883 16.876 10.6875C16.876 10.7868 16.8497 10.8849 16.7998 10.9707C16.7499 11.0564 16.6779 11.1277 16.5918 11.1768L8.7168 15.6768C8.63201 15.7251 8.53609 15.7509 8.43848 15.751C8.34068 15.751 8.24411 15.7252 8.15918 15.6768L0.28418 11.1768C0.198027 11.1276 0.126032 11.0564 0.0761719 10.9707C0.0263059 10.8849 0 10.7868 0 10.6875C5.65268e-05 10.5884 0.0263631 10.491 0.0761719 10.4053C0.126038 10.3194 0.197946 10.2484 0.28418 10.1992L4.04297 8.05078L5.14648 8.71289Z" fill="#363440"/>
</svg>
 