<svg width="20" height="20" viewBox="0 0 20 20" fill="none" xmlns="http://www.w3.org/2000/svg">
<path d="M16.8748 10.1688C16.8779 10.0563 16.8779 9.94379 16.8748 9.83129L18.0404 8.37504C18.1015 8.29858 18.1438 8.20883 18.1639 8.11303C18.184 8.01722 18.1813 7.91804 18.156 7.82347C17.9646 7.10531 17.6788 6.4157 17.306 5.77269C17.2572 5.68857 17.1894 5.617 17.108 5.5637C17.0266 5.5104 16.9339 5.47683 16.8373 5.46566L14.9842 5.25941C14.9071 5.17816 14.829 5.10004 14.7498 5.02504L14.531 3.16722C14.5198 3.07051 14.4861 2.97777 14.4327 2.89639C14.3792 2.815 14.3075 2.74723 14.2232 2.69847C13.5803 2.32601 12.8906 2.0407 12.1724 1.85004C12.0779 1.82477 11.9787 1.82207 11.8829 1.84215C11.7871 1.86224 11.6973 1.90454 11.6209 1.96566L10.1685 3.12504C10.056 3.12504 9.94354 3.12504 9.83104 3.12504L8.37479 1.96175C8.29833 1.90064 8.20859 1.85833 8.11278 1.83825C8.01698 1.81816 7.9178 1.82086 7.82323 1.84613C7.10507 2.03756 6.41546 2.32338 5.77245 2.69613C5.68832 2.74498 5.61676 2.81279 5.56346 2.89417C5.51015 2.97555 5.47658 3.06824 5.46542 3.16488L5.25917 5.02113C5.17792 5.09873 5.09979 5.17686 5.02479 5.2555L3.16698 5.46879C3.07027 5.48004 2.97753 5.51373 2.89614 5.56717C2.81476 5.62061 2.74699 5.69233 2.69823 5.7766C2.32584 6.4197 2.04029 7.10929 1.84901 7.82738C1.82385 7.92201 1.82128 8.02122 1.8415 8.11703C1.86172 8.21284 1.90416 8.30255 1.96542 8.37894L3.12479 9.83129C3.12479 9.94379 3.12479 10.0563 3.12479 10.1688L1.96151 11.625C1.90039 11.7015 1.85809 11.7912 1.838 11.887C1.81792 11.9828 1.82062 12.082 1.84589 12.1766C2.03731 12.8948 2.32314 13.5844 2.69589 14.2274C2.74473 14.3115 2.81255 14.3831 2.89392 14.4364C2.9753 14.4897 3.068 14.5232 3.16464 14.5344L5.01776 14.7407C5.09537 14.8219 5.17349 14.9 5.25214 14.975L5.46854 16.8329C5.47979 16.9296 5.51348 17.0223 5.56692 17.1037C5.62037 17.1851 5.69208 17.2528 5.77635 17.3016C6.41945 17.674 7.10904 17.9595 7.82714 18.1508C7.92176 18.176 8.02098 18.1786 8.11679 18.1583C8.21259 18.1381 8.30231 18.0957 8.3787 18.0344L9.83104 16.875C9.94354 16.8782 10.056 16.8782 10.1685 16.875L11.6248 18.0407C11.7013 18.1018 11.791 18.1441 11.8868 18.1642C11.9826 18.1843 12.0818 18.1816 12.1764 18.1563C12.8946 17.9652 13.5843 17.6794 14.2271 17.3063C14.3113 17.2574 14.3828 17.1896 14.4361 17.1082C14.4894 17.0269 14.523 16.9342 14.5342 16.8375L14.7404 14.9844C14.8217 14.9073 14.8998 14.8292 14.9748 14.75L16.8326 14.5313C16.9293 14.52 17.0221 14.4863 17.1034 14.4329C17.1848 14.3795 17.2526 14.3077 17.3014 14.2235C17.6737 13.5804 17.9593 12.8908 18.1506 12.1727C18.1757 12.0781 18.1783 11.9788 18.1581 11.883C18.1379 11.7872 18.0954 11.6975 18.0342 11.6211L16.8748 10.1688ZM9.99979 13.125C9.38173 13.125 8.77754 12.9418 8.26364 12.5984C7.74973 12.255 7.34919 11.7669 7.11267 11.1959C6.87614 10.6249 6.81426 9.99657 6.93484 9.39038C7.05542 8.78419 7.35304 8.22737 7.79008 7.79033C8.22712 7.35329 8.78394 7.05566 9.39014 6.93508C9.99633 6.8145 10.6247 6.87639 11.1957 7.11291C11.7667 7.34944 12.2548 7.74998 12.5981 8.26388C12.9415 8.77778 13.1248 9.38197 13.1248 10C13.1248 10.8288 12.7956 11.6237 12.2095 12.2097C11.6235 12.7958 10.8286 13.125 9.99979 13.125Z" fill="#363440"/>
</svg>
