<svg preserveAspectRatio="xMidYMid meet" viewBox="0 0 118 32" fill="none" xmlns="http://www.w3.org/2000/svg">
    <g clip-path="url(#clip0_2518_3529)">
        <path d="M36.7534 25.4568L44.7576 5.51781H46.2958L54.2715 25.4568H52.3346L49.9703 19.4466H41.0546L38.6904 25.4568H36.7534ZM41.6528 17.766H49.3437L45.5267 7.99593L41.6528 17.766Z"
              fill="#2A292E"/>
        <path d="M60.5423 25.7701C59.3256 25.7701 58.4141 25.5137 57.8078 25.001C57.2014 24.4883 56.8963 23.5687 56.8963 22.2381V13.4079H53.9338V11.8128H56.8963V6.7996H58.6053V11.8128H62.7641V13.4079H58.6053V21.9532C58.6053 22.8077 58.7844 23.3937 59.1465 23.703C59.5087 24.0163 60.0662 24.175 60.8271 24.175C61.1486 24.175 61.4904 24.1262 61.8526 24.0326C62.2148 23.939 62.5159 23.8332 62.7641 23.7192V25.3998C62.4996 25.4934 62.1578 25.5788 61.7387 25.6562C61.3195 25.7335 60.9207 25.7701 60.5423 25.7701Z"
              fill="#2A292E"/>
        <path d="M71.2811 25.7701C70.0644 25.7701 69.1528 25.5137 68.5465 25.001C67.9402 24.4883 67.635 23.5687 67.635 22.2381V13.4079H64.6726V11.8128H67.635V6.7996H69.3441V11.8128H73.5029V13.4079H69.3441V21.9532C69.3441 22.8077 69.5232 23.3937 69.8853 23.703C70.2475 24.0163 70.805 24.175 71.5659 24.175C71.8874 24.175 72.2292 24.1262 72.5914 24.0326C72.9535 23.939 73.2547 23.8332 73.5029 23.7192V25.3998C73.2384 25.4934 72.8966 25.5788 72.4774 25.6562C72.0583 25.7335 71.6595 25.7701 71.2811 25.7701Z"
              fill="#2A292E"/>
        <path d="M81.3075 25.7701C79.8629 25.7701 78.695 25.3062 77.8039 24.3744C76.9127 23.4425 76.4651 22.116 76.4651 20.3866V11.8128H78.1742V20.1587C78.1742 21.4893 78.4916 22.4863 79.1304 23.1495C79.7652 23.8128 80.5872 24.1465 81.5964 24.1465C82.7561 24.1465 83.6961 23.7843 84.4164 23.0641C85.1366 22.3438 85.4988 21.4608 85.4988 20.4151V11.8128H87.2364V25.4283H85.6128L85.5558 23.5198C85.157 24.1465 84.5873 24.6796 83.8467 25.115C83.1061 25.5504 82.2597 25.7701 81.3116 25.7701H81.3075Z"
              fill="#2A292E"/>
        <path d="M91.4766 25.4568V11.8128H93.1002L93.1572 13.7497C93.5926 13.1027 94.1785 12.5615 94.911 12.1261C95.6435 11.6907 96.4736 11.471 97.4055 11.471C98.8663 11.471 100.046 11.9349 100.938 12.8667C101.829 13.7986 102.276 15.1251 102.276 16.8545V25.4568H100.567V17.1109C100.567 15.7803 100.25 14.7833 99.611 14.12C98.9762 13.4568 98.1542 13.1231 97.145 13.1231C96.3841 13.1231 95.7045 13.2899 95.1104 13.6195C94.5122 13.9532 94.0483 14.4008 93.7146 14.9583C93.381 15.5198 93.2182 16.1424 93.2182 16.822V25.4527H91.4806L91.4766 25.4568Z"
              fill="#2A292E"/>
        <path d="M112.104 25.7701C110.871 25.7701 109.772 25.4812 108.816 24.8993C107.855 24.3215 107.107 23.4954 106.565 22.4212C106.024 21.3469 105.751 20.0814 105.751 18.6165C105.751 17.1516 106.024 15.9471 106.565 14.885C107.107 13.823 107.851 12.9888 108.803 12.3947C109.752 11.7965 110.834 11.4954 112.051 11.4954C113.267 11.4954 114.334 11.8047 115.2 12.4232C116.063 13.0417 116.726 13.8393 117.182 14.8159C117.638 15.7925 117.866 16.826 117.866 17.9084V18.4781H107.497C107.461 20.1872 107.863 21.5707 108.71 22.6246C109.556 23.6785 110.7 24.2075 112.144 24.2075C113.206 24.2075 114.102 23.9349 114.822 23.3937C115.542 22.8525 116.132 22.0509 116.588 20.9847L118.012 21.8108C116.795 24.4517 114.83 25.7701 112.116 25.7701H112.104ZM107.603 16.9969H116.148C116.055 16.2564 115.819 15.5809 115.448 14.9746C115.078 14.3683 114.602 13.884 114.024 13.5219C113.446 13.1597 112.787 12.9807 112.043 12.9807C110.883 12.9807 109.91 13.3388 109.121 14.0509C108.331 14.763 107.823 15.7477 107.595 17.001L107.603 16.9969Z"
              fill="#2A292E"/>
        <path d="M16.0208 14.0061L13.7501 18.4741L8.08982 29.6033C7.90671 29.9613 7.6829 30.2828 7.42654 30.5636L7.40212 30.588C7.3655 30.6246 7.32887 30.6653 7.29225 30.7019C7.21493 30.7833 7.12948 30.8566 7.0481 30.9257C7.02775 30.942 7.0074 30.9624 6.98706 30.9746C6.96671 30.9909 6.94636 31.0071 6.92602 31.0234C6.90567 31.0397 6.88126 31.06 6.86091 31.0763C6.83243 31.0967 6.80801 31.117 6.77953 31.1373C6.7429 31.1658 6.70221 31.1902 6.66559 31.2187C6.64931 31.2309 6.63303 31.2431 6.61676 31.2513C6.57199 31.2798 6.52723 31.3082 6.4784 31.3367C6.43771 31.3611 6.40108 31.3815 6.36039 31.4059C6.3197 31.4303 6.27901 31.4507 6.23832 31.471C6.15286 31.5117 6.06334 31.5565 5.97788 31.5931C5.83953 31.6541 5.69711 31.707 5.55061 31.7518C5.52213 31.7599 5.49364 31.7681 5.46516 31.7762C5.44074 31.7843 5.4204 31.7884 5.39598 31.7925C5.3797 31.7965 5.35936 31.8006 5.34308 31.8047C5.3268 31.8088 5.31053 31.8128 5.29018 31.8169C5.26983 31.821 5.24949 31.825 5.22914 31.8291C5.221 31.8291 5.21693 31.8332 5.20473 31.8332C5.18438 31.8372 5.1681 31.8413 5.14776 31.8454C5.09079 31.8576 5.03382 31.8698 4.97685 31.8779C4.94836 31.882 4.91988 31.8861 4.8914 31.8901C4.86291 31.8942 4.83849 31.8983 4.81001 31.9023C4.78153 31.9023 4.75711 31.9064 4.72862 31.9105C4.72049 31.9105 4.71642 31.9146 4.71235 31.9146C4.70828 31.9146 4.70421 31.9146 4.70014 31.9146C4.63503 31.9227 4.56586 31.9268 4.50075 31.9308C4.43157 31.9308 4.35832 31.9349 4.28915 31.9349H4.24438C4.24438 31.9349 4.2159 31.9349 4.20369 31.9349H4.18742C4.13452 31.9349 4.08161 31.9308 4.02871 31.9268C4.01651 31.9268 4.00023 31.9268 3.98802 31.9268C3.95547 31.9268 3.92291 31.9227 3.88629 31.9186C3.85781 31.9146 3.82932 31.9105 3.80084 31.9064C3.76421 31.9064 3.72759 31.8983 3.69097 31.8942C3.65841 31.8901 3.62586 31.8861 3.59331 31.882C3.56075 31.8779 3.5282 31.8739 3.49971 31.8657C3.4753 31.8657 3.45088 31.8576 3.42647 31.8535C3.34508 31.8372 3.2637 31.8169 3.18231 31.7965C3.14162 31.7843 3.10093 31.7721 3.06023 31.7599C3.06023 31.7599 3.06023 31.7599 3.05617 31.7599C3.01547 31.7477 2.97071 31.7314 2.93002 31.7192C2.8934 31.707 2.85677 31.6948 2.82015 31.6826C2.77132 31.6663 2.71842 31.646 2.66959 31.6216C2.62483 31.6053 2.57599 31.5809 2.52716 31.5605C2.47833 31.5361 2.42543 31.5158 2.3766 31.4914C2.36439 31.4873 2.35219 31.4832 2.34405 31.4751C2.31149 31.4588 2.27894 31.4425 2.24639 31.4222C2.23011 31.414 2.20976 31.4059 2.19349 31.3937C2.15686 31.3734 2.11617 31.3489 2.07955 31.3245C2.03478 31.3001 1.99002 31.2716 1.94933 31.2431C1.93712 31.235 1.92085 31.2269 1.90864 31.2147C1.87608 31.1943 1.8476 31.174 1.81505 31.1536C1.78249 31.1292 1.75401 31.1089 1.72552 31.0844C1.71738 31.0804 1.70924 31.0722 1.70111 31.0682C1.67262 31.0478 1.64821 31.0275 1.62379 31.0031C1.61158 30.9949 1.59531 30.9827 1.5831 30.9705C1.57089 30.9583 1.55461 30.9461 1.54241 30.938C1.51799 30.9176 1.49357 30.8973 1.46916 30.8769C1.46102 30.8688 1.44881 30.8606 1.44067 30.8484C1.43254 30.8403 1.4244 30.8322 1.41219 30.8199C1.37557 30.7874 1.33894 30.7508 1.30232 30.7182C1.2657 30.6816 1.22907 30.649 1.19652 30.6124C1.16397 30.5758 1.12734 30.5392 1.09479 30.5026C1.06223 30.4659 1.02968 30.4293 0.997127 30.3886C0.968642 30.352 0.940157 30.3154 0.911673 30.2787C0.899465 30.2665 0.887257 30.2503 0.875049 30.234C0.862842 30.2177 0.850634 30.2014 0.842495 30.1892C0.830288 30.1689 0.814011 30.1485 0.797734 30.1282C0.797734 30.1241 0.793665 30.12 0.789595 30.116C0.781457 30.1038 0.773318 30.0916 0.76518 30.0794C0.752972 30.0631 0.740764 30.0468 0.732626 30.0305C0.691933 29.9695 0.651241 29.9084 0.614618 29.8433C0.590202 29.8067 0.569856 29.766 0.54951 29.7253C0.431502 29.5178 0.33384 29.2981 0.256524 29.0743C0.232109 29.0092 0.211762 28.9441 0.191416 28.8749C0.183278 28.8505 0.175139 28.822 0.167001 28.7976C0.158862 28.7772 0.154793 28.7528 0.150724 28.7325C0.134447 28.6674 0.11817 28.5982 0.101893 28.5331C0.101893 28.529 0.101893 28.5209 0.0978235 28.5168C0.0937542 28.4842 0.0856157 28.4558 0.0815465 28.4273C0.0774773 28.4069 0.073408 28.3866 0.073408 28.3662C0.0652695 28.3215 0.0612003 28.2808 0.0530618 28.236C0.0489925 28.2035 0.0449233 28.1668 0.040854 28.1343C0.040854 28.1221 0.0367848 28.1058 0.0367848 28.0895C0.0327156 28.0529 0.0286463 28.0122 0.0286463 27.9756C0.0286463 27.9715 0.0286463 27.9634 0.0286463 27.9593C0.0286463 27.9552 0.0286463 27.9471 0.0286463 27.943C0.0286463 27.939 0.0286463 27.9349 0.0286463 27.9308C0.0245771 27.8901 0.0205078 27.8454 0.0205078 27.8047C0.0205078 27.7559 0.0205078 27.707 0.0205078 27.6582C0.0205078 27.6175 0.0205078 27.5727 0.0205078 27.5321C0.0205078 27.5036 0.0205078 27.4792 0.0245771 27.4507C0.0245771 27.4222 0.0245771 27.3896 0.0286463 27.3611C0.0286463 27.3286 0.0327156 27.3001 0.0367848 27.2716C0.0367848 27.2431 0.040854 27.2187 0.0449233 27.1943C0.0449233 27.1618 0.0489925 27.1292 0.057131 27.1007C0.0612003 27.0682 0.0652695 27.0397 0.073408 27.0071C0.073408 26.9909 0.0774773 26.9705 0.0815465 26.9502C0.0856157 26.9298 0.089685 26.9135 0.0937542 26.8932C0.0937542 26.8891 0.0937542 26.8851 0.0937542 26.881V26.8728C0.122239 26.7264 0.154793 26.5839 0.199555 26.4415C0.22397 26.3601 0.252455 26.2828 0.28094 26.2014C0.297217 26.1607 0.313494 26.12 0.325701 26.0794C0.341978 26.0427 0.358255 26.002 0.374532 25.9613C0.390809 25.9247 0.407086 25.8881 0.423363 25.8515C0.443709 25.8108 0.464056 25.766 0.484402 25.7253L11.9434 3.15362C11.9434 3.15362 11.9434 3.15769 11.9434 3.16176C11.6219 4.12615 11.6382 5.20855 12.0695 6.21364L12.1469 6.39268L16.0208 14.002V14.0061Z"
              fill="#6F6C7D"/>
        <path d="M0.0122889 27.9349C0.0122889 27.9349 0.0122889 27.943 0.0122889 27.9471C0.0122889 27.9023 0.00821964 27.8535 0.00415039 27.8047C0.00415039 27.8454 0.00821964 27.8901 0.0122889 27.9308V27.9349Z"
              fill="#4C4957"/>
        <path d="M0.01237 27.9797C0.01237 28.0203 0.0164393 28.057 0.0205085 28.0936C0.0164393 28.0488 0.01237 28.0081 0.00830078 27.9634C0.00830078 27.9674 0.00830078 27.9756 0.00830078 27.9797H0.01237Z"
              fill="#4C4957"/>
        <path d="M0.0366211 27.0966C0.0406903 27.0478 0.0488288 26.9949 0.0610366 26.9461C0.0610366 26.9624 0.0569673 26.9827 0.0528981 27.0031C0.0447596 27.0356 0.0406903 27.0682 0.0366211 27.0966Z"
              fill="#4C4957"/>
        <path d="M0.0610352 26.9461C0.0651044 26.9217 0.0691736 26.9013 0.0732429 26.8769C0.0732429 26.881 0.0732429 26.8851 0.0732429 26.8891C0.0732429 26.9054 0.0651044 26.9257 0.0610352 26.9461Z"
              fill="#4C4957"/>
        <path d="M0.903567 30.2828C0.932051 30.3194 0.956467 30.3561 0.989021 30.3927C0.948328 30.3439 0.907636 30.291 0.866943 30.2381C0.879151 30.2503 0.891359 30.2665 0.903567 30.2828Z"
              fill="#4C4957"/>
        <path d="M1.39991 30.824C1.39991 30.824 1.41619 30.8444 1.42839 30.8525C1.37956 30.8118 1.33073 30.767 1.29004 30.7223C1.32666 30.7589 1.36329 30.7915 1.39991 30.824Z"
              fill="#4C4957"/>
        <path d="M1.61149 31.0071C1.63591 31.0275 1.66439 31.0478 1.68881 31.0722C1.64812 31.0437 1.60742 31.0112 1.5708 30.9786C1.58301 30.9868 1.59929 30.999 1.61149 31.0112V31.0071Z"
              fill="#4C4957"/>
        <path d="M2.3724 31.4914C2.42123 31.5158 2.47413 31.5402 2.52297 31.5605C2.46193 31.5361 2.40089 31.5076 2.33985 31.4751C2.3073 31.4588 2.27474 31.4425 2.24219 31.4222C2.27474 31.4385 2.3073 31.4588 2.33985 31.4751C2.34799 31.4791 2.3602 31.4832 2.3724 31.4914Z"
              fill="#4C4957"/>
        <path d="M4.68793 31.9186C4.68793 31.9186 4.69607 31.9186 4.70014 31.9186C4.55772 31.9349 4.41529 31.943 4.27287 31.943C4.26066 31.943 4.24439 31.943 4.23218 31.943H4.27694C4.34612 31.943 4.41936 31.943 4.48854 31.939C4.55365 31.939 4.62283 31.9308 4.68793 31.9227V31.9186Z"
              fill="#4C4957"/>
        <path d="M4.7203 31.9146C4.74878 31.9146 4.7732 31.9105 4.80168 31.9064C4.76913 31.9105 4.73657 31.9146 4.69995 31.9186C4.70402 31.9186 4.71216 31.9186 4.71623 31.9146H4.7203Z"
              fill="#4C4957"/>
        <path d="M5.22103 31.8332C5.22103 31.8332 5.26172 31.825 5.28207 31.821C5.25358 31.8291 5.22917 31.8332 5.20068 31.8372C5.20882 31.8372 5.21696 31.8372 5.2251 31.8332H5.22103Z"
              fill="#4C4957"/>
        <path d="M6.91789 31.0234C6.93824 31.0071 6.95858 30.9908 6.97893 30.9746C6.93824 31.0112 6.89348 31.0437 6.85278 31.0763C6.8772 31.06 6.89754 31.0397 6.91789 31.0234Z"
              fill="#4C4957"/>
        <path d="M7.42237 30.5595C7.37761 30.6083 7.33692 30.6531 7.28809 30.6979C7.32471 30.6612 7.36133 30.6246 7.39796 30.5839L7.42237 30.5595Z"
              fill="#4C4957"/>
        <path d="M20.1997 3.36521L19.8823 2.74263C18.922 0.634796 16.4438 -0.325529 14.3034 0.598174C13.7988 0.817909 13.3552 1.11903 12.989 1.48525C14.161 0.27264 15.988 -0.17497 17.6483 0.484237C18.9627 1.00916 19.8701 2.10784 20.2038 3.37742V3.36928L20.1997 3.36521Z"
              fill="#4C4957"/>
        <path d="M31.1951 24.6918L30.7434 24.2238C27.4392 20.8098 23.1746 18.7182 18.5642 18.2177L16.3383 13.7579L12.5417 6.14853L12.4644 5.96948C12.0412 4.9644 12.0208 3.882 12.3382 2.9176C12.3382 2.9176 12.3382 2.91353 12.3382 2.90946L12.4969 2.59207C12.7045 2.07528 12.9974 1.6236 13.3555 1.24517C13.3555 1.24517 13.3555 1.2411 13.3596 1.23703C13.7218 0.870805 14.1531 0.569686 14.6496 0.34995C16.7452 -0.573753 19.1746 0.386573 20.1146 2.49441L20.4238 3.11292L20.4279 3.12513L31.187 24.6877L31.1951 24.6918Z"
              fill="#4C4957"/>
        <path d="M12.3462 2.90946C12.5537 2.28688 12.8996 1.7172 13.3635 1.24517C13.0054 1.6236 12.7124 2.07528 12.5049 2.59207L12.3462 2.90946Z"
              fill="#4C4957"/>
        <path d="M31.9519 27.7192V27.7274C31.9519 27.821 31.9519 27.9186 31.9438 28.0081C31.9438 28.0081 31.9438 28.0122 31.9438 28.0163C31.9397 28.1099 31.9275 28.2075 31.9153 28.2971C31.9031 28.3947 31.8868 28.4883 31.8665 28.5819C31.8461 28.6755 31.8258 28.7731 31.7973 28.8627C31.781 28.9359 31.7566 29.0132 31.7281 29.0865C31.6956 29.1963 31.6549 29.3021 31.606 29.4079C31.5775 29.4812 31.545 29.5544 31.5084 29.6236C31.4921 29.6602 31.4758 29.6928 31.4555 29.7253C31.4473 29.7457 31.4392 29.766 31.4229 29.7864C31.3659 29.8922 31.309 29.9898 31.2439 30.0916C31.2439 30.0997 31.2357 30.1078 31.2276 30.116C31.191 30.1689 31.1543 30.2218 31.1136 30.2747C30.9509 30.4944 30.7718 30.6979 30.5724 30.881C30.4748 30.9746 30.369 31.06 30.2591 31.1414C30.2103 31.178 30.1574 31.2147 30.1085 31.2553C29.9946 31.3367 29.8725 31.414 29.7464 31.4791C29.6975 31.5076 29.6487 31.532 29.5958 31.5605C29.4046 31.6582 29.2011 31.7396 28.9976 31.8047C28.9325 31.825 28.8674 31.8454 28.7982 31.8617C28.7291 31.8779 28.664 31.8942 28.5948 31.9105C28.5256 31.9268 28.4564 31.939 28.3873 31.9471C28.3221 31.9593 28.257 31.9715 28.1919 31.9756C28.1716 31.9797 28.1553 31.9837 28.135 31.9797C28.078 31.9837 28.021 31.9919 27.96 31.9919C27.8908 31.9919 27.8176 31.9959 27.7484 31.9959C27.6833 31.9959 27.6263 31.9959 27.5653 31.9919C27.5449 31.9919 27.5246 31.9919 27.5083 31.9919C27.4635 31.9878 27.4188 31.9837 27.374 31.9797C27.3333 31.9797 27.2926 31.9756 27.2519 31.9715C27.195 31.9634 27.1339 31.9552 27.077 31.943C27.0688 31.943 27.0647 31.943 27.0607 31.943C26.9956 31.9349 26.9386 31.9186 26.8735 31.9064C26.788 31.8901 26.7067 31.8698 26.6253 31.8454C26.5398 31.821 26.4584 31.7965 26.377 31.7681C26.3567 31.7599 26.3364 31.7559 26.316 31.7436C26.2631 31.7274 26.2102 31.707 26.1573 31.6826C26.1207 31.6663 26.08 31.6501 26.0393 31.6338C26.019 31.6256 26.0027 31.6175 25.9823 31.6053C25.8765 31.5565 25.7707 31.4995 25.669 31.4425C25.6568 31.4385 25.6446 31.4303 25.6364 31.4222C25.5795 31.3856 25.5225 31.353 25.4615 31.3123C25.3435 31.235 25.2255 31.1495 25.1156 31.06C25.0586 31.0153 25.0057 30.9705 24.9528 30.9176C24.8999 30.8688 24.8511 30.8199 24.8022 30.7711C24.8022 30.7711 24.8022 30.7711 24.7982 30.767C24.7493 30.7182 24.7005 30.6653 24.6517 30.6124C24.6435 30.6083 24.6435 30.6043 24.6354 30.6002C22.4177 28.3703 19.4837 27.1455 16.3626 27.1455C13.2415 27.1455 10.1326 28.4435 7.89453 30.8118C8.14682 30.531 8.36656 30.2096 8.54561 29.8515L14.092 18.7223C14.8407 18.6368 15.5976 18.5961 16.3626 18.5961C17.1277 18.5961 17.8235 18.6368 18.5437 18.7141C23.1542 19.2147 27.4188 21.3062 30.723 24.7202L31.1747 25.1882L31.4758 25.7904C31.7851 26.413 31.9316 27.0682 31.9316 27.7233L31.9519 27.7192Z"
              fill="#363440"/>
    </g>
    <defs>
        <clipPath id="clip0_2518_3529">
            <rect width="118" height="32" fill="white"/>
        </clipPath>
    </defs>
</svg>
