<svg width="20" height="20" viewBox="0 0 20 20" fill="none" xmlns="http://www.w3.org/2000/svg">
<path d="M17.8469 6.97967L10.3469 1.97967C10.2442 1.91114 10.1235 1.87457 10 1.87457C9.87653 1.87457 9.75583 1.91114 9.65312 1.97967L2.15313 6.97967C2.06751 7.03679 1.99732 7.11417 1.9488 7.20494C1.90029 7.29571 1.87493 7.39706 1.875 7.49998V15.625C1.875 15.9565 2.0067 16.2744 2.24112 16.5089C2.47554 16.7433 2.79348 16.875 3.125 16.875H16.875C17.2065 16.875 17.5245 16.7433 17.7589 16.5089C17.9933 16.2744 18.125 15.9565 18.125 15.625V7.49998C18.1251 7.39706 18.0997 7.29571 18.0512 7.20494C18.0027 7.11417 17.9325 7.03679 17.8469 6.97967ZM7.55625 11.875L3.125 15V8.71326L7.55625 11.875ZM8.83516 12.5H11.1648L15.5891 15.625H4.41094L8.83516 12.5ZM12.4437 11.875L16.875 8.71326V15L12.4437 11.875ZM10 3.25076L16.3992 7.51717L11.1648 11.25H8.83672L3.60234 7.51717L10 3.25076Z" fill="#2A292E"/>
</svg>
