<svg preserveAspectRatio="xMidYMid meet" viewBox="0 0 141 24" fill="none" xmlns="http://www.w3.org/2000/svg">
<path d="M135.621 18.9573C134.52 18.9573 133.587 18.7739 132.821 18.4072C132.071 18.0404 131.497 17.562 131.098 16.9721C130.7 16.3661 130.476 15.7124 130.429 15.0108H132.295C132.343 15.4094 132.478 15.8001 132.702 16.1828C132.941 16.5495 133.3 16.8525 133.778 17.0917C134.257 17.3149 134.879 17.4265 135.645 17.4265C135.884 17.4265 136.179 17.4026 136.53 17.3548C136.881 17.3069 137.216 17.2192 137.535 17.0917C137.87 16.9641 138.149 16.7727 138.372 16.5176C138.595 16.2625 138.707 15.9356 138.707 15.537C138.707 15.0427 138.516 14.66 138.133 14.3889C137.75 14.1178 137.256 13.9105 136.649 13.767C136.043 13.6076 135.397 13.4561 134.711 13.3126C134.041 13.1691 133.403 12.9857 132.797 12.7625C132.191 12.5233 131.697 12.1964 131.314 11.7818C130.931 11.3513 130.74 10.7693 130.74 10.0358C130.74 8.95153 131.13 8.1144 131.912 7.52442C132.71 6.91849 133.882 6.61553 135.429 6.61553C136.482 6.61553 137.335 6.78296 137.989 7.11781C138.659 7.43672 139.162 7.8513 139.497 8.36155C139.848 8.8718 140.055 9.42192 140.119 10.0119H138.3C138.237 9.50165 137.981 9.06315 137.535 8.6964C137.104 8.32966 136.386 8.14629 135.381 8.14629C133.483 8.14629 132.534 8.72032 132.534 9.86839C132.534 10.3468 132.725 10.7135 133.108 10.9686C133.491 11.2237 133.986 11.431 134.592 11.5905C135.198 11.734 135.836 11.8775 136.506 12.021C137.192 12.1486 137.838 12.332 138.444 12.5711C139.05 12.8103 139.544 13.1531 139.927 13.5996C140.31 14.0301 140.502 14.6201 140.502 15.3696C140.502 16.5336 140.055 17.4265 139.162 18.0484C138.284 18.6543 137.104 18.9573 135.621 18.9573Z" fill="#363440"/>
<path d="M123.36 18.9573C122.26 18.9573 121.326 18.7739 120.561 18.4072C119.811 18.0404 119.237 17.562 118.838 16.9721C118.439 16.3661 118.216 15.7124 118.168 15.0108H120.034C120.082 15.4094 120.218 15.8001 120.441 16.1828C120.68 16.5495 121.039 16.8525 121.518 17.0917C121.996 17.3149 122.618 17.4265 123.384 17.4265C123.623 17.4265 123.918 17.4026 124.269 17.3548C124.62 17.3069 124.955 17.2192 125.274 17.0917C125.609 16.9641 125.888 16.7727 126.112 16.5176C126.335 16.2625 126.447 15.9356 126.447 15.537C126.447 15.0427 126.255 14.66 125.872 14.3889C125.49 14.1178 124.995 13.9105 124.389 13.767C123.783 13.6076 123.137 13.4561 122.451 13.3126C121.781 13.1691 121.143 12.9857 120.537 12.7625C119.931 12.5233 119.436 12.1964 119.053 11.7818C118.671 11.3513 118.479 10.7693 118.479 10.0358C118.479 8.95153 118.87 8.1144 119.652 7.52442C120.449 6.91849 121.622 6.61553 123.169 6.61553C124.222 6.61553 125.075 6.78296 125.729 7.11781C126.399 7.43672 126.901 7.8513 127.236 8.36155C127.587 8.8718 127.795 9.42192 127.858 10.0119H126.04C125.976 9.50165 125.721 9.06315 125.274 8.6964C124.844 8.32966 124.126 8.14629 123.121 8.14629C121.223 8.14629 120.274 8.72032 120.274 9.86839C120.274 10.3468 120.465 10.7135 120.848 10.9686C121.231 11.2237 121.725 11.431 122.331 11.5905C122.937 11.734 123.576 11.8775 124.245 12.021C124.931 12.1486 125.577 12.332 126.183 12.5711C126.79 12.8103 127.284 13.1531 127.667 13.5996C128.05 14.0301 128.241 14.6201 128.241 15.3696C128.241 16.5336 127.795 17.4265 126.901 18.0484C126.024 18.6543 124.844 18.9573 123.36 18.9573Z" fill="#363440"/>
<path d="M109.107 18.9573C107.942 18.9573 106.921 18.6862 106.044 18.1441C105.183 17.586 104.513 16.8365 104.034 15.8958C103.556 14.955 103.317 13.9185 103.317 12.7864C103.317 11.6383 103.556 10.6019 104.034 9.67705C104.513 8.73627 105.183 7.99481 106.044 7.45266C106.921 6.89457 107.942 6.61553 109.107 6.61553C110.096 6.61553 110.941 6.80687 111.643 7.18956C112.361 7.57225 112.943 8.09048 113.389 8.74424V6.80688H115.184V18.7659H113.389V16.8525C112.943 17.4903 112.361 18.0005 111.643 18.3832C110.941 18.7659 110.096 18.9573 109.107 18.9573ZM109.346 17.3308C110.239 17.3308 110.989 17.1235 111.595 16.709C112.217 16.2944 112.688 15.7443 113.007 15.0586C113.326 14.357 113.485 13.5996 113.485 12.7864C113.485 11.9572 113.326 11.1998 113.007 10.5142C112.688 9.82853 112.217 9.27841 111.595 8.86383C110.989 8.44925 110.239 8.24196 109.346 8.24196C108.469 8.24196 107.711 8.44925 107.073 8.86383C106.435 9.27841 105.948 9.82853 105.613 10.5142C105.278 11.1998 105.111 11.9572 105.111 12.7864C105.111 13.5996 105.278 14.357 105.613 15.0586C105.948 15.7443 106.435 16.2944 107.073 16.709C107.711 17.1235 108.469 17.3308 109.346 17.3308Z" fill="#363440"/>
<path d="M89.1108 23.5017V6.80688H90.9053V8.72032C91.3519 8.06656 91.9262 7.55631 92.628 7.18956C93.3458 6.80687 94.1992 6.61553 95.1881 6.61553C96.3525 6.61553 97.3654 6.89457 98.2267 7.45266C99.104 7.99481 99.782 8.73627 100.26 9.67705C100.739 10.6019 100.978 11.6383 100.978 12.7864C100.978 13.9185 100.739 14.955 100.26 15.8958C99.782 16.8365 99.104 17.586 98.2267 18.1441C97.3654 18.6862 96.3525 18.9573 95.1881 18.9573C94.1992 18.9573 93.3458 18.7659 92.628 18.3832C91.9262 17.9846 91.3519 17.4664 90.9053 16.8286V23.5017H89.1108ZM94.9488 17.3308C95.8421 17.3308 96.5998 17.1235 97.2218 16.709C97.8599 16.2944 98.3464 15.7443 98.6814 15.0586C99.0163 14.357 99.1838 13.5996 99.1838 12.7864C99.1838 11.9572 99.0163 11.1998 98.6814 10.5142C98.3464 9.82853 97.8599 9.27841 97.2218 8.86383C96.5998 8.44925 95.8421 8.24196 94.9488 8.24196C94.0715 8.24196 93.3219 8.44925 92.6998 8.86383C92.0777 9.27841 91.6071 9.82853 91.2881 10.5142C90.9691 11.1998 90.8096 11.9572 90.8096 12.7864C90.8096 13.5996 90.9691 14.357 91.2881 15.0586C91.6071 15.7443 92.0777 16.2944 92.6998 16.709C93.3219 17.1235 94.0715 17.3308 94.9488 17.3308Z" fill="#363440"/>
<path d="M80.3863 18.9573C79.1741 18.9573 78.1133 18.6862 77.2041 18.1441C76.2949 17.586 75.5851 16.8365 75.0747 15.8958C74.5802 14.955 74.333 13.9185 74.333 12.7864C74.333 11.6383 74.5722 10.6019 75.0508 9.67705C75.5293 8.73627 76.2152 7.99481 77.1084 7.45266C78.0017 6.89457 79.0544 6.61553 80.2667 6.61553C81.4949 6.61553 82.5477 6.89457 83.425 7.45266C84.3182 7.99481 85.0041 8.73627 85.4826 9.67705C85.9612 10.6019 86.2004 11.6383 86.2004 12.7864V13.5039H76.1753C76.271 14.2055 76.4943 14.8513 76.8452 15.4413C77.2121 16.0153 77.6986 16.4778 78.3047 16.8286C78.9109 17.1634 79.6127 17.3308 80.4103 17.3308C81.2557 17.3308 81.9655 17.1475 82.5397 16.7807C83.1139 16.398 83.5606 15.9117 83.8796 15.3217H85.8415C85.4268 16.3901 84.7649 17.2671 83.8557 17.9527C82.9624 18.6224 81.806 18.9573 80.3863 18.9573ZM76.1992 11.8297H84.3342C84.1747 10.8092 83.744 9.95609 83.0422 9.27044C82.3403 8.58479 81.4152 8.24196 80.2667 8.24196C79.1182 8.24196 78.1931 8.58479 77.4913 9.27044C76.8054 9.95609 76.3747 10.8092 76.1992 11.8297Z" fill="#363440"/>
<path d="M66.4126 18.7659V6.80688H68.2071V9.7488C68.2709 9.54151 68.3905 9.27044 68.566 8.93559C68.7574 8.58479 69.0286 8.23399 69.3795 7.88319C69.7304 7.53239 70.169 7.2374 70.6954 6.99822C71.2378 6.74309 71.8758 6.61553 72.6095 6.61553H72.7292V8.40939H72.5138C71.6206 8.40939 70.847 8.65654 70.193 9.15085C69.5549 9.62921 69.0605 10.2591 68.7095 11.0404C68.3746 11.8058 68.2071 12.6269 68.2071 13.5039V18.7659H66.4126Z" fill="#363440"/>
<path d="M57.3816 18.9573C56.1693 18.9573 55.1166 18.6862 54.2233 18.1441C53.3301 17.586 52.6442 16.8365 52.1656 15.8958C51.6871 14.955 51.4478 13.9185 51.4478 12.7864C51.4478 11.6383 51.6871 10.6019 52.1656 9.67705C52.6442 8.73627 53.3301 7.99481 54.2233 7.45266C55.1166 6.89457 56.1693 6.61553 57.3816 6.61553C58.6098 6.61553 59.6625 6.89457 60.5398 7.45266C61.4331 7.99481 62.119 8.73627 62.5975 9.67705C63.076 10.6019 63.3153 11.6383 63.3153 12.7864C63.3153 13.9185 63.076 14.955 62.5975 15.8958C62.119 16.8365 61.4331 17.586 60.5398 18.1441C59.6625 18.6862 58.6098 18.9573 57.3816 18.9573ZM57.3816 17.3308C58.2748 17.3308 59.0245 17.1235 59.6306 16.709C60.2527 16.2944 60.7233 15.7443 61.0423 15.0586C61.3613 14.357 61.5208 13.5996 61.5208 12.7864C61.5208 11.9572 61.3613 11.1998 61.0423 10.5142C60.7233 9.82853 60.2527 9.27841 59.6306 8.86383C59.0245 8.44925 58.2748 8.24196 57.3816 8.24196C56.5043 8.24196 55.7546 8.44925 55.1325 8.86383C54.5104 9.27841 54.0399 9.82853 53.7208 10.5142C53.4018 11.1998 53.2423 11.9572 53.2423 12.7864C53.2423 13.5996 53.4018 14.357 53.7208 15.0586C54.0399 15.7443 54.5104 16.2944 55.1325 16.709C55.7546 17.1235 56.5043 17.3308 57.3816 17.3308Z" fill="#363440"/>
<path d="M41.9866 18.9571C40.4075 18.9571 39.0437 18.5983 37.8952 17.8808C36.7468 17.1473 35.8615 16.1666 35.2394 14.9388C34.6333 13.711 34.3302 12.3477 34.3302 10.8488C34.3302 9.34998 34.6333 7.98665 35.2394 6.75885C35.8615 5.53106 36.7468 4.55839 37.8952 3.84085C39.0437 3.10736 40.4075 2.74062 41.9866 2.74062C43.183 2.74062 44.2596 2.95588 45.2167 3.3864C46.1737 3.80098 46.9872 4.37502 47.6572 5.10851C48.3271 5.842 48.8296 6.69507 49.1645 7.66774H47.2744C46.8756 6.69507 46.2455 5.92172 45.3842 5.34769C44.5228 4.77365 43.4382 4.48664 42.1302 4.48664C40.8541 4.48664 39.7615 4.77365 38.8523 5.34769C37.9591 5.90578 37.2811 6.66318 36.8186 7.61991C36.356 8.57663 36.1247 9.65294 36.1247 10.8488C36.1247 12.0288 36.356 13.1051 36.8186 14.0778C37.2811 15.0345 37.9591 15.7999 38.8523 16.3739C39.7615 16.932 40.8541 17.2111 42.1302 17.2111C43.4382 17.2111 44.5228 16.924 45.3842 16.35C46.2455 15.776 46.8756 15.0026 47.2744 14.03H49.1645C48.8296 14.9867 48.3271 15.8398 47.6572 16.5892C46.9872 17.3227 46.1737 17.9047 45.2167 18.3352C44.2596 18.7498 43.183 18.9571 41.9866 18.9571Z" fill="#363440"/>
<path fill-rule="evenodd" clip-rule="evenodd" d="M132.604 18.8556L132.602 18.8547C131.788 18.4563 131.141 17.9247 130.685 17.251L130.684 17.2485L130.682 17.2459C130.238 16.5707 129.985 15.8347 129.931 15.0447L129.895 14.5125H132.737L132.79 14.9514C132.828 15.2721 132.937 15.5944 133.126 15.9206C133.306 16.1931 133.587 16.4377 133.995 16.6429C134.384 16.823 134.925 16.9282 135.645 16.9282C135.853 16.9282 136.124 16.9071 136.462 16.861C136.774 16.8185 137.07 16.741 137.35 16.629L137.353 16.6275L137.357 16.626C137.621 16.5257 137.83 16.3798 137.997 16.1895C138.127 16.0408 138.209 15.8373 138.209 15.537C138.209 15.194 138.087 14.9674 137.845 14.7955C137.528 14.5714 137.098 14.3853 136.535 14.2519L136.529 14.2505L136.523 14.2489C135.925 14.0919 135.288 13.9423 134.609 13.8003L134.607 13.7998C133.915 13.6517 133.254 13.4619 132.625 13.2301L132.62 13.2281L132.614 13.226C131.949 12.9635 131.389 12.5974 130.948 12.1198L130.944 12.1164L130.941 12.1129C130.457 11.5683 130.241 10.8569 130.241 10.0358C130.241 8.81514 130.69 7.82286 131.61 7.12769C132.531 6.42863 133.829 6.11724 135.429 6.11724C136.526 6.11724 137.463 6.29027 138.21 6.67099C138.94 7.01945 139.517 7.48616 139.91 8.08369C140.304 8.65773 140.541 9.28437 140.614 9.95834L140.674 10.5102H137.86L137.806 10.0737C137.76 9.70602 137.58 9.37806 137.218 9.08145L137.215 9.07862L137.211 9.07573C136.918 8.82623 136.35 8.64458 135.381 8.64458C134.466 8.64458 133.863 8.78585 133.504 9.00315C133.185 9.19607 133.033 9.46121 133.033 9.86839C133.033 10.1881 133.147 10.3957 133.385 10.554C133.707 10.769 134.145 10.9571 134.713 11.1071C135.311 11.2487 135.942 11.3905 136.604 11.5324C137.316 11.6653 137.991 11.8567 138.627 12.1076C139.299 12.3728 139.862 12.7592 140.303 13.2722C140.787 13.8181 141 14.5375 141 15.3696C141 16.6832 140.484 17.7348 139.447 18.4573L139.445 18.4583C138.458 19.1403 137.167 19.4556 135.621 19.4556C134.467 19.4556 133.456 19.2635 132.606 18.8565L132.604 18.8556ZM139.927 13.5996C139.544 13.1531 139.05 12.8103 138.444 12.5711C137.838 12.332 137.192 12.1486 136.506 12.021C135.836 11.8775 135.198 11.734 134.592 11.5905C133.986 11.431 133.491 11.2237 133.108 10.9686C132.725 10.7135 132.534 10.3468 132.534 9.86839C132.534 8.72032 133.483 8.14629 135.381 8.14629C136.386 8.14629 137.104 8.32966 137.535 8.6964C137.981 9.06315 138.237 9.50165 138.3 10.0119H140.119C140.1 9.84252 140.07 9.67642 140.028 9.51361C139.924 9.10933 139.747 8.72531 139.497 8.36155C139.162 7.8513 138.659 7.43672 137.989 7.11781C137.335 6.78296 136.482 6.61553 135.429 6.61553C133.882 6.61553 132.71 6.91849 131.912 7.52442C131.13 8.1144 130.74 8.95153 130.74 10.0358C130.74 10.7693 130.931 11.3513 131.314 11.7818C131.697 12.1964 132.191 12.5233 132.797 12.7625C133.403 12.9857 134.041 13.1691 134.711 13.3126C135.397 13.4561 136.043 13.6076 136.649 13.767C137.256 13.9105 137.75 14.1178 138.133 14.3889C138.516 14.66 138.707 15.0427 138.707 15.537C138.707 15.9356 138.595 16.2625 138.372 16.5176C138.149 16.7727 137.87 16.9641 137.535 17.0917C137.216 17.2192 136.881 17.3069 136.53 17.3548C136.179 17.4026 135.884 17.4265 135.645 17.4265C134.879 17.4265 134.257 17.3149 133.778 17.0917C133.3 16.8525 132.941 16.5495 132.702 16.1828C132.478 15.8001 132.343 15.4094 132.295 15.0108H130.429C130.44 15.1797 130.462 15.3457 130.494 15.5091C130.594 16.0243 130.796 16.512 131.098 16.9721C131.497 17.562 132.071 18.0404 132.821 18.4072C133.587 18.7739 134.52 18.9573 135.621 18.9573C137.104 18.9573 138.284 18.6543 139.162 18.0484C140.055 17.4265 140.502 16.5336 140.502 15.3696C140.502 14.6201 140.31 14.0301 139.927 13.5996ZM120.344 18.8556L120.342 18.8547C119.527 18.4563 118.88 17.9247 118.425 17.251L118.423 17.2485L118.422 17.2459C117.977 16.5707 117.725 15.8347 117.671 15.0447L117.635 14.5125H120.477L120.529 14.9514C120.568 15.2721 120.677 15.5944 120.865 15.9206C121.046 16.1931 121.326 16.4377 121.735 16.6429C122.124 16.823 122.665 16.9282 123.384 16.9282C123.593 16.9282 123.864 16.9071 124.202 16.861C124.514 16.8185 124.809 16.741 125.089 16.629L125.093 16.6275L125.097 16.626C125.36 16.5257 125.57 16.3798 125.737 16.1895C125.867 16.0408 125.948 15.8373 125.948 15.537C125.948 15.194 125.827 14.9674 125.584 14.7955C125.268 14.5714 124.837 14.3853 124.274 14.2519L124.268 14.2505L124.262 14.2489C123.665 14.0919 123.027 13.9423 122.349 13.8003L122.347 13.7998C121.655 13.6517 120.994 13.4619 120.365 13.2301L120.359 13.2281L120.354 13.226C119.689 12.9635 119.128 12.5974 118.687 12.1198L118.684 12.1164L118.681 12.1129C118.197 11.5683 117.981 10.8569 117.981 10.0358C117.981 8.81514 118.43 7.82286 119.35 7.12769C120.27 6.42863 121.568 6.11724 123.169 6.11724C124.265 6.11724 125.203 6.29027 125.95 6.67099C126.679 7.01945 127.256 7.48616 127.65 8.08369C128.044 8.65773 128.281 9.28437 128.354 9.95834L128.414 10.5102H125.6L125.545 10.0737C125.499 9.70602 125.319 9.37806 124.958 9.08145L124.954 9.07862L124.951 9.07573C124.658 8.82623 124.09 8.64458 123.121 8.64458C122.206 8.64458 121.603 8.78585 121.244 9.00315C120.925 9.19607 120.772 9.46121 120.772 9.86839C120.772 10.1881 120.887 10.3957 121.124 10.554C121.447 10.769 121.884 10.9571 122.452 11.1071C123.051 11.2487 123.681 11.3905 124.343 11.5324C125.056 11.6653 125.731 11.8567 126.367 12.1076C127.038 12.3728 127.602 12.7592 128.043 13.2722C128.526 13.8181 128.74 14.5375 128.74 15.3696C128.74 16.6832 128.224 17.7348 127.186 18.4573L127.185 18.4583C126.197 19.1403 124.906 19.4556 123.36 19.4556C122.206 19.4556 121.195 19.2635 120.345 18.8565L120.344 18.8556ZM127.667 13.5996C127.284 13.1531 126.79 12.8103 126.183 12.5711C125.577 12.332 124.931 12.1486 124.245 12.021C123.576 11.8775 122.937 11.734 122.331 11.5905C121.725 11.431 121.231 11.2237 120.848 10.9686C120.465 10.7135 120.274 10.3468 120.274 9.86839C120.274 8.72032 121.223 8.14629 123.121 8.14629C124.126 8.14629 124.844 8.32966 125.274 8.6964C125.721 9.06315 125.976 9.50165 126.04 10.0119H127.858C127.84 9.84252 127.81 9.67642 127.768 9.51361C127.664 9.10933 127.486 8.72531 127.236 8.36155C126.901 7.8513 126.399 7.43672 125.729 7.11781C125.075 6.78296 124.222 6.61553 123.169 6.61553C121.622 6.61553 120.449 6.91849 119.652 7.52442C118.87 8.1144 118.479 8.95153 118.479 10.0358C118.479 10.7693 118.671 11.3513 119.053 11.7818C119.436 12.1964 119.931 12.5233 120.537 12.7625C121.143 12.9857 121.781 13.1691 122.451 13.3126C123.137 13.4561 123.783 13.6076 124.389 13.767C124.995 13.9105 125.49 14.1178 125.872 14.3889C126.255 14.66 126.447 15.0427 126.447 15.537C126.447 15.9356 126.335 16.2625 126.112 16.5176C125.888 16.7727 125.609 16.9641 125.274 17.0917C124.955 17.2192 124.62 17.3069 124.269 17.3548C123.918 17.4026 123.623 17.4265 123.384 17.4265C122.618 17.4265 121.996 17.3149 121.518 17.0917C121.039 16.8525 120.68 16.5495 120.441 16.1828C120.218 15.8001 120.082 15.4094 120.034 15.0108H118.168C118.18 15.1797 118.201 15.3457 118.233 15.5091C118.334 16.0243 118.535 16.512 118.838 16.9721C119.237 17.562 119.811 18.0404 120.561 18.4072C121.326 18.7739 122.26 18.9573 123.36 18.9573C124.844 18.9573 126.024 18.6543 126.901 18.0484C127.795 17.4265 128.241 16.5336 128.241 15.3696C128.241 14.6201 128.05 14.0301 127.667 13.5996ZM105.777 18.5651L105.773 18.5622C104.836 17.955 104.107 17.1383 103.59 16.1216C103.073 15.1058 102.818 13.9912 102.818 12.7864C102.818 11.5678 103.072 10.4522 103.591 9.45005C104.108 8.43332 104.838 7.62364 105.777 7.03202C106.743 6.41729 107.859 6.11724 109.107 6.11724C110.159 6.11724 111.09 6.32077 111.88 6.75107C112.248 6.94792 112.586 7.1783 112.891 7.44196V6.30858H115.682V19.2642H112.891V18.1361C112.586 18.3964 112.248 18.625 111.88 18.8217C111.09 19.252 110.159 19.4556 109.107 19.4556C107.862 19.4556 106.748 19.1648 105.782 18.5679L105.777 18.5651ZM111.643 18.3832C112.118 18.1297 112.534 17.8201 112.891 17.4546C113.073 17.2684 113.239 17.0677 113.389 16.8525V18.7659H115.184V6.80688H113.389V8.74424C113.239 8.52362 113.073 8.31844 112.891 8.1287C112.534 7.75616 112.118 7.44311 111.643 7.18956C110.941 6.80687 110.096 6.61553 109.107 6.61553C107.942 6.61553 106.921 6.89457 106.044 7.45266C105.183 7.99481 104.513 8.73627 104.034 9.67705C103.556 10.6019 103.317 11.6383 103.317 12.7864C103.317 13.9185 103.556 14.955 104.034 15.8958C104.513 16.8365 105.183 17.586 106.044 18.1441C106.921 18.6862 107.942 18.9573 109.107 18.9573C110.096 18.9573 110.941 18.7659 111.643 18.3832ZM111.316 16.296L111.319 16.2944C111.863 15.9316 112.273 15.4533 112.554 14.8505C112.841 14.2178 112.987 13.5317 112.987 12.7864C112.987 12.0227 112.84 11.338 112.555 10.7243C112.274 10.1206 111.864 9.64164 111.319 9.27844L111.316 9.27677L111.314 9.27508C110.807 8.92847 110.161 8.74025 109.346 8.74025C108.55 8.74025 107.89 8.92725 107.345 9.28162C106.783 9.64685 106.357 10.128 106.061 10.7328C105.762 11.3446 105.609 12.0263 105.609 12.7864C105.609 13.5279 105.761 14.2108 106.062 14.8417C106.358 15.4457 106.783 15.9263 107.345 16.2912C107.89 16.6456 108.55 16.8325 109.346 16.8325C110.161 16.8325 110.807 16.6443 111.314 16.2977L111.316 16.296ZM113.007 15.0586C112.688 15.7443 112.217 16.2944 111.595 16.709C110.989 17.1235 110.239 17.3308 109.346 17.3308C108.469 17.3308 107.711 17.1235 107.073 16.709C106.435 16.2944 105.948 15.7443 105.613 15.0586C105.278 14.357 105.111 13.5996 105.111 12.7864C105.111 11.9572 105.278 11.1998 105.613 10.5142C105.948 9.82853 106.435 9.27841 107.073 8.86383C107.711 8.44925 108.469 8.24196 109.346 8.24196C110.239 8.24196 110.989 8.44925 111.595 8.86383C112.217 9.27841 112.688 9.82853 113.007 10.5142C113.326 11.1998 113.485 11.9572 113.485 12.7864C113.485 13.5996 113.326 14.357 113.007 15.0586ZM88.6124 24V6.30858H91.4038V7.41897C91.704 7.16104 92.0347 6.93751 92.3953 6.74887C93.1989 6.32093 94.1357 6.11724 95.1881 6.11724C96.4335 6.11724 97.5419 6.4164 98.4935 7.03168C99.4478 7.62258 100.186 8.43201 100.704 9.45002C101.222 10.4522 101.477 11.5678 101.477 12.7864C101.477 13.9912 101.221 15.1058 100.705 16.1216C100.186 17.1406 99.4481 17.9577 98.4944 18.5644L98.4923 18.5657C97.5405 19.1648 96.4327 19.4556 95.1881 19.4556C94.1348 19.4556 93.1974 19.2515 92.3934 18.8229L92.3875 18.8198L92.3817 18.8165C92.0267 18.6148 91.7005 18.3842 91.4038 18.1248V24H88.6124ZM90.9053 16.8286C91.0568 17.0449 91.2229 17.2474 91.4038 17.4362C91.7561 17.8041 92.1642 18.1198 92.628 18.3832C93.3458 18.7659 94.1992 18.9573 95.1881 18.9573C96.3525 18.9573 97.3654 18.6862 98.2267 18.1441C99.104 17.586 99.782 16.8365 100.26 15.8958C100.739 14.955 100.978 13.9185 100.978 12.7864C100.978 11.6383 100.739 10.6019 100.26 9.67705C99.782 8.73627 99.104 7.99481 98.2267 7.45266C97.3654 6.89457 96.3525 6.61553 95.1881 6.61553C94.1992 6.61553 93.3458 6.80687 92.628 7.18956C92.1642 7.43192 91.7561 7.73696 91.4038 8.10466C91.2229 8.29337 91.0568 8.49859 90.9053 8.72032V6.80688H89.1108V23.5017H90.9053V16.8286ZM96.9478 16.2928L96.9502 16.2912C97.5117 15.9263 97.9372 15.4457 98.2326 14.8417C98.5334 14.2108 98.6853 13.5279 98.6853 12.7864C98.6853 12.0263 98.5323 11.3446 98.2334 10.7328C97.938 10.128 97.5123 9.64685 96.9502 9.28162L96.9478 9.28004L96.9454 9.27844C96.42 8.92831 95.7632 8.74025 94.9488 8.74025C94.1525 8.74025 93.5031 8.92735 92.9763 9.27844C92.4313 9.64164 92.021 10.1206 91.7401 10.7243C91.4545 11.338 91.3081 12.0227 91.3081 12.7864C91.3081 13.5317 91.4537 14.2178 91.741 14.8505C92.0219 15.4533 92.4319 15.9316 92.9763 16.2944C93.5031 16.6454 94.1525 16.8325 94.9488 16.8325C95.7632 16.8325 96.42 16.6445 96.9454 16.2944L96.9478 16.2928ZM91.2881 15.0586C90.9691 14.357 90.8096 13.5996 90.8096 12.7864C90.8096 11.9572 90.9691 11.1998 91.2881 10.5142C91.6071 9.82853 92.0777 9.27841 92.6998 8.86383C93.3219 8.44925 94.0715 8.24196 94.9488 8.24196C95.8421 8.24196 96.5998 8.44925 97.2218 8.86383C97.8599 9.27841 98.3464 9.82853 98.6814 10.5142C99.0163 11.1998 99.1838 11.9572 99.1838 12.7864C99.1838 13.5996 99.0163 14.357 98.6814 15.0586C98.3464 15.7443 97.8599 16.2944 97.2218 16.709C96.5998 17.1235 95.8421 17.3308 94.9488 17.3308C94.0715 17.3308 93.3219 17.1235 92.6998 16.709C92.0777 16.2944 91.6071 15.7443 91.2881 15.0586ZM76.946 18.5704L76.9433 18.5687C75.9593 17.9647 75.1885 17.1506 74.6365 16.1333L74.635 16.1304L74.6334 16.1275C74.0989 15.1106 73.8345 13.9939 73.8345 12.7864C73.8345 11.5678 74.0889 10.4522 74.607 9.45005C75.1266 8.42899 75.8753 7.61879 76.8471 7.02835C77.8303 6.41485 78.9766 6.11724 80.2667 6.11724C81.5703 6.11724 82.7182 6.41377 83.6881 7.0294C84.659 7.61974 85.407 8.42957 85.9264 9.45002C86.4445 10.4522 86.6989 11.5678 86.6989 12.7864V14.0022H76.7802C76.8886 14.4202 77.0519 14.8122 77.2696 15.1797C77.5909 15.6802 78.0154 16.0845 78.5502 16.3948C79.071 16.6815 79.6861 16.8325 80.4103 16.8325C81.1812 16.8325 81.7911 16.6663 82.2673 16.3634C82.7738 16.0249 83.1626 15.5997 83.4411 15.0848L83.5824 14.8234H86.5696L86.3062 15.502C85.8582 16.6561 85.1396 17.6087 84.1558 18.3505L84.1547 18.3513C83.1542 19.1015 81.8843 19.4556 80.3863 19.4556C79.0974 19.4556 77.9458 19.1665 76.9488 18.572L76.946 18.5704ZM82.5397 16.7807C81.9655 17.1475 81.2557 17.3308 80.4103 17.3308C79.6127 17.3308 78.9109 17.1634 78.3047 16.8286C77.6986 16.4778 77.2121 16.0153 76.8452 15.4413C76.579 14.9937 76.3863 14.514 76.2669 14.0022C76.2289 13.8394 76.1984 13.6733 76.1753 13.5039H86.2004V12.7864C86.2004 11.6383 85.9612 10.6019 85.4826 9.67705C85.0041 8.73627 84.3182 7.99481 83.425 7.45266C82.5477 6.89457 81.4949 6.61553 80.2667 6.61553C79.0544 6.61553 78.0017 6.89457 77.1084 7.45266C76.2152 7.99481 75.5293 8.73627 75.0508 9.67705C74.5722 10.6019 74.333 11.6383 74.333 12.7864C74.333 13.9185 74.5802 14.955 75.0747 15.8958C75.5851 16.8365 76.2949 17.586 77.2041 18.1441C78.1133 18.6862 79.1741 18.9573 80.3863 18.9573C81.806 18.9573 82.9624 18.6224 83.8557 17.9527C84.6193 17.3768 85.2086 16.6659 85.6234 15.82C85.7024 15.6588 85.7752 15.4927 85.8415 15.3217H83.8796C83.5606 15.9117 83.1139 16.398 82.5397 16.7807ZM65.9142 19.2642V6.30858H68.7056V7.87598C68.8058 7.75985 68.913 7.64482 69.027 7.53084C69.4259 7.13213 69.9155 6.80561 70.4862 6.54593C71.1074 6.25435 71.8198 6.11724 72.6095 6.11724H73.2276V8.90768H72.5138C71.7188 8.90768 71.0532 9.12538 70.4936 9.54832L70.4921 9.54949C69.9271 9.97302 69.4842 10.533 69.1653 11.2421C68.8599 11.9408 68.7056 12.693 68.7056 13.5039V19.2642H65.9142ZM68.7095 11.0404C69.0605 10.2591 69.5549 9.62921 70.193 9.15085C70.847 8.65654 71.6206 8.40939 72.5138 8.40939H72.7292V6.61553H72.6095C72.4803 6.61553 72.354 6.61949 72.2307 6.6274C71.654 6.66443 71.1422 6.78803 70.6954 6.99822C70.169 7.2374 69.7304 7.53239 69.3795 7.88319C69.1066 8.15596 68.882 8.42873 68.7056 8.70149C68.6551 8.77952 68.6086 8.85755 68.566 8.93559C68.3905 9.27044 68.2709 9.54151 68.2071 9.7488V6.80688H66.4126V18.7659H68.2071V13.5039C68.2071 12.6269 68.3746 11.8058 68.7095 11.0404ZM53.9619 18.5683L53.9591 18.5666C52.9889 17.9604 52.2408 17.1429 51.7213 16.1216C51.2046 15.1058 50.9494 13.9912 50.9494 12.7864C50.9494 11.5676 51.2039 10.4518 51.7221 9.44958C52.2417 8.42876 52.9903 7.61874 53.9619 7.02839C54.9451 6.41486 56.0915 6.11724 57.3816 6.11724C58.6852 6.11724 59.8331 6.41379 60.803 7.02945C61.7737 7.61969 62.5217 8.42935 63.041 9.44955C63.5593 10.4518 63.8138 11.5676 63.8138 12.7864C63.8138 13.9912 63.5585 15.1058 63.0418 16.1216C62.5224 17.1429 61.7743 17.9604 60.804 18.5666L60.8019 18.5679C59.832 19.1673 58.6845 19.4556 57.3816 19.4556C56.0929 19.4556 54.9476 19.1666 53.9646 18.57L53.9619 18.5683ZM62.5975 9.67705C62.119 8.73627 61.4331 7.99481 60.5398 7.45266C59.6625 6.89457 58.6098 6.61553 57.3816 6.61553C56.1693 6.61553 55.1166 6.89457 54.2233 7.45266C53.3301 7.99481 52.6442 8.73627 52.1656 9.67705C51.6871 10.6019 51.4478 11.6383 51.4478 12.7864C51.4478 13.9185 51.6871 14.955 52.1656 15.8958C52.6442 16.8365 53.3301 17.586 54.2233 18.1441C55.1166 18.6862 56.1693 18.9573 57.3816 18.9573C58.6098 18.9573 59.6625 18.6862 60.5398 18.1441C61.4331 17.586 62.119 16.8365 62.5975 15.8958C63.076 14.955 63.3153 13.9185 63.3153 12.7864C63.3153 11.6383 63.076 10.6019 62.5975 9.67705ZM59.3517 16.296L59.3541 16.2944C59.8985 15.9316 60.3085 15.4533 60.5894 14.8505C60.8768 14.2178 61.0224 13.5317 61.0224 12.7864C61.0224 12.0228 60.8759 11.338 60.5903 10.7243C60.3094 10.1206 59.8991 9.64164 59.3541 9.27844L59.3517 9.27677L59.3492 9.27508C58.8424 8.92847 58.1964 8.74025 57.3816 8.74025C56.5852 8.74025 55.9358 8.92735 55.409 9.27844C54.864 9.64164 54.4537 10.1206 54.1728 10.7243C53.8873 11.338 53.7408 12.0228 53.7408 12.7864C53.7408 13.5317 53.8864 14.2176 54.1737 14.8504C54.4546 15.4532 54.8646 15.9315 55.409 16.2944C55.9358 16.6454 56.5852 16.8325 57.3816 16.8325C58.1964 16.8325 58.8424 16.6443 59.3492 16.2977L59.3517 16.296ZM61.0423 15.0586C60.7233 15.7443 60.2527 16.2944 59.6306 16.709C59.0245 17.1235 58.2748 17.3308 57.3816 17.3308C56.5043 17.3308 55.7546 17.1235 55.1325 16.709C54.5104 16.2944 54.0399 15.7443 53.7208 15.0586C53.4018 14.357 53.2423 13.5996 53.2423 12.7864C53.2423 11.9572 53.4018 11.1998 53.7208 10.5142C54.0399 9.82853 54.5104 9.27841 55.1325 8.86383C55.7546 8.44925 56.5043 8.24196 57.3816 8.24196C58.2748 8.24196 59.0245 8.44925 59.6306 8.86383C60.2527 9.27841 60.7233 9.82853 61.0423 10.5142C61.3613 11.1998 61.5208 11.9572 61.5208 12.7864C61.5208 13.5996 61.3613 14.357 61.0423 15.0586ZM37.629 18.302L37.6269 18.3007C36.4025 17.5187 35.4567 16.4704 34.7947 15.164L34.7936 15.1617L34.7924 15.1594C34.1493 13.8567 33.8318 12.4168 33.8318 10.8488C33.8318 9.28086 34.1493 7.84102 34.7924 6.53834L34.7936 6.53601L34.7947 6.53371C35.4568 5.22705 36.4032 4.18598 37.629 3.4196C38.8692 2.62812 40.3288 2.24232 41.9866 2.24232C43.2423 2.24232 44.3891 2.46829 45.418 2.93056C46.435 3.37159 47.3063 3.98533 48.0253 4.77252C48.7428 5.55809 49.2795 6.47086 49.6358 7.50554L49.8633 8.16604H46.9399L46.8131 7.85671C46.4514 6.97444 45.8849 6.28029 45.1077 5.76229C44.3474 5.2556 43.3656 4.98493 42.1302 4.98493C40.9305 4.98493 39.9342 5.25398 39.1185 5.76899L39.1165 5.77024C38.3037 6.27805 37.6894 6.9638 37.2674 7.83675C36.8414 8.71781 36.6232 9.71856 36.6232 10.8488C36.6232 11.9614 36.8407 12.9631 37.268 13.8624C37.6899 14.7343 38.3042 15.4283 39.1175 15.952C39.9333 16.4515 40.9302 16.7128 42.1302 16.7128C43.3656 16.7128 44.3474 16.4421 45.1077 15.9354C45.8849 15.4174 46.4514 14.7233 46.8131 13.841L46.9399 13.5317H49.8671L49.635 14.1946C49.2786 15.2125 48.7428 16.1226 48.0289 16.9212L48.0271 16.9232L48.0253 16.9252C47.3069 17.7117 46.4368 18.3328 45.4212 18.7896L45.4181 18.791L45.4149 18.7924C44.3867 19.2378 43.2412 19.4554 41.9866 19.4554C40.3299 19.4554 38.8711 19.0781 37.6311 18.3033L37.629 18.302ZM38.8523 16.3739C37.9591 15.7999 37.2811 15.0345 36.8186 14.0778C36.356 13.1051 36.1247 12.0288 36.1247 10.8488C36.1247 9.65294 36.356 8.57663 36.8186 7.61991C37.2811 6.66318 37.9591 5.90578 38.8523 5.34769C39.7615 4.77365 40.8541 4.48664 42.1302 4.48664C43.4382 4.48664 44.5228 4.77365 45.3842 5.34769C46.2455 5.92172 46.8756 6.69507 47.2744 7.66774H49.1645C49.1061 7.498 49.0425 7.33191 48.9739 7.16945C48.6491 6.40098 48.2102 5.71399 47.6572 5.10851C46.9872 4.37502 46.1737 3.80098 45.2167 3.3864C44.2596 2.95588 43.183 2.74062 41.9866 2.74062C40.4075 2.74062 39.0437 3.10736 37.8952 3.84085C36.7468 4.55839 35.8615 5.53106 35.2394 6.75885C34.6333 7.98665 34.3302 9.34998 34.3302 10.8488C34.3302 12.3477 34.6333 13.711 35.2394 14.9388C35.8615 16.1666 36.7468 17.1473 37.8952 17.8808C39.0437 18.5983 40.4075 18.9571 41.9866 18.9571C43.183 18.9571 44.2596 18.7498 45.2167 18.3352C46.1737 17.9047 46.9872 17.3227 47.6572 16.5892C48.2085 15.9724 48.6464 15.2854 48.9709 14.5282C49.0407 14.3654 49.1052 14.1993 49.1645 14.03H47.2744C46.8756 15.0026 46.2455 15.776 45.3842 16.35C44.5228 16.924 43.4382 17.2111 42.1302 17.2111C40.8541 17.2111 39.7615 16.932 38.8523 16.3739ZM84.3342 11.8297C84.3075 11.6589 84.2732 11.4928 84.2313 11.3314C84.0229 10.5283 83.6265 9.84134 83.0422 9.27044C82.3403 8.58479 81.4152 8.24196 80.2667 8.24196C79.1182 8.24196 78.1931 8.58479 77.4913 9.27044C76.9202 9.84134 76.526 10.5283 76.3088 11.3314C76.2651 11.4928 76.2286 11.6589 76.1992 11.8297H84.3342ZM76.8272 11.3314C77.0286 10.6653 77.3675 10.0995 77.8416 9.62488C78.4344 9.04686 79.2258 8.74025 80.2667 8.74025C81.3088 8.74025 82.1008 9.04754 82.6938 9.62681C83.1799 10.1017 83.5204 10.6666 83.7144 11.3314H76.8272Z" fill="#363440"/>
<path fill-rule="evenodd" clip-rule="evenodd" d="M11.437 19.3781C15.8264 19.3781 19.3847 15.821 19.3847 11.4331C19.3847 7.04516 15.8264 3.48806 11.437 3.48806C7.04758 3.48806 3.48925 7.04516 3.48925 11.4331C3.48925 15.821 7.04758 19.3781 11.437 19.3781ZM11.437 22.8661C17.7535 22.8661 22.874 17.7474 22.874 11.4331C22.874 5.11876 17.7535 0 11.437 0C5.12052 0 0 5.11876 0 11.4331C0 17.7474 5.12052 22.8661 11.437 22.8661ZM20.1509 17.6525C23.8878 17.6525 26.9171 14.6242 26.9171 10.8886C26.9171 7.15305 23.8878 4.12476 20.1509 4.12476C16.414 4.12476 13.3847 7.15305 13.3847 10.8886C13.3847 14.6242 16.414 17.6525 20.1509 17.6525ZM20.1509 20.144C25.2642 20.144 29.4094 16.0002 29.4094 10.8886C29.4094 5.77705 25.2642 1.6333 20.1509 1.6333C15.0376 1.6333 10.8924 5.77705 10.8924 10.8886C10.8924 16.0002 15.0376 20.144 20.1509 20.144Z" fill="#363440"/>
</svg>
