<svg preserveAspectRatio="xMidYMid meet" viewBox="0 0 146 48" fill="none" xmlns="http://www.w3.org/2000/svg">
    <path d="M68.6688 13L77.7467 33.5051H75.66L72.5999 26.78H64.1999L61.1663 33.5051H59L68.184 13H68.6726H68.6688ZM68.4264 17.3657L65.0936 24.7775H71.7326L68.4264 17.3657Z"
          fill="#2A292E"/>
    <path d="M83.9502 31.1995C83.9502 31.6944 84.0146 31.9859 84.1396 32.078C84.2645 32.1701 84.5902 32.2161 85.1167 32.2161H86.2263V33.8082C85.4689 33.9348 84.8705 34 84.4388 34C83.6245 34 83.0299 33.8005 82.6512 33.3977C82.2725 32.9949 82.0831 32.3657 82.0831 31.5026V20.523H79.5343V18.9309H82.0831V13.3031H83.954V18.9309H86.8815V20.523H83.954V31.1995H83.9502Z"
          fill="#2A292E"/>
    <path d="M93.138 31.1995C93.138 31.6944 93.2024 31.9859 93.3274 32.078C93.4523 32.1701 93.778 32.2161 94.3045 32.2161H95.4141V33.8082C94.6567 33.9348 94.0583 34 93.6265 34C92.8123 34 92.2177 33.8005 91.839 33.3977C91.4603 32.9949 91.2709 32.3657 91.2709 31.5026V20.523H88.7221V18.9309H91.2709V13.3031H93.1418V18.9309H96.0693V20.523H93.1418V31.1995H93.138Z"
          fill="#2A292E"/>
    <path d="M111.18 33.5051H109.309V30.8964C107.829 32.8913 106.03 33.8887 103.916 33.8887C102.833 33.8887 101.856 33.5933 100.989 32.9949C100.122 32.4003 99.5081 31.6215 99.1445 30.6624C98.7847 29.7033 98.603 28.2877 98.603 26.4233V18.9309H100.447V25.8747C100.447 27.578 100.523 28.7289 100.678 29.3312C100.83 29.9335 101.065 30.4476 101.383 30.8696C101.697 31.2916 102.102 31.61 102.587 31.8286C103.076 32.0473 103.666 32.1586 104.363 32.1586C105.06 32.1586 105.742 31.9859 106.408 31.6368C107.075 31.2877 107.647 30.8043 108.116 30.1829C108.586 29.5614 108.904 28.9207 109.063 28.2609C109.226 27.601 109.306 26.2775 109.306 24.2826V18.9309H111.177V33.5051H111.18Z"
          fill="#2A292E"/>
    <path d="M115.301 18.9271H117.172V21.5358C118.652 19.5409 120.451 18.5435 122.565 18.5435C123.648 18.5435 124.625 18.8427 125.492 19.4373C126.359 20.032 126.973 20.8107 127.337 21.7698C127.696 22.7289 127.878 24.1445 127.878 26.009V33.5013H126.034V26.5575C126.034 24.8542 125.958 23.7033 125.803 23.101C125.647 22.4987 125.413 21.9847 125.098 21.5627C124.784 21.1407 124.379 20.8223 123.894 20.6036C123.405 20.3849 122.815 20.2737 122.118 20.2737C121.421 20.2737 120.739 20.4463 120.073 20.7954C119.406 21.1445 118.834 21.6279 118.365 22.2494C117.895 22.8708 117.577 23.5115 117.418 24.1714C117.255 24.8312 117.175 26.1586 117.175 28.1496V33.5013H115.305V18.9271H115.301Z"
          fill="#2A292E"/>
    <path d="M143.94 28.7826L145.511 29.6074C143.959 32.5345 141.664 34 138.63 34C136.464 34 134.672 33.2442 133.264 31.7366C131.855 30.2251 131.15 28.4105 131.15 26.289C131.15 24.1675 131.859 22.3453 133.279 20.8261C134.695 19.3069 136.449 18.5473 138.535 18.5473C140.622 18.5473 142.372 19.2532 143.792 20.6611C145.208 22.0691 145.947 23.991 146 26.4233H133.048C133.101 28.1803 133.646 29.5921 134.688 30.6624C135.725 31.7327 136.986 32.2698 138.467 32.2698C140.906 32.2698 142.732 31.1074 143.94 28.7826ZM143.94 24.8043C143.686 23.4156 143.054 22.3261 142.042 21.5396C141.031 20.7532 139.865 20.3581 138.547 20.3581C135.839 20.3581 134.066 21.8389 133.237 24.8043H143.94Z"
          fill="#2A292E"/>
    <path d="M48.3894 41.2463V41.2591C48.3894 41.3998 48.3894 41.5448 48.3723 41.6855C48.3723 41.6855 48.3723 41.694 48.3723 41.6983C48.3637 41.8432 48.3466 41.9839 48.3296 42.1246C48.3082 42.2696 48.2868 42.4146 48.2569 42.5553C48.2227 42.696 48.1928 42.8409 48.1501 42.9774C48.1202 43.0925 48.086 43.2034 48.0433 43.3185C47.992 43.4848 47.9279 43.6468 47.8553 43.8045C47.8125 43.9197 47.757 44.022 47.7057 44.1328C47.6758 44.184 47.6544 44.2394 47.6245 44.2863C47.6117 44.3204 47.5946 44.346 47.5775 44.3759C47.4921 44.5336 47.3938 44.6871 47.2998 44.8363C47.2998 44.8534 47.287 44.8662 47.2742 44.8747C47.2186 44.9557 47.1588 45.0367 47.099 45.1177C46.8469 45.4503 46.5691 45.7616 46.2658 46.0344C46.1119 46.1751 45.9496 46.3031 45.7829 46.431C45.706 46.4864 45.6248 46.5461 45.5479 46.6015C45.3684 46.7252 45.1847 46.8403 44.9882 46.9426C44.9113 46.981 44.8343 47.0236 44.7574 47.062C44.4583 47.2112 44.1464 47.3306 43.8345 47.4287C43.7319 47.4628 43.6337 47.4884 43.5268 47.5139C43.42 47.5438 43.3217 47.5651 43.2149 47.5864C43.1081 47.612 43.0013 47.6248 42.8945 47.6418C42.7919 47.6589 42.6936 47.676 42.5911 47.6802C42.5612 47.6887 42.5355 47.693 42.5056 47.6887C42.4159 47.6973 42.3262 47.7058 42.2407 47.7101C42.1296 47.7101 42.0228 47.7186 41.9074 47.7186C41.8091 47.7186 41.7151 47.7186 41.6254 47.7101C41.5955 47.7101 41.5656 47.7101 41.5357 47.7101C41.4673 47.7015 41.3989 47.6973 41.3306 47.6887C41.2708 47.6887 41.2067 47.6802 41.1426 47.6717C41.0528 47.6589 40.9588 47.6461 40.8734 47.6333C40.8606 47.6333 40.852 47.6333 40.8435 47.6333C40.7452 47.6205 40.6512 47.5992 40.5572 47.5822C40.429 47.5566 40.3008 47.5267 40.1769 47.4884C40.0487 47.45 39.9163 47.4159 39.7923 47.3732C39.7582 47.3604 39.7282 47.3519 39.6983 47.3349C39.6172 47.305 39.536 47.2794 39.4548 47.2411C39.395 47.2155 39.3351 47.1942 39.2711 47.1643C39.2411 47.1515 39.2155 47.1387 39.1856 47.1259C39.0189 47.0535 38.8566 46.9682 38.6985 46.8786C38.6771 46.8701 38.66 46.8573 38.6472 46.8445C38.5575 46.7934 38.4677 46.7379 38.3823 46.6783C38.1943 46.5631 38.0191 46.431 37.8482 46.2945C37.7627 46.2306 37.6773 46.1623 37.5961 46.0813C37.5149 46.0089 37.438 45.9364 37.3611 45.8639C37.3611 45.8639 37.3611 45.8639 37.3525 45.8554C37.2756 45.7786 37.1987 45.7019 37.1261 45.6209C37.1132 45.6123 37.109 45.6081 37.1004 45.5995C33.6736 42.2312 29.1401 40.3765 24.316 40.3765C19.4919 40.3765 14.6507 42.3549 11.194 45.9534C10.9675 46.1965 10.7282 46.4182 10.4676 46.61C10.3992 46.6697 10.3266 46.7252 10.2539 46.7763C10.1044 46.8872 9.94628 46.9895 9.78391 47.0833C9.66855 47.1558 9.54463 47.2197 9.42072 47.2837C9.29253 47.3477 9.1558 47.4116 9.02334 47.4713C8.92507 47.5139 8.83106 47.5523 8.72851 47.5864C8.70715 47.5992 8.69006 47.6035 8.66869 47.612C8.59605 47.6418 8.51914 47.6632 8.44223 47.6887C8.33968 47.7229 8.24568 47.7484 8.1474 47.774C8.06622 47.7996 7.98503 47.8167 7.89957 47.8337C7.8483 47.8508 7.79275 47.8636 7.74148 47.8721C7.62611 47.8977 7.50647 47.9147 7.38683 47.9318C7.30564 47.9446 7.22019 47.9531 7.139 47.9616C7.12191 47.9701 7.10482 47.9701 7.092 47.9616C6.98945 47.9744 6.89118 47.9829 6.78863 47.9872C6.6818 47.9872 6.57498 47.9957 6.46816 47.9957C6.26734 47.9957 6.06651 47.9872 5.86568 47.9659C5.76314 47.9574 5.66913 47.9446 5.56658 47.9275C5.3743 47.9019 5.17775 47.8678 4.98547 47.8209C4.86156 47.7911 4.73764 47.757 4.618 47.7186C4.49836 47.6802 4.37445 47.6418 4.25481 47.5992C4.10526 47.5438 3.95998 47.4841 3.8147 47.4159C3.73779 47.3818 3.66088 47.3477 3.58824 47.3093C3.57115 47.3007 3.55406 47.2965 3.54124 47.288C3.40023 47.2155 3.26777 47.143 3.13104 47.062C2.99858 46.981 2.8704 46.9 2.74648 46.8147C2.63966 46.7379 2.53711 46.6612 2.43884 46.5802C2.40038 46.5461 2.35338 46.5162 2.31492 46.4779C2.24656 46.4224 2.18246 46.3627 2.12264 46.303C1.89618 46.1027 1.68681 45.8809 1.49453 45.655C1.4518 45.6038 1.4048 45.5441 1.36634 45.4887C1.28943 45.3992 1.22534 45.3096 1.16552 45.2201C1.09288 45.1135 1.02451 45.0112 0.956147 44.9003C0.943328 44.879 0.926237 44.8577 0.917691 44.8321C0.849325 44.717 0.785231 44.5976 0.725411 44.4782C0.588679 44.2181 0.473311 43.9538 0.379308 43.6766C0.332306 43.5359 0.285305 43.3995 0.251122 43.2545C0.212666 43.1223 0.178483 42.9859 0.148573 42.8495C0.148573 42.8324 0.140027 42.8111 0.135754 42.794C0.110117 42.6661 0.0887522 42.5297 0.0716607 42.3975C0.0502963 42.2696 0.0374777 42.1374 0.0332048 42.0053C0.0332048 41.9797 0.024659 41.9584 0.0332048 41.9328C0.0203862 41.7963 0.0161133 41.6599 0.0161133 41.5192C0.0161133 41.3785 0.0161133 41.2463 0.0332048 41.1014C0.0332048 41.0033 0.0460234 40.9095 0.0588421 40.8114C0.0673878 40.7134 0.0802065 40.6196 0.097298 40.5258C0.097298 40.4703 0.114389 40.4106 0.127208 40.3552C0.127208 40.3424 0.127208 40.3339 0.127208 40.3211C0.165664 40.1037 0.221211 39.8862 0.285305 39.673C0.323761 39.5536 0.362216 39.43 0.404945 39.3106C0.447674 39.1912 0.498949 39.0719 0.550223 38.9525C0.597225 38.8374 0.657045 38.718 0.712593 38.6071C0.712593 38.6071 0.712593 38.6071 0.712593 38.5986C0.986057 38.0486 1.35352 37.5369 1.7979 37.0679C6.91681 31.7127 13.5697 28.4382 20.825 27.6409C21.983 27.513 23.1538 27.4491 24.3331 27.4491C25.5124 27.4491 26.5891 27.5088 27.7044 27.6324C34.8315 28.3871 41.4203 31.5465 46.5264 36.7055L47.2271 37.4133L47.6929 38.3257C48.1715 39.268 48.3979 40.2614 48.3979 41.2463H48.3894Z"
          fill="url(#paint0_linear_1321_7405)"/>
    <path d="M6.47237 47.9957C5.48533 47.9957 4.48121 47.7698 3.54117 47.2922C0.353606 45.6763 -0.915439 41.7836 0.703982 38.6029L18.3339 4.02017C19.6756 0.741401 23.4186 -0.853214 26.7258 0.459998C30.0416 1.77747 31.6653 5.52525 30.3535 8.83386C30.2638 9.08542 30.1569 9.33271 30.033 9.57574L12.2493 44.4654C11.1084 46.7081 8.831 48 6.47237 48V47.9957Z"
          fill="url(#paint1_linear_1321_7405)"/>
    <path d="M48.3894 41.2463V41.2591C48.3894 41.3998 48.3894 41.5448 48.3723 41.6855C48.3723 41.6855 48.3723 41.694 48.3723 41.6983C48.3637 41.8433 48.3466 41.984 48.3296 42.1247C48.3082 42.2696 48.2868 42.4146 48.2569 42.5553C48.2227 42.696 48.1928 42.841 48.1501 42.9774C48.1202 43.0925 48.086 43.2034 48.0433 43.3185C47.992 43.4848 47.9279 43.6468 47.8553 43.8045C47.8125 43.9197 47.757 44.022 47.7057 44.1328C47.6758 44.184 47.6544 44.2394 47.6245 44.2863C47.6117 44.3204 47.5946 44.346 47.5775 44.3759C47.4921 44.5336 47.3981 44.6871 47.2998 44.8364C47.2998 44.8534 47.287 44.8662 47.2741 44.8747C47.2186 44.9557 47.1588 45.0367 47.099 45.1178C46.8554 45.4503 46.5777 45.7616 46.2658 46.0344C46.1119 46.1794 45.9538 46.3116 45.7829 46.431C45.706 46.4864 45.6248 46.5461 45.5479 46.6015C45.3684 46.7252 45.1847 46.8403 44.9882 46.9426C44.9412 46.9767 44.8899 46.998 44.8429 47.0236C44.813 47.0407 44.7873 47.0535 44.7574 47.062C44.4583 47.2112 44.1464 47.3306 43.8345 47.4287C43.7319 47.4628 43.6337 47.4884 43.5268 47.5139C43.42 47.5438 43.3217 47.5651 43.2149 47.5864C43.1081 47.612 43.0013 47.6248 42.8944 47.6419C42.7919 47.6589 42.6936 47.676 42.5911 47.6802C42.5612 47.6888 42.5355 47.693 42.5056 47.6888C42.4159 47.6973 42.3262 47.7058 42.2407 47.7101C42.1296 47.7186 42.0228 47.7229 41.9117 47.7229C41.8134 47.7229 41.7194 47.7229 41.6254 47.7101C41.5955 47.7101 41.5656 47.7101 41.5357 47.7101C41.4673 47.7015 41.3989 47.6973 41.3306 47.6888C41.2708 47.6888 41.2067 47.6802 41.1426 47.6717C41.0528 47.6589 40.9588 47.6461 40.8734 47.6333C40.8606 47.6333 40.852 47.6333 40.8435 47.6333C40.7452 47.6205 40.6512 47.5992 40.5572 47.5822C40.429 47.5566 40.3008 47.5267 40.1769 47.4884C40.0487 47.45 39.9163 47.4159 39.7923 47.3732C39.7582 47.3604 39.7282 47.3519 39.6983 47.3349C39.6172 47.305 39.536 47.2794 39.4548 47.2411C39.395 47.2155 39.3351 47.1942 39.2711 47.1643C39.2411 47.1515 39.2155 47.1387 39.1856 47.1259C39.0189 47.0535 38.8566 46.9682 38.6985 46.8787C38.6771 46.8701 38.66 46.8573 38.6472 46.8445C38.5532 46.7976 38.4635 46.738 38.3823 46.6783C38.1943 46.5631 38.0191 46.4352 37.8482 46.2945C37.7627 46.2306 37.6773 46.1624 37.5961 46.0813C37.5149 46.0089 37.438 45.9364 37.3611 45.8639C37.3611 45.8639 37.3611 45.8639 37.3525 45.8554C37.2756 45.7786 37.1987 45.7019 37.1261 45.6209C37.1132 45.6123 37.109 45.6081 37.1004 45.5995C36.7287 45.1817 36.3997 44.717 36.1348 44.1925L27.6873 27.6367L24.2476 20.8915L18.3852 9.39667L18.2699 9.12805C17.6161 7.61018 17.5862 5.97293 18.0776 4.51475C18.398 3.56822 18.9321 2.70269 19.65 1.98639C19.65 1.98639 19.65 1.97787 19.6628 1.9736C20.2226 1.41933 20.8891 0.963112 21.654 0.634808C24.8971 -0.759414 28.6487 0.690236 30.1057 3.87947L30.5843 4.81321V4.82174L47.2186 37.4218L47.6843 38.3342C48.1629 39.2765 48.3894 40.27 48.3894 41.2549V41.2463Z"
          fill="url(#paint2_linear_1321_7405)"/>
    <defs>
        <linearGradient id="paint0_linear_1321_7405" x1="0.00329464" y1="37.7245" x2="48.3894" y2="37.7245"
                        gradientUnits="userSpaceOnUse">
            <stop stop-color="#6E4EFB"/>
            <stop offset="0.73" stop-color="white" stop-opacity="0.1"/>
        </linearGradient>
        <linearGradient id="paint1_linear_1321_7405" x1="4.60512" y1="45.7829" x2="26.0532" y2="2.37599"
                        gradientUnits="userSpaceOnUse">
            <stop offset="0.46" stop-color="white" stop-opacity="0.1"/>
            <stop offset="1" stop-color="#6E4EFB"/>
        </linearGradient>
        <linearGradient id="paint2_linear_1321_7405" x1="17.7486" y1="23.9102" x2="48.3894" y2="23.9102"
                        gradientUnits="userSpaceOnUse">
            <stop offset="0.2" stop-color="white" stop-opacity="0.1"/>
            <stop offset="1" stop-color="#6E4EFB"/>
        </linearGradient>
    </defs>
</svg>
