<svg width="20" height="20" viewBox="0 0 20 20" fill="none" xmlns="http://www.w3.org/2000/svg">
<path d="M17.5 3.75V5.9375C17.5 6.10326 17.4342 6.26223 17.3169 6.37944C17.1997 6.49665 17.0408 6.5625 16.875 6.5625C16.7092 6.5625 16.5503 6.49665 16.4331 6.37944C16.3158 6.26223 16.25 6.10326 16.25 5.9375V3.75H14.0625C13.8967 3.75 13.7378 3.68415 13.6206 3.56694C13.5033 3.44973 13.4375 3.29076 13.4375 3.125C13.4375 2.95924 13.5033 2.80027 13.6206 2.68306C13.7378 2.56585 13.8967 2.5 14.0625 2.5H16.25C16.5815 2.5 16.8995 2.6317 17.1339 2.86612C17.3683 3.10054 17.5 3.41848 17.5 3.75ZM16.875 13.4375C16.7092 13.4375 16.5503 13.5033 16.4331 13.6206C16.3158 13.7378 16.25 13.8967 16.25 14.0625V16.25H14.0625C13.8967 16.25 13.7378 16.3158 13.6206 16.4331C13.5033 16.5503 13.4375 16.7092 13.4375 16.875C13.4375 17.0408 13.5033 17.1997 13.6206 17.3169C13.7378 17.4342 13.8967 17.5 14.0625 17.5H16.25C16.5815 17.5 16.8995 17.3683 17.1339 17.1339C17.3683 16.8995 17.5 16.5815 17.5 16.25V14.0625C17.5 13.8967 17.4342 13.7378 17.3169 13.6206C17.1997 13.5033 17.0408 13.4375 16.875 13.4375ZM5.9375 16.25H3.75V14.0625C3.75 13.8967 3.68415 13.7378 3.56694 13.6206C3.44973 13.5033 3.29076 13.4375 3.125 13.4375C2.95924 13.4375 2.80027 13.5033 2.68306 13.6206C2.56585 13.7378 2.5 13.8967 2.5 14.0625V16.25C2.5 16.5815 2.6317 16.8995 2.86612 17.1339C3.10054 17.3683 3.41848 17.5 3.75 17.5H5.9375C6.10326 17.5 6.26223 17.4342 6.37944 17.3169C6.49665 17.1997 6.5625 17.0408 6.5625 16.875C6.5625 16.7092 6.49665 16.5503 6.37944 16.4331C6.26223 16.3158 6.10326 16.25 5.9375 16.25ZM3.125 6.5625C3.29076 6.5625 3.44973 6.49665 3.56694 6.37944C3.68415 6.26223 3.75 6.10326 3.75 5.9375V3.75H5.9375C6.10326 3.75 6.26223 3.68415 6.37944 3.56694C6.49665 3.44973 6.5625 3.29076 6.5625 3.125C6.5625 2.95924 6.49665 2.80027 6.37944 2.68306C6.26223 2.56585 6.10326 2.5 5.9375 2.5H3.75C3.41848 2.5 3.10054 2.6317 2.86612 2.86612C2.6317 3.10054 2.5 3.41848 2.5 3.75V5.9375C2.5 6.10326 2.56585 6.26223 2.68306 6.37944C2.80027 6.49665 2.95924 6.5625 3.125 6.5625ZM13.75 13.75C13.6529 13.7502 13.5571 13.7278 13.4702 13.6845C13.3832 13.6413 13.3076 13.5784 13.2492 13.5008C12.8708 12.9962 12.3801 12.5867 11.816 12.3047C11.2519 12.0226 10.6299 11.8758 9.99922 11.8758C9.36854 11.8758 8.74651 12.0226 8.18241 12.3047C7.61831 12.5867 7.12763 12.9962 6.74922 13.5008C6.64956 13.6334 6.5013 13.721 6.33705 13.7443C6.17281 13.7676 6.00605 13.7247 5.87344 13.625C5.74083 13.5253 5.65324 13.3771 5.62995 13.2128C5.60665 13.0486 5.64956 12.8818 5.74922 12.7492C6.30312 12.0076 7.04134 11.4237 7.89062 11.0555C7.42524 10.6306 7.09919 10.0749 6.95526 9.4614C6.81133 8.84789 6.85624 8.2052 7.0841 7.61767C7.31197 7.03014 7.71213 6.52523 8.23209 6.1692C8.75204 5.81316 9.36749 5.62265 9.99766 5.62265C10.6278 5.62265 11.2433 5.81316 11.7632 6.1692C12.2832 6.52523 12.6833 7.03014 12.9112 7.61767C13.1391 8.2052 13.184 8.84789 13.0401 9.4614C12.8961 10.0749 12.5701 10.6306 12.1047 11.0555C12.9545 11.4234 13.6933 12.0074 14.2477 12.7492C14.3174 12.8419 14.36 12.9522 14.3706 13.0677C14.3812 13.1832 14.3595 13.2994 14.3079 13.4033C14.2562 13.5072 14.1767 13.5946 14.0782 13.6558C13.9796 13.7171 13.866 13.7497 13.75 13.75ZM10 10.625C10.3708 10.625 10.7334 10.515 11.0417 10.309C11.35 10.103 11.5904 9.81014 11.7323 9.46753C11.8742 9.12492 11.9113 8.74792 11.839 8.38421C11.7666 8.02049 11.588 7.6864 11.3258 7.42417C11.0636 7.16195 10.7295 6.98337 10.3658 6.91103C10.0021 6.83868 9.62508 6.87581 9.28247 7.01773C8.93986 7.15964 8.64702 7.39996 8.44099 7.70831C8.23497 8.01665 8.125 8.37916 8.125 8.75C8.125 9.24728 8.32254 9.72419 8.67417 10.0758C9.02581 10.4275 9.50272 10.625 10 10.625Z" fill="#2A292E"/>
</svg>
