<svg xmlns="http://www.w3.org/2000/svg" width="20" height="20" viewBox="0 0 20 20" fill="none">
    <path d="M18.7288 16.25H17.4999V7.5C17.4999 7.16848 17.3682 6.85054 17.1338 6.61612C16.8994 6.3817 16.5814 6.25 16.2499 6.25H12.8124C12.7295 6.25 12.65 6.28292 12.5914 6.34153C12.5328 6.40013 12.4999 6.47962 12.4999 6.5625V16.25H11.2499V2.53203C11.252 2.33733 11.2097 2.14471 11.1263 1.96875C11.043 1.79279 10.9207 1.6381 10.7687 1.51641C10.5615 1.35487 10.3087 1.26272 10.0461 1.25305C9.78359 1.24337 9.52467 1.31666 9.30616 1.4625L3.05616 5.625C2.8847 5.73939 2.7442 5.8944 2.64715 6.07623C2.5501 6.25807 2.49952 6.46108 2.49991 6.66719V16.25H1.271C1.10949 16.2476 0.953069 16.3065 0.8332 16.4148C0.713332 16.523 0.638911 16.6727 0.624908 16.8336C0.619232 16.9191 0.631194 17.0048 0.660051 17.0855C0.688909 17.1662 0.734046 17.2401 0.792658 17.3026C0.85127 17.365 0.922106 17.4148 1.00077 17.4488C1.07943 17.4828 1.16423 17.5002 1.24991 17.5H18.7499C18.8356 17.5002 18.9204 17.4828 18.9991 17.4488C19.0777 17.4148 19.1485 17.365 19.2072 17.3026C19.2658 17.2401 19.3109 17.1662 19.3398 17.0855C19.3686 17.0048 19.3806 16.9191 19.3749 16.8336C19.3609 16.6727 19.2865 16.523 19.1666 16.4148C19.0467 16.3065 18.8903 16.2476 18.7288 16.25ZM5.93741 14.375C5.9376 14.4607 5.92017 14.5455 5.8862 14.6241C5.85223 14.7028 5.80246 14.7736 5.73996 14.8323C5.67747 14.8909 5.60359 14.936 5.52291 14.9649C5.44224 14.9937 5.35649 15.0057 5.271 15C5.10995 14.986 4.96018 14.9115 4.85189 14.7914C4.7436 14.6714 4.68482 14.5148 4.68741 14.3531V13.1461C4.68521 12.9846 4.74414 12.8283 4.85237 12.7085C4.96061 12.5887 5.11015 12.5142 5.271 12.5C5.35649 12.4943 5.44224 12.5063 5.52291 12.5351C5.60359 12.564 5.67747 12.6091 5.73996 12.6677C5.80246 12.7264 5.85223 12.7972 5.8862 12.8759C5.92017 12.9545 5.9376 13.0393 5.93741 13.125V14.375ZM5.93741 10C5.9376 10.0857 5.92017 10.1705 5.8862 10.2491C5.85223 10.3278 5.80246 10.3986 5.73996 10.4573C5.67747 10.5159 5.60359 10.561 5.52291 10.5899C5.44224 10.6187 5.35649 10.6307 5.271 10.625C5.11001 10.6108 4.96036 10.5362 4.8521 10.4162C4.74385 10.2962 4.68501 10.1397 4.68741 9.97812V8.77109C4.68521 8.60963 4.74414 8.45331 4.85237 8.33348C4.96061 8.21365 5.11015 8.13918 5.271 8.125C5.35649 8.11932 5.44224 8.13128 5.52291 8.16014C5.60359 8.189 5.67747 8.23414 5.73996 8.29275C5.80246 8.35136 5.85223 8.4222 5.8862 8.50086C5.92017 8.57952 5.9376 8.66432 5.93741 8.75V10ZM9.06241 14.375C9.0626 14.4607 9.04517 14.5455 9.0112 14.6241C8.97723 14.7028 8.92746 14.7736 8.86496 14.8323C8.80247 14.8909 8.72859 14.936 8.64791 14.9649C8.56724 14.9937 8.48149 15.0057 8.396 15C8.23522 14.986 8.08568 14.9117 7.97743 14.792C7.86918 14.6723 7.81022 14.5161 7.81241 14.3547V13.1461C7.81041 12.9848 7.86942 12.8286 7.97764 12.709C8.08586 12.5893 8.23529 12.515 8.396 12.5008C8.48149 12.4951 8.56724 12.5071 8.64791 12.5359C8.72859 12.5648 8.80247 12.6099 8.86496 12.6685C8.92746 12.7271 8.97723 12.798 9.0112 12.8766C9.04517 12.9553 9.0626 13.0401 9.06241 13.1258V14.375ZM9.06241 10C9.0626 10.0857 9.04517 10.1705 9.0112 10.2491C8.97723 10.3278 8.92746 10.3986 8.86496 10.4573C8.80247 10.5159 8.72859 10.561 8.64791 10.5899C8.56724 10.6187 8.48149 10.6307 8.396 10.625C8.23529 10.6108 8.08586 10.5365 7.97764 10.4168C7.86942 10.2971 7.81041 10.141 7.81241 9.97969V8.77109C7.81041 8.60977 7.86942 8.45364 7.97764 8.33398C8.08586 8.21431 8.23529 8.13995 8.396 8.12578C8.48149 8.1201 8.56724 8.13207 8.64791 8.16092C8.72859 8.18978 8.80247 8.23492 8.86496 8.29353C8.92746 8.35214 8.97723 8.42298 9.0112 8.50164C9.04517 8.5803 9.0626 8.6651 9.06241 8.75078V10Z"
          fill="#6E4EFB"/>
</svg>
