<svg xmlns="http://www.w3.org/2000/svg" width="20" height="20" viewBox="0 0 20 20" fill="none">
    <path d="M18.0413 17.1874C17.9864 17.2825 17.9075 17.3614 17.8124 17.4162C17.7174 17.4711 17.6096 17.5 17.4998 17.4999H2.49985C2.39019 17.4998 2.28249 17.4709 2.18757 17.416C2.09265 17.3611 2.01384 17.2821 1.95906 17.1872C1.90428 17.0922 1.87546 16.9844 1.87549 16.8748C1.87552 16.7651 1.90439 16.6574 1.95922 16.5624C3.14907 14.5054 4.98266 13.0304 7.1225 12.3312C6.06404 11.7011 5.24168 10.7409 4.78171 9.59821C4.32174 8.45548 4.2496 7.19337 4.57636 6.00568C4.90313 4.81798 5.61072 3.77039 6.59049 3.02378C7.57026 2.27716 8.76803 1.8728 9.99985 1.8728C11.2317 1.8728 12.4294 2.27716 13.4092 3.02378C14.389 3.77039 15.0966 4.81798 15.4233 6.00568C15.7501 7.19337 15.678 8.45548 15.218 9.59821C14.758 10.7409 13.9357 11.7011 12.8772 12.3312C15.017 13.0304 16.8506 14.5054 18.0405 16.5624C18.0954 16.6574 18.1245 16.7651 18.1246 16.8748C18.1247 16.9845 18.096 17.0923 18.0413 17.1874Z"
          fill="#6E4EFB"/>
</svg>
