<svg xmlns="http://www.w3.org/2000/svg" width="20" height="20" viewBox="0 0 20 20" fill="none">
    <path d="M0 3.77774C0 3.57147 0.0810336 3.37365 0.225274 3.2278C0.369514 3.08194 0.565146 3 0.769133 3H17.6901C17.8941 3 18.0897 3.08194 18.2339 3.2278C18.3782 3.37365 18.4592 3.57147 18.4592 3.77774C18.4592 3.98401 18.3782 4.18184 18.2339 4.32769C18.0897 4.47355 17.8941 4.55549 17.6901 4.55549H0.769133C0.565146 4.55549 0.369514 4.47355 0.225274 4.32769C0.0810336 4.18184 0 3.98401 0 3.77774ZM0.769133 10.7774H7.69133C7.89532 10.7774 8.09095 10.6955 8.23519 10.5496C8.37943 10.4038 8.46047 10.206 8.46047 9.99969C8.46047 9.79342 8.37943 9.5956 8.23519 9.44975C8.09095 9.30389 7.89532 9.22195 7.69133 9.22195H0.769133C0.565146 9.22195 0.369514 9.30389 0.225274 9.44975C0.0810336 9.5956 0 9.79342 0 9.99969C0 10.206 0.0810336 10.4038 0.225274 10.5496C0.369514 10.6955 0.565146 10.7774 0.769133 10.7774ZM9.2296 15.4439H0.769133C0.565146 15.4439 0.369514 15.5258 0.225274 15.6717C0.0810336 15.8176 0 16.0154 0 16.2216C0 16.4279 0.0810336 16.6257 0.225274 16.7716C0.369514 16.9174 0.565146 16.9994 0.769133 16.9994H9.2296C9.43359 16.9994 9.62922 16.9174 9.77346 16.7716C9.9177 16.6257 9.99873 16.4279 9.99873 16.2216C9.99873 16.0154 9.9177 15.8176 9.77346 15.6717C9.62922 15.5258 9.43359 15.4439 9.2296 15.4439ZM19.7725 16.7719C19.7011 16.8442 19.6162 16.9016 19.5229 16.9407C19.4295 16.9799 19.3294 17 19.2283 17C19.1273 17 19.0272 16.9799 18.9338 16.9407C18.8404 16.9016 18.7556 16.8442 18.6842 16.7719L16.7286 14.7984C15.9334 15.3289 14.9717 15.5421 14.0299 15.3965C13.0881 15.251 12.2332 14.7571 11.631 14.0106C11.0287 13.2641 10.7219 12.3181 10.7701 11.356C10.8182 10.3938 11.2178 9.48394 11.8915 8.80271C12.5652 8.12148 13.465 7.71738 14.4165 7.6687C15.368 7.62002 16.3036 7.93024 17.0418 8.53924C17.78 9.14824 18.2684 10.0127 18.4124 10.965C18.5563 11.9174 18.3455 12.8898 17.8208 13.694L19.7725 15.6675C19.8446 15.7398 19.9018 15.8258 19.9408 15.9206C19.9799 16.0154 20 16.117 20 16.2197C20 16.3224 19.9799 16.424 19.9408 16.5188C19.9018 16.6136 19.8446 16.6996 19.7725 16.7719ZM14.6135 13.8884C15.0699 13.8884 15.516 13.7516 15.8955 13.4952C16.2749 13.2388 16.5706 12.8744 16.7453 12.4481C16.9199 12.0217 16.9656 11.5526 16.8766 11.1C16.7876 10.6474 16.5678 10.2316 16.2451 9.90534C15.9224 9.57903 15.5113 9.35681 15.0637 9.26678C14.6161 9.17675 14.1521 9.22296 13.7305 9.39956C13.3089 9.57615 12.9485 9.87521 12.695 10.2589C12.4415 10.6426 12.3061 11.0937 12.3061 11.5552C12.3061 12.174 12.5492 12.7675 12.982 13.205C13.4147 13.6426 14.0016 13.8884 14.6135 13.8884Z"
          fill="#363440"/>
</svg>
