<svg xmlns="http://www.w3.org/2000/svg" width="20" height="20" viewBox="0 0 20 20" fill="none">
    <path d="M18.75 16.2498H17.5V7.49984C17.5 7.16832 17.3683 6.85037 17.1339 6.61595C16.8995 6.38153 16.5815 6.24984 16.25 6.24984H11.25V2.49984C11.2501 2.27348 11.1888 2.05133 11.0726 1.8571C10.9563 1.66287 10.7895 1.50385 10.59 1.39702C10.3904 1.29018 10.1656 1.23953 9.93951 1.25049C9.71342 1.26144 9.49454 1.33358 9.30625 1.45921L3.05625 5.62484C2.8848 5.73923 2.74429 5.89424 2.64724 6.07607C2.55019 6.2579 2.49961 6.46091 2.5 6.66702V16.2498H1.25C1.08424 16.2498 0.925268 16.3157 0.808058 16.4329C0.690848 16.5501 0.625 16.7091 0.625 16.8748C0.625 17.0406 0.690848 17.1996 0.808058 17.3168C0.925268 17.434 1.08424 17.4998 1.25 17.4998H18.75C18.9158 17.4998 19.0747 17.434 19.1919 17.3168C19.3092 17.1996 19.375 17.0406 19.375 16.8748C19.375 16.7091 19.3092 16.5501 19.1919 16.4329C19.0747 16.3157 18.9158 16.2498 18.75 16.2498ZM16.25 7.49984V16.2498H11.25V7.49984H16.25ZM3.75 6.66702L10 2.49984V16.2498H3.75V6.66702ZM8.75 8.74984V9.99984C8.75 10.1656 8.68415 10.3246 8.56694 10.4418C8.44973 10.559 8.29076 10.6248 8.125 10.6248C7.95924 10.6248 7.80027 10.559 7.68306 10.4418C7.56585 10.3246 7.5 10.1656 7.5 9.99984V8.74984C7.5 8.58408 7.56585 8.4251 7.68306 8.30789C7.80027 8.19068 7.95924 8.12484 8.125 8.12484C8.29076 8.12484 8.44973 8.19068 8.56694 8.30789C8.68415 8.4251 8.75 8.58408 8.75 8.74984ZM6.25 8.74984V9.99984C6.25 10.1656 6.18415 10.3246 6.06694 10.4418C5.94973 10.559 5.79076 10.6248 5.625 10.6248C5.45924 10.6248 5.30027 10.559 5.18306 10.4418C5.06585 10.3246 5 10.1656 5 9.99984V8.74984C5 8.58408 5.06585 8.4251 5.18306 8.30789C5.30027 8.19068 5.45924 8.12484 5.625 8.12484C5.79076 8.12484 5.94973 8.19068 6.06694 8.30789C6.18415 8.4251 6.25 8.58408 6.25 8.74984ZM6.25 13.1248V14.3748C6.25 14.5406 6.18415 14.6996 6.06694 14.8168C5.94973 14.934 5.79076 14.9998 5.625 14.9998C5.45924 14.9998 5.30027 14.934 5.18306 14.8168C5.06585 14.6996 5 14.5406 5 14.3748V13.1248C5 12.9591 5.06585 12.8001 5.18306 12.6829C5.30027 12.5657 5.45924 12.4998 5.625 12.4998C5.79076 12.4998 5.94973 12.5657 6.06694 12.6829C6.18415 12.8001 6.25 12.9591 6.25 13.1248ZM8.75 13.1248V14.3748C8.75 14.5406 8.68415 14.6996 8.56694 14.8168C8.44973 14.934 8.29076 14.9998 8.125 14.9998C7.95924 14.9998 7.80027 14.934 7.68306 14.8168C7.56585 14.6996 7.5 14.5406 7.5 14.3748V13.1248C7.5 12.9591 7.56585 12.8001 7.68306 12.6829C7.80027 12.5657 7.95924 12.4998 8.125 12.4998C8.29076 12.4998 8.44973 12.5657 8.56694 12.6829C8.68415 12.8001 8.75 12.9591 8.75 13.1248Z" fill="#2A292E"/>
</svg>
