<svg xmlns="http://www.w3.org/2000/svg" width="20" height="20" viewBox="0 0 20 20" fill="none">
  <path d="M0 3.77775C0 3.57148 0.0810577 3.37366 0.225341 3.2278C0.369625 3.08194 0.565315 3 0.769362 3H17.6953C17.8994 3 18.0951 3.08194 18.2394 3.2278C18.3836 3.37366 18.4647 3.57148 18.4647 3.77775C18.4647 3.98403 18.3836 4.18185 18.2394 4.32771C18.0951 4.47357 17.8994 4.55551 17.6953 4.55551H0.769362C0.565315 4.55551 0.369625 4.47357 0.225341 4.32771C0.0810577 4.18185 0 3.98403 0 3.77775ZM0.769362 10.7775H7.69362C7.89767 10.7775 8.09336 10.6956 8.23764 10.5497C8.38193 10.4039 8.46299 10.2061 8.46299 9.99978C8.46299 9.79351 8.38193 9.59569 8.23764 9.44983C8.09336 9.30397 7.89767 9.22203 7.69362 9.22203H0.769362C0.565315 9.22203 0.369625 9.30397 0.225341 9.44983C0.0810577 9.59569 0 9.79351 0 9.99978C0 10.2061 0.0810577 10.4039 0.225341 10.5497C0.369625 10.6956 0.565315 10.7775 0.769362 10.7775ZM9.23235 15.4441H0.769362C0.565315 15.4441 0.369625 15.526 0.225341 15.6719C0.0810577 15.8177 0 16.0155 0 16.2218C0 16.4281 0.0810577 16.6259 0.225341 16.7718C0.369625 16.9176 0.565315 16.9996 0.769362 16.9996H9.23235C9.43639 16.9996 9.63209 16.9176 9.77637 16.7718C9.92065 16.6259 10.0017 16.4281 10.0017 16.2218C10.0017 16.0155 9.92065 15.8177 9.77637 15.6719C9.63209 15.526 9.43639 15.4441 9.23235 15.4441ZM19.7784 15.6716L17.8261 13.6941C18.351 12.8899 18.5618 11.9175 18.4178 10.9651C18.2739 10.0127 17.7853 9.14831 17.0469 8.53931C16.3084 7.9303 15.3726 7.62008 14.4208 7.66876C13.469 7.71744 12.569 8.12155 11.8951 8.80279C11.2212 9.48403 10.8214 10.3939 10.7733 11.3561C10.7251 12.3183 11.032 13.2643 11.6344 14.0108C12.2369 14.7573 13.092 15.2512 14.0341 15.3967C14.9762 15.5422 15.9381 15.3291 16.7336 14.7985L18.6859 16.7721C18.8302 16.918 19.026 17 19.2302 17C19.4344 17 19.6302 16.918 19.7745 16.7721C19.9189 16.6261 20 16.4282 20 16.2218C20 16.0154 19.9189 15.8175 19.7745 15.6716H19.7784Z" fill="#2A292E"/>
</svg>