<svg width="20" height="20" viewBox="0 0 20 20" fill="none" xmlns="http://www.w3.org/2000/svg">
<path d="M9.99979 6.25004C9.25811 6.25004 8.53309 6.46997 7.9164 6.88203C7.29972 7.29408 6.81907 7.87975 6.53524 8.56497C6.25142 9.2502 6.17715 10.0042 6.32185 10.7316C6.46654 11.4591 6.82369 12.1272 7.34814 12.6517C7.87259 13.1761 8.54077 13.5333 9.2682 13.678C9.99563 13.8227 10.7496 13.7484 11.4349 13.4646C12.1201 13.1808 12.7057 12.7001 13.1178 12.0834C13.5299 11.4667 13.7498 10.7417 13.7498 10C13.7488 9.00579 13.3533 8.05257 12.6503 7.34953C11.9473 6.64649 10.994 6.25107 9.99979 6.25004ZM9.99979 12.5C9.50534 12.5 9.02199 12.3534 8.61087 12.0787C8.19974 11.804 7.87931 11.4136 7.69009 10.9567C7.50087 10.4999 7.45137 9.99726 7.54783 9.51231C7.64429 9.02736 7.88239 8.5819 8.23203 8.23227C8.58166 7.88264 9.02711 7.64454 9.51207 7.54807C9.99702 7.45161 10.4997 7.50112 10.9565 7.69034C11.4133 7.87956 11.8038 8.19999 12.0785 8.61111C12.3532 9.02223 12.4998 9.50558 12.4998 10C12.4998 10.6631 12.2364 11.299 11.7676 11.7678C11.2987 12.2366 10.6628 12.5 9.99979 12.5ZM16.8748 10.1688C16.8779 10.0563 16.8779 9.94379 16.8748 9.83129L18.0404 8.37504C18.1015 8.29858 18.1438 8.20883 18.1639 8.11303C18.184 8.01722 18.1813 7.91804 18.156 7.82347C17.965 7.10519 17.6791 6.41554 17.306 5.77269C17.2572 5.68857 17.1894 5.617 17.108 5.5637C17.0266 5.5104 16.9339 5.47683 16.8373 5.46566L14.9842 5.25941C14.9071 5.17816 14.829 5.10004 14.7498 5.02504L14.531 3.16722C14.5198 3.07051 14.4861 2.97777 14.4327 2.89639C14.3792 2.815 14.3075 2.74723 14.2232 2.69847C13.5801 2.32609 12.8905 2.04053 12.1724 1.84925C12.0778 1.8241 11.9786 1.82152 11.8828 1.84174C11.787 1.86196 11.6973 1.90441 11.6209 1.96566L10.1685 3.12504C10.056 3.12504 9.94354 3.12504 9.83104 3.12504L8.37479 1.96175C8.29833 1.90064 8.20859 1.85833 8.11278 1.83825C8.01698 1.81816 7.9178 1.82086 7.82323 1.84613C7.10507 2.03756 6.41546 2.32338 5.77245 2.69613C5.68832 2.74498 5.61676 2.81279 5.56346 2.89417C5.51015 2.97555 5.47658 3.06824 5.46542 3.16488L5.25917 5.02113C5.17792 5.09873 5.09979 5.17686 5.02479 5.2555L3.16698 5.46879C3.07027 5.48004 2.97753 5.51373 2.89614 5.56717C2.81476 5.62061 2.74699 5.69233 2.69823 5.7766C2.32584 6.4197 2.04029 7.10929 1.84901 7.82738C1.82385 7.92201 1.82128 8.02122 1.8415 8.11703C1.86172 8.21284 1.90416 8.30255 1.96542 8.37894L3.12479 9.83129C3.12479 9.94379 3.12479 10.0563 3.12479 10.1688L1.96151 11.625C1.90039 11.7015 1.85809 11.7912 1.838 11.887C1.81792 11.9828 1.82062 12.082 1.84589 12.1766C2.03697 12.8949 2.32281 13.5845 2.69589 14.2274C2.74473 14.3115 2.81255 14.3831 2.89392 14.4364C2.9753 14.4897 3.068 14.5232 3.16464 14.5344L5.01776 14.7407C5.09537 14.8219 5.17349 14.9 5.25214 14.975L5.46854 16.8329C5.47979 16.9296 5.51348 17.0223 5.56692 17.1037C5.62037 17.1851 5.69208 17.2528 5.77635 17.3016C6.41945 17.674 7.10904 17.9595 7.82714 18.1508C7.92176 18.176 8.02098 18.1786 8.11679 18.1583C8.21259 18.1381 8.30231 18.0957 8.3787 18.0344L9.83104 16.875C9.94354 16.8782 10.056 16.8782 10.1685 16.875L11.6248 18.0407C11.7013 18.1018 11.791 18.1441 11.8868 18.1642C11.9826 18.1843 12.0818 18.1816 12.1764 18.1563C12.8946 17.9652 13.5843 17.6794 14.2271 17.3063C14.3113 17.2574 14.3828 17.1896 14.4361 17.1082C14.4894 17.0269 14.523 16.9342 14.5342 16.8375L14.7404 14.9844C14.8217 14.9073 14.8998 14.8292 14.9748 14.75L16.8326 14.5313C16.9293 14.52 17.0221 14.4863 17.1034 14.4329C17.1848 14.3795 17.2526 14.3077 17.3014 14.2235C17.6737 13.5804 17.9593 12.8908 18.1506 12.1727C18.1757 12.0781 18.1783 11.9788 18.1581 11.883C18.1379 11.7872 18.0954 11.6975 18.0342 11.6211L16.8748 10.1688ZM15.617 9.66097C15.6303 9.88682 15.6303 10.1133 15.617 10.3391C15.6077 10.4937 15.6561 10.6463 15.7529 10.7672L16.8615 12.1524C16.7343 12.5567 16.5714 12.9488 16.3748 13.3243L14.6092 13.5243C14.4554 13.5413 14.3134 13.6148 14.2107 13.7305C14.0603 13.8996 13.9002 14.0598 13.731 14.2102C13.6153 14.3129 13.5419 14.4549 13.5248 14.6086L13.3287 16.3727C12.9533 16.5694 12.5611 16.7323 12.1568 16.8594L10.7709 15.7508C10.66 15.6622 10.5222 15.614 10.3803 15.6141H10.3428C10.1169 15.6274 9.89048 15.6274 9.66464 15.6141C9.51001 15.6048 9.35744 15.6532 9.23651 15.75L7.84745 16.8594C7.44318 16.7322 7.05101 16.5693 6.67557 16.3727L6.47557 14.6094C6.45851 14.4557 6.38502 14.3137 6.26932 14.211C6.10019 14.0606 5.94002 13.9004 5.78964 13.7313C5.68693 13.6156 5.54496 13.5421 5.3912 13.525L3.62714 13.3282C3.43041 12.9528 3.26753 12.5606 3.14042 12.1563L4.24901 10.7703C4.34581 10.6494 4.39426 10.4968 4.38495 10.3422C4.37167 10.1164 4.37167 9.88995 4.38495 9.6641C4.39426 9.50948 4.34581 9.35691 4.24901 9.23597L3.14042 7.84769C3.26762 7.44342 3.4305 7.05125 3.62714 6.67582L5.39042 6.47582C5.54418 6.45875 5.68615 6.38526 5.78885 6.26957C5.93924 6.10043 6.09941 5.94026 6.26854 5.78988C6.3847 5.6871 6.45849 5.54481 6.47557 5.39066L6.67167 3.62738C7.04706 3.43065 7.43924 3.26777 7.84354 3.14066L9.22948 4.24925C9.35041 4.34606 9.50298 4.3945 9.65761 4.38519C9.88345 4.37191 10.1099 4.37191 10.3357 4.38519C10.4904 4.3945 10.6429 4.34606 10.7639 4.24925L12.1521 3.14066C12.5564 3.26787 12.9486 3.43075 13.324 3.62738L13.524 5.39066C13.5411 5.54442 13.6146 5.68639 13.7303 5.7891C13.8994 5.93948 14.0596 6.09965 14.2099 6.26879C14.3127 6.38448 14.4546 6.45797 14.6084 6.47504L16.3724 6.67113C16.5692 7.04652 16.7321 7.4387 16.8592 7.84301L15.7506 9.22894C15.6528 9.35089 15.6043 9.50503 15.6146 9.66097H15.617Z" fill="#2A292E"/>
</svg>
