<svg xmlns="http://www.w3.org/2000/svg" width="16" height="16" viewBox="0 0 16 16" fill="none">
    <path d="M13.354 6.85378L8.35403 11.8538C8.30759 11.9003 8.25245 11.9372 8.19175 11.9623C8.13105 11.9875 8.06599 12.0004 8.00028 12.0004C7.93457 12.0004 7.86951 11.9875 7.80881 11.9623C7.74811 11.9372 7.69296 11.9003 7.64653 11.8538L2.64653 6.85378C2.55271 6.75996 2.5 6.63272 2.5 6.50003C2.5 6.36735 2.55271 6.2401 2.64653 6.14628C2.74035 6.05246 2.8676 5.99976 3.00028 5.99976C3.13296 5.99976 3.26021 6.05246 3.35403 6.14628L8.00028 10.7932L12.6465 6.14628C12.693 6.09983 12.7481 6.06298 12.8088 6.03784C12.8695 6.0127 12.9346 5.99976 13.0003 5.99976C13.066 5.99976 13.131 6.0127 13.1917 6.03784C13.2524 6.06298 13.3076 6.09983 13.354 6.14628C13.4005 6.19274 13.4373 6.24789 13.4625 6.30859C13.4876 6.36928 13.5006 6.43434 13.5006 6.50003C13.5006 6.56573 13.4876 6.63079 13.4625 6.69148C13.4373 6.75218 13.4005 6.80733 13.354 6.85378Z"
          fill="#343330"/>
</svg>
