<svg xmlns="http://www.w3.org/2000/svg" preserveAspectRatio="xMidYMid meet" viewBox="0 0 24 24" fill="none">
    <path d="M21.6197 4.64346C21.5043 4.37675 21.313 4.14986 21.0696 3.99101C20.8263 3.83216 20.5416 3.74836 20.251 3.75002H3.75095C3.46064 3.7506 3.17673 3.8354 2.93366 3.99416C2.6906 4.15291 2.49883 4.37879 2.38161 4.64438C2.26439 4.90998 2.22677 5.20389 2.2733 5.49045C2.31984 5.77701 2.44853 6.04391 2.64376 6.25877L2.65126 6.26721L9.00095 13.0472V20.25C9.00089 20.5215 9.0745 20.7879 9.21395 21.0208C9.35339 21.2538 9.55344 21.4445 9.79275 21.5727C10.0321 21.7008 10.3017 21.7617 10.5729 21.7487C10.844 21.7356 11.1066 21.6493 11.3325 21.4988L14.3325 19.4981C14.5382 19.3612 14.7068 19.1755 14.8234 18.9576C14.94 18.7398 15.001 18.4965 15.001 18.2494V13.0472L21.3516 6.26721L21.3591 6.25877C21.5564 6.04489 21.6863 5.77764 21.7327 5.49037C21.779 5.2031 21.7397 4.90854 21.6197 4.64346ZM13.9078 12.0263C13.6473 12.3024 13.5018 12.6675 13.501 13.0472V18.2494L10.501 20.25V13.0472C10.5018 12.6662 10.3569 12.2992 10.096 12.0216L3.75095 5.25002H20.251L13.9078 12.0263Z"
          fill="#2A292E"/>
</svg>
