<svg xmlns="http://www.w3.org/2000/svg" preserveAspectRatio="xMidYMid meet" viewBox="0 0 20 20" fill="none">
    <path d="M17.8123 10.0001C17.8123 10.2488 17.7135 10.4872 17.5377 10.663C17.3619 10.8388 17.1234 10.9376 16.8748 10.9376H5.39039L9.41539 14.9618C9.59151 15.138 9.69045 15.3768 9.69045 15.6259C9.69045 15.875 9.59151 16.1138 9.41539 16.29C9.23927 16.4661 9.0004 16.565 8.75132 16.565C8.50225 16.565 8.26338 16.4661 8.08726 16.29L2.46226 10.665C2.37486 10.5779 2.30552 10.4744 2.2582 10.3604C2.21088 10.2465 2.18652 10.1243 2.18652 10.0009C2.18652 9.87751 2.21088 9.75533 2.2582 9.64138C2.30552 9.52742 2.37486 9.42393 2.46226 9.33683L8.08726 3.71183C8.17447 3.62463 8.278 3.55545 8.39194 3.50825C8.50588 3.46106 8.628 3.43677 8.75132 3.43677C8.87465 3.43677 8.99677 3.46106 9.11071 3.50825C9.22465 3.55545 9.32818 3.62463 9.41539 3.71183C9.50259 3.79904 9.57177 3.90257 9.61896 4.01651C9.66616 4.13045 9.69045 4.25257 9.69045 4.37589C9.69045 4.49922 9.66616 4.62134 9.61896 4.73528C9.57177 4.84922 9.50259 4.95275 9.41539 5.03996L5.39039 9.06261H16.8748C17.1234 9.06261 17.3619 9.16138 17.5377 9.3372C17.7135 9.51302 17.8123 9.75147 17.8123 10.0001Z"
          fill="#9095A3"/>
</svg>
