<svg xmlns="http://www.w3.org/2000/svg" width="24" height="24" viewBox="0 0 24 24" fill="none">
    <path d="M21.425 10.5026C21.671 9.76185 21.756 8.97711 21.6745 8.20082C21.593 7.42454 21.3468 6.67459 20.9522 6.00107C20.3674 4.98305 19.4743 4.17705 18.4019 3.69929C17.3294 3.22153 16.1329 3.09668 14.985 3.34275C14.3327 2.61726 13.5011 2.07617 12.5736 1.7738C11.6461 1.47143 10.6554 1.41843 9.70092 1.62013C8.74645 1.82183 7.86186 2.27113 7.13598 2.9229C6.41011 3.57467 5.86851 4.40596 5.56559 5.33328C4.80078 5.49011 4.07826 5.80838 3.44631 6.26681C2.81436 6.72524 2.28753 7.31327 1.90104 7.99161C1.30982 9.00794 1.05714 10.1859 1.17952 11.3553C1.30191 12.5247 1.79302 13.6249 2.58185 14.4968C2.33496 15.2372 2.24903 16.0218 2.32981 16.7981C2.41059 17.5744 2.65622 18.3245 3.05026 18.9983C3.63586 20.0167 4.52968 20.8228 5.6029 21.3006C6.67613 21.7784 7.87332 21.9031 9.02196 21.6567C9.54012 22.2402 10.1768 22.7064 10.8895 23.0243C11.6022 23.3421 12.3745 23.5043 13.1548 23.4999C14.3315 23.501 15.4781 23.1281 16.429 22.4352C17.38 21.7422 18.0862 20.765 18.4456 19.6446C19.2103 19.4875 19.9328 19.1691 20.5647 18.7107C21.1966 18.2523 21.7235 17.6644 22.1102 16.9862C22.6944 15.9714 22.9427 14.7978 22.8197 13.6333C22.6966 12.4688 22.2084 11.3729 21.425 10.5026ZM13.1548 22.06C12.1912 22.0615 11.2577 21.7238 10.5181 21.106L10.6482 21.0323L15.0283 18.5039C15.1373 18.44 15.2278 18.3488 15.2909 18.2393C15.3541 18.1298 15.3876 18.0058 15.3883 17.8794V11.7039L17.2399 12.7751C17.2491 12.7798 17.257 12.7865 17.2631 12.7948C17.2691 12.8031 17.2731 12.8127 17.2748 12.8228V17.9402C17.2725 19.0321 16.8376 20.0787 16.0655 20.8508C15.2934 21.6229 14.2468 22.0577 13.1548 22.06ZM4.29922 18.2784C3.81593 17.4439 3.6424 16.4657 3.80917 15.5159L3.93933 15.594L8.32374 18.1223C8.43222 18.186 8.55573 18.2195 8.68151 18.2195C8.80729 18.2195 8.9308 18.186 9.03929 18.1223L14.3952 15.0345V17.1725C14.3947 17.1836 14.3917 17.1945 14.3864 17.2042C14.3811 17.214 14.3737 17.2224 14.3647 17.2289L9.92827 19.7876C8.98147 20.333 7.85692 20.4804 6.80153 20.1975C5.74614 19.9145 4.84617 19.2243 4.29922 18.2784ZM3.14569 8.73759C3.63233 7.89771 4.40044 7.25711 5.31405 6.92919V12.1333C5.31241 12.259 5.34453 12.3829 5.40707 12.4919C5.46962 12.601 5.56029 12.6913 5.66963 12.7534L10.9995 15.8282L9.14773 16.8993C9.13771 16.9046 9.12653 16.9074 9.11518 16.9074C9.10384 16.9074 9.09267 16.9046 9.08264 16.8993L4.65488 14.345C3.70986 13.7972 3.02042 12.8973 2.73756 11.8422C2.45469 10.7872 2.60145 9.66302 3.14569 8.71596V8.73759ZM18.3589 12.2721L13.0117 9.16695L14.8592 8.09996C14.8692 8.09464 14.8804 8.09185 14.8917 8.09185C14.9031 8.09185 14.9142 8.09464 14.9243 8.09996L19.352 10.6586C20.029 11.0493 20.5809 11.6244 20.9433 12.317C21.3057 13.0095 21.4636 13.7909 21.3986 14.5698C21.3336 15.3487 21.0483 16.093 20.5761 16.7159C20.1039 17.3388 19.4643 17.8145 18.7319 18.0875V12.8834C18.7281 12.7579 18.6917 12.6355 18.6262 12.5283C18.5608 12.4211 18.4688 12.3329 18.3589 12.2721ZM20.2021 9.5009L20.0719 9.4228L15.6962 6.87282C15.587 6.80877 15.4628 6.775 15.3362 6.775C15.2097 6.775 15.0854 6.80877 14.9762 6.87282L9.62485 9.96051V7.82258C9.62371 7.81171 9.62553 7.80073 9.63011 7.79081C9.63469 7.78088 9.64187 7.77238 9.65088 7.7662L14.0786 5.21183C14.7573 4.82088 15.5332 4.63124 16.3156 4.66509C17.098 4.69893 17.8547 4.95486 18.497 5.40293C19.1393 5.85101 19.6408 6.47271 19.9428 7.19533C20.2447 7.91795 20.3347 8.71161 20.2021 9.48348L20.2021 9.5009ZM8.61423 13.291L6.76257 12.2242C6.7533 12.2186 6.74538 12.2111 6.73936 12.2021C6.73334 12.1931 6.72937 12.1829 6.72773 12.1722V7.06798C6.72875 6.28494 6.95267 5.51837 7.3733 4.8579C7.79392 4.19743 8.39389 3.67035 9.10303 3.33829C9.81218 3.00623 10.6012 2.88291 11.3778 2.98275C12.1545 3.08259 12.8867 3.40147 13.4888 3.9021L13.3586 3.97589L8.9786 6.50405C8.86959 6.56798 8.77908 6.65918 8.71597 6.76867C8.65285 6.87816 8.61931 7.00219 8.61863 7.12857L8.61423 13.291ZM9.62036 11.1227L12.0055 9.74794L14.3952 11.1227V13.8722L12.0142 15.2469L9.62476 13.8722L9.62036 11.1227Z"
          fill="#6F6C7D"/>
</svg>
