<svg xmlns="http://www.w3.org/2000/svg" width="24" height="24" viewBox="0 0 24 24" fill="none">
    <mask id="path-1-inside-1_4792_8764" fill="white">
        <path d="M13.0107 10.7554L11.5914 13.5481L8.05345 20.5044C7.93899 20.7283 7.7991 20.9292 7.63886 21.1047L7.6236 21.12C7.60071 21.1428 7.57782 21.1683 7.55493 21.1912C7.50661 21.242 7.45319 21.2878 7.40232 21.3311C7.38961 21.3412 7.37689 21.354 7.36417 21.3616C7.35145 21.3718 7.33874 21.3819 7.32602 21.3921C7.3133 21.4023 7.29804 21.415 7.28532 21.4252C7.26752 21.4379 7.25226 21.4506 7.23445 21.4633C7.21156 21.4811 7.18613 21.4964 7.16324 21.5142C7.15306 21.5218 7.14289 21.5295 7.13272 21.5345C7.10474 21.5523 7.07676 21.5701 7.04624 21.588C7.0208 21.6032 6.99791 21.6159 6.97248 21.6312C6.94704 21.6465 6.92161 21.6592 6.89617 21.6719C6.84276 21.6973 6.78681 21.7253 6.73339 21.7482C6.64691 21.7863 6.55789 21.8194 6.46633 21.8474C6.44852 21.8525 6.43072 21.8576 6.41292 21.8626C6.39766 21.8677 6.38494 21.8703 6.36968 21.8728C6.3595 21.8754 6.34679 21.8779 6.33661 21.8804C6.32644 21.883 6.31626 21.8855 6.30355 21.8881C6.29083 21.8906 6.27811 21.8932 6.2654 21.8957C6.26031 21.8957 6.25777 21.8983 6.25013 21.8983C6.23742 21.9008 6.22724 21.9033 6.21453 21.9059C6.17892 21.9135 6.14331 21.9211 6.1077 21.9262C6.0899 21.9288 6.07209 21.9313 6.05429 21.9339C6.03648 21.9364 6.02122 21.9389 6.00342 21.9415C5.98562 21.9415 5.97035 21.944 5.95255 21.9466C5.94746 21.9466 5.94492 21.9491 5.94238 21.9491C5.93983 21.9491 5.93729 21.9491 5.93475 21.9491C5.89405 21.9542 5.85081 21.9568 5.81012 21.9593C5.76688 21.9593 5.7211 21.9618 5.67786 21.9618H5.64988C5.64988 21.9618 5.63207 21.9618 5.62444 21.9618H5.61427C5.5812 21.9618 5.54814 21.9593 5.51507 21.9568C5.50744 21.9568 5.49727 21.9568 5.48964 21.9568C5.46929 21.9568 5.44894 21.9542 5.42605 21.9517C5.40825 21.9491 5.39045 21.9466 5.37264 21.944C5.34975 21.944 5.32686 21.9389 5.30397 21.9364C5.28362 21.9339 5.26327 21.9313 5.24292 21.9288C5.22258 21.9262 5.20223 21.9237 5.18442 21.9186C5.16916 21.9186 5.1539 21.9135 5.13864 21.911C5.08777 21.9008 5.0369 21.8881 4.98603 21.8754C4.9606 21.8677 4.93517 21.8601 4.90973 21.8525C4.90973 21.8525 4.90973 21.8525 4.90719 21.8525C4.88175 21.8448 4.85377 21.8347 4.82834 21.827C4.80545 21.8194 4.78256 21.8118 4.75967 21.8041C4.72915 21.794 4.69608 21.7813 4.66556 21.766C4.63758 21.7558 4.60706 21.7406 4.57654 21.7278C4.54602 21.7126 4.51295 21.6999 4.48243 21.6846C4.4748 21.6821 4.46717 21.6795 4.46208 21.6744C4.44173 21.6643 4.42139 21.6541 4.40104 21.6414C4.39086 21.6363 4.37815 21.6312 4.36797 21.6236C4.34508 21.6108 4.31965 21.5956 4.29676 21.5803C4.26878 21.5651 4.2408 21.5473 4.21537 21.5295C4.20774 21.5244 4.19756 21.5193 4.18993 21.5116C4.16958 21.4989 4.15178 21.4862 4.13143 21.4735C4.11108 21.4582 4.09328 21.4455 4.07548 21.4303C4.07039 21.4277 4.0653 21.4226 4.06021 21.4201C4.04241 21.4074 4.02715 21.3946 4.01189 21.3794C4.00426 21.3743 3.99409 21.3667 3.98645 21.359C3.97882 21.3514 3.96865 21.3438 3.96102 21.3387C3.94576 21.326 3.9305 21.3133 3.91524 21.3005C3.91015 21.2955 3.90252 21.2904 3.89743 21.2827C3.89235 21.2777 3.88726 21.2726 3.87963 21.2649C3.85674 21.2446 3.83385 21.2217 3.81096 21.2013C3.78806 21.1785 3.76517 21.1581 3.74483 21.1352C3.72448 21.1123 3.70159 21.0894 3.68124 21.0665C3.66089 21.0437 3.64054 21.0208 3.6202 20.9953C3.60239 20.9724 3.58459 20.9495 3.56678 20.9267C3.55915 20.919 3.55152 20.9089 3.54389 20.8987C3.53626 20.8885 3.52863 20.8783 3.52354 20.8707C3.51591 20.858 3.50574 20.8453 3.49557 20.8325C3.49557 20.83 3.49302 20.8275 3.49048 20.8249C3.48539 20.8173 3.48031 20.8097 3.47522 20.802C3.46759 20.7919 3.45996 20.7817 3.45487 20.7715C3.42944 20.7334 3.404 20.6952 3.38111 20.6545C3.36585 20.6316 3.35313 20.6062 3.34042 20.5807C3.26666 20.451 3.20561 20.3137 3.15729 20.1738C3.14203 20.1331 3.12931 20.0924 3.11659 20.0492C3.1115 20.0339 3.10642 20.0161 3.10133 20.0008C3.09624 19.9881 3.0937 19.9729 3.09116 19.9601C3.08098 19.9195 3.07081 19.8762 3.06063 19.8355C3.06063 19.833 3.06063 19.8279 3.05809 19.8253C3.05555 19.805 3.05046 19.7872 3.04792 19.7694C3.04537 19.7567 3.04283 19.744 3.04283 19.7312C3.03774 19.7033 3.0352 19.6778 3.03011 19.6498C3.02757 19.6295 3.02503 19.6066 3.02248 19.5863C3.02248 19.5786 3.01994 19.5685 3.01994 19.5583C3.0174 19.5354 3.01485 19.51 3.01485 19.4871C3.01485 19.4845 3.01485 19.4794 3.01485 19.4769C3.01485 19.4743 3.01485 19.4693 3.01485 19.4667C3.01485 19.4642 3.01485 19.4616 3.01485 19.4591C3.01231 19.4337 3.00977 19.4057 3.00977 19.3802C3.00977 19.3497 3.00977 19.3192 3.00977 19.2887C3.00977 19.2632 3.00977 19.2353 3.00977 19.2098C3.00977 19.192 3.00977 19.1768 3.01231 19.159C3.01231 19.1412 3.01231 19.1208 3.01485 19.103C3.01485 19.0827 3.0174 19.0649 3.01994 19.047C3.01994 19.0292 3.02248 19.014 3.02503 18.9987C3.02503 18.9784 3.02757 18.958 3.03266 18.9402C3.0352 18.9199 3.03774 18.9021 3.04283 18.8817C3.04283 18.8716 3.04537 18.8588 3.04792 18.8461C3.05046 18.8334 3.053 18.8232 3.05555 18.8105C3.05555 18.808 3.05555 18.8054 3.05555 18.8029V18.7978C3.07335 18.7062 3.0937 18.6172 3.12168 18.5282C3.13694 18.4773 3.15474 18.429 3.17255 18.3781C3.18272 18.3527 3.19289 18.3273 3.20053 18.3018C3.2107 18.2789 3.22087 18.2535 3.23105 18.2281C3.24122 18.2052 3.25139 18.1823 3.26157 18.1594C3.27429 18.134 3.287 18.106 3.29972 18.0805L10.4621 3.97205C10.4621 3.97205 10.4621 3.97459 10.4621 3.97713C10.2612 4.57993 10.2713 5.25649 10.541 5.88472L10.5893 5.99663L13.0107 10.7529V10.7554Z"/>
    </mask>
    <path d="M13.0107 10.7554L11.5914 13.5481L8.05345 20.5044C7.93899 20.7283 7.7991 20.9292 7.63886 21.1047L7.6236 21.12C7.60071 21.1428 7.57782 21.1683 7.55493 21.1912C7.50661 21.242 7.45319 21.2878 7.40232 21.3311C7.38961 21.3412 7.37689 21.354 7.36417 21.3616C7.35145 21.3718 7.33874 21.3819 7.32602 21.3921C7.3133 21.4023 7.29804 21.415 7.28532 21.4252C7.26752 21.4379 7.25226 21.4506 7.23445 21.4633C7.21156 21.4811 7.18613 21.4964 7.16324 21.5142C7.15306 21.5218 7.14289 21.5295 7.13272 21.5345C7.10474 21.5523 7.07676 21.5701 7.04624 21.588C7.0208 21.6032 6.99791 21.6159 6.97248 21.6312C6.94704 21.6465 6.92161 21.6592 6.89617 21.6719C6.84276 21.6973 6.78681 21.7253 6.73339 21.7482C6.64691 21.7863 6.55789 21.8194 6.46633 21.8474C6.44852 21.8525 6.43072 21.8576 6.41292 21.8626C6.39766 21.8677 6.38494 21.8703 6.36968 21.8728C6.3595 21.8754 6.34679 21.8779 6.33661 21.8804C6.32644 21.883 6.31626 21.8855 6.30355 21.8881C6.29083 21.8906 6.27811 21.8932 6.2654 21.8957C6.26031 21.8957 6.25777 21.8983 6.25013 21.8983C6.23742 21.9008 6.22724 21.9033 6.21453 21.9059C6.17892 21.9135 6.14331 21.9211 6.1077 21.9262C6.0899 21.9288 6.07209 21.9313 6.05429 21.9339C6.03648 21.9364 6.02122 21.9389 6.00342 21.9415C5.98562 21.9415 5.97035 21.944 5.95255 21.9466C5.94746 21.9466 5.94492 21.9491 5.94238 21.9491C5.93983 21.9491 5.93729 21.9491 5.93475 21.9491C5.89405 21.9542 5.85081 21.9568 5.81012 21.9593C5.76688 21.9593 5.7211 21.9618 5.67786 21.9618H5.64988C5.64988 21.9618 5.63207 21.9618 5.62444 21.9618H5.61427C5.5812 21.9618 5.54814 21.9593 5.51507 21.9568C5.50744 21.9568 5.49727 21.9568 5.48964 21.9568C5.46929 21.9568 5.44894 21.9542 5.42605 21.9517C5.40825 21.9491 5.39045 21.9466 5.37264 21.944C5.34975 21.944 5.32686 21.9389 5.30397 21.9364C5.28362 21.9339 5.26327 21.9313 5.24292 21.9288C5.22258 21.9262 5.20223 21.9237 5.18442 21.9186C5.16916 21.9186 5.1539 21.9135 5.13864 21.911C5.08777 21.9008 5.0369 21.8881 4.98603 21.8754C4.9606 21.8677 4.93517 21.8601 4.90973 21.8525C4.90973 21.8525 4.90973 21.8525 4.90719 21.8525C4.88175 21.8448 4.85377 21.8347 4.82834 21.827C4.80545 21.8194 4.78256 21.8118 4.75967 21.8041C4.72915 21.794 4.69608 21.7813 4.66556 21.766C4.63758 21.7558 4.60706 21.7406 4.57654 21.7278C4.54602 21.7126 4.51295 21.6999 4.48243 21.6846C4.4748 21.6821 4.46717 21.6795 4.46208 21.6744C4.44173 21.6643 4.42139 21.6541 4.40104 21.6414C4.39086 21.6363 4.37815 21.6312 4.36797 21.6236C4.34508 21.6108 4.31965 21.5956 4.29676 21.5803C4.26878 21.5651 4.2408 21.5473 4.21537 21.5295C4.20774 21.5244 4.19756 21.5193 4.18993 21.5116C4.16958 21.4989 4.15178 21.4862 4.13143 21.4735C4.11108 21.4582 4.09328 21.4455 4.07548 21.4303C4.07039 21.4277 4.0653 21.4226 4.06021 21.4201C4.04241 21.4074 4.02715 21.3946 4.01189 21.3794C4.00426 21.3743 3.99409 21.3667 3.98645 21.359C3.97882 21.3514 3.96865 21.3438 3.96102 21.3387C3.94576 21.326 3.9305 21.3133 3.91524 21.3005C3.91015 21.2955 3.90252 21.2904 3.89743 21.2827C3.89235 21.2777 3.88726 21.2726 3.87963 21.2649C3.85674 21.2446 3.83385 21.2217 3.81096 21.2013C3.78806 21.1785 3.76517 21.1581 3.74483 21.1352C3.72448 21.1123 3.70159 21.0894 3.68124 21.0665C3.66089 21.0437 3.64054 21.0208 3.6202 20.9953C3.60239 20.9724 3.58459 20.9495 3.56678 20.9267C3.55915 20.919 3.55152 20.9089 3.54389 20.8987C3.53626 20.8885 3.52863 20.8783 3.52354 20.8707C3.51591 20.858 3.50574 20.8453 3.49557 20.8325C3.49557 20.83 3.49302 20.8275 3.49048 20.8249C3.48539 20.8173 3.48031 20.8097 3.47522 20.802C3.46759 20.7919 3.45996 20.7817 3.45487 20.7715C3.42944 20.7334 3.404 20.6952 3.38111 20.6545C3.36585 20.6316 3.35313 20.6062 3.34042 20.5807C3.26666 20.451 3.20561 20.3137 3.15729 20.1738C3.14203 20.1331 3.12931 20.0924 3.11659 20.0492C3.1115 20.0339 3.10642 20.0161 3.10133 20.0008C3.09624 19.9881 3.0937 19.9729 3.09116 19.9601C3.08098 19.9195 3.07081 19.8762 3.06063 19.8355C3.06063 19.833 3.06063 19.8279 3.05809 19.8253C3.05555 19.805 3.05046 19.7872 3.04792 19.7694C3.04537 19.7567 3.04283 19.744 3.04283 19.7312C3.03774 19.7033 3.0352 19.6778 3.03011 19.6498C3.02757 19.6295 3.02503 19.6066 3.02248 19.5863C3.02248 19.5786 3.01994 19.5685 3.01994 19.5583C3.0174 19.5354 3.01485 19.51 3.01485 19.4871C3.01485 19.4845 3.01485 19.4794 3.01485 19.4769C3.01485 19.4743 3.01485 19.4693 3.01485 19.4667C3.01485 19.4642 3.01485 19.4616 3.01485 19.4591C3.01231 19.4337 3.00977 19.4057 3.00977 19.3802C3.00977 19.3497 3.00977 19.3192 3.00977 19.2887C3.00977 19.2632 3.00977 19.2353 3.00977 19.2098C3.00977 19.192 3.00977 19.1768 3.01231 19.159C3.01231 19.1412 3.01231 19.1208 3.01485 19.103C3.01485 19.0827 3.0174 19.0649 3.01994 19.047C3.01994 19.0292 3.02248 19.014 3.02503 18.9987C3.02503 18.9784 3.02757 18.958 3.03266 18.9402C3.0352 18.9199 3.03774 18.9021 3.04283 18.8817C3.04283 18.8716 3.04537 18.8588 3.04792 18.8461C3.05046 18.8334 3.053 18.8232 3.05555 18.8105C3.05555 18.808 3.05555 18.8054 3.05555 18.8029V18.7978C3.07335 18.7062 3.0937 18.6172 3.12168 18.5282C3.13694 18.4773 3.15474 18.429 3.17255 18.3781C3.18272 18.3527 3.19289 18.3273 3.20053 18.3018C3.2107 18.2789 3.22087 18.2535 3.23105 18.2281C3.24122 18.2052 3.25139 18.1823 3.26157 18.1594C3.27429 18.134 3.287 18.106 3.29972 18.0805L10.4621 3.97205C10.4621 3.97205 10.4621 3.97459 10.4621 3.97713C10.2612 4.57993 10.2713 5.25649 10.541 5.88472L10.5893 5.99663L13.0107 10.7529V10.7554Z"
          stroke="#2A292E" stroke-width="2.4" mask="url(#path-1-inside-1_4792_8764)"/>
    <path d="M3.00509 19.4616C3.00509 19.4616 3.00509 19.4667 3.00509 19.4693C3.00509 19.4413 3.00254 19.4108 3 19.3802C3 19.4057 3.00254 19.4337 3.00509 19.4591V19.4616Z"
          fill="#4C4957"/>
    <path d="M3.00648 19.4897C3.00648 19.5155 3.00905 19.5386 3.01162 19.5618C3.00905 19.5335 3.00648 19.5077 3.00391 19.4794C3.00391 19.482 3.00391 19.4871 3.00391 19.4897H3.00648Z"
          fill="#4C4957"/>
    <path d="M3.02148 18.9377C3.02403 18.9072 3.02911 18.8741 3.03675 18.8436C3.03675 18.8537 3.0342 18.8665 3.03166 18.8792C3.02657 18.8995 3.02403 18.9199 3.02148 18.9377Z"
          fill="#4C4957"/>
    <path d="M3.03516 18.844C3.03773 18.8286 3.0403 18.8157 3.04287 18.8003C3.04287 18.8029 3.04287 18.8054 3.04287 18.808C3.04287 18.8183 3.03773 18.8312 3.03516 18.844Z"
          fill="#4C4957"/>
    <path d="M3.56391 20.9292C3.58171 20.9521 3.59697 20.9749 3.61732 20.9978C3.59188 20.9673 3.56645 20.9342 3.54102 20.9012C3.54865 20.9088 3.55628 20.919 3.56391 20.9292Z"
          fill="#4C4957"/>
    <path d="M3.87415 21.2682C3.87415 21.2682 3.88445 21.281 3.89216 21.2862C3.86129 21.2605 3.83042 21.2322 3.80469 21.2039C3.82784 21.227 3.851 21.2476 3.87415 21.2682Z"
          fill="#4C4957"/>
    <path d="M4.0062 21.3821C4.02163 21.3949 4.03964 21.4078 4.05508 21.4233C4.02935 21.4052 4.00362 21.3847 3.98047 21.3641C3.98819 21.3692 3.99848 21.3769 4.0062 21.3847V21.3821Z"
          fill="#4C4957"/>
    <path d="M4.48178 21.6846C4.5123 21.6999 4.54537 21.7151 4.57589 21.7278C4.53774 21.7126 4.49959 21.6948 4.46143 21.6744C4.44109 21.6642 4.42074 21.6541 4.40039 21.6414C4.42074 21.6515 4.44109 21.6642 4.46143 21.6744C4.46652 21.677 4.47415 21.6795 4.48178 21.6846Z"
          fill="#4C4957"/>
    <path d="M5.92745 21.9517C5.92745 21.9517 5.93253 21.9517 5.93508 21.9517C5.84606 21.9618 5.75703 21.9669 5.66801 21.9669C5.66038 21.9669 5.65021 21.9669 5.64258 21.9669H5.67056C5.7138 21.9669 5.75958 21.9669 5.80282 21.9644C5.84351 21.9644 5.88675 21.9593 5.92745 21.9542V21.9517Z"
          fill="#4C4957"/>
    <path d="M5.94646 21.9492C5.96447 21.9492 5.9799 21.9466 5.99791 21.944C5.97733 21.9466 5.95675 21.9492 5.93359 21.9517C5.93617 21.9517 5.94131 21.9517 5.94389 21.9492H5.94646Z"
          fill="#4C4957"/>
    <path d="M6.26091 21.8983C6.26091 21.8983 6.28664 21.8932 6.2995 21.8906C6.28149 21.8958 6.26606 21.8983 6.24805 21.9009C6.25319 21.9009 6.25834 21.9009 6.26348 21.8983H6.26091Z"
          fill="#4C4957"/>
    <path d="M7.32242 21.3924C7.33528 21.3822 7.34814 21.3719 7.36101 21.3616C7.33528 21.3847 7.30698 21.4053 7.28125 21.4259C7.29669 21.4156 7.30955 21.4027 7.32242 21.3924Z"
          fill="#4C4957"/>
    <path d="M7.63764 21.1022C7.60934 21.133 7.58361 21.1613 7.55273 21.1896C7.57589 21.1665 7.59905 21.1433 7.6222 21.1176L7.63764 21.1022Z"
          fill="#4C4957"/>
    <path d="M15.6222 4.10429L15.4239 3.71514C14.8236 2.39764 13.2746 1.79738 11.9368 2.37475C11.6214 2.51209 11.3441 2.70031 11.1152 2.92922C11.8478 2.17127 12.9898 1.89149 14.0275 2.30353C14.849 2.63163 15.4162 3.31836 15.6248 4.11192V4.10683L15.6222 4.10429Z"
          fill="#4C4957"/>
    <path d="M12.3965 2.76758C13.3972 2.32659 14.5664 2.78209 15.0225 3.80469L15.208 4.17578L15.2109 4.18457L15.2295 4.22168L20.6074 15.001C18.9287 13.8461 17.0174 13.1057 14.9951 12.834L13.7471 10.332L11.3789 5.58594L11.3398 5.49414C11.1383 5.01199 11.1267 4.49544 11.2734 4.0332L11.3457 3.88965L11.3564 3.86719L11.3662 3.84473C11.4679 3.59144 11.6104 3.37299 11.7822 3.19141L11.792 3.17969C11.9623 3.01145 12.1638 2.87201 12.3975 2.76855L12.3965 2.76758Z"
          stroke="#2A292E" stroke-width="1.2"/>
    <path d="M10.7129 3.81944C10.8426 3.4303 11.0588 3.07421 11.3488 2.77917C11.1249 3.01572 10.9418 3.29804 10.8121 3.62106L10.7129 3.81944Z"
          fill="#4C4957"/>
    <path d="M13.2246 14.2241C13.5661 14.2241 13.8841 14.2378 14.2031 14.2641L14.5234 14.2944C17.0923 14.5733 19.4822 15.6832 21.3936 17.4975L21.7695 17.8696L21.9873 18.0961L22.1348 18.3901C22.2855 18.6943 22.3555 19.0118 22.3555 19.3295V19.5678C22.354 19.5797 22.3535 19.5928 22.3516 19.6069L22.3506 19.6137C22.3453 19.656 22.3382 19.6968 22.3291 19.7387C22.314 19.8082 22.3071 19.837 22.2998 19.8598L22.292 19.8852L22.2861 19.9116C22.2836 19.9227 22.2782 19.9419 22.2695 19.9643L22.2607 19.9868L22.2529 20.0112C22.2416 20.0492 22.2277 20.0887 22.208 20.1313L22.2002 20.1479L22.1934 20.1645C22.1823 20.1929 22.1712 20.2177 22.1611 20.2368L22.1514 20.2543L22.1416 20.2739L22.1211 20.308L22.1094 20.3344C22.0803 20.3883 22.0523 20.4361 22.0205 20.4858L22.0156 20.4916C21.9951 20.5213 21.9823 20.5405 21.9688 20.558L21.9629 20.5668C21.881 20.6774 21.7934 20.7752 21.7002 20.8608L21.6914 20.8696C21.6544 20.905 21.6096 20.9424 21.5537 20.9838L21.5508 20.9858C21.5467 20.9889 21.5069 21.0188 21.4678 21.0493C21.4145 21.0873 21.3623 21.1193 21.3145 21.144L21.3008 21.1508L21.2881 21.1586C21.27 21.1692 21.2664 21.1703 21.2227 21.1938C21.1792 21.216 21.1334 21.237 21.0859 21.2563L20.9395 21.309C20.8986 21.3218 20.8787 21.3281 20.8604 21.3325C20.8365 21.3381 20.8127 21.3431 20.792 21.3481C20.7709 21.3532 20.7516 21.3582 20.7324 21.3627C20.7111 21.3677 20.6899 21.3711 20.6699 21.3735L20.6504 21.3764L20.6299 21.3793C20.6081 21.3834 20.5967 21.3856 20.5869 21.3871C20.5844 21.3875 20.5824 21.387 20.5811 21.3871L20.54 21.3911C20.5245 21.3922 20.5101 21.394 20.5 21.395C20.4881 21.3961 20.4834 21.3963 20.4766 21.3969C20.4651 21.3979 20.4669 21.3979 20.4736 21.3979C20.4422 21.3979 20.4113 21.3983 20.3906 21.3989C20.3668 21.3995 20.3524 21.3998 20.3408 21.3998C20.2974 21.3998 20.2816 21.3999 20.2666 21.3989L20.2471 21.3979H20.2236C20.2169 21.3973 20.2098 21.3965 20.2031 21.3959C20.1893 21.3947 20.175 21.3933 20.1611 21.392L20.1348 21.3901H20.1143C20.1128 21.39 20.1102 21.3894 20.1064 21.3891C20.105 21.389 20.1031 21.3883 20.1016 21.3881C20.0674 21.3832 20.0559 21.3822 20.0469 21.3803L19.9854 21.3666H19.9639C19.9601 21.3658 19.9556 21.3647 19.9512 21.3637C19.9389 21.361 19.9223 21.3573 19.9043 21.3539C19.8737 21.348 19.8435 21.3411 19.8115 21.3315L19.8037 21.3286C19.7655 21.3176 19.7343 21.3076 19.7061 21.2983L19.6924 21.2905L19.6221 21.269L19.5977 21.2592H19.5986L19.5908 21.2563L19.5215 21.227L19.5186 21.225L19.4883 21.2114L19.335 21.1303C19.262 21.0836 19.2917 21.1053 19.2441 21.0737L19.2402 21.0707C19.1822 21.0327 19.1252 20.9912 19.0742 20.9496L19.0664 20.9428L19.0186 20.9018L19.0098 20.893L19.001 20.8852L18.9238 20.81H18.9229V20.809H18.9219V20.808C18.9013 20.7875 18.8788 20.7628 18.8467 20.728L18.7725 20.6479L18.75 20.6371C17.2604 19.1746 15.304 18.3686 13.2246 18.3686C12.0243 18.3686 10.828 18.6512 9.74121 19.1889L12.1943 14.267C12.534 14.2381 12.8775 14.2241 13.2246 14.2241Z"
          stroke="#2A292E" stroke-width="1.2"/>
</svg>
