<svg xmlns="http://www.w3.org/2000/svg" preserveAspectRatio="xMidYMid meet" viewBox="0 0 48 48" fill="none">
    <rect x="1" y="0.5" width="47" height="47" rx="23.5" fill="white"/>
    <rect x="1" y="0.5" width="47" height="47" rx="23.5" stroke="#DFDEE6"/>
    <path d="M25.9005 35.1824C25.9005 35.3007 25.8772 35.4178 25.8319 35.527C25.7867 35.6362 25.7203 35.7355 25.6367 35.8191C25.5531 35.9027 25.4538 35.9691 25.3446 36.0143C25.2353 36.0596 25.1182 36.0829 25 36.0829C24.8818 36.0829 24.7647 36.0596 24.6554 36.0143C24.5462 35.9691 24.4469 35.9027 24.3633 35.8191C24.2797 35.7355 24.2133 35.6362 24.1681 35.527C24.1228 35.4178 24.0995 35.3007 24.0995 35.1824L24.1003 24.6276L13.5455 24.6284C13.3067 24.6284 13.0777 24.5335 12.9088 24.3646C12.7399 24.1958 12.6451 23.9667 12.6451 23.7279C12.6451 23.4891 12.7399 23.2601 12.9088 23.0912C13.0777 22.9223 13.3067 22.8275 13.5455 22.8275L24.1003 22.8283L24.0995 12.2734C24.0995 12.0346 24.1944 11.8056 24.3633 11.6367C24.5322 11.4678 24.7612 11.373 25 11.373C25.2388 11.373 25.4678 11.4678 25.6367 11.6367C25.8056 11.8056 25.9005 12.0346 25.9005 12.2734L25.8997 22.8283L36.4545 22.8275C36.6933 22.8275 36.9223 22.9223 37.0912 23.0912C37.2601 23.2601 37.3549 23.4891 37.3549 23.7279C37.3549 23.9667 37.2601 24.1958 37.0912 24.3646C36.9223 24.5335 36.6933 24.6284 36.4545 24.6284L25.8997 24.6276L25.9005 35.1824Z"
          fill="#343330"/>
</svg>
