<svg xmlns="http://www.w3.org/2000/svg" width="24" height="24" viewBox="0 0 24 24" fill="none">
    <path d="M16.0355 13.775C15.8413 13.8504 15.6514 13.9214 15.4704 13.9258C15.1835 13.9391 14.8745 13.8238 14.7067 13.6819C14.4462 13.4601 14.2564 13.3359 14.177 12.95C14.1416 12.7859 14.1637 12.5287 14.1902 12.3823C14.2564 12.0674 14.1814 11.8678 13.9606 11.6815C13.7797 11.5307 13.5501 11.4908 13.2985 11.4908C13.0468 11.4908 13.1175 11.4509 13.0557 11.4154C12.9497 11.3622 12.8658 11.2291 12.9453 11.0694C12.9718 11.0162 13.0998 10.8876 13.1307 10.8699C13.4706 10.6747 13.8679 10.7412 14.2299 10.8832C14.5699 11.0207 14.8215 11.2735 15.1879 11.6327C15.5631 12.0674 15.6294 12.1872 15.8457 12.5109C16.0134 12.7637 16.1679 13.0299 16.2739 13.327C16.3357 13.5133 16.2562 13.6686 16.0311 13.7617L16.0355 13.775ZM13.0557 12.2404C13.0557 12.0763 13.1881 11.9432 13.3514 11.9432C13.5148 11.9432 13.4221 11.9521 13.453 11.9609C13.4971 11.9743 13.5324 12.0009 13.5633 12.0319C13.6163 12.0851 13.6472 12.1605 13.6472 12.2359C13.6472 12.4 13.5192 12.5331 13.3514 12.5331C13.1837 12.5331 13.0601 12.4 13.0601 12.2359L13.0557 12.2404ZM12.0977 18.441C10.0979 16.8576 9.12671 16.3386 8.72498 16.3608C8.34974 16.383 8.42038 16.8132 8.49984 17.0971C8.58371 17.3721 8.69849 17.5628 8.85742 17.8068C8.96778 17.9664 9.04283 18.2059 8.74705 18.3878C8.10253 18.787 6.98123 18.2547 6.92826 18.2281C5.62596 17.4564 4.53115 16.4362 3.76743 15.0435C3.02578 13.704 2.59316 12.2626 2.52252 10.7279C2.50487 10.3598 2.61082 10.2267 2.97722 10.1602C3.46283 10.0715 3.96167 10.0493 4.44286 10.1203C6.4868 10.4219 8.22614 11.34 9.68294 12.7948C10.5173 13.6198 11.1442 14.6089 11.7931 15.5758C12.4818 16.6048 13.2234 17.5805 14.1681 18.3833C14.5036 18.6628 14.7685 18.8801 15.0246 19.0353C14.2564 19.1196 12.9762 19.1418 12.0977 18.4454V18.441ZM23.7566 5.42766C23.5138 5.30791 23.4078 5.53855 23.2665 5.65387C23.218 5.69379 23.1782 5.74257 23.1341 5.78693C22.7765 6.16837 22.3616 6.41675 21.8186 6.39014C21.0239 6.34578 20.3441 6.5986 19.7481 7.20624C19.6201 6.45223 19.2007 6.00426 18.5518 5.71153C18.2163 5.56073 17.8719 5.40992 17.638 5.08614C17.4746 4.8555 17.4261 4.59825 17.3466 4.341C17.2936 4.18576 17.2407 4.03053 17.0641 4.00391C16.8743 3.97287 16.7992 4.13254 16.7242 4.27004C16.424 4.82002 16.3092 5.42766 16.318 6.03974C16.3445 7.42358 16.9272 8.52355 18.0794 9.3086C18.2119 9.39731 18.2472 9.49045 18.203 9.61908C18.1236 9.88964 18.0309 10.1513 17.947 10.4219C17.894 10.5949 17.8146 10.6303 17.6336 10.5549C17.0023 10.2888 16.4549 9.89407 15.9693 9.41949C15.1482 8.62112 14.4065 7.74292 13.4839 7.05101C13.2676 6.8869 13.0468 6.74053 12.8217 6.5986C11.877 5.67604 12.9453 4.92203 13.1925 4.82889C13.453 4.73575 13.2852 4.41197 12.4465 4.4164C11.6121 4.4164 10.8484 4.70027 9.87277 5.07727C9.7315 5.1305 9.5814 5.17485 9.4269 5.2059C8.54398 5.03735 7.62576 5.00187 6.66338 5.10832C4.85783 5.30791 3.41427 6.16837 2.35477 7.63204C1.07896 9.39731 0.778774 11.3977 1.14518 13.4823C1.53366 15.6822 2.65055 17.5007 4.3634 18.9245C6.14246 20.4014 8.19523 21.1244 10.535 20.9825C11.952 20.9026 13.5369 20.7075 15.3203 19.1906C15.7706 19.4168 16.243 19.5055 17.0244 19.572C17.6291 19.6297 18.2075 19.541 18.6577 19.4478C19.3641 19.297 19.3155 18.645 19.0595 18.5208C16.9935 17.5539 17.4481 17.9487 17.0376 17.6293C18.0838 16.383 19.6687 15.0834 20.2867 10.8876C20.3353 10.5549 20.2955 10.3465 20.2867 10.0759C20.2867 9.91181 20.322 9.84528 20.5074 9.82754C21.0239 9.76545 21.5272 9.62795 21.9907 9.3707C23.3283 8.63886 23.8669 7.43245 23.9949 5.98652C24.0126 5.76475 23.9949 5.53855 23.761 5.41879L23.7566 5.42766Z"
          fill="#6F6C7D"/>
</svg>
