<svg xmlns="http://www.w3.org/2000/svg" preserveAspectRatio="xMidYMid meet" viewBox="0 0 24 24" fill="none">
    <mask id="path-1-inside-1_3511_8751" fill="white">
        <path d="M13.0107 10.7554L11.5914 13.5481L8.05345 20.5044C7.93899 20.7283 7.7991 20.9292 7.63886 21.1047L7.6236 21.12C7.60071 21.1428 7.57782 21.1683 7.55493 21.1912C7.50661 21.242 7.45319 21.2878 7.40232 21.3311C7.38961 21.3412 7.37689 21.354 7.36417 21.3616C7.35145 21.3718 7.33874 21.3819 7.32602 21.3921C7.3133 21.4023 7.29804 21.415 7.28532 21.4252C7.26752 21.4379 7.25226 21.4506 7.23445 21.4633C7.21156 21.4811 7.18613 21.4964 7.16324 21.5142C7.15306 21.5218 7.14289 21.5295 7.13272 21.5345C7.10474 21.5523 7.07676 21.5701 7.04624 21.588C7.0208 21.6032 6.99791 21.6159 6.97248 21.6312C6.94704 21.6465 6.92161 21.6592 6.89617 21.6719C6.84276 21.6973 6.78681 21.7253 6.73339 21.7482C6.64691 21.7863 6.55789 21.8194 6.46633 21.8474C6.44852 21.8525 6.43072 21.8576 6.41292 21.8626C6.39766 21.8677 6.38494 21.8703 6.36968 21.8728C6.3595 21.8754 6.34679 21.8779 6.33661 21.8804C6.32644 21.883 6.31626 21.8855 6.30355 21.8881C6.29083 21.8906 6.27811 21.8932 6.2654 21.8957C6.26031 21.8957 6.25777 21.8983 6.25013 21.8983C6.23742 21.9008 6.22724 21.9033 6.21453 21.9059C6.17892 21.9135 6.14331 21.9211 6.1077 21.9262C6.0899 21.9288 6.07209 21.9313 6.05429 21.9339C6.03648 21.9364 6.02122 21.9389 6.00342 21.9415C5.98562 21.9415 5.97035 21.944 5.95255 21.9466C5.94746 21.9466 5.94492 21.9491 5.94238 21.9491C5.93983 21.9491 5.93729 21.9491 5.93475 21.9491C5.89405 21.9542 5.85081 21.9568 5.81012 21.9593C5.76688 21.9593 5.7211 21.9618 5.67786 21.9618H5.64988C5.64988 21.9618 5.63207 21.9618 5.62444 21.9618H5.61427C5.5812 21.9618 5.54814 21.9593 5.51507 21.9568C5.50744 21.9568 5.49727 21.9568 5.48964 21.9568C5.46929 21.9568 5.44894 21.9542 5.42605 21.9517C5.40825 21.9491 5.39045 21.9466 5.37264 21.944C5.34975 21.944 5.32686 21.9389 5.30397 21.9364C5.28362 21.9339 5.26327 21.9313 5.24292 21.9288C5.22258 21.9262 5.20223 21.9237 5.18442 21.9186C5.16916 21.9186 5.1539 21.9135 5.13864 21.911C5.08777 21.9008 5.0369 21.8881 4.98603 21.8754C4.9606 21.8677 4.93517 21.8601 4.90973 21.8525C4.90973 21.8525 4.90973 21.8525 4.90719 21.8525C4.88175 21.8448 4.85377 21.8347 4.82834 21.827C4.80545 21.8194 4.78256 21.8118 4.75967 21.8041C4.72915 21.794 4.69608 21.7813 4.66556 21.766C4.63758 21.7558 4.60706 21.7406 4.57654 21.7278C4.54602 21.7126 4.51295 21.6999 4.48243 21.6846C4.4748 21.6821 4.46717 21.6795 4.46208 21.6744C4.44173 21.6643 4.42139 21.6541 4.40104 21.6414C4.39086 21.6363 4.37815 21.6312 4.36797 21.6236C4.34508 21.6108 4.31965 21.5956 4.29676 21.5803C4.26878 21.5651 4.2408 21.5473 4.21537 21.5295C4.20774 21.5244 4.19756 21.5193 4.18993 21.5116C4.16958 21.4989 4.15178 21.4862 4.13143 21.4735C4.11108 21.4582 4.09328 21.4455 4.07548 21.4303C4.07039 21.4277 4.0653 21.4226 4.06021 21.4201C4.04241 21.4074 4.02715 21.3946 4.01189 21.3794C4.00426 21.3743 3.99409 21.3667 3.98645 21.359C3.97882 21.3514 3.96865 21.3438 3.96102 21.3387C3.94576 21.326 3.9305 21.3133 3.91524 21.3005C3.91015 21.2955 3.90252 21.2904 3.89743 21.2827C3.89235 21.2777 3.88726 21.2726 3.87963 21.2649C3.85674 21.2446 3.83385 21.2217 3.81096 21.2013C3.78806 21.1785 3.76517 21.1581 3.74483 21.1352C3.72448 21.1123 3.70159 21.0894 3.68124 21.0665C3.66089 21.0437 3.64054 21.0208 3.6202 20.9953C3.60239 20.9724 3.58459 20.9495 3.56678 20.9267C3.55915 20.919 3.55152 20.9089 3.54389 20.8987C3.53626 20.8885 3.52863 20.8783 3.52354 20.8707C3.51591 20.858 3.50574 20.8453 3.49557 20.8325C3.49557 20.83 3.49302 20.8275 3.49048 20.8249C3.48539 20.8173 3.48031 20.8097 3.47522 20.802C3.46759 20.7919 3.45996 20.7817 3.45487 20.7715C3.42944 20.7334 3.404 20.6952 3.38111 20.6545C3.36585 20.6316 3.35313 20.6062 3.34042 20.5807C3.26666 20.451 3.20561 20.3137 3.15729 20.1738C3.14203 20.1331 3.12931 20.0924 3.11659 20.0492C3.1115 20.0339 3.10642 20.0161 3.10133 20.0008C3.09624 19.9881 3.0937 19.9729 3.09116 19.9601C3.08098 19.9195 3.07081 19.8762 3.06063 19.8355C3.06063 19.833 3.06063 19.8279 3.05809 19.8253C3.05555 19.805 3.05046 19.7872 3.04792 19.7694C3.04537 19.7567 3.04283 19.744 3.04283 19.7312C3.03774 19.7033 3.0352 19.6778 3.03011 19.6498C3.02757 19.6295 3.02503 19.6066 3.02248 19.5863C3.02248 19.5786 3.01994 19.5685 3.01994 19.5583C3.0174 19.5354 3.01485 19.51 3.01485 19.4871C3.01485 19.4845 3.01485 19.4794 3.01485 19.4769C3.01485 19.4743 3.01485 19.4693 3.01485 19.4667C3.01485 19.4642 3.01485 19.4616 3.01485 19.4591C3.01231 19.4337 3.00977 19.4057 3.00977 19.3802C3.00977 19.3497 3.00977 19.3192 3.00977 19.2887C3.00977 19.2632 3.00977 19.2353 3.00977 19.2098C3.00977 19.192 3.00977 19.1768 3.01231 19.159C3.01231 19.1412 3.01231 19.1208 3.01485 19.103C3.01485 19.0827 3.0174 19.0649 3.01994 19.047C3.01994 19.0292 3.02248 19.014 3.02503 18.9987C3.02503 18.9784 3.02757 18.958 3.03266 18.9402C3.0352 18.9199 3.03774 18.9021 3.04283 18.8817C3.04283 18.8716 3.04537 18.8588 3.04792 18.8461C3.05046 18.8334 3.053 18.8232 3.05555 18.8105C3.05555 18.808 3.05555 18.8054 3.05555 18.8029V18.7978C3.07335 18.7062 3.0937 18.6172 3.12168 18.5282C3.13694 18.4773 3.15474 18.429 3.17255 18.3781C3.18272 18.3527 3.19289 18.3273 3.20053 18.3018C3.2107 18.2789 3.22087 18.2535 3.23105 18.2281C3.24122 18.2052 3.25139 18.1823 3.26157 18.1594C3.27429 18.134 3.287 18.106 3.29972 18.0805L10.4621 3.97205C10.4621 3.97205 10.4621 3.97459 10.4621 3.97713C10.2612 4.57993 10.2713 5.25649 10.541 5.88472L10.5893 5.99663L13.0107 10.7529V10.7554Z"/>
    </mask>
    <path d="M13.0107 10.7554L11.5914 13.5481L8.05345 20.5044C7.93899 20.7283 7.7991 20.9292 7.63886 21.1047L7.6236 21.12C7.60071 21.1428 7.57782 21.1683 7.55493 21.1912C7.50661 21.242 7.45319 21.2878 7.40232 21.3311C7.38961 21.3412 7.37689 21.354 7.36417 21.3616C7.35145 21.3718 7.33874 21.3819 7.32602 21.3921C7.3133 21.4023 7.29804 21.415 7.28532 21.4252C7.26752 21.4379 7.25226 21.4506 7.23445 21.4633C7.21156 21.4811 7.18613 21.4964 7.16324 21.5142C7.15306 21.5218 7.14289 21.5295 7.13272 21.5345C7.10474 21.5523 7.07676 21.5701 7.04624 21.588C7.0208 21.6032 6.99791 21.6159 6.97248 21.6312C6.94704 21.6465 6.92161 21.6592 6.89617 21.6719C6.84276 21.6973 6.78681 21.7253 6.73339 21.7482C6.64691 21.7863 6.55789 21.8194 6.46633 21.8474C6.44852 21.8525 6.43072 21.8576 6.41292 21.8626C6.39766 21.8677 6.38494 21.8703 6.36968 21.8728C6.3595 21.8754 6.34679 21.8779 6.33661 21.8804C6.32644 21.883 6.31626 21.8855 6.30355 21.8881C6.29083 21.8906 6.27811 21.8932 6.2654 21.8957C6.26031 21.8957 6.25777 21.8983 6.25013 21.8983C6.23742 21.9008 6.22724 21.9033 6.21453 21.9059C6.17892 21.9135 6.14331 21.9211 6.1077 21.9262C6.0899 21.9288 6.07209 21.9313 6.05429 21.9339C6.03648 21.9364 6.02122 21.9389 6.00342 21.9415C5.98562 21.9415 5.97035 21.944 5.95255 21.9466C5.94746 21.9466 5.94492 21.9491 5.94238 21.9491C5.93983 21.9491 5.93729 21.9491 5.93475 21.9491C5.89405 21.9542 5.85081 21.9568 5.81012 21.9593C5.76688 21.9593 5.7211 21.9618 5.67786 21.9618H5.64988C5.64988 21.9618 5.63207 21.9618 5.62444 21.9618H5.61427C5.5812 21.9618 5.54814 21.9593 5.51507 21.9568C5.50744 21.9568 5.49727 21.9568 5.48964 21.9568C5.46929 21.9568 5.44894 21.9542 5.42605 21.9517C5.40825 21.9491 5.39045 21.9466 5.37264 21.944C5.34975 21.944 5.32686 21.9389 5.30397 21.9364C5.28362 21.9339 5.26327 21.9313 5.24292 21.9288C5.22258 21.9262 5.20223 21.9237 5.18442 21.9186C5.16916 21.9186 5.1539 21.9135 5.13864 21.911C5.08777 21.9008 5.0369 21.8881 4.98603 21.8754C4.9606 21.8677 4.93517 21.8601 4.90973 21.8525C4.90973 21.8525 4.90973 21.8525 4.90719 21.8525C4.88175 21.8448 4.85377 21.8347 4.82834 21.827C4.80545 21.8194 4.78256 21.8118 4.75967 21.8041C4.72915 21.794 4.69608 21.7813 4.66556 21.766C4.63758 21.7558 4.60706 21.7406 4.57654 21.7278C4.54602 21.7126 4.51295 21.6999 4.48243 21.6846C4.4748 21.6821 4.46717 21.6795 4.46208 21.6744C4.44173 21.6643 4.42139 21.6541 4.40104 21.6414C4.39086 21.6363 4.37815 21.6312 4.36797 21.6236C4.34508 21.6108 4.31965 21.5956 4.29676 21.5803C4.26878 21.5651 4.2408 21.5473 4.21537 21.5295C4.20774 21.5244 4.19756 21.5193 4.18993 21.5116C4.16958 21.4989 4.15178 21.4862 4.13143 21.4735C4.11108 21.4582 4.09328 21.4455 4.07548 21.4303C4.07039 21.4277 4.0653 21.4226 4.06021 21.4201C4.04241 21.4074 4.02715 21.3946 4.01189 21.3794C4.00426 21.3743 3.99409 21.3667 3.98645 21.359C3.97882 21.3514 3.96865 21.3438 3.96102 21.3387C3.94576 21.326 3.9305 21.3133 3.91524 21.3005C3.91015 21.2955 3.90252 21.2904 3.89743 21.2827C3.89235 21.2777 3.88726 21.2726 3.87963 21.2649C3.85674 21.2446 3.83385 21.2217 3.81096 21.2013C3.78806 21.1785 3.76517 21.1581 3.74483 21.1352C3.72448 21.1123 3.70159 21.0894 3.68124 21.0665C3.66089 21.0437 3.64054 21.0208 3.6202 20.9953C3.60239 20.9724 3.58459 20.9495 3.56678 20.9267C3.55915 20.919 3.55152 20.9089 3.54389 20.8987C3.53626 20.8885 3.52863 20.8783 3.52354 20.8707C3.51591 20.858 3.50574 20.8453 3.49557 20.8325C3.49557 20.83 3.49302 20.8275 3.49048 20.8249C3.48539 20.8173 3.48031 20.8097 3.47522 20.802C3.46759 20.7919 3.45996 20.7817 3.45487 20.7715C3.42944 20.7334 3.404 20.6952 3.38111 20.6545C3.36585 20.6316 3.35313 20.6062 3.34042 20.5807C3.26666 20.451 3.20561 20.3137 3.15729 20.1738C3.14203 20.1331 3.12931 20.0924 3.11659 20.0492C3.1115 20.0339 3.10642 20.0161 3.10133 20.0008C3.09624 19.9881 3.0937 19.9729 3.09116 19.9601C3.08098 19.9195 3.07081 19.8762 3.06063 19.8355C3.06063 19.833 3.06063 19.8279 3.05809 19.8253C3.05555 19.805 3.05046 19.7872 3.04792 19.7694C3.04537 19.7567 3.04283 19.744 3.04283 19.7312C3.03774 19.7033 3.0352 19.6778 3.03011 19.6498C3.02757 19.6295 3.02503 19.6066 3.02248 19.5863C3.02248 19.5786 3.01994 19.5685 3.01994 19.5583C3.0174 19.5354 3.01485 19.51 3.01485 19.4871C3.01485 19.4845 3.01485 19.4794 3.01485 19.4769C3.01485 19.4743 3.01485 19.4693 3.01485 19.4667C3.01485 19.4642 3.01485 19.4616 3.01485 19.4591C3.01231 19.4337 3.00977 19.4057 3.00977 19.3802C3.00977 19.3497 3.00977 19.3192 3.00977 19.2887C3.00977 19.2632 3.00977 19.2353 3.00977 19.2098C3.00977 19.192 3.00977 19.1768 3.01231 19.159C3.01231 19.1412 3.01231 19.1208 3.01485 19.103C3.01485 19.0827 3.0174 19.0649 3.01994 19.047C3.01994 19.0292 3.02248 19.014 3.02503 18.9987C3.02503 18.9784 3.02757 18.958 3.03266 18.9402C3.0352 18.9199 3.03774 18.9021 3.04283 18.8817C3.04283 18.8716 3.04537 18.8588 3.04792 18.8461C3.05046 18.8334 3.053 18.8232 3.05555 18.8105C3.05555 18.808 3.05555 18.8054 3.05555 18.8029V18.7978C3.07335 18.7062 3.0937 18.6172 3.12168 18.5282C3.13694 18.4773 3.15474 18.429 3.17255 18.3781C3.18272 18.3527 3.19289 18.3273 3.20053 18.3018C3.2107 18.2789 3.22087 18.2535 3.23105 18.2281C3.24122 18.2052 3.25139 18.1823 3.26157 18.1594C3.27429 18.134 3.287 18.106 3.29972 18.0805L10.4621 3.97205C10.4621 3.97205 10.4621 3.97459 10.4621 3.97713C10.2612 4.57993 10.2713 5.25649 10.541 5.88472L10.5893 5.99663L13.0107 10.7529V10.7554Z"
          stroke="#2A292E" stroke-width="2.4" mask="url(#path-1-inside-1_3511_8751)"/>
    <path d="M3.00509 19.4616C3.00509 19.4616 3.00509 19.4667 3.00509 19.4693C3.00509 19.4413 3.00254 19.4108 3 19.3802C3 19.4057 3.00254 19.4337 3.00509 19.4591V19.4616Z"
          fill="#4C4957"/>
    <path d="M3.00648 19.4897C3.00648 19.5155 3.00905 19.5386 3.01162 19.5618C3.00905 19.5335 3.00648 19.5077 3.00391 19.4794C3.00391 19.482 3.00391 19.4871 3.00391 19.4897H3.00648Z"
          fill="#4C4957"/>
    <path d="M3.02148 18.9377C3.02403 18.9072 3.02911 18.8741 3.03675 18.8436C3.03675 18.8537 3.0342 18.8665 3.03166 18.8792C3.02657 18.8995 3.02403 18.9199 3.02148 18.9377Z"
          fill="#4C4957"/>
    <path d="M3.03516 18.844C3.03773 18.8286 3.0403 18.8157 3.04287 18.8003C3.04287 18.8029 3.04287 18.8054 3.04287 18.808C3.04287 18.8183 3.03773 18.8312 3.03516 18.844Z"
          fill="#4C4957"/>
    <path d="M3.56391 20.9292C3.58171 20.9521 3.59697 20.9749 3.61732 20.9978C3.59188 20.9673 3.56645 20.9342 3.54102 20.9012C3.54865 20.9088 3.55628 20.919 3.56391 20.9292Z"
          fill="#4C4957"/>
    <path d="M3.87415 21.2682C3.87415 21.2682 3.88445 21.281 3.89216 21.2862C3.86129 21.2605 3.83042 21.2322 3.80469 21.2039C3.82784 21.227 3.851 21.2476 3.87415 21.2682Z"
          fill="#4C4957"/>
    <path d="M4.0062 21.3821C4.02163 21.3949 4.03964 21.4078 4.05508 21.4233C4.02935 21.4052 4.00362 21.3847 3.98047 21.3641C3.98819 21.3692 3.99848 21.3769 4.0062 21.3847V21.3821Z"
          fill="#4C4957"/>
    <path d="M4.48178 21.6846C4.5123 21.6999 4.54537 21.7151 4.57589 21.7278C4.53774 21.7126 4.49959 21.6948 4.46143 21.6744C4.44109 21.6642 4.42074 21.6541 4.40039 21.6414C4.42074 21.6515 4.44109 21.6642 4.46143 21.6744C4.46652 21.677 4.47415 21.6795 4.48178 21.6846Z"
          fill="#4C4957"/>
    <path d="M5.92745 21.9517C5.92745 21.9517 5.93253 21.9517 5.93508 21.9517C5.84606 21.9618 5.75703 21.9669 5.66801 21.9669C5.66038 21.9669 5.65021 21.9669 5.64258 21.9669H5.67056C5.7138 21.9669 5.75958 21.9669 5.80282 21.9644C5.84351 21.9644 5.88675 21.9593 5.92745 21.9542V21.9517Z"
          fill="#4C4957"/>
    <path d="M5.94646 21.9492C5.96447 21.9492 5.9799 21.9466 5.99791 21.944C5.97733 21.9466 5.95675 21.9492 5.93359 21.9517C5.93617 21.9517 5.94131 21.9517 5.94389 21.9492H5.94646Z"
          fill="#4C4957"/>
    <path d="M6.26091 21.8983C6.26091 21.8983 6.28664 21.8932 6.2995 21.8906C6.28149 21.8958 6.26606 21.8983 6.24805 21.9009C6.25319 21.9009 6.25834 21.9009 6.26348 21.8983H6.26091Z"
          fill="#4C4957"/>
    <path d="M7.32242 21.3924C7.33528 21.3822 7.34814 21.3719 7.36101 21.3616C7.33528 21.3847 7.30698 21.4053 7.28125 21.4259C7.29669 21.4156 7.30955 21.4027 7.32242 21.3924Z"
          fill="#4C4957"/>
    <path d="M7.63764 21.1022C7.60934 21.133 7.58361 21.1613 7.55273 21.1896C7.57589 21.1665 7.59905 21.1433 7.6222 21.1176L7.63764 21.1022Z"
          fill="#4C4957"/>
    <path d="M15.6222 4.10429L15.4239 3.71514C14.8236 2.39764 13.2746 1.79738 11.9368 2.37475C11.6214 2.51209 11.3441 2.70031 11.1152 2.92922C11.8478 2.17127 12.9898 1.89149 14.0275 2.30353C14.849 2.63163 15.4162 3.31836 15.6248 4.11192V4.10683L15.6222 4.10429Z"
          fill="#4C4957"/>
    <path d="M11.3485 2.7741C11.346 2.77664 11.346 2.77918 11.346 2.77918C11.1221 3.01572 10.939 3.29804 10.8093 3.62106L10.7101 3.81945M11.3485 2.7741L21.6921 15.83C21.3426 15.5323 20.9801 15.2546 20.6061 14.9975M11.3485 2.7741C11.5749 2.54519 11.8445 2.35697 12.1548 2.21962M11.3485 2.7741L12.1548 2.21962M10.7101 3.81945V3.82454C10.5117 4.42733 10.5244 5.10389 10.7889 5.73212M10.7101 3.81945L10.7203 3.82454L10.7399 3.83434L11.2467 4.08778L11.2718 4.03776M10.7101 3.81945H11.2061H11.3033H11.3101V3.81947V3.81948V3.8195V3.81951V3.81953V3.81954V3.81956V3.81957V3.81959V3.8196V3.81962V3.81963V3.81965V3.81966V3.81967V3.81969V3.8197V3.81972V3.81973V3.81975V3.81976V3.81978V3.81979V3.81981V3.81982V3.81984V3.81985V3.81987V3.81988V3.8199V3.81991V3.81993V3.81994V3.81996V3.81997V3.81999V3.82V3.82002V3.82003V3.82005V3.82006V3.82008V3.82009V3.82011V3.82012V3.82013V3.82015V3.82016V3.82018V3.82019V3.82021V3.82022V3.82024V3.82025V3.82027V3.82028V3.8203V3.82031V3.82033V3.82034V3.82036V3.82037V3.82039V3.8204V3.82041V3.82043V3.82044V3.82046V3.82047V3.82049V3.8205V3.82052V3.82053V3.82055V3.82056V3.82058V3.82059V3.8206V3.82062V3.82063V3.82065V3.82066V3.82068V3.82069V3.82071V3.82072V3.82074V3.82075V3.82076V3.82078V3.82079V3.82081V3.82082V3.82084V3.82085V3.82087V3.82088V3.82089V3.82091V3.82092V3.82094V3.82095V3.82097V3.82098V3.82099V3.82101V3.82102V3.82104V3.82105V3.82107V3.82108V3.82109V3.82111V3.82112V3.82114V3.82115V3.82116V3.82118V3.82119V3.82121V3.82122V3.82124V3.82125V3.82126V3.82128V3.82129V3.82131V3.82132V3.82133V3.82135V3.82136V3.82137V3.82139V3.8214V3.82142V3.82143V3.82144V3.82146V3.82147V3.82149V3.8215V3.82151V3.82153V3.82154V3.82155V3.82157V3.82158V3.8216V3.82161V3.82162V3.82164V3.82165V3.82166V3.82168V3.82169V3.8217V3.82172V3.82173V3.82174V3.82176V3.82177V3.82179V3.8218V3.82181V3.82183V3.82184V3.82185V3.82187V3.82188V3.82189V3.82191V3.82192V3.82193V3.82194V3.82196V3.82197V3.82198V3.822V3.82201V3.82202V3.82204V3.82205V3.82206V3.82208V3.82209V3.8221V3.82211V3.82213V3.82214V3.82215V3.82217V3.82217V3.82218V3.82219V3.8222V3.82222V3.82223V3.82224V3.82226V3.82227V3.82228V3.82229V3.82231V3.82232V3.82233V3.82234V3.82236V3.82237V3.82238V3.82239V3.82241V3.82242V3.82243V3.82244V3.82245V3.82247V3.82248V3.82249V3.8225V3.82252V3.82253V3.82254V3.82255V3.82256V3.82258V3.82259V3.8226V3.82261V3.82262V3.82264V3.82265V3.82266V3.82267V3.82268V3.8227V3.82271V3.82272V3.82273V3.82274V3.82275V3.82277V3.82278V3.82279V3.8228V3.82281V3.82282V3.82284V3.82285V3.82286V3.82287V3.82288V3.82289V3.8229V3.82291V3.82293V3.82294V3.82295V3.82296V3.82297V3.82298V3.82299V3.823V3.82302V3.82303V3.82304V3.82305V3.82306V3.82307V3.82308V3.82309V3.8231V3.82311V3.82312V3.82313V3.82314V3.82316V3.82317V3.82318V3.82319V3.8232V3.82321V3.82322V3.82323V3.82324V3.82325V3.82326V3.82327V3.82328V3.82329V3.8233V3.82331V3.82332V3.82333V3.82334V3.82335V3.82336V3.82337V3.82338V3.82339V3.8234V3.82341V3.82342V3.82343V3.82344V3.82345V3.82346V3.82347V3.82348V3.82349V3.8235V3.82351V3.82352V3.82353V3.82353V3.82354V3.82355V3.82356V3.82357V3.82358V3.82359V3.8236V3.82361V3.82362V3.82363V3.82364V3.82364V3.82365V3.82366V3.82367V3.82368V3.82369V3.8237V3.82371V3.82371V3.82372V3.82373V3.82374V3.82375V3.82376V3.82377V3.82377V3.82378V3.82379V3.8238V3.82381V3.82381V3.82382V3.82383V3.82384V3.82385V3.82385V3.82386V3.82387V3.82388V3.82389V3.82389V3.8239V3.82391V3.82392V3.82392V3.82393V3.82394V3.82395V3.82395V3.82396V3.82397V3.82398V3.82398V3.82399V3.824V3.82401V3.82401V3.82402V3.82403V3.82403V3.82404V3.82405V3.82405V3.82406V3.82407V3.82407V3.82408V3.82409V3.82409V3.8241V3.82411V3.82411V3.82412V3.82413V3.82413V3.82414V3.82415V3.82415V3.82416V3.82416V3.82417V3.82418V3.82418V3.82419V3.82419V3.8242V3.82421V3.82421V3.82422V3.82422V3.82423V3.82423V3.82424V3.82424V3.82425V3.82426V3.82426V3.82427V3.82427V3.82428V3.82428V3.82429V3.82429V3.8243V3.8243V3.82431V3.82431V3.82432V3.82432V3.82433V3.82433V3.82433V3.82434V3.82434V3.82435V3.82435V3.82436V3.82436V3.82437V3.82437V3.82437V3.82438V3.82438V3.82439V3.82439V3.82439V3.8244V3.8244V3.82441V3.82441V3.82441V3.82442V3.82442V3.82442V3.82443V3.82443V3.82443V3.82444V3.82444V3.82444V3.82445V3.82445V3.82445V3.82446V3.82446V3.82446V3.82447V3.82447V3.82447V3.82447V3.82448V3.82448V3.82448V3.82448V3.82449V3.82449V3.82449V3.82449V3.8245V3.8245V3.8245V3.8245V3.8245V3.82451V3.82451V3.82451V3.82451V3.82451V3.82451V3.82452V3.82452V3.82452V3.82452V3.82452V3.82452V3.82452V3.82453V3.82453V3.82453V3.82453V3.82453V3.82453V3.82453V3.82453V3.82453V3.82454V3.82454V3.82454V3.87147V3.92074L11.28 4.01211C11.2772 4.02064 11.2745 4.02919 11.2718 4.03776M10.7889 5.73212L10.8373 5.84403M10.7889 5.73212L11.3419 5.49929C11.3416 5.4985 11.3413 5.49771 11.3409 5.49692M10.7889 5.73212L11.3398 5.49426L11.3409 5.49692M10.8373 5.84403L13.2103 10.6003M10.8373 5.84403L11.3881 5.60617L11.3815 5.59098M10.8373 5.84403L11.3741 5.57616L11.3815 5.59098M13.2103 10.6003L14.6016 13.3879M13.2103 10.6003L13.7472 10.3324L14.9943 12.8312M13.2103 10.6003L13.7472 10.3323L11.3815 5.59098M14.6016 13.3879C17.036 13.6522 19.3162 14.6262 21.2105 16.2087L20.6061 14.9975M14.6016 13.3879L15.1384 13.12L14.9943 12.8312M14.6016 13.3879L14.6663 12.7914C14.776 12.8033 14.8853 12.8166 14.9943 12.8312M20.6061 14.9975L15.2296 4.22214L15.2107 4.18422L15.2082 4.17683M20.6061 14.9975C18.9277 13.8433 17.0161 13.1027 14.9943 12.8312M15.2082 4.17683L15.034 3.82835L15.0281 3.8165L15.0227 3.80439C14.5667 2.78188 13.3979 2.32767 12.3972 2.76847M15.2082 4.17683L15.1973 4.14403L15.1947 4.13639L15.7639 3.94662L15.7131 3.97207L15.2273 4.21495L15.2082 4.17683ZM11.3815 5.59098L11.3409 5.49692M11.3409 5.49692C11.1389 5.01559 11.1263 4.49969 11.2718 4.03776M11.2718 4.03776L11.3459 3.88939L11.3569 3.86743L11.3661 3.84465C11.4678 3.59137 11.61 3.37315 11.7818 3.19157L11.8118 3.1598M11.8118 3.1598C11.9778 3.00038 12.1728 2.86787 12.3972 2.76847M11.8118 3.1598C11.8013 3.16992 11.7909 3.18014 11.7806 3.19047C11.7788 3.1923 11.7769 3.19414 11.7751 3.19598C11.777 3.19414 11.7788 3.19228 11.7806 3.19042C11.848 3.12035 11.8908 3.04143 11.9155 2.9674C11.9279 2.93002 11.9355 2.89494 11.9399 2.8637C11.9422 2.84803 11.9437 2.83312 11.9446 2.8191C11.9451 2.81208 11.9454 2.80524 11.9456 2.79862L11.9459 2.78882L11.9459 2.78403L11.9459 2.78166L11.946 2.78048L11.9459 3.01811L11.8118 3.1598ZM12.3972 2.76847C12.3971 2.76853 12.3969 2.7686 12.3968 2.76866L12.1548 2.21962M12.3972 2.76847C12.3973 2.76841 12.3975 2.76835 12.3976 2.76828L12.1548 2.21962M12.1548 2.21962C13.4647 1.64226 14.9831 2.24252 15.5706 3.56002L12.1548 2.21962Z"
          stroke="#2A292E" stroke-width="1.2"/>
    <path d="M10.7129 3.81944C10.8426 3.4303 11.0588 3.07421 11.3488 2.77917C11.1249 3.01572 10.9418 3.29804 10.8121 3.62106L10.7129 3.81944Z"
          fill="#4C4957"/>
    <path d="M19.7943 21.9441L19.9066 21.3547C19.8752 21.3487 19.8444 21.3411 19.8116 21.3312L19.8116 21.3312L19.804 21.329C19.7668 21.3184 19.7361 21.3092 19.7084 21.3001L19.692 21.2903L19.6223 21.2689C19.6162 21.267 19.6081 21.264 19.5981 21.2594L19.5981 21.2593L19.5904 21.2559C19.567 21.2455 19.543 21.2356 19.5228 21.2274L19.5182 21.2247L19.4888 21.2111C19.4468 21.1917 19.4002 21.1671 19.3459 21.1369L19.3456 21.1367C19.2996 21.1071 19.2881 21.1005 19.2798 21.0958C19.2725 21.0917 19.2678 21.0889 19.2446 21.0735L19.2446 21.0735L19.2406 21.0708C19.1824 21.0327 19.1256 20.9915 19.0746 20.9499L19.0746 20.9498L19.0663 20.9432C19.042 20.9241 19.0287 20.9123 19.0181 20.9017L19.0096 20.8933L19.0008 20.8851C18.9779 20.864 18.9557 20.8419 18.924 20.8102L18.924 20.8102L18.924 20.8102L18.924 20.8102L18.924 20.8102L18.924 20.8101L18.924 20.8101L18.9239 20.8101L18.9239 20.8101L18.9239 20.8101L18.9239 20.8101L18.9239 20.8101L18.9239 20.8101L18.9239 20.8101L18.9239 20.8101L18.9239 20.8101L18.9239 20.8101L18.9239 20.8101L18.9239 20.8101L18.9239 20.8101L18.9239 20.8101L18.9239 20.8101L18.9239 20.81L18.9239 20.81L18.9238 20.81L18.9238 20.81L18.9238 20.81L18.9238 20.81L18.9238 20.81L18.9238 20.81L18.9238 20.81L18.9238 20.81L18.9238 20.81L18.9238 20.81L18.9238 20.81L18.9238 20.81L18.9238 20.81L18.9238 20.8099L18.9238 20.8099L18.9237 20.8099L18.9237 20.8099L18.9237 20.8099L18.9237 20.8099L18.9237 20.8099L18.9237 20.8099L18.9237 20.8099L18.9237 20.8099L18.9237 20.8099L18.9237 20.8099L18.9237 20.8099L18.9237 20.8099L18.9237 20.8099L18.9237 20.8098L18.9236 20.8098L18.9236 20.8098L18.9236 20.8098L18.9236 20.8098L18.9236 20.8098L18.9236 20.8098L18.9236 20.8098L18.9236 20.8098L18.9236 20.8098L18.9236 20.8098L18.9236 20.8098L18.9236 20.8097L18.9235 20.8097L18.9235 20.8097L18.9235 20.8097L18.9235 20.8097L18.9235 20.8097L18.9235 20.8097L18.9235 20.8097L18.9235 20.8097L18.9235 20.8097L18.9235 20.8097L18.9235 20.8096L18.9234 20.8096L18.9234 20.8096L18.9234 20.8096L18.9234 20.8096L18.9234 20.8096L18.9234 20.8096L18.9234 20.8096L18.9234 20.8096L18.9234 20.8096L18.9234 20.8096L18.9234 20.8096L18.9234 20.8096L18.9234 20.8096L18.9234 20.8096L18.9234 20.8095L18.9234 20.8095L18.9233 20.8095L18.9233 20.8095L18.9233 20.8095L18.9233 20.8095L18.9233 20.8095L18.9233 20.8095L18.9233 20.8095L18.9233 20.8095L18.9233 20.8095L18.9233 20.8095L18.9233 20.8095L18.9233 20.8095L18.9233 20.8095L18.9233 20.8095L18.9233 20.8095L18.9233 20.8094L18.9232 20.8094L18.9232 20.8094L18.9232 20.8094L18.9232 20.8094L18.9232 20.8094L18.9232 20.8094L18.9232 20.8094L18.9232 20.8094L18.9232 20.8094L18.9232 20.8094L18.9232 20.8094L18.9232 20.8094L18.9232 20.8094L18.9232 20.8094L18.9232 20.8093L18.9231 20.8093L18.9231 20.8093L18.9231 20.8093L18.9231 20.8093L18.9231 20.8093L18.9231 20.8093L18.9231 20.8093L18.9231 20.8093L18.9231 20.8093L18.9231 20.8093L18.9231 20.8093L18.9231 20.8093L18.9231 20.8092L18.923 20.8092L18.923 20.8092L18.923 20.8092L18.923 20.8092L18.923 20.8092L18.923 20.8092L18.923 20.8092L18.923 20.8092L18.923 20.8092L18.923 20.8092L18.923 20.8092L18.923 20.8092L18.923 20.8091L18.9229 20.8091L18.9229 20.8091L18.9229 20.8091L18.9229 20.8091L18.9229 20.8091L18.9229 20.8091L18.9229 20.8091L18.9229 20.8091L18.9229 20.8091L18.9229 20.8091L18.9229 20.8091L18.9229 20.809L18.9228 20.809L18.9228 20.809L18.9228 20.809L18.9228 20.809L18.9228 20.809L18.9228 20.809L18.9228 20.809L18.9228 20.809L18.9228 20.809L18.9228 20.809L18.9228 20.8089L18.9227 20.8089L18.9227 20.8089L18.9227 20.8089L18.9227 20.8089L18.9227 20.8089L18.9227 20.8089L18.9227 20.8089L18.9227 20.8089L18.9227 20.8089L18.9227 20.8089L18.9227 20.8088L18.9226 20.8088L18.9226 20.8088L18.9226 20.8088L18.9226 20.8088L18.9226 20.8088L18.9226 20.8088L18.9226 20.8088L18.9226 20.8088L18.9226 20.8088L18.9226 20.8087L18.9225 20.8087L18.9225 20.8087L18.9225 20.8087L18.9225 20.8087L18.9225 20.8087L18.9225 20.8087L18.9225 20.8087L18.9225 20.8087L18.9225 20.8086L18.9224 20.8086L18.9224 20.8086L18.9224 20.8086L18.9224 20.8086L18.9224 20.8086L18.9224 20.8086L18.9224 20.8086L18.9224 20.8086L18.9224 20.8086L18.9223 20.8085L18.9223 20.8085L18.9223 20.8085L18.9223 20.8085L18.9223 20.8085L18.9223 20.8085L18.9223 20.8085L18.9223 20.8085L18.9223 20.8084L18.9222 20.8084L18.9222 20.8084L18.9222 20.8084L18.9222 20.8084L18.9222 20.8084L18.9222 20.8084L18.9222 20.8084L18.9222 20.8084L18.9222 20.8083L18.9221 20.8083L18.9221 20.8083L18.9221 20.8083L18.9221 20.8083L18.9221 20.8083L18.9221 20.8083L18.9221 20.8083L18.9221 20.8082L18.922 20.8082L18.922 20.8082L18.922 20.8082L18.922 20.8082L18.922 20.8082L18.922 20.8082L18.922 20.8082L18.922 20.8081L18.9219 20.8081L18.9219 20.8081L18.9219 20.8081L18.9219 20.8081L18.9219 20.8081L18.9219 20.8081L18.9219 20.8081L18.9219 20.808L18.9218 20.808L18.9218 20.808L18.9218 20.808L18.9218 20.808L18.9218 20.808L18.9218 20.808L18.9218 20.8079L18.9217 20.8079L18.9217 20.8079L18.9217 20.8079L18.9217 20.8079L18.9217 20.8079L18.9217 20.8079L18.9217 20.8078L18.9216 20.8078L18.9216 20.8078L18.9216 20.8078L18.9216 20.8078L18.9216 20.8078L18.9216 20.8078L18.9216 20.8078L18.9215 20.8077L18.9215 20.8077L18.9215 20.8077L18.9215 20.8077L18.9215 20.8077L18.9215 20.8077L18.9215 20.8076L18.9214 20.8076L18.4972 21.2319L18.9214 20.8076C18.9009 20.7871 18.8786 20.7631 18.8465 20.7283L18.7721 20.6477L18.7552 20.6392C17.2651 19.1744 15.3057 18.3682 13.2246 18.3682C12.0245 18.3682 10.8286 18.6512 9.74205 19.1886L12.1946 14.2674C12.5342 14.2385 12.8775 14.2245 13.2246 14.2245C13.68 14.2245 14.0934 14.2486 14.5235 14.2948C17.2636 14.5923 19.8 15.8348 21.7693 17.8696L21.9872 18.0954L22.1336 18.3882C22.1337 18.3884 22.1338 18.3886 22.1339 18.3887C22.2851 18.6934 22.3559 19.0112 22.3559 19.3294V19.5715C22.3545 19.5825 22.3529 19.5943 22.3512 19.607L22.3512 19.607L22.3503 19.6136C22.345 19.6559 22.338 19.6967 22.3289 19.7386C22.3138 19.8081 22.3074 19.8368 22.3002 19.8596L22.292 19.8852L22.2862 19.9114C22.2837 19.9225 22.2782 19.9415 22.2695 19.964L22.2605 19.9872L22.2534 20.011C22.2421 20.0492 22.2273 20.0882 22.2076 20.131L22.1999 20.1477L22.1932 20.1649C22.1821 20.1933 22.1712 20.2174 22.1611 20.2365L22.1514 20.2547L22.1438 20.2719L22.1211 20.3082L22.1133 20.3277L22.1097 20.3345C22.0809 20.3879 22.0531 20.4354 22.0217 20.4846C21.9981 20.5187 21.9837 20.5393 21.9691 20.5583L21.969 20.5583L21.9625 20.567C21.8806 20.6776 21.7938 20.7756 21.7005 20.8612L21.7004 20.8611L21.6912 20.8699C21.6542 20.9054 21.6093 20.9423 21.5534 20.9838L21.5534 20.9837L21.5505 20.9859C21.5498 20.9864 21.548 20.9878 21.5452 20.9898C21.5306 21.0004 21.4903 21.0298 21.4544 21.0583C21.4058 21.0922 21.3588 21.1212 21.3148 21.1438L21.3011 21.1509L21.2877 21.1587C21.2773 21.1648 21.2718 21.1677 21.2605 21.1735C21.2517 21.1782 21.2392 21.1847 21.2178 21.1962C21.1327 21.2392 21.0386 21.2771 20.941 21.3084C20.8989 21.3216 20.8787 21.3276 20.86 21.332C20.8364 21.3376 20.8138 21.3431 20.7933 21.348L20.7925 21.3482L20.7328 21.3626C20.7113 21.3676 20.6905 21.3712 20.6704 21.3736L20.6501 21.376L20.6299 21.3798C20.6081 21.3839 20.5967 21.386 20.5868 21.3875C20.5829 21.3881 20.5806 21.3884 20.5795 21.3886L20.5781 21.3886L20.5405 21.391L20.5379 21.3915C20.5232 21.3926 20.5099 21.3938 20.5003 21.3947L20.4766 21.3969C20.4732 21.3972 20.4709 21.3974 20.4696 21.3975C20.4406 21.3975 20.4125 21.3984 20.3928 21.3989L20.3902 21.399C20.3663 21.3997 20.3528 21.4 20.3412 21.4C20.2975 21.4 20.2817 21.3998 20.2666 21.3988L20.2467 21.3975H20.2267H20.2267H20.2266H20.2265H20.2264H20.2264H20.2263H20.2262H20.2261H20.2261H20.226H20.2259H20.2258H20.2258H20.2257H20.2256H20.2255H20.2255H20.2254H20.2253H20.2252H20.2252H20.2251H20.225H20.2249H20.2249H20.2248H20.2247H20.2246H20.2246H20.2245H20.2244H20.2243H20.2243H20.2242H20.2241H20.224H20.224H20.2239H20.2238H20.2238H20.2237H20.2236H20.2235H20.2235H20.2234H20.2233H20.2232H20.2232H20.2231H20.223H20.2229H20.2229H20.2228H20.2227H20.2226H20.2226H20.2225H20.2224H20.2223H20.2223H20.2222H20.2221H20.222H20.222H20.2219H20.2218H20.2217H20.2217H20.2216H20.2215H20.2214H20.2214H20.2213H20.2212H20.2212H20.2211H20.221H20.2209H20.2209H20.2208H20.2207H20.2206H20.2206H20.2205H20.2204H20.2203H20.2203H20.2202H20.2201H20.22H20.22H20.2199H20.2198H20.2197H20.2197H20.2196H20.2195H20.2194H20.2194H20.2193H20.2192H20.2192H20.2191H20.219H20.2189H20.2189H20.2188H20.2187H20.2186H20.2186H20.2185H20.2184H20.2183H20.2183H20.2182L20.2035 21.3961L20.1615 21.3923L20.1344 21.3898H20.1129L20.106 21.3892L20.1027 21.3889C20.0676 21.3839 20.0564 21.3822 20.0472 21.3803L19.9851 21.367H19.9657L19.9514 21.3638C19.9391 21.3611 19.923 21.3577 19.9049 21.3543L19.7943 21.9441ZM19.7943 21.9441C19.8095 21.9469 19.8239 21.9501 19.8381 21.9532C19.8622 21.9585 19.8858 21.9638 19.9113 21.967L19.7546 21.3278C19.7369 21.3172 19.7204 21.3087 19.7062 21.3022L19.5787 21.621L19.484 21.8576M19.7943 21.9441C19.7409 21.9339 19.6901 21.9212 19.6392 21.9059C19.5858 21.8906 19.5349 21.8754 19.484 21.8576M19.484 21.8576L19.5503 21.6684L19.6821 21.2917L18.4997 21.2344L18.4998 21.2345C18.5303 21.265 18.5608 21.2955 18.5938 21.326C18.6269 21.3591 18.66 21.387 18.6956 21.415M19.484 21.8576C19.4798 21.8559 19.4756 21.8545 19.4713 21.8531C19.4628 21.8502 19.4544 21.8474 19.4459 21.8423C19.4128 21.8322 19.3798 21.8194 19.3467 21.8042C19.3238 21.794 19.2984 21.7838 19.2729 21.7737C19.2602 21.7686 19.25 21.7635 19.2373 21.7558C19.1712 21.7253 19.1051 21.6897 19.0415 21.6541C19.0338 21.6516 19.0262 21.6465 19.0211 21.6414C19.0062 21.6318 18.9913 21.6227 18.9762 21.6134C18.9552 21.6006 18.9339 21.5875 18.9118 21.5727C18.838 21.5244 18.7642 21.471 18.6956 21.415M18.6956 21.415L18.6956 21.415L18.6956 21.415ZM22.1012 20.3579C22.0992 20.3629 22.0999 20.3603 22.1034 20.3525L22.1012 20.3579ZM22.0916 20.4007L22.0877 20.4045C22.0935 20.3985 22.0956 20.3967 22.0916 20.4007Z"
          stroke="#2A292E" stroke-width="1.2"/>
</svg>
