<svg xmlns="http://www.w3.org/2000/svg" preserveAspectRatio="xMidYMid meet" viewBox="0 0 24 24" fill="none">
    <path d="M19.5459 11.796C19.4414 11.9009 19.3172 11.9841 19.1804 12.0409C19.0437 12.0976 18.8971 12.1269 18.749 12.1269C18.601 12.1269 18.4543 12.0976 18.3176 12.0409C18.1809 11.9841 18.0567 11.9009 17.9521 11.796L13.125 6.96879V20.75C13.125 21.0484 13.0064 21.3346 12.7955 21.5455C12.5845 21.7565 12.2983 21.875 12 21.875C11.7016 21.875 11.4154 21.7565 11.2045 21.5455C10.9935 21.3346 10.875 21.0484 10.875 20.75V6.96879L6.0459 11.796C5.83455 12.0073 5.54791 12.1261 5.24902 12.1261C4.95014 12.1261 4.66349 12.0073 4.45215 11.796C4.2408 11.5846 4.12207 11.298 4.12207 10.9991C4.12207 10.7002 4.2408 10.4136 4.45215 10.2022L11.2021 3.45223C11.3067 3.34735 11.4309 3.26413 11.5676 3.20735C11.7043 3.15057 11.851 3.12134 11.999 3.12134C12.1471 3.12134 12.2937 3.15057 12.4304 3.20735C12.5672 3.26413 12.6914 3.34735 12.7959 3.45223L19.5459 10.2022C19.6508 10.3067 19.734 10.4309 19.7908 10.5677C19.8476 10.7044 19.8768 10.851 19.8768 10.9991C19.8768 11.1472 19.8476 11.2938 19.7908 11.4305C19.734 11.5673 19.6508 11.6915 19.5459 11.796Z"
          fill="white"/>
</svg>
