<svg xmlns="http://www.w3.org/2000/svg" preserveAspectRatio="xMidYMid meet" viewBox="0 0 20 20" fill="none">
    <path d="M19.3751 9.68744C19.3743 8.85957 19.139 8.04886 18.6966 7.34913C18.2542 6.6494 17.6226 6.08926 16.8751 5.73353V5.62494C16.8744 4.81964 16.6144 4.03597 16.1337 3.38987C15.6531 2.74378 14.9771 2.26958 14.206 2.03746C13.4349 1.80534 12.6095 1.82761 11.8521 2.10099C11.0946 2.37437 10.4452 2.88433 10.0001 3.55541C9.55495 2.88433 8.9056 2.37437 8.14813 2.10099C7.39065 1.82761 6.56529 1.80534 5.79417 2.03746C5.02305 2.26958 4.34714 2.74378 3.86645 3.38987C3.38576 4.03597 3.12582 4.81964 3.1251 5.62494V5.73353C2.37692 6.08829 1.74478 6.64808 1.30214 7.34785C0.859488 8.04762 0.624512 8.85864 0.624512 9.68666C0.624512 10.5147 0.859488 11.3257 1.30214 12.0255C1.74478 12.7252 2.37692 13.285 3.1251 13.6398V13.7499C3.12582 14.5552 3.38576 15.3389 3.86645 15.985C4.34714 16.6311 5.02305 17.1053 5.79417 17.3374C6.56529 17.5695 7.39065 17.5473 8.14813 17.2739C8.9056 17.0005 9.55495 16.4906 10.0001 15.8195C10.4452 16.4906 11.0946 17.0005 11.8521 17.2739C12.6095 17.5473 13.4349 17.5695 14.206 17.3374C14.9771 17.1053 15.6531 16.6311 16.1337 15.985C16.6144 15.3389 16.8744 14.5552 16.8751 13.7499V13.6398C17.6225 13.2843 18.254 12.7245 18.6964 12.025C19.1389 11.3255 19.3742 10.5151 19.3751 9.68744ZM6.8751 16.2499C6.25865 16.2499 5.66397 16.022 5.20527 15.6102C4.74658 15.1983 4.45621 14.6316 4.38994 14.0187C4.59205 14.0475 4.79594 14.0621 5.0001 14.0624H5.6251C5.79086 14.0624 5.94983 13.9966 6.06704 13.8794C6.18425 13.7622 6.2501 13.6032 6.2501 13.4374C6.2501 13.2717 6.18425 13.1127 6.06704 12.9955C5.94983 12.8783 5.79086 12.8124 5.6251 12.8124H5.0001C4.26225 12.8133 3.5479 12.5531 2.98352 12.0778C2.41913 11.6025 2.04112 10.9429 1.91641 10.2156C1.7917 9.48841 1.92833 8.74051 2.30211 8.10435C2.67589 7.46819 3.26272 6.98481 3.95869 6.73978C4.08047 6.69667 4.18589 6.61688 4.26046 6.51139C4.33503 6.4059 4.37508 6.2799 4.3751 6.15072V5.62494C4.3751 4.9619 4.63849 4.32601 5.10733 3.85717C5.57617 3.38833 6.21206 3.12494 6.8751 3.12494C7.53814 3.12494 8.17402 3.38833 8.64286 3.85717C9.1117 4.32601 9.3751 4.9619 9.3751 5.62494V10.9578C8.68878 10.3405 7.79817 9.99926 6.8751 9.99994C6.70934 9.99994 6.55037 10.0658 6.43316 10.183C6.31595 10.3002 6.2501 10.4592 6.2501 10.6249C6.2501 10.7907 6.31595 10.9497 6.43316 11.0669C6.55037 11.1841 6.70934 11.2499 6.8751 11.2499C7.53814 11.2499 8.17402 11.5133 8.64286 11.9822C9.1117 12.451 9.3751 13.0869 9.3751 13.7499C9.3751 14.413 9.1117 15.0489 8.64286 15.5177C8.17402 15.9865 7.53814 16.2499 6.8751 16.2499ZM15.0001 12.8124H14.3751C14.2093 12.8124 14.0504 12.8783 13.9332 12.9955C13.8159 13.1127 13.7501 13.2717 13.7501 13.4374C13.7501 13.6032 13.8159 13.7622 13.9332 13.8794C14.0504 13.9966 14.2093 14.0624 14.3751 14.0624H15.0001C15.2043 14.0621 15.4081 14.0475 15.6103 14.0187C15.5583 14.4989 15.3684 14.9538 15.0635 15.3284C14.7585 15.7029 14.3516 15.9811 13.8919 16.1293C13.4322 16.2775 12.9394 16.2894 12.4731 16.1635C12.0067 16.0376 11.5869 15.7793 11.2643 15.4199C10.9416 15.0604 10.73 14.6152 10.655 14.138C10.5801 13.6609 10.6449 13.1722 10.8417 12.7311C11.0386 12.2901 11.359 11.9154 11.7642 11.6526C12.1694 11.3897 12.6421 11.2499 13.1251 11.2499C13.2909 11.2499 13.4498 11.1841 13.567 11.0669C13.6842 10.9497 13.7501 10.7907 13.7501 10.6249C13.7501 10.4592 13.6842 10.3002 13.567 10.183C13.4498 10.0658 13.2909 9.99994 13.1251 9.99994C12.202 9.99926 11.3114 10.3405 10.6251 10.9578V5.62494C10.6251 4.9619 10.8885 4.32601 11.3573 3.85717C11.8262 3.38833 12.4621 3.12494 13.1251 3.12494C13.7881 3.12494 14.424 3.38833 14.8929 3.85717C15.3617 4.32601 15.6251 4.9619 15.6251 5.62494V6.15072C15.6251 6.2799 15.6652 6.4059 15.7397 6.51139C15.8143 6.61688 15.9197 6.69667 16.0415 6.73978C16.7375 6.98481 17.3243 7.46819 17.6981 8.10435C18.0719 8.74051 18.2085 9.48841 18.0838 10.2156C17.9591 10.9429 17.5811 11.6025 17.0167 12.0778C16.4523 12.5531 15.7379 12.8133 15.0001 12.8124ZM16.2501 8.74994C16.2501 8.9157 16.1842 9.07467 16.067 9.19188C15.9498 9.30909 15.7909 9.37494 15.6251 9.37494H15.3126C14.5667 9.37494 13.8513 9.07862 13.3239 8.55118C12.7964 8.02373 12.5001 7.30836 12.5001 6.56244V6.24994C12.5001 6.08418 12.5659 5.92521 12.6832 5.808C12.8004 5.69079 12.9593 5.62494 13.1251 5.62494C13.2909 5.62494 13.4498 5.69079 13.567 5.808C13.6842 5.92521 13.7501 6.08418 13.7501 6.24994V6.56244C13.7501 6.97684 13.9147 7.37427 14.2077 7.66729C14.5008 7.96032 14.8982 8.12494 15.3126 8.12494H15.6251C15.7909 8.12494 15.9498 8.19079 16.067 8.308C16.1842 8.42521 16.2501 8.58418 16.2501 8.74994ZM4.6876 9.37494H4.3751C4.20934 9.37494 4.05037 9.30909 3.93316 9.19188C3.81595 9.07467 3.7501 8.9157 3.7501 8.74994C3.7501 8.58418 3.81595 8.42521 3.93316 8.308C4.05037 8.19079 4.20934 8.12494 4.3751 8.12494H4.6876C5.102 8.12494 5.49943 7.96032 5.79245 7.66729C6.08548 7.37427 6.2501 6.97684 6.2501 6.56244V6.24994C6.2501 6.08418 6.31595 5.92521 6.43316 5.808C6.55037 5.69079 6.70934 5.62494 6.8751 5.62494C7.04086 5.62494 7.19983 5.69079 7.31704 5.808C7.43425 5.92521 7.5001 6.08418 7.5001 6.24994V6.56244C7.5001 7.30836 7.20378 8.02373 6.67633 8.55118C6.14889 9.07862 5.43352 9.37494 4.6876 9.37494Z"
          fill="#6F6C7D"/>
</svg>
