<svg xmlns="http://www.w3.org/2000/svg" preserveAspectRatio="xMidYMid meet" viewBox="0 0 18 18" fill="none">
    <path d="M5.2868 13.95C5.34591 13.9944 5.41321 14.0268 5.48484 14.0452C5.55647 14.0636 5.63102 14.0676 5.70423 14.0572C5.77744 14.0467 5.84787 14.022 5.91149 13.9843C5.97511 13.9466 6.03067 13.8967 6.075 13.8375C6.41557 13.3834 6.85719 13.0148 7.36488 12.761C7.87257 12.5072 8.43238 12.375 9 12.375C9.56762 12.375 10.1274 12.5072 10.6351 12.761C11.1428 13.0148 11.5844 13.3834 11.925 13.8375C11.9693 13.8966 12.0248 13.9464 12.0884 13.984C12.152 14.0217 12.2223 14.0464 12.2955 14.0568C12.3686 14.0673 12.443 14.0632 12.5146 14.0449C12.5862 14.0266 12.6534 13.9943 12.7125 13.95C12.7716 13.9057 12.8214 13.8502 12.859 13.7866C12.8967 13.723 12.9214 13.6527 12.9318 13.5795C12.9423 13.5064 12.9382 13.432 12.9199 13.3604C12.9016 13.2888 12.8693 13.2216 12.825 13.1625C12.3269 12.4947 11.6627 11.9689 10.8984 11.6374C11.3173 11.255 11.6107 10.7549 11.7403 10.2028C11.8698 9.6506 11.8294 9.07218 11.6243 8.54341C11.4192 8.01463 11.0591 7.56021 10.5911 7.23978C10.1232 6.91935 9.56926 6.74788 9.00211 6.74788C8.43496 6.74788 7.88106 6.91935 7.4131 7.23978C6.94514 7.56021 6.58499 8.01463 6.37991 8.54341C6.17484 9.07218 6.13441 9.6506 6.26395 10.2028C6.39349 10.7549 6.68694 11.255 7.10578 11.6374C6.33996 11.9683 5.67425 12.4941 5.175 13.1625C5.08541 13.2818 5.04687 13.4317 5.06783 13.5794C5.0888 13.7271 5.16756 13.8604 5.2868 13.95ZM9 7.875C9.33376 7.875 9.66002 7.97397 9.93752 8.1594C10.215 8.34482 10.4313 8.60837 10.559 8.91672C10.6868 9.22507 10.7202 9.56437 10.6551 9.89172C10.59 10.2191 10.4292 10.5197 10.1932 10.7557C9.95724 10.9917 9.65656 11.1525 9.32922 11.2176C9.00187 11.2827 8.66257 11.2493 8.35422 11.1215C8.04587 10.9938 7.78232 10.7775 7.5969 10.5C7.41147 10.2225 7.3125 9.89626 7.3125 9.5625C7.3125 9.11495 7.49029 8.68572 7.80676 8.36926C8.12322 8.05279 8.55245 7.875 9 7.875ZM14.0625 1.6875H3.9375C3.63913 1.6875 3.35298 1.80603 3.142 2.017C2.93103 2.22798 2.8125 2.51413 2.8125 2.8125V15.1875C2.8125 15.4859 2.93103 15.772 3.142 15.983C3.35298 16.194 3.63913 16.3125 3.9375 16.3125H14.0625C14.3609 16.3125 14.647 16.194 14.858 15.983C15.069 15.772 15.1875 15.4859 15.1875 15.1875V2.8125C15.1875 2.51413 15.069 2.22798 14.858 2.017C14.647 1.80603 14.3609 1.6875 14.0625 1.6875ZM14.0625 15.1875H3.9375V2.8125H14.0625V15.1875ZM6.1875 4.5C6.1875 4.35082 6.24676 4.20774 6.35225 4.10225C6.45774 3.99676 6.60082 3.9375 6.75 3.9375H11.25C11.3992 3.9375 11.5423 3.99676 11.6477 4.10225C11.7532 4.20774 11.8125 4.35082 11.8125 4.5C11.8125 4.64918 11.7532 4.79226 11.6477 4.89775C11.5423 5.00324 11.3992 5.0625 11.25 5.0625H6.75C6.60082 5.0625 6.45774 5.00324 6.35225 4.89775C6.24676 4.79226 6.1875 4.64918 6.1875 4.5Z"
          fill="#6F6C7D"/>
</svg>
