<svg xmlns="http://www.w3.org/2000/svg" preserveAspectRatio="xMidYMid meet" viewBox="0 0 18 18" fill="none">
    <path d="M16.875 14.625H15.75V6.75C15.75 6.45163 15.6315 6.16548 15.4205 5.9545C15.2095 5.74353 14.9234 5.625 14.625 5.625H10.125V2.25C10.1251 2.04628 10.0699 1.84634 9.96533 1.67154C9.86071 1.49673 9.71059 1.35361 9.53098 1.25746C9.35138 1.16131 9.14904 1.11573 8.94556 1.12559C8.74208 1.13544 8.54509 1.20037 8.37563 1.31344L2.75062 5.0625C2.59632 5.16545 2.46986 5.30496 2.38252 5.46861C2.29517 5.63226 2.24965 5.81497 2.25 6.00047V14.625H1.125C0.975816 14.625 0.832742 14.6843 0.727252 14.7898C0.621763 14.8952 0.5625 15.0383 0.5625 15.1875C0.5625 15.3367 0.621763 15.4798 0.727252 15.5852C0.832742 15.6907 0.975816 15.75 1.125 15.75H16.875C17.0242 15.75 17.1673 15.6907 17.2727 15.5852C17.3782 15.4798 17.4375 15.3367 17.4375 15.1875C17.4375 15.0383 17.3782 14.8952 17.2727 14.7898C17.1673 14.6843 17.0242 14.625 16.875 14.625ZM14.625 6.75V14.625H10.125V6.75H14.625ZM3.375 6.00047L9 2.25V14.625H3.375V6.00047ZM7.875 7.875V9C7.875 9.14918 7.81574 9.29226 7.71025 9.39775C7.60476 9.50324 7.46168 9.5625 7.3125 9.5625C7.16332 9.5625 7.02024 9.50324 6.91475 9.39775C6.80926 9.29226 6.75 9.14918 6.75 9V7.875C6.75 7.72581 6.80926 7.58274 6.91475 7.47725C7.02024 7.37176 7.16332 7.3125 7.3125 7.3125C7.46168 7.3125 7.60476 7.37176 7.71025 7.47725C7.81574 7.58274 7.875 7.72581 7.875 7.875ZM5.625 7.875V9C5.625 9.14918 5.56574 9.29226 5.46025 9.39775C5.35476 9.50324 5.21168 9.5625 5.0625 9.5625C4.91332 9.5625 4.77024 9.50324 4.66475 9.39775C4.55926 9.29226 4.5 9.14918 4.5 9V7.875C4.5 7.72581 4.55926 7.58274 4.66475 7.47725C4.77024 7.37176 4.91332 7.3125 5.0625 7.3125C5.21168 7.3125 5.35476 7.37176 5.46025 7.47725C5.56574 7.58274 5.625 7.72581 5.625 7.875ZM5.625 11.8125V12.9375C5.625 13.0867 5.56574 13.2298 5.46025 13.3352C5.35476 13.4407 5.21168 13.5 5.0625 13.5C4.91332 13.5 4.77024 13.4407 4.66475 13.3352C4.55926 13.2298 4.5 13.0867 4.5 12.9375V11.8125C4.5 11.6633 4.55926 11.5202 4.66475 11.4148C4.77024 11.3093 4.91332 11.25 5.0625 11.25C5.21168 11.25 5.35476 11.3093 5.46025 11.4148C5.56574 11.5202 5.625 11.6633 5.625 11.8125ZM7.875 11.8125V12.9375C7.875 13.0867 7.81574 13.2298 7.71025 13.3352C7.60476 13.4407 7.46168 13.5 7.3125 13.5C7.16332 13.5 7.02024 13.4407 6.91475 13.3352C6.80926 13.2298 6.75 13.0867 6.75 12.9375V11.8125C6.75 11.6633 6.80926 11.5202 6.91475 11.4148C7.02024 11.3093 7.16332 11.25 7.3125 11.25C7.46168 11.25 7.60476 11.3093 7.71025 11.4148C7.81574 11.5202 7.875 11.6633 7.875 11.8125Z"
          fill="#2A292E"/>
</svg>
