<svg xmlns="http://www.w3.org/2000/svg" preserveAspectRatio="xMidYMid meet" viewBox="0 0 24 24" fill="none">
    <rect width="24" height="24" transform="translate(0 0.5)" fill="white"/>
    <path d="M17.3872 9.44499V6.95806C18.0587 6.64391 18.488 5.97102 18.4919 5.22599V5.16762C18.4887 4.11238 17.6366 3.25454 16.5797 3.25126H16.5214C15.4645 3.25454 14.6091 4.10844 14.6059 5.16762V5.22599C14.6091 5.96381 15.0352 6.63342 15.7001 6.95084L15.7106 6.9574V9.4509C14.7629 9.59452 13.8664 9.99065 13.1203 10.5953L13.1308 10.5888L6.29972 5.25682C6.91686 2.94761 3.91036 1.4687 2.46536 3.37128C1.01642 5.27059 3.22909 7.78441 5.29123 6.58226L5.28076 6.58882L11.9953 11.825C11.4024 12.7202 11.085 13.7689 11.0889 14.8412C11.0889 16.0125 11.4606 17.1026 12.0909 17.9938L12.0804 17.9768L10.0353 20.023C9.87165 19.9718 9.7015 19.9443 9.53069 19.941H9.52742C7.94956 19.941 7.15507 21.8574 8.27286 22.9775C9.39064 24.0944 11.3029 23.3022 11.3029 21.7203C11.2996 21.5426 11.2689 21.3648 11.2146 21.1976L11.2178 21.2114L13.2394 19.1855C14.5758 20.2066 16.3074 20.5555 17.933 20.1286C19.5554 19.6984 20.895 18.5474 21.556 16.9996C22.2209 15.4525 22.1352 13.6863 21.3244 12.2107C20.5168 10.735 19.0711 9.71717 17.4147 9.4509L17.3807 9.44434L17.3872 9.44499ZM16.545 17.6462C14.0535 17.6397 12.8127 14.6196 14.5784 12.8573C16.3408 11.0944 19.3506 12.3451 19.3506 14.8419V14.8452C19.3506 16.3923 18.0999 17.6462 16.5522 17.6462H16.545Z"
          fill="#FF7A59"/>
</svg>
