<svg xmlns="http://www.w3.org/2000/svg" preserveAspectRatio="xMidYMid meet" viewBox="0 0 20 20" fill="none">
    <path d="M8.71034 4.11172C8.56355 3.96531 8.38224 3.85824 8.18316 3.80037C7.98407 3.74251 7.77362 3.73572 7.57122 3.78064C7.36882 3.82556 7.18099 3.92073 7.02507 4.05738C6.86916 4.19402 6.75017 4.36774 6.67909 4.5625L2.57831 15.8422C2.51094 16.0282 2.48918 16.2276 2.51485 16.4238C2.54052 16.62 2.61288 16.8071 2.72585 16.9695C2.83881 17.1319 2.98909 17.2649 3.16406 17.3572C3.33904 17.4495 3.53361 17.4985 3.73143 17.5C3.87708 17.499 4.02144 17.4726 4.15799 17.4219L15.4369 13.3203C15.6317 13.2493 15.8055 13.1304 15.9422 12.9745C16.079 12.8186 16.1742 12.6308 16.2192 12.4284C16.2642 12.226 16.2575 12.0155 16.1997 11.8164C16.1419 11.6173 16.0349 11.4359 15.8885 11.2891L8.71034 4.11172ZM8.05956 14.675L5.32518 11.9406L6.35331 9.11172L10.8885 13.6469L8.05956 14.675ZM3.76268 16.2375L4.85643 13.2367L6.76659 15.1469L3.76268 16.2375ZM12.1877 13.175L6.82518 7.8125L7.84081 5.01016L14.9838 12.1531L12.1877 13.175ZM12.5002 5.625C12.5119 5.20248 12.6142 4.7874 12.8002 4.40781C13.2142 3.58047 13.9955 3.125 15.0002 3.125C15.5236 3.125 15.8596 2.94609 16.0666 2.56172C16.1756 2.34668 16.2382 2.11111 16.2502 1.87031C16.2508 1.70455 16.3172 1.54583 16.4349 1.42906C16.5525 1.31229 16.7118 1.24703 16.8775 1.24766C17.0433 1.24828 17.202 1.31472 17.3188 1.43237C17.4356 1.55002 17.5008 1.70924 17.5002 1.875C17.5002 2.87969 16.8346 4.375 15.0002 4.375C14.4767 4.375 14.1408 4.55391 13.9338 4.93828C13.8248 5.15332 13.7622 5.38889 13.7502 5.62969C13.7499 5.71176 13.7334 5.79298 13.7017 5.86869C13.67 5.9444 13.6237 6.01312 13.5655 6.07094C13.5072 6.12876 13.4381 6.17454 13.3622 6.20567C13.2862 6.23679 13.2049 6.25265 13.1228 6.25234C13.0408 6.25204 12.9595 6.23556 12.8838 6.20387C12.8081 6.17218 12.7394 6.12588 12.6816 6.06763C12.6238 6.00937 12.578 5.9403 12.5469 5.86436C12.5157 5.78841 12.4999 5.70708 12.5002 5.625ZM10.6252 3.125V1.25C10.6252 1.08424 10.691 0.925268 10.8082 0.808058C10.9254 0.690848 11.0844 0.625 11.2502 0.625C11.4159 0.625 11.5749 0.690848 11.6921 0.808058C11.8093 0.925268 11.8752 1.08424 11.8752 1.25V3.125C11.8752 3.29076 11.8093 3.44973 11.6921 3.56694C11.5749 3.68415 11.4159 3.75 11.2502 3.75C11.0844 3.75 10.9254 3.68415 10.8082 3.56694C10.691 3.44973 10.6252 3.29076 10.6252 3.125ZM18.5674 9.55781C18.6254 9.61588 18.6714 9.68481 18.7028 9.76066C18.7342 9.83651 18.7503 9.9178 18.7503 9.99989C18.7502 10.082 18.734 10.1632 18.7026 10.2391C18.6711 10.3149 18.625 10.3838 18.567 10.4418C18.5089 10.4998 18.44 10.5458 18.3641 10.5772C18.2883 10.6086 18.207 10.6247 18.1249 10.6247C18.0428 10.6246 17.9615 10.6084 17.8857 10.577C17.8099 10.5455 17.741 10.4995 17.683 10.4414L16.433 9.19141C16.3157 9.07413 16.2498 8.91507 16.2498 8.74922C16.2498 8.58337 16.3157 8.42431 16.433 8.30703C16.5503 8.18976 16.7093 8.12387 16.8752 8.12387C17.041 8.12387 17.2001 8.18976 17.3174 8.30703L18.5674 9.55781ZM18.9478 6.21797L17.0728 6.84297C16.9156 6.89539 16.7439 6.88319 16.5957 6.80906C16.4474 6.73492 16.3346 6.60492 16.2822 6.44766C16.2298 6.29039 16.242 6.11874 16.3161 5.97047C16.3903 5.8222 16.5203 5.70945 16.6775 5.65703L18.5525 5.03203C18.7098 4.97961 18.8814 4.99181 19.0297 5.06594C19.178 5.14008 19.2907 5.27008 19.3431 5.42734C19.3956 5.58461 19.3834 5.75626 19.3092 5.90453C19.2351 6.0528 19.1051 6.16555 18.9478 6.21797Z"
          fill="#6F6C7D"/>
</svg>
