<svg xmlns="http://www.w3.org/2000/svg" preserveAspectRatio="xMidYMid meet" viewBox="0 0 20 20" fill="none">
    <path d="M17.4999 10.0001C17.4999 10.1659 17.434 10.3248 17.3168 10.442C17.1996 10.5593 17.0406 10.6251 16.8749 10.6251H9.99986C9.8341 10.6251 9.67513 10.5593 9.55792 10.442C9.44071 10.3248 9.37486 10.1659 9.37486 10.0001C9.37486 9.83434 9.44071 9.67537 9.55792 9.55816C9.67513 9.44095 9.8341 9.3751 9.99986 9.3751H16.8749C17.0406 9.3751 17.1996 9.44095 17.3168 9.55816C17.434 9.67537 17.4999 9.83434 17.4999 10.0001ZM9.99986 5.6251H16.8749C17.0406 5.6251 17.1996 5.55926 17.3168 5.44204C17.434 5.32483 17.4999 5.16586 17.4999 5.0001C17.4999 4.83434 17.434 4.67537 17.3168 4.55816C17.1996 4.44095 17.0406 4.3751 16.8749 4.3751H9.99986C9.8341 4.3751 9.67513 4.44095 9.55792 4.55816C9.44071 4.67537 9.37486 4.83434 9.37486 5.0001C9.37486 5.16586 9.44071 5.32483 9.55792 5.44204C9.67513 5.55926 9.8341 5.6251 9.99986 5.6251ZM16.8749 14.3751H9.99986C9.8341 14.3751 9.67513 14.441 9.55792 14.5582C9.44071 14.6754 9.37486 14.8343 9.37486 15.0001C9.37486 15.1659 9.44071 15.3248 9.55792 15.442C9.67513 15.5593 9.8341 15.6251 9.99986 15.6251H16.8749C17.0406 15.6251 17.1996 15.5593 17.3168 15.442C17.434 15.3248 17.4999 15.1659 17.4999 15.0001C17.4999 14.8343 17.434 14.6754 17.3168 14.5582C17.1996 14.441 17.0406 14.3751 16.8749 14.3751ZM6.43267 3.30792L4.37486 5.36651L3.56705 4.55792C3.44977 4.44064 3.29071 4.37476 3.12486 4.37476C2.95901 4.37476 2.79995 4.44064 2.68267 4.55792C2.5654 4.67519 2.49951 4.83425 2.49951 5.0001C2.49951 5.16596 2.5654 5.32502 2.68267 5.44229L3.93267 6.69229C3.99072 6.7504 4.05965 6.7965 4.13552 6.82795C4.2114 6.85941 4.29272 6.8756 4.37486 6.8756C4.45699 6.8756 4.53832 6.85941 4.6142 6.82795C4.69007 6.7965 4.759 6.7504 4.81705 6.69229L7.31705 4.19229C7.43432 4.07502 7.50021 3.91596 7.50021 3.7501C7.50021 3.58425 7.43432 3.42519 7.31705 3.30792C7.19977 3.19064 7.04071 3.12476 6.87486 3.12476C6.70901 3.12476 6.54995 3.19064 6.43267 3.30792ZM6.43267 8.30792L4.37486 10.3665L3.56705 9.55792C3.44977 9.44064 3.29071 9.37476 3.12486 9.37476C2.95901 9.37476 2.79995 9.44064 2.68267 9.55792C2.5654 9.67519 2.49951 9.83425 2.49951 10.0001C2.49951 10.0822 2.51569 10.1635 2.54711 10.2394C2.57854 10.3153 2.6246 10.3842 2.68267 10.4423L3.93267 11.6923C3.99072 11.7504 4.05965 11.7965 4.13552 11.828C4.2114 11.8594 4.29272 11.8756 4.37486 11.8756C4.45699 11.8756 4.53832 11.8594 4.6142 11.828C4.69007 11.7965 4.759 11.7504 4.81705 11.6923L7.31705 9.19229C7.43432 9.07502 7.50021 8.91596 7.50021 8.7501C7.50021 8.58425 7.43432 8.42519 7.31705 8.30792C7.19977 8.19064 7.04071 8.12476 6.87486 8.12476C6.70901 8.12476 6.54995 8.19064 6.43267 8.30792ZM6.43267 13.3079L4.37486 15.3665L3.56705 14.5579C3.50898 14.4998 3.44004 14.4538 3.36417 14.4224C3.2883 14.3909 3.20698 14.3748 3.12486 14.3748C3.04274 14.3748 2.96142 14.3909 2.88555 14.4224C2.80968 14.4538 2.74074 14.4998 2.68267 14.5579C2.6246 14.616 2.57854 14.6849 2.54711 14.7608C2.51569 14.8367 2.49951 14.918 2.49951 15.0001C2.49951 15.0822 2.51569 15.1635 2.54711 15.2394C2.57854 15.3153 2.6246 15.3842 2.68267 15.4423L3.93267 16.6923C3.99072 16.7504 4.05965 16.7965 4.13552 16.828C4.2114 16.8594 4.29272 16.8756 4.37486 16.8756C4.45699 16.8756 4.53832 16.8594 4.6142 16.828C4.69007 16.7965 4.759 16.7504 4.81705 16.6923L7.31705 14.1923C7.43432 14.075 7.50021 13.916 7.50021 13.7501C7.50021 13.5843 7.43432 13.4252 7.31705 13.3079C7.19977 13.1906 7.04071 13.1248 6.87486 13.1248C6.70901 13.1248 6.54995 13.1906 6.43267 13.3079Z"
          fill="#6F6C7D"/>
</svg>
