<svg xmlns="http://www.w3.org/2000/svg" preserveAspectRatio="xMidYMid meet" viewBox="0 0 18 18" fill="none">
  <path d="M5.0625 6.46875C5.0625 6.63563 5.01302 6.79876 4.9203 6.93751C4.82759 7.07627 4.69581 7.18441 4.54164 7.24827C4.38746 7.31214 4.21781 7.32884 4.05414 7.29629C3.89047 7.26373 3.74013 7.18337 3.62213 7.06537C3.50413 6.94737 3.42377 6.79703 3.39121 6.63336C3.35866 6.46969 3.37537 6.30004 3.43923 6.14586C3.50309 5.99169 3.61123 5.85991 3.74999 5.7672C3.88874 5.67449 4.05187 5.625 4.21875 5.625C4.44253 5.625 4.65714 5.7139 4.81537 5.87213C4.97361 6.03036 5.0625 6.24497 5.0625 6.46875ZM9 5.625C8.83312 5.625 8.66999 5.67449 8.53124 5.7672C8.39249 5.85991 8.28434 5.99169 8.22048 6.14586C8.15662 6.30004 8.13991 6.46969 8.17246 6.63336C8.20502 6.79703 8.28538 6.94737 8.40338 7.06537C8.52138 7.18337 8.67172 7.26373 8.83539 7.29629C8.99906 7.32884 9.16871 7.31214 9.32289 7.24827C9.47707 7.18441 9.60884 7.07627 9.70155 6.93751C9.79427 6.79876 9.84375 6.63563 9.84375 6.46875C9.84375 6.24497 9.75486 6.03036 9.59662 5.87213C9.43839 5.7139 9.22378 5.625 9 5.625ZM13.7813 7.3125C13.9481 7.3125 14.1113 7.26302 14.25 7.1703C14.3888 7.07759 14.4969 6.94581 14.5608 6.79164C14.6246 6.63746 14.6413 6.46781 14.6088 6.30414C14.5762 6.14047 14.4959 5.99013 14.3779 5.87213C14.2599 5.75413 14.1095 5.67377 13.9459 5.64121C13.7822 5.60866 13.6125 5.62537 13.4584 5.68923C13.3042 5.75309 13.1724 5.86123 13.0797 5.99999C12.987 6.13874 12.9375 6.30187 12.9375 6.46875C12.9375 6.69253 13.0264 6.90714 13.1846 7.06537C13.3429 7.22361 13.5575 7.3125 13.7813 7.3125ZM4.21875 10.6875C4.05187 10.6875 3.88874 10.737 3.74999 10.8297C3.61123 10.9224 3.50309 11.0542 3.43923 11.2084C3.37537 11.3625 3.35866 11.5322 3.39121 11.6959C3.42377 11.8595 3.50413 12.0099 3.62213 12.1279C3.74013 12.2459 3.89047 12.3262 4.05414 12.3588C4.21781 12.3913 4.38746 12.3746 4.54164 12.3108C4.69581 12.2469 4.82759 12.1388 4.9203 12C5.01302 11.8613 5.0625 11.6981 5.0625 11.5313C5.0625 11.3075 4.97361 11.0929 4.81537 10.9346C4.65714 10.7764 4.44253 10.6875 4.21875 10.6875ZM9 10.6875C8.83312 10.6875 8.66999 10.737 8.53124 10.8297C8.39249 10.9224 8.28434 11.0542 8.22048 11.2084C8.15662 11.3625 8.13991 11.5322 8.17246 11.6959C8.20502 11.8595 8.28538 12.0099 8.40338 12.1279C8.52138 12.2459 8.67172 12.3262 8.83539 12.3588C8.99906 12.3913 9.16871 12.3746 9.32289 12.3108C9.47707 12.2469 9.60884 12.1388 9.70155 12C9.79427 11.8613 9.84375 11.6981 9.84375 11.5313C9.84375 11.3075 9.75486 11.0929 9.59662 10.9346C9.43839 10.7764 9.22378 10.6875 9 10.6875ZM13.7813 10.6875C13.6144 10.6875 13.4512 10.737 13.3125 10.8297C13.1737 10.9224 13.0656 11.0542 13.0017 11.2084C12.9379 11.3625 12.9212 11.5322 12.9537 11.6959C12.9863 11.8595 13.0666 12.0099 13.1846 12.1279C13.3026 12.2459 13.453 12.3262 13.6166 12.3588C13.7803 12.3913 13.95 12.3746 14.1041 12.3108C14.2583 12.2469 14.3901 12.1388 14.4828 12C14.5755 11.8613 14.625 11.6981 14.625 11.5313C14.625 11.3075 14.5361 11.0929 14.3779 10.9346C14.2196 10.7764 14.005 10.6875 13.7813 10.6875Z" fill="#343330"/>
</svg>