<svg xmlns="http://www.w3.org/2000/svg" preserveAspectRatio="xMidYMid meet" viewBox="0 0 20 20" fill="none">
    <path d="M17.8123 9.99999C17.8123 10.2486 17.7135 10.4871 17.5377 10.6629C17.3619 10.8387 17.1234 10.9375 16.8748 10.9375H5.39039L9.41539 14.9617C9.59151 15.1378 9.69045 15.3767 9.69045 15.6258C9.69045 15.8748 9.59151 16.1137 9.41539 16.2898C9.23927 16.466 9.0004 16.5649 8.75132 16.5649C8.50225 16.5649 8.26338 16.466 8.08726 16.2898L2.46226 10.6648C2.37486 10.5777 2.30552 10.4742 2.2582 10.3603C2.21088 10.2463 2.18652 10.1242 2.18652 10.0008C2.18652 9.87738 2.21088 9.75521 2.2582 9.64125C2.30552 9.5273 2.37486 9.42381 2.46226 9.33671L8.08726 3.71171C8.17447 3.6245 8.278 3.55533 8.39194 3.50813C8.50588 3.46094 8.628 3.43665 8.75132 3.43665C8.87465 3.43665 8.99677 3.46094 9.11071 3.50813C9.22465 3.55533 9.32818 3.6245 9.41539 3.71171C9.50259 3.79891 9.57177 3.90244 9.61896 4.01638C9.66616 4.13032 9.69045 4.25244 9.69045 4.37577C9.69045 4.4991 9.66616 4.62122 9.61896 4.73516C9.57177 4.8491 9.50259 4.95263 9.41539 5.03983L5.39039 9.06249H16.8748C17.1234 9.06249 17.3619 9.16126 17.5377 9.33708C17.7135 9.51289 17.8123 9.75135 17.8123 9.99999Z" fill="#9095A3"/>
</svg>
