<svg xmlns="http://www.w3.org/2000/svg"  preserveAspectRatio="xMidYMid meet" viewBox="0 0 18 18" fill="none">
    <path d="M14.4844 3.9375V6.1875C14.4844 6.29939 14.4399 6.40669 14.3608 6.48581C14.2817 6.56493 14.1744 6.60938 14.0625 6.60938C13.9506 6.60938 13.8433 6.56493 13.7642 6.48581C13.6851 6.40669 13.6406 6.29939 13.6406 6.1875V4.35938H9.42188V13.6406H11.25C11.3619 13.6406 11.4692 13.6851 11.5483 13.7642C11.6274 13.8433 11.6719 13.9506 11.6719 14.0625C11.6719 14.1744 11.6274 14.2817 11.5483 14.3608C11.4692 14.4399 11.3619 14.4844 11.25 14.4844H6.75C6.63811 14.4844 6.53081 14.4399 6.45169 14.3608C6.37257 14.2817 6.32812 14.1744 6.32812 14.0625C6.32812 13.9506 6.37257 13.8433 6.45169 13.7642C6.53081 13.6851 6.63811 13.6406 6.75 13.6406H8.57812V4.35938H4.35938V6.1875C4.35938 6.29939 4.31493 6.40669 4.23581 6.48581C4.15669 6.56493 4.04939 6.60938 3.9375 6.60938C3.82561 6.60938 3.71831 6.56493 3.63919 6.48581C3.56007 6.40669 3.51562 6.29939 3.51562 6.1875V3.9375C3.51562 3.82561 3.56007 3.71831 3.63919 3.63919C3.71831 3.56007 3.82561 3.51563 3.9375 3.51562H14.0625C14.1744 3.51562 14.2817 3.56007 14.3608 3.63919C14.4399 3.71831 14.4844 3.82561 14.4844 3.9375Z" fill="#2A292E"/>
</svg>