<svg width="20" height="20" viewBox="0 0 20 20" fill="none" xmlns="http://www.w3.org/2000/svg">
<path d="M13.4375 9.375C13.4375 10.0549 13.2359 10.7195 12.8582 11.2848C12.4805 11.8501 11.9436 12.2907 11.3155 12.5508C10.6874 12.811 9.99619 12.8791 9.32938 12.7464C8.66257 12.6138 8.05006 12.2864 7.56932 11.8057C7.08858 11.3249 6.76119 10.7124 6.62855 10.0456C6.49591 9.37881 6.56399 8.68765 6.82416 8.05953C7.08434 7.4314 7.52493 6.89454 8.09023 6.51682C8.65552 6.13911 9.32013 5.9375 10 5.9375C10.9117 5.9375 11.786 6.29966 12.4307 6.94432C13.0753 7.58898 13.4375 8.46332 13.4375 9.375ZM18.125 4.375V15.625C18.125 15.9565 17.9933 16.2745 17.7589 16.5089C17.5245 16.7433 17.2065 16.875 16.875 16.875H3.125C2.79348 16.875 2.47554 16.7433 2.24112 16.5089C2.0067 16.2745 1.875 15.9565 1.875 15.625V4.375C1.875 4.04348 2.0067 3.72554 2.24112 3.49112C2.47554 3.2567 2.79348 3.125 3.125 3.125H16.875C17.2065 3.125 17.5245 3.2567 17.7589 3.49112C17.9933 3.72554 18.125 4.04348 18.125 4.375ZM16.875 15.625V4.375H3.125V15.625H4.27188C4.75753 14.514 5.55584 13.5683 6.56953 12.9031C6.62644 12.8654 6.69414 12.8473 6.76228 12.8517C6.83043 12.8561 6.89526 12.8826 6.94687 12.9273C7.79552 13.6596 8.87909 14.0625 10 14.0625C11.1209 14.0625 12.2045 13.6596 13.0531 12.9273C13.1047 12.8826 13.1696 12.8561 13.2377 12.8517C13.3059 12.8473 13.3736 12.8654 13.4305 12.9031C14.4442 13.5683 15.2425 14.514 15.7281 15.625H16.875Z" fill="#2A292E"/>
</svg>
