<svg width="20" height="20" viewBox="0 0 20 20" fill="none" xmlns="http://www.w3.org/2000/svg">
<path d="M9.35626 17.0266C9.32246 17.1618 9.24444 17.2818 9.1346 17.3676C9.02475 17.4534 8.88938 17.5 8.75001 17.5C8.69735 17.5002 8.64487 17.4939 8.59376 17.4812L6.09376 16.8562C6.02416 16.8388 5.95809 16.8094 5.89845 16.7695L4.02345 15.5195C3.88556 15.4275 3.78986 15.2845 3.75741 15.122C3.72495 14.9594 3.7584 14.7906 3.8504 14.6527C3.9424 14.5148 4.08541 14.4191 4.24796 14.3867C4.41052 14.3542 4.57931 14.3877 4.7172 14.4797L6.50157 15.6695L8.89689 16.2687C8.97692 16.2881 9.05233 16.3232 9.11878 16.3718C9.18523 16.4205 9.24141 16.4817 9.2841 16.5522C9.32679 16.6226 9.35514 16.7007 9.36752 16.7822C9.37991 16.8636 9.37608 16.9466 9.35626 17.0266ZM19.7227 9.49062C19.6714 9.64639 19.5898 9.79045 19.4825 9.91448C19.3752 10.0385 19.2444 10.1401 19.0977 10.2133L17.2477 11.1383L16.0695 12.3172L12.9445 15.4422C12.8682 15.5185 12.7733 15.5737 12.6693 15.6024C12.5652 15.6312 12.4555 15.6325 12.3508 15.6062L7.35079 14.3562C7.27476 14.3372 7.20295 14.304 7.13907 14.2586L2.80157 11.1617L0.904698 10.2133C0.608242 10.0651 0.382777 9.80521 0.277881 9.49081C0.172984 9.17642 0.197243 8.83323 0.345323 8.53671L2.28673 4.65468C2.43493 4.35823 2.6948 4.13276 3.00919 4.02786C3.32359 3.92297 3.66678 3.94723 3.96329 4.09531L5.68673 4.95468L9.82736 3.77187C9.93969 3.73974 10.0588 3.73974 10.1711 3.77187L14.3117 4.95468L16.0352 4.09531C16.3317 3.94723 16.6749 3.92297 16.9893 4.02786C17.3037 4.13276 17.5635 4.35823 17.7117 4.65468L19.6531 8.53671C19.7272 8.68323 19.7715 8.84297 19.7834 9.00671C19.7953 9.17044 19.7747 9.33491 19.7227 9.49062ZM14.6875 11.9266L12.5227 10.193C10.9961 11.443 9.05782 11.6078 7.45157 10.5836C7.29357 10.4831 7.16017 10.3484 7.06122 10.1894C6.96228 10.0304 6.90032 9.85121 6.87992 9.66506C6.85952 9.47892 6.8812 9.29056 6.94337 9.11392C7.00553 8.93728 7.10659 8.77687 7.23907 8.64453C7.24096 8.64225 7.24305 8.64016 7.24532 8.63828L10.75 5.23906L10 5.02499L6.06095 6.15078L3.92267 10.4266L7.76642 13.1727L12.3086 14.3078L14.6875 11.9266ZM16.1125 10.5016L13.9891 6.24999H11.5031L8.12501 9.53124C9.11407 10.1633 10.6649 10.3375 12.0563 8.93515C12.1649 8.82562 12.3103 8.76015 12.4643 8.75135C12.6184 8.74256 12.7702 8.79105 12.8906 8.8875L15.5789 11.0414L16.1125 10.5016Z" fill="#2A292E"/>
</svg>
