<svg width="20" height="20" viewBox="0 0 20 20" fill="none" xmlns="http://www.w3.org/2000/svg">
<path d="M12.8492 15.2836C12.9107 15.3779 12.9456 15.487 12.9502 15.5995C12.9548 15.712 12.9289 15.8237 12.8753 15.9227C12.8217 16.0217 12.7423 16.1043 12.6456 16.1619C12.5489 16.2196 12.4384 16.25 12.3258 16.25H0.79924C0.686659 16.25 0.576171 16.2196 0.479451 16.1619C0.382731 16.1043 0.303369 16.0217 0.249751 15.9227C0.196133 15.8237 0.17025 15.712 0.174835 15.5995C0.179421 15.487 0.214305 15.3779 0.275803 15.2836C1.15557 13.9294 2.44962 12.896 3.96487 12.3375C3.12721 11.7798 2.49125 10.9674 2.15104 10.0203C1.81082 9.07329 1.78441 8.04189 2.07572 7.07867C2.36702 6.11544 2.96057 5.27153 3.76859 4.67174C4.57662 4.07194 5.55621 3.74809 6.56252 3.74809C7.56883 3.74809 8.54843 4.07194 9.35645 4.67174C10.1645 5.27153 10.758 6.11544 11.0493 7.07867C11.3406 8.04189 11.3142 9.07329 10.974 10.0203C10.6338 10.9674 9.99784 11.7798 9.16018 12.3375C10.6754 12.896 11.9695 13.9294 12.8492 15.2836ZM19.7172 15.2719C18.8372 13.9234 17.546 12.8944 16.0352 12.3375C17.0241 11.6714 17.722 10.6534 17.9868 9.49089C18.2516 8.32835 18.0635 7.10857 17.4607 6.07986C16.8578 5.05114 15.8857 4.29081 14.742 3.95361C13.5984 3.61642 12.3692 3.72771 11.3047 4.26484C11.264 4.28586 11.2284 4.31556 11.2005 4.35186C11.1725 4.38816 11.1529 4.43016 11.143 4.47488C11.1331 4.5196 11.1331 4.56596 11.1431 4.61067C11.1531 4.65538 11.1728 4.69734 11.2008 4.73359C11.9923 5.72094 12.4469 6.93581 12.498 8.20024C12.549 9.46467 12.1938 10.7122 11.4844 11.7602C11.4385 11.8286 11.4216 11.9125 11.4373 11.9934C11.4529 12.0743 11.4999 12.1457 11.568 12.1922C12.4929 12.8377 13.2847 13.6555 13.9 14.6008C14.1482 14.9808 14.2495 15.4382 14.1852 15.8875C14.1779 15.9322 14.1805 15.9779 14.1927 16.0215C14.2048 16.0651 14.2263 16.1056 14.2557 16.1401C14.285 16.1745 14.3215 16.2022 14.3626 16.2212C14.4038 16.2402 14.4485 16.25 14.4938 16.25H19.2047C19.3423 16.25 19.4761 16.2047 19.5853 16.1209C19.6945 16.0371 19.773 15.9197 19.8086 15.7867C19.8303 15.6993 19.8334 15.6083 19.8177 15.5196C19.8019 15.4309 19.7677 15.3465 19.7172 15.2719Z" fill="#2A292E"/>
</svg>
