<svg width="20" height="20" viewBox="0 0 20 20" fill="none" xmlns="http://www.w3.org/2000/svg">
<path d="M9.44146 2.22032L10.0665 0.970318C10.1406 0.822066 10.2707 0.709353 10.4279 0.656975C10.5852 0.604597 10.7569 0.616844 10.9051 0.691021C11.0534 0.765199 11.1661 0.895231 11.2185 1.05251C11.2709 1.20979 11.2586 1.38144 11.1844 1.52969L10.5594 2.77969C10.5227 2.8531 10.4719 2.91855 10.4098 2.97232C10.3478 3.02608 10.2758 3.0671 10.1979 3.09304C10.1201 3.11897 10.0378 3.12931 9.95596 3.12347C9.87408 3.11763 9.79416 3.09572 9.72075 3.05899C9.64735 3.02226 9.58189 2.97143 9.52813 2.90941C9.47437 2.84738 9.43335 2.77538 9.40741 2.6975C9.38148 2.61962 9.37113 2.5374 9.37698 2.45552C9.38282 2.37365 9.40473 2.29373 9.44146 2.22032ZM1.25005 8.12501H1.87505C2.04081 8.12501 2.19978 8.05916 2.31699 7.94195C2.4342 7.82474 2.50005 7.66577 2.50005 7.50001C2.50005 7.33425 2.4342 7.17527 2.31699 7.05806C2.19978 6.94085 2.04081 6.87501 1.87505 6.87501H1.25005C1.08429 6.87501 0.92532 6.94085 0.80811 7.05806C0.690899 7.17527 0.625051 7.33425 0.625051 7.50001C0.625051 7.66577 0.690899 7.82474 0.80811 7.94195C0.92532 8.05916 1.08429 8.12501 1.25005 8.12501ZM7.50005 2.50001C7.66581 2.50001 7.82478 2.43416 7.94199 2.31695C8.0592 2.19974 8.12505 2.04077 8.12505 1.87501V1.25001C8.12505 1.08425 8.0592 0.925274 7.94199 0.808064C7.82478 0.690854 7.66581 0.625006 7.50005 0.625006C7.33429 0.625006 7.17532 0.690854 7.05811 0.808064C6.9409 0.925274 6.87505 1.08425 6.87505 1.25001V1.87501C6.87505 2.04077 6.9409 2.19974 7.05811 2.31695C7.17532 2.43416 7.33429 2.50001 7.50005 2.50001ZM2.22036 9.44141L0.970364 10.0664C0.822112 10.1406 0.709399 10.2706 0.657021 10.4279C0.604643 10.5852 0.616889 10.7568 0.691067 10.9051C0.765245 11.0533 0.895277 11.166 1.05256 11.2184C1.20984 11.2708 1.38149 11.2586 1.52974 11.1844L2.77974 10.5594C2.85315 10.5227 2.9186 10.4718 2.97236 10.4098C3.02613 10.3478 3.06715 10.2758 3.09308 10.1979C3.11902 10.12 3.12936 10.0378 3.12352 9.95591C3.11768 9.87404 3.09576 9.79412 3.05904 9.72071C3.02231 9.6473 2.97148 9.58185 2.90945 9.52808C2.84743 9.47432 2.77542 9.4333 2.69754 9.40737C2.61967 9.38143 2.53744 9.37109 2.45557 9.37693C2.37369 9.38277 2.29377 9.40468 2.22036 9.44141ZM12.818 10.6836L16.7508 8.97422C16.9812 8.87206 17.1754 8.70262 17.3078 8.48816C17.4402 8.27369 17.5046 8.02421 17.4927 7.77245C17.4808 7.52069 17.3931 7.27842 17.241 7.07741C17.089 6.8764 16.8797 6.72606 16.6407 6.6461L4.13443 2.56251C3.91559 2.49088 3.68119 2.4813 3.45723 2.53481C3.23328 2.58833 3.02853 2.70285 2.86571 2.86566C2.70289 3.02848 2.58837 3.23323 2.53486 3.45719C2.48134 3.68114 2.49093 3.91554 2.56255 4.13438L6.64614 16.6406C6.72311 16.882 6.87237 17.0939 7.07373 17.2476C7.27509 17.4013 7.51882 17.4894 7.77193 17.5H7.83286C8.07563 17.5009 8.31329 17.4303 8.51624 17.2971C8.71919 17.1638 8.87848 16.9739 8.97427 16.7508L10.6836 12.818L15.0001 17.1336C15.1161 17.2497 15.2539 17.3418 15.4056 17.4046C15.5573 17.4675 15.7199 17.4998 15.884 17.4998C16.0482 17.4998 16.2108 17.4675 16.3625 17.4046C16.5141 17.3418 16.6519 17.2497 16.768 17.1336L17.1336 16.768C17.2497 16.6519 17.3418 16.5141 17.4047 16.3624C17.4675 16.2107 17.4999 16.0482 17.4999 15.884C17.4999 15.7198 17.4675 15.5572 17.4047 15.4056C17.3418 15.2539 17.2497 15.1161 17.1336 15L12.818 10.6836Z" fill="#2A292E"/>
</svg>
